# Blender v2.93.0 OBJ File: 'devshapes.blend'
# www.blender.org
mtllib Plate16_3x3.mtl
o Plate16_3x3_Cube.430
v -0.500000 -0.031250 0.500000
v -0.500000 0.031250 0.500000
v -0.500000 -0.031250 -0.500000
v -0.500000 0.031250 -0.500000
v 0.500000 -0.031250 0.500000
v 0.500000 0.031250 0.500000
v 0.500000 -0.031250 -0.500000
v 0.500000 0.031250 -0.500000
v 0.500000 -0.031250 0.500000
v 0.500000 0.031250 0.500000
v 0.500000 -0.031250 -0.500000
v 0.500000 0.031250 -0.500000
v 1.500000 -0.031250 0.500000
v 1.500000 0.031250 0.500000
v 1.500000 -0.031250 -0.500000
v 1.500000 0.031250 -0.500000
v 1.500000 -0.031250 0.500000
v 1.500000 0.031250 0.500000
v 1.500000 -0.031250 -0.500000
v 1.500000 0.031250 -0.500000
v 2.500000 -0.031250 0.500000
v 2.500000 0.031250 0.500000
v 2.500000 -0.031250 -0.500000
v 2.500000 0.031250 -0.500000
v -0.500000 -0.031250 -0.500000
v -0.500000 0.031250 -0.500000
v -0.500000 -0.031250 -1.500000
v -0.500000 0.031250 -1.500000
v 0.500000 -0.031250 -0.500000
v 0.500000 0.031250 -0.500000
v 0.500000 -0.031250 -1.500000
v 0.500000 0.031250 -1.500000
v 0.500000 -0.031250 -0.500000
v 0.500000 0.031250 -0.500000
v 0.500000 -0.031250 -1.500000
v 0.500000 0.031250 -1.500000
v 1.500000 -0.031250 -0.500000
v 1.500000 0.031250 -0.500000
v 1.500000 -0.031250 -1.500000
v 1.500000 0.031250 -1.500000
v 1.500000 -0.031250 -0.500000
v 1.500000 0.031250 -0.500000
v 1.500000 -0.031250 -1.500000
v 1.500000 0.031250 -1.500000
v 2.500000 -0.031250 -0.500000
v 2.500000 0.031250 -0.500000
v 2.500000 -0.031250 -1.500000
v 2.500000 0.031250 -1.500000
v -0.500000 -0.031250 -1.500000
v -0.500000 0.031250 -1.500000
v -0.500000 -0.031250 -2.500000
v -0.500000 0.031250 -2.500000
v 0.500000 -0.031250 -1.500000
v 0.500000 0.031250 -1.500000
v 0.500000 -0.031250 -2.500000
v 0.500000 0.031250 -2.500000
v 0.500000 -0.031250 -1.500000
v 0.500000 0.031250 -1.500000
v 0.500000 -0.031250 -2.500000
v 0.500000 0.031250 -2.500000
v 1.500000 -0.031250 -1.500000
v 1.500000 0.031250 -1.500000
v 1.500000 -0.031250 -2.500000
v 1.500000 0.031250 -2.500000
v 1.500000 -0.031250 -1.500000
v 1.500000 0.031250 -1.500000
v 1.500000 -0.031250 -2.500000
v 1.500000 0.031250 -2.500000
v 2.500000 -0.031250 -1.500000
v 2.500000 0.031250 -1.500000
v 2.500000 -0.031250 -2.500000
v 2.500000 0.031250 -2.500000
vt 0.000100 0.562497
vt 0.000100 0.531253
vt 0.999900 0.531253
vt 0.999900 0.562497
vt 0.999900 0.531253
vt 0.999900 0.562497
vt 0.000100 0.562497
vt 0.000100 0.531253
vt 0.000100 0.000050
vt 0.999900 0.000050
vt 0.999900 0.499950
vt 0.000100 0.499950
vt 0.999900 0.499950
vt 0.000100 0.499950
vt 0.000100 0.000050
vt 0.999900 0.000050
vt 0.999900 0.531253
vt 0.999900 0.562497
vt 0.000100 0.562497
vt 0.000100 0.531253
vt 0.000100 0.000050
vt 0.999900 0.000050
vt 0.999900 0.499950
vt 0.000100 0.499950
vt 0.999900 0.499950
vt 0.000100 0.499950
vt 0.000100 0.000050
vt 0.999900 0.000050
vt 0.999900 0.531253
vt 0.999900 0.562497
vt 0.000100 0.562497
vt 0.000100 0.531253
vt 0.999900 0.531253
vt 0.999900 0.562497
vt 0.000100 0.562497
vt 0.000100 0.531253
vt 0.000100 0.000050
vt 0.999900 0.000050
vt 0.999900 0.499950
vt 0.000100 0.499950
vt 0.999900 0.499950
vt 0.000100 0.499950
vt 0.000100 0.000050
vt 0.999900 0.000050
vt 0.000100 0.562497
vt 0.000100 0.531253
vt 0.999900 0.531253
vt 0.999900 0.562497
vt 0.000100 0.000050
vt 0.999900 0.000050
vt 0.999900 0.499950
vt 0.000100 0.499950
vt 0.999900 0.499950
vt 0.000100 0.499950
vt 0.000100 0.000050
vt 0.999900 0.000050
vt 0.000100 0.000050
vt 0.999900 0.000050
vt 0.999900 0.499950
vt 0.000100 0.499950
vt 0.999900 0.499950
vt 0.000100 0.499950
vt 0.000100 0.000050
vt 0.999900 0.000050
vt 0.999900 0.531253
vt 0.999900 0.562497
vt 0.000100 0.562497
vt 0.000100 0.531253
vt 0.000100 0.000050
vt 0.999900 0.000050
vt 0.999900 0.499950
vt 0.000100 0.499950
vt 0.999900 0.499950
vt 0.000100 0.499950
vt 0.000100 0.000050
vt 0.999900 0.000050
vt 0.000100 0.562497
vt 0.000100 0.531253
vt 0.999900 0.531253
vt 0.999900 0.562497
vt 0.999900 0.531253
vt 0.999900 0.562497
vt 0.000100 0.562497
vt 0.000100 0.531253
vt 0.000100 0.000050
vt 0.999900 0.000050
vt 0.999900 0.499950
vt 0.000100 0.499950
vt 0.999900 0.499950
vt 0.000100 0.499950
vt 0.000100 0.000050
vt 0.999900 0.000050
vt 0.999900 0.531253
vt 0.999900 0.562497
vt 0.000100 0.562497
vt 0.000100 0.531253
vt 0.000100 0.000050
vt 0.999900 0.000050
vt 0.999900 0.499950
vt 0.000100 0.499950
vt 0.999900 0.499950
vt 0.000100 0.499950
vt 0.000100 0.000050
vt 0.999900 0.000050
vt 0.999900 0.531253
vt 0.999900 0.562497
vt 0.000100 0.562497
vt 0.000100 0.531253
vt 0.999900 0.531253
vt 0.999900 0.562497
vt 0.000100 0.562497
vt 0.000100 0.531253
vt 0.000100 0.000050
vt 0.999900 0.000050
vt 0.999900 0.499950
vt 0.000100 0.499950
vt 0.999900 0.499950
vt 0.000100 0.499950
vt 0.000100 0.000050
vt 0.999900 0.000050
vn -1.0000 0.0000 0.0000
vn 0.0000 0.0000 1.0000
vn 0.0000 -1.0000 0.0000
vn 0.0000 1.0000 0.0000
vn 1.0000 0.0000 0.0000
vn 0.0000 0.0000 -1.0000
usemtl GridWithRect
s off
f 1/1/1 2/2/1 4/3/1 3/4/1
f 5/5/2 6/6/2 2/7/2 1/8/2
f 3/9/3 7/10/3 5/11/3 1/12/3
f 8/13/4 4/14/4 2/15/4 6/16/4
f 13/17/2 14/18/2 10/19/2 9/20/2
f 11/21/3 15/22/3 13/23/3 9/24/3
f 16/25/4 12/26/4 10/27/4 14/28/4
f 23/29/5 24/30/5 22/31/5 21/32/5
f 21/33/2 22/34/2 18/35/2 17/36/2
f 19/37/3 23/38/3 21/39/3 17/40/3
f 24/41/4 20/42/4 18/43/4 22/44/4
f 25/45/1 26/46/1 28/47/1 27/48/1
f 27/49/3 31/50/3 29/51/3 25/52/3
f 32/53/4 28/54/4 26/55/4 30/56/4
f 35/57/3 39/58/3 37/59/3 33/60/3
f 40/61/4 36/62/4 34/63/4 38/64/4
f 47/65/5 48/66/5 46/67/5 45/68/5
f 43/69/3 47/70/3 45/71/3 41/72/3
f 48/73/4 44/74/4 42/75/4 46/76/4
f 49/77/1 50/78/1 52/79/1 51/80/1
f 51/81/6 52/82/6 56/83/6 55/84/6
f 51/85/3 55/86/3 53/87/3 49/88/3
f 56/89/4 52/90/4 50/91/4 54/92/4
f 59/93/6 60/94/6 64/95/6 63/96/6
f 59/97/3 63/98/3 61/99/3 57/100/3
f 64/101/4 60/102/4 58/103/4 62/104/4
f 67/105/6 68/106/6 72/107/6 71/108/6
f 71/109/5 72/110/5 70/111/5 69/112/5
f 67/113/3 71/114/3 69/115/3 65/116/3
f 72/117/4 68/118/4 66/119/4 70/120/4
