# Blender v3.0.0 OBJ File: 'camera.blend'
# www.blender.org
o Camera_Cylinder
v 0.000000 0.030000 -0.000000
v -0.000000 0.030000 -0.010000
v -0.005853 0.029424 0.000000
v -0.005853 0.029424 -0.010000
v -0.011481 0.027716 0.000000
v -0.011481 0.027716 -0.010000
v -0.016667 0.024944 0.000000
v -0.016667 0.024944 -0.010000
v -0.021213 0.021213 0.000000
v -0.021213 0.021213 -0.010000
v -0.024944 0.016667 0.000000
v -0.024944 0.016667 -0.010000
v -0.027716 0.011481 0.000000
v -0.027716 0.011481 -0.010000
v -0.029424 0.005853 0.000000
v -0.029424 0.005853 -0.010000
v -0.030000 -0.000000 0.000000
v -0.030000 -0.000000 -0.010000
v -0.029424 -0.005853 0.000000
v -0.029424 -0.005853 -0.010000
v -0.027716 -0.011481 0.000000
v -0.027716 -0.011481 -0.010000
v -0.024944 -0.016667 0.000000
v -0.024944 -0.016667 -0.010000
v -0.021213 -0.021213 0.000000
v -0.021213 -0.021213 -0.010000
v -0.016667 -0.024944 0.000000
v -0.016667 -0.024944 -0.010000
v -0.011481 -0.027716 0.000000
v -0.011481 -0.027716 -0.010000
v -0.005853 -0.029424 0.000000
v -0.005853 -0.029424 -0.010000
v 0.000000 -0.030000 0.000000
v 0.000000 -0.030000 -0.010000
v 0.005853 -0.029424 -0.000000
v 0.005853 -0.029424 -0.010000
v 0.011481 -0.027716 -0.000000
v 0.011481 -0.027716 -0.010000
v 0.016667 -0.024944 -0.000000
v 0.016667 -0.024944 -0.010000
v 0.021213 -0.021213 -0.000000
v 0.021213 -0.021213 -0.010000
v 0.024944 -0.016667 -0.000000
v 0.024944 -0.016667 -0.010000
v 0.027716 -0.011481 -0.000000
v 0.027716 -0.011481 -0.010000
v 0.029424 -0.005853 -0.000000
v 0.029424 -0.005853 -0.010000
v 0.030000 0.000000 -0.000000
v 0.030000 0.000000 -0.010000
v 0.029424 0.005853 -0.000000
v 0.029424 0.005853 -0.010000
v 0.027716 0.011481 -0.000000
v 0.027716 0.011481 -0.010000
v 0.024944 0.016667 -0.000000
v 0.024944 0.016667 -0.010000
v 0.021213 0.021213 -0.000000
v 0.021213 0.021213 -0.010000
v 0.016667 0.024944 -0.000000
v 0.016667 0.024944 -0.010000
v 0.011481 0.027716 -0.000000
v 0.011481 0.027716 -0.010000
v 0.005853 0.029424 -0.000000
v 0.005853 0.029424 -0.010000
v -0.004880 0.024534 -0.006033
v -0.000000 0.025014 -0.006033
v -0.009573 0.023110 -0.006033
v -0.013897 0.020799 -0.006033
v -0.017688 0.017688 -0.006033
v -0.020799 0.013897 -0.006033
v -0.023110 0.009573 -0.006033
v -0.024534 0.004880 -0.006033
v -0.025014 -0.000000 -0.006033
v -0.024534 -0.004880 -0.006033
v -0.023110 -0.009573 -0.006033
v -0.020799 -0.013897 -0.006033
v -0.017688 -0.017688 -0.006033
v -0.013897 -0.020799 -0.006033
v -0.009573 -0.023110 -0.006033
v -0.004880 -0.024534 -0.006033
v 0.000000 -0.025014 -0.006033
v 0.004880 -0.024534 -0.006033
v 0.009573 -0.023110 -0.006033
v 0.013897 -0.020799 -0.006033
v 0.017688 -0.017688 -0.006033
v 0.020799 -0.013897 -0.006033
v 0.023110 -0.009573 -0.006033
v 0.024534 -0.004880 -0.006033
v 0.025014 0.000000 -0.006033
v 0.024534 0.004880 -0.006033
v 0.023110 0.009573 -0.006033
v 0.020799 0.013897 -0.006033
v 0.017688 0.017688 -0.006033
v 0.013897 0.020799 -0.006033
v 0.009573 0.023110 -0.006033
v 0.004880 0.024534 -0.006033
v 0.025000 0.100000 0.008538
v -0.025000 0.100000 0.008538
v 0.025000 0.127905 -0.001627
v -0.025000 0.127905 -0.001627
v 0.025000 0.148540 -0.007886
v -0.025000 0.148540 -0.007886
v 0.025000 0.170000 -0.010000
v -0.025000 0.170000 -0.010000
v 0.025000 0.191460 -0.007886
v -0.025000 0.191460 -0.007886
v 0.025000 0.212095 -0.001627
v -0.025000 0.212095 -0.001627
v 0.025000 0.231113 0.008538
v -0.025000 0.231113 0.008538
v 0.025000 0.247782 0.022218
v -0.025000 0.247782 0.022218
v 0.025000 0.261462 0.038887
v -0.025000 0.261462 0.038887
v 0.025000 0.271627 0.057905
v -0.025000 0.271627 0.057905
v 0.025000 0.277886 0.078540
v -0.025000 0.277886 0.078540
v 0.025000 0.280000 0.100000
v -0.025000 0.280000 0.100000
v 0.025000 0.277886 0.121460
v -0.025000 0.277886 0.121460
v 0.025000 0.271627 0.142095
v -0.025000 0.271627 0.142095
v 0.025000 0.261462 0.161113
v -0.025000 0.261462 0.161113
v 0.025000 0.247782 0.177782
v -0.025000 0.247782 0.177782
v 0.025000 0.231113 0.191462
v -0.025000 0.231113 0.191462
v 0.025000 0.170000 0.402638
v -0.025000 0.170000 0.402638
v 0.025000 0.148540 0.400524
v -0.025000 0.148540 0.400524
v 0.025000 0.127905 0.394265
v -0.025000 0.127905 0.394265
v 0.025000 0.100000 0.384100
v -0.025000 0.100000 0.384100
v 0.025000 0.231113 0.201176
v -0.025000 0.231113 0.201176
v 0.025000 0.247782 0.214856
v -0.025000 0.247782 0.214856
v 0.025000 0.261462 0.231525
v -0.025000 0.261462 0.231525
v 0.025000 0.271627 0.250543
v -0.025000 0.271627 0.250543
v 0.025000 0.277886 0.271178
v -0.025000 0.277886 0.271178
v 0.025000 0.280000 0.292638
v -0.025000 0.280000 0.292638
v 0.025000 0.277886 0.314098
v -0.025000 0.277886 0.314098
v 0.025000 0.271627 0.334733
v -0.025000 0.271627 0.334733
v 0.025000 0.261462 0.353751
v -0.025000 0.261462 0.353751
v 0.025000 0.247782 0.370420
v -0.025000 0.247782 0.370420
v 0.025000 0.231113 0.384100
v -0.025000 0.231113 0.384100
v 0.025000 0.212095 0.394265
v -0.025000 0.212095 0.394265
v 0.025000 0.191460 0.400524
v -0.025000 0.191460 0.400524
v 0.040452 -0.100000 0.009548
v 0.050000 -0.090452 -0.000000
v 0.040452 -0.100000 0.390452
v 0.050000 -0.090452 0.400000
v -0.040452 -0.100000 0.009548
v -0.050000 -0.090452 -0.000000
v -0.040452 -0.100000 0.390452
v -0.050000 -0.090452 0.400000
v 0.039006 0.100000 -0.000000
v 0.050000 0.089006 -0.000000
v 0.050000 0.089006 0.400000
v 0.039006 0.100000 0.400000
v -0.050000 0.089006 -0.000000
v -0.039006 0.100000 -0.000000
v -0.039006 0.100000 0.400000
v -0.050000 0.089006 0.400000
vt 0.269531 0.609375
vt 0.488281 0.125000
vt 0.488281 0.609375
vt 0.015625 0.609375
vt 0.234375 0.125000
vt 0.234375 0.609375
vt 0.269531 0.003906
vt 0.488281 0.003906
vt 0.269531 0.125000
vt 0.015625 0.003906
vt 0.234375 0.003906
vt 0.015625 0.125000
vt 0.110409 0.635700
vt 0.177391 0.717240
vt 0.095665 0.784103
vt 0.760589 0.956980
vt 0.620996 0.914635
vt 0.620996 0.496803
vt 0.856742 0.937854
vt 0.809608 0.952152
vt 0.711570 0.952152
vt 0.664436 0.937854
vt 0.760588 0.014436
vt 0.809607 0.019264
vt 0.856742 0.033562
vt 0.582920 0.883387
vt 0.514156 0.754737
vt 0.514155 0.314717
vt 0.509327 0.265699
vt 0.514155 0.216680
vt 0.920482 0.914635
vt 0.528454 0.801872
vt 0.582921 0.528051
vt 0.514156 0.656700
vt 0.582921 0.443368
vt 0.551673 0.405292
vt 0.528453 0.361852
vt 0.528454 0.609565
vt 0.920482 0.056781
vt 0.551673 0.566126
vt 0.528453 0.169545
vt 0.551671 0.126105
vt 0.582920 0.088029
vt 0.620996 0.474615
vt 0.509328 0.705719
vt 0.551673 0.845312
vt 0.620995 0.056782
vt 0.664435 0.033562
vt 0.711570 0.019264
vt 0.809597 0.019264
vt 0.856732 0.033562
vt 0.760578 0.014436
vt 0.620984 0.056782
vt 0.711559 0.019264
vt 0.664424 0.033562
vt 0.551663 0.845312
vt 0.514145 0.754737
vt 0.582910 0.883387
vt 0.920472 0.056781
vt 0.620985 0.474615
vt 0.582910 0.443367
vt 0.711560 0.952152
vt 0.620985 0.914635
vt 0.620985 0.496803
vt 0.514145 0.656700
vt 0.528443 0.609566
vt 0.856732 0.937854
vt 0.809597 0.952152
vt 0.551661 0.126104
vt 0.582909 0.088029
vt 0.528442 0.169545
vt 0.514144 0.216680
vt 0.551662 0.405292
vt 0.528443 0.361852
vt 0.920472 0.914635
vt 0.514144 0.314717
vt 0.664424 0.937854
vt 0.509317 0.705719
vt 0.582910 0.528050
vt 0.528443 0.801872
vt 0.551663 0.566126
vt 0.760578 0.956980
vt 0.509316 0.265699
vt 0.503906 0.597656
vt 0.503906 0.136719
vt 0.503906 0.113281
vt 0.503906 0.015625
vt 0.250000 0.597656
vt 0.250000 0.136719
vt 0.250000 0.113281
vt 0.250000 0.015625
vt 0.000000 0.808594
vt 0.460938 0.906250
vt 0.000000 0.906250
vt 0.250000 0.125000
vt 0.250000 0.609375
vt -0.000000 0.125000
vt -0.000000 0.609375
vt 0.484375 1.000000
vt 0.000000 0.906250
vt 0.484375 0.906250
vt 0.257812 0.109375
vt 0.257812 0.015625
vt 0.003906 0.109375
vt 0.003906 0.015625
vt 0.124804 0.638505
vt 0.160869 0.662512
vt 0.138343 0.644066
vt 0.150520 0.652172
vt 0.168998 0.674681
vt 0.174580 0.688211
vt 0.177424 0.702584
vt 0.174566 0.731615
vt 0.168979 0.745143
vt 0.160847 0.757310
vt 0.150483 0.767649
vt 0.138292 0.775762
vt 0.124741 0.781325
vt 0.110347 0.784154
vt 0.081264 0.781314
vt 0.067715 0.775763
vt 0.055529 0.767672
vt 0.045168 0.757345
vt 0.037026 0.745188
vt 0.031429 0.731668
vt 0.028575 0.717306
vt 0.028596 0.702660
vt 0.031449 0.688294
vt 0.037064 0.674773
vt 0.045227 0.662612
vt 0.055627 0.652276
vt 0.067816 0.644114
vt 0.081359 0.638509
vt 0.095739 0.635665
vt 0.460938 0.808594
vt 0.000000 1.000000
vt 0.207031 0.769531
vt 0.222656 0.796875
vt 0.207031 0.796875
vt 0.222656 0.769531
vt 0.242188 0.796875
vt 0.242188 0.769531
vt 0.257812 0.796875
vt 0.257812 0.769531
vt 0.277344 0.796875
vt 0.277344 0.769531
vt 0.296875 0.796875
vt 0.296875 0.769531
vt 0.312500 0.796875
vt 0.312500 0.769531
vt 0.332031 0.796875
vt 0.332031 0.769531
vt 0.347656 0.796875
vt 0.347656 0.769531
vt 0.367188 0.796875
vt 0.367188 0.769531
vt 0.382812 0.796875
vt 0.382812 0.769531
vt 0.402344 0.796875
vt 0.402344 0.769531
vt 0.417969 0.796875
vt 0.417969 0.769531
vt 0.437500 0.796875
vt 0.437500 0.769531
vt 0.457031 0.796875
vt 0.457031 0.769531
vt 0.472656 0.796875
vt 0.472656 0.769531
vt 0.492188 0.796875
vt 0.207031 0.738281
vt 0.222656 0.769531
vt 0.207031 0.769531
vt 0.222656 0.738281
vt 0.242188 0.769531
vt 0.242188 0.738281
vt 0.257812 0.769531
vt 0.257812 0.738281
vt 0.277344 0.769531
vt 0.277344 0.738281
vt 0.296875 0.769531
vt 0.296875 0.738281
vt 0.312500 0.769531
vt 0.312500 0.738281
vt 0.332031 0.769531
vt 0.332031 0.738281
vt 0.347656 0.769531
vt 0.347656 0.738281
vt 0.367188 0.769531
vt 0.367188 0.738281
vt 0.382812 0.769531
vt 0.382812 0.738281
vt 0.402344 0.769531
vt 0.402344 0.738281
vt 0.417969 0.769531
vt 0.417969 0.738281
vt 0.437500 0.769531
vt 0.437500 0.738281
vt 0.457031 0.769531
vt 0.093735 0.616267
vt 0.457031 0.738281
vt 0.472656 0.769531
vt 0.472656 0.738281
vt 0.492188 0.769531
vt 0.012814 0.737427
vt 0.130460 0.799972
vt 0.147542 0.792921
vt 0.186130 0.665408
vt 0.175852 0.650065
vt 0.019836 0.665661
vt 0.058686 0.793012
vt 0.075765 0.800000
vt 0.193241 0.737151
vt 0.196810 0.719050
vt 0.075606 0.619878
vt 0.019907 0.754478
vt 0.162911 0.782662
vt 0.162769 0.637035
vt 0.012774 0.682731
vt 0.093861 0.803544
vt 0.196810 0.700585
vt 0.058534 0.626966
vt 0.030202 0.769807
vt 0.175971 0.769592
vt 0.147389 0.626824
vt 0.130314 0.619821
vt 0.009185 0.700845
vt 0.112330 0.803556
vt 0.193205 0.682469
vt 0.043181 0.637241
vt 0.043298 0.782820
vt 0.186211 0.754221
vt 0.112209 0.616266
vt 0.009193 0.719316
vt 0.030106 0.650300
vt 0.929688 1.000000
vt 1.000000 0.957031
vt 1.000000 1.000000
vt 0.929688 0.929688
vt 1.000000 0.929688
vt 1.000000 0.898438
vt 0.929688 0.898438
vt 1.000000 0.867188
vt 0.929688 0.867188
vt 1.000000 0.839844
vt 0.929688 0.839844
vt 1.000000 0.808594
vt 0.929688 0.808594
vt 1.000000 0.777344
vt 0.929688 0.777344
vt 1.000000 0.746094
vt 0.929688 0.746094
vt 1.000000 0.718750
vt 0.929688 0.718750
vt 1.000000 0.687500
vt 0.929688 0.687500
vt 1.000000 0.656250
vt 0.929688 0.656250
vt 1.000000 0.628906
vt 0.929688 0.628906
vt 1.000000 0.597656
vt 0.929688 0.597656
vt 1.000000 0.566406
vt 0.929688 0.566406
vt 1.000000 0.535156
vt 0.929688 0.507812
vt 1.000000 0.507812
vt 0.929688 0.101562
vt 1.000000 0.070312
vt 1.000000 0.101562
vt 0.929688 0.070312
vt 1.000000 0.042969
vt 0.929688 0.042969
vt 1.000000 0.000000
vt 0.929688 0.492188
vt 1.000000 0.464844
vt 1.000000 0.492188
vt 0.929688 0.464844
vt 1.000000 0.433594
vt 0.929688 0.433594
vt 1.000000 0.402344
vt 0.929688 0.402344
vt 1.000000 0.371094
vt 0.929688 0.371094
vt 1.000000 0.343750
vt 0.929688 0.343750
vt 1.000000 0.312500
vt 0.929688 0.312500
vt 1.000000 0.281250
vt 0.929688 0.281250
vt 1.000000 0.253906
vt 0.929688 0.253906
vt 1.000000 0.222656
vt 0.929688 0.222656
vt 1.000000 0.191406
vt 0.929688 0.191406
vt 1.000000 0.160156
vt 0.929688 0.160156
vt 1.000000 0.132812
vt 0.492188 0.769531
vt 0.492188 0.738281
vt 0.929688 0.957031
vt 0.929688 0.535156
vt 0.929688 0.000000
vt 0.929688 0.132812
vn 1.0000 0.0000 -0.0000
vn -1.0000 0.0000 0.0000
vn 0.0000 0.0000 1.0000
vn -0.0000 -0.0000 -1.0000
vn 0.7071 -0.7071 -0.0000
vn 0.0000 -0.7071 0.7071
vn -0.7071 -0.7071 0.0000
vn -0.0000 -0.7071 -0.7071
vn 0.0000 -1.0000 -0.0000
vn 0.7071 0.7071 -0.0000
vn -0.7071 0.7071 0.0000
vn 0.0000 1.0000 0.0000
vn -0.1951 0.9808 0.0000
vn -0.3827 0.9239 0.0000
vn -0.5556 0.8315 0.0000
vn -0.8315 0.5556 0.0000
vn -0.9239 0.3827 0.0000
vn -0.9808 0.1951 0.0000
vn -0.9808 -0.1951 0.0000
vn -0.9239 -0.3827 0.0000
vn -0.8315 -0.5556 0.0000
vn -0.5556 -0.8315 0.0000
vn -0.3827 -0.9239 0.0000
vn -0.1951 -0.9808 0.0000
vn 0.1951 -0.9808 -0.0000
vn 0.3827 -0.9239 -0.0000
vn 0.5556 -0.8315 -0.0000
vn 0.8315 -0.5556 -0.0000
vn 0.9239 -0.3827 -0.0000
vn 0.9808 -0.1951 -0.0000
vn 0.9808 0.1951 -0.0000
vn 0.9239 0.3827 -0.0000
vn 0.8315 0.5556 -0.0000
vn 0.5556 0.8315 -0.0000
vn 0.3827 0.9239 -0.0000
vn 0.3459 -0.5177 -0.7825
vn 0.2383 -0.5752 -0.7825
vn 0.1951 0.9808 0.0000
vn 0.4403 0.4403 -0.7825
vn 0.5177 0.3459 -0.7825
vn -0.4403 0.4403 -0.7825
vn -0.5177 0.3459 -0.7825
vn -0.3459 -0.5177 -0.7825
vn -0.2383 -0.5752 -0.7825
vn 0.6226 -0.0000 -0.7825
vn 0.6107 -0.1215 -0.7825
vn -0.0000 0.6226 -0.7825
vn -0.1215 0.6107 -0.7825
vn -0.6107 -0.1215 -0.7825
vn -0.5752 -0.2383 -0.7825
vn 0.4403 -0.4403 -0.7825
vn 0.3459 0.5177 -0.7825
vn -0.5752 0.2383 -0.7825
vn -0.1215 -0.6107 -0.7825
vn 0.6107 0.1215 -0.7825
vn -0.2383 0.5752 -0.7825
vn -0.5177 -0.3459 -0.7825
vn 0.5177 -0.3459 -0.7825
vn 0.2383 0.5752 -0.7825
vn -0.6107 0.1215 -0.7825
vn -0.0000 -0.6226 -0.7825
vn 0.1215 -0.6107 -0.7825
vn 0.5752 0.2383 -0.7825
vn -0.3459 0.5177 -0.7825
vn -0.4403 -0.4403 -0.7825
vn 0.5752 -0.2383 -0.7825
vn 0.1215 0.6107 -0.7825
vn -0.6226 -0.0000 -0.7825
vn -0.0000 -0.3423 -0.9396
vn -0.0000 -0.3164 -0.9486
vn -0.0000 -0.1951 -0.9808
vn -0.0000 0.1951 -0.9808
vn -0.0000 0.3827 -0.9239
vn -0.0000 0.5556 -0.8315
vn -0.0000 0.7071 -0.7071
vn -0.0000 0.8315 -0.5556
vn -0.0000 0.9239 -0.3827
vn -0.0000 0.9808 -0.1951
vn 0.0000 0.9808 0.1951
vn 0.0000 0.9239 0.3827
vn 0.0000 0.8315 0.5556
vn 0.0000 0.7071 0.7071
vn 0.0000 0.9040 0.4276
vn 0.0000 -0.1951 0.9808
vn 0.0000 -0.3164 0.9486
vn 0.0000 -0.3423 0.9396
vn -0.0000 0.9040 -0.4276
vn 0.0000 0.5556 0.8315
vn 0.0000 0.3827 0.9239
vn 0.0000 0.1951 0.9808
s off
f 174/1/1 168/2/1 166/3/1
f 180/4/2 170/5/2 172/6/2
f 180/7/3 172/8/3 175/9/3
f 174/10/4 166/11/4 177/12/4
f 67/13/4 91/14/4 83/15/4
f 132/16/2 160/17/2 140/18/2
f 136/19/2 134/20/2 132/16/2
f 164/21/2 162/22/2 160/17/2
f 104/23/2 102/24/2 100/25/2
f 158/26/2 152/27/2 160/17/2
f 122/28/2 120/29/2 118/30/2
f 138/31/2 136/19/2 140/18/2
f 158/26/2 154/32/2 152/27/2
f 152/27/2 140/18/2 160/17/2
f 142/33/2 140/18/2 148/34/2
f 128/35/2 126/36/2 124/37/2
f 140/18/2 152/27/2 148/34/2
f 146/38/2 142/33/2 148/34/2
f 140/18/2 98/39/2 138/31/2
f 144/40/2 142/33/2 146/38/2
f 116/41/2 114/42/2 112/43/2
f 130/44/2 98/39/2 140/18/2
f 128/35/2 122/28/2 130/44/2
f 128/35/2 124/37/2 122/28/2
f 122/28/2 100/25/2 130/44/2
f 112/43/2 100/25/2 122/28/2
f 152/27/2 150/45/2 148/34/2
f 118/30/2 112/43/2 122/28/2
f 116/41/2 112/43/2 118/30/2
f 132/16/2 164/21/2 160/17/2
f 158/26/2 156/46/2 154/32/2
f 110/47/2 100/25/2 112/43/2
f 108/48/2 100/25/2 110/47/2
f 136/19/2 132/16/2 140/18/2
f 106/49/2 104/23/2 108/48/2
f 104/23/2 100/25/2 108/48/2
f 100/25/2 98/39/2 130/44/2
f 133/50/1 135/51/1 131/52/1
f 131/52/1 135/51/1 159/53/1
f 163/54/1 131/52/1 159/53/1
f 161/55/1 163/54/1 159/53/1
f 113/56/1 117/57/1 111/58/1
f 135/51/1 137/59/1 139/60/1
f 141/61/1 159/53/1 135/51/1
f 111/58/1 105/62/1 109/63/1
f 129/64/1 121/65/1 123/66/1
f 99/67/1 101/68/1 111/58/1
f 155/69/1 157/70/1 153/71/1
f 157/70/1 159/53/1 153/71/1
f 159/53/1 151/72/1 153/71/1
f 141/61/1 143/73/1 145/74/1
f 137/59/1 97/75/1 129/64/1
f 141/61/1 145/74/1 147/76/1
f 139/60/1 137/59/1 129/64/1
f 97/75/1 99/67/1 129/64/1
f 99/67/1 111/58/1 121/65/1
f 99/67/1 121/65/1 129/64/1
f 141/61/1 147/76/1 151/72/1
f 111/58/1 117/57/1 121/65/1
f 105/62/1 107/77/1 109/63/1
f 159/53/1 141/61/1 151/72/1
f 119/78/1 121/65/1 117/57/1
f 129/64/1 123/66/1 127/79/1
f 115/80/1 117/57/1 113/56/1
f 139/60/1 141/61/1 135/51/1
f 111/58/1 101/68/1 105/62/1
f 123/66/1 125/81/1 127/79/1
f 103/82/1 105/62/1 101/68/1
f 149/83/1 151/72/1 147/76/1
f 165/84/5 168/2/5 167/85/5
f 167/86/6 172/8/6 171/87/6
f 171/88/7 170/5/7 169/89/7
f 169/90/8 166/11/8 165/91/8
f 171/92/9 165/93/9 167/94/9
f 176/95/10 174/1/10 173/96/10
f 178/97/11 180/4/11 179/98/11
f 176/99/12 178/100/12 179/101/12
f 174/1/1 175/9/1 168/2/1
f 180/4/2 177/12/2 170/5/2
f 172/8/3 168/2/3 175/9/3
f 175/9/3 176/102/3 179/103/3
f 179/103/3 180/7/3 175/9/3
f 166/11/4 170/5/4 177/12/4
f 177/12/4 178/104/4 173/105/4
f 173/105/4 174/10/4 177/12/4
f 67/13/4 65/106/4 95/107/4
f 65/106/4 66/108/4 95/107/4
f 66/108/4 96/109/4 95/107/4
f 95/107/4 94/110/4 93/111/4
f 93/111/4 92/112/4 91/14/4
f 91/14/4 90/113/4 89/114/4
f 89/114/4 88/115/4 91/14/4
f 88/115/4 87/116/4 91/14/4
f 87/116/4 86/117/4 85/118/4
f 85/118/4 84/119/4 83/15/4
f 83/15/4 82/120/4 81/121/4
f 81/121/4 80/122/4 79/123/4
f 79/123/4 78/124/4 77/125/4
f 77/125/4 76/126/4 75/127/4
f 75/127/4 74/128/4 73/129/4
f 73/129/4 72/130/4 75/127/4
f 72/130/4 71/131/4 75/127/4
f 71/131/4 70/132/4 69/133/4
f 69/133/4 68/134/4 67/13/4
f 95/107/4 93/111/4 67/13/4
f 93/111/4 91/14/4 67/13/4
f 87/116/4 85/118/4 91/14/4
f 85/118/4 83/15/4 91/14/4
f 83/15/4 81/121/4 79/123/4
f 79/123/4 77/125/4 83/15/4
f 77/125/4 75/127/4 83/15/4
f 71/131/4 69/133/4 67/13/4
f 75/127/4 71/131/4 83/15/4
f 71/131/4 67/13/4 83/15/4
f 165/84/5 166/3/5 168/2/5
f 167/86/6 168/2/6 172/8/6
f 171/88/7 172/6/7 170/5/7
f 169/90/8 170/5/8 166/11/8
f 171/92/9 169/135/9 165/93/9
f 176/95/10 175/9/10 174/1/10
f 178/97/11 177/12/11 180/4/11
f 176/99/12 173/136/12 178/100/12
s 1
f 2/137/12 3/138/13 1/139/12
f 4/140/13 5/141/14 3/138/13
f 6/142/14 7/143/15 5/141/14
f 8/144/15 9/145/11 7/143/15
f 10/146/11 11/147/16 9/145/11
f 12/148/16 13/149/17 11/147/16
f 14/150/17 15/151/18 13/149/17
f 16/152/18 17/153/2 15/151/18
f 18/154/2 19/155/19 17/153/2
f 20/156/19 21/157/20 19/155/19
f 22/158/20 23/159/21 21/157/20
f 24/160/21 25/161/7 23/159/21
f 26/162/7 27/163/22 25/161/7
f 28/164/22 29/165/23 27/163/22
f 30/166/23 31/167/24 29/165/23
f 32/168/24 33/169/9 31/167/24
f 34/170/9 35/171/25 33/172/9
f 36/173/25 37/174/26 35/171/25
f 38/175/26 39/176/27 37/174/26
f 40/177/27 41/178/5 39/176/27
f 42/179/5 43/180/28 41/178/5
f 44/181/28 45/182/29 43/180/28
f 46/183/29 47/184/30 45/182/29
f 48/185/30 49/186/1 47/184/30
f 50/187/1 51/188/31 49/186/1
f 52/189/31 53/190/32 51/188/31
f 54/191/32 55/192/33 53/190/32
f 56/193/33 57/194/10 55/192/33
f 58/195/10 59/196/34 57/194/10
f 60/197/34 61/198/35 59/196/34
f 8/199/36 67/13/37 68/134/36
f 62/200/35 63/201/38 61/198/35
f 64/202/38 1/203/12 63/201/38
f 26/204/39 76/126/40 77/125/39
f 42/205/41 86/117/42 44/206/42
f 60/207/43 95/107/44 62/208/44
f 18/209/45 72/130/46 73/129/45
f 34/210/47 82/120/48 36/211/48
f 52/212/49 91/14/50 54/213/50
f 8/199/36 69/133/51 10/214/51
f 26/204/39 78/124/52 28/215/52
f 44/206/42 87/116/53 46/216/53
f 62/208/44 96/109/54 64/217/54
f 20/218/55 73/129/45 74/128/55
f 36/211/48 83/15/56 38/219/56
f 56/220/57 91/14/50 92/112/57
f 10/214/51 70/132/58 12/221/58
f 28/215/52 79/123/59 30/222/59
f 48/223/60 87/116/53 88/115/60
f 2/224/61 65/106/62 4/225/62
f 2/224/61 96/109/54 66/108/61
f 20/218/55 75/127/63 22/226/63
f 38/219/56 84/119/64 40/227/64
f 56/220/57 93/111/65 58/228/65
f 12/221/58 71/131/66 14/229/66
f 30/222/59 80/122/67 32/230/67
f 48/223/60 89/114/68 50/231/68
f 4/225/62 67/13/37 6/232/37
f 22/226/63 76/126/40 24/233/40
f 40/227/64 85/118/41 42/205/41
f 58/228/65 94/110/43 60/207/43
f 14/229/66 72/130/46 16/234/46
f 34/210/47 80/122/67 81/121/47
f 50/231/68 90/113/49 52/212/49
f 98/235/69 99/236/70 97/237/69
f 99/236/70 102/238/71 101/239/71
f 102/238/71 103/240/4 101/239/71
f 104/241/4 105/242/72 103/240/4
f 106/243/72 107/244/73 105/242/72
f 108/245/73 109/246/74 107/244/73
f 110/247/74 111/248/75 109/246/74
f 112/249/75 113/250/76 111/248/75
f 114/251/76 115/252/77 113/250/76
f 116/253/77 117/254/78 115/252/77
f 118/255/78 119/256/12 117/254/78
f 120/257/12 121/258/79 119/256/12
f 122/259/79 123/260/80 121/258/79
f 124/261/80 125/262/81 123/260/80
f 126/263/81 127/264/82 125/262/81
f 127/264/82 130/265/83 129/266/83
f 132/267/3 133/268/84 131/269/3
f 134/270/84 135/271/85 133/268/84
f 136/272/85 137/273/86 135/271/85
f 140/274/87 141/275/75 139/276/87
f 142/277/75 143/278/76 141/275/75
f 144/279/76 145/280/77 143/278/76
f 146/281/77 147/282/78 145/280/77
f 148/283/78 149/284/12 147/282/78
f 150/285/12 151/286/79 149/284/12
f 152/287/79 153/288/80 151/286/79
f 154/289/80 155/290/81 153/288/80
f 156/291/81 157/292/82 155/290/81
f 158/293/82 159/294/88 157/292/82
f 160/295/88 161/296/89 159/294/88
f 162/297/89 163/298/90 161/296/89
f 163/298/90 132/267/3 131/269/3
f 139/276/87 130/265/83 140/274/87
f 2/137/12 4/140/13 3/138/13
f 4/140/13 6/142/14 5/141/14
f 6/142/14 8/144/15 7/143/15
f 8/144/15 10/146/11 9/145/11
f 10/146/11 12/148/16 11/147/16
f 12/148/16 14/150/17 13/149/17
f 14/150/17 16/152/18 15/151/18
f 16/152/18 18/154/2 17/153/2
f 18/154/2 20/156/19 19/155/19
f 20/156/19 22/158/20 21/157/20
f 22/158/20 24/160/21 23/159/21
f 24/160/21 26/162/7 25/161/7
f 26/162/7 28/164/22 27/163/22
f 28/164/22 30/166/23 29/165/23
f 30/166/23 32/168/24 31/167/24
f 32/168/24 34/299/9 33/169/9
f 34/170/9 36/173/25 35/171/25
f 36/173/25 38/175/26 37/174/26
f 38/175/26 40/177/27 39/176/27
f 40/177/27 42/179/5 41/178/5
f 42/179/5 44/181/28 43/180/28
f 44/181/28 46/183/29 45/182/29
f 46/183/29 48/185/30 47/184/30
f 48/185/30 50/187/1 49/186/1
f 50/187/1 52/189/31 51/188/31
f 52/189/31 54/191/32 53/190/32
f 54/191/32 56/193/33 55/192/33
f 56/193/33 58/195/10 57/194/10
f 58/195/10 60/197/34 59/196/34
f 60/197/34 62/200/35 61/198/35
f 8/199/36 6/232/37 67/13/37
f 62/200/35 64/202/38 63/201/38
f 64/202/38 2/300/12 1/203/12
f 26/204/39 24/233/40 76/126/40
f 42/205/41 85/118/41 86/117/42
f 60/207/43 94/110/43 95/107/44
f 18/209/45 16/234/46 72/130/46
f 34/210/47 81/121/47 82/120/48
f 52/212/49 90/113/49 91/14/50
f 8/199/36 68/134/36 69/133/51
f 26/204/39 77/125/39 78/124/52
f 44/206/42 86/117/42 87/116/53
f 62/208/44 95/107/44 96/109/54
f 20/218/55 18/209/45 73/129/45
f 36/211/48 82/120/48 83/15/56
f 56/220/57 54/213/50 91/14/50
f 10/214/51 69/133/51 70/132/58
f 28/215/52 78/124/52 79/123/59
f 48/223/60 46/216/53 87/116/53
f 2/224/61 66/108/61 65/106/62
f 2/224/61 64/217/54 96/109/54
f 20/218/55 74/128/55 75/127/63
f 38/219/56 83/15/56 84/119/64
f 56/220/57 92/112/57 93/111/65
f 12/221/58 70/132/58 71/131/66
f 30/222/59 79/123/59 80/122/67
f 48/223/60 88/115/60 89/114/68
f 4/225/62 65/106/62 67/13/37
f 22/226/63 75/127/63 76/126/40
f 40/227/64 84/119/64 85/118/41
f 58/228/65 93/111/65 94/110/43
f 14/229/66 71/131/66 72/130/46
f 34/210/47 32/230/67 80/122/67
f 50/231/68 89/114/68 90/113/49
f 98/235/69 100/301/70 99/236/70
f 99/236/70 100/301/70 102/238/71
f 102/238/71 104/241/4 103/240/4
f 104/241/4 106/243/72 105/242/72
f 106/243/72 108/245/73 107/244/73
f 108/245/73 110/247/74 109/246/74
f 110/247/74 112/249/75 111/248/75
f 112/249/75 114/251/76 113/250/76
f 114/251/76 116/253/77 115/252/77
f 116/253/77 118/255/78 117/254/78
f 118/255/78 120/257/12 119/256/12
f 120/257/12 122/259/79 121/258/79
f 122/259/79 124/261/80 123/260/80
f 124/261/80 126/263/81 125/262/81
f 126/263/81 128/302/82 127/264/82
f 127/264/82 128/302/82 130/265/83
f 132/267/3 134/270/84 133/268/84
f 134/270/84 136/272/85 135/271/85
f 136/272/85 138/303/86 137/273/86
f 140/274/87 142/277/75 141/275/75
f 142/277/75 144/279/76 143/278/76
f 144/279/76 146/281/77 145/280/77
f 146/281/77 148/283/78 147/282/78
f 148/283/78 150/285/12 149/284/12
f 150/285/12 152/287/79 151/286/79
f 152/287/79 154/289/80 153/288/80
f 154/289/80 156/291/81 155/290/81
f 156/291/81 158/293/82 157/292/82
f 158/293/82 160/295/88 159/294/88
f 160/295/88 162/297/89 161/296/89
f 162/297/89 164/304/90 163/298/90
f 163/298/90 164/304/90 132/267/3
f 139/276/87 129/266/83 130/265/83
