# Blender v2.90.1 OBJ File: ''
# www.blender.org
o Cylinder.001
v 0.000000 0.500000 -0.500000
v 0.191342 -0.500000 -0.461940
v 0.000000 -0.500000 -0.500000
v 0.191342 0.500000 -0.461940
v 0.353553 -0.500000 -0.353553
v 0.353553 0.500000 -0.353553
v 0.461940 -0.500000 -0.191342
v 0.461940 0.500000 -0.191342
v 0.500000 -0.500000 -0.000000
v 0.500000 0.500000 0.000000
v 0.461940 -0.500000 0.191342
v 0.461940 0.500000 0.191342
v 0.353553 -0.500000 0.353553
v 0.353553 0.500000 0.353553
v 0.191342 -0.500000 0.461940
v 0.191342 0.500000 0.461940
v 0.000000 -0.500000 0.500000
v 0.000000 0.500000 0.500000
v -0.191342 -0.500000 0.461940
v -0.191342 0.500000 0.461940
v -0.353553 -0.500000 0.353554
v -0.353553 0.500000 0.353554
v -0.461940 -0.500000 0.191342
v -0.461940 0.500000 0.191342
v -0.500000 -0.500000 -0.000000
v -0.500000 0.500000 0.000000
v -0.461940 -0.500000 -0.191342
v -0.461940 0.500000 -0.191342
v -0.353553 -0.500000 -0.353554
v -0.353553 0.500000 -0.353554
v -0.191341 -0.500000 -0.461940
v -0.191341 0.500000 -0.461940
vt 1.000002 1.000001
vt 0.874998 -0.000000
vt 1.000002 -0.000000
vt 0.874999 1.000001
vt 0.749995 -0.000000
vt 0.749995 1.000001
vt 0.624992 -0.000000
vt 0.624992 1.000001
vt 0.499989 -0.000000
vt 0.499989 1.000001
vt 0.374985 -0.000000
vt 0.374985 1.000001
vt 0.249982 -0.000000
vt 0.249982 1.000001
vt 0.124979 -0.000000
vt 0.124979 1.000001
vt -0.000024 -0.000000
vt -0.000024 1.000001
vt -0.125028 -0.000000
vt -0.125028 1.000001
vt -0.250031 -0.000000
vt -0.250031 1.000001
vt -0.375034 -0.000000
vt -0.375034 1.000001
vt -0.500037 -0.000001
vt 1.500015 1.000000
vt 1.375011 -0.000001
vt 1.500014 -0.000001
vt 1.375012 1.000001
vt 1.250008 -0.000000
vt 1.250008 1.000001
vt 1.125005 -0.000000
vt 1.125005 1.000001
vt -0.500038 1.000000
vn -0.0000 0.0000 -1.0000
vn 0.3827 0.0000 -0.9239
vn 0.7071 0.0000 -0.7071
vn 0.9239 0.0000 -0.3827
vn 1.0000 -0.0000 0.0000
vn 0.9239 -0.0000 0.3827
vn 0.7071 -0.0000 0.7071
vn 0.3827 -0.0000 0.9239
vn -0.0000 -0.0000 1.0000
vn -0.3827 -0.0000 0.9239
vn -0.7071 -0.0000 0.7071
vn -0.9239 -0.0000 0.3827
vn -1.0000 0.0000 -0.0000
vn -0.9239 0.0000 -0.3827
vn -0.7071 0.0000 -0.7071
vn -0.3827 0.0000 -0.9239
s 1
f 1/1/1 2/2/2 3/3/1
f 4/4/2 5/5/3 2/2/2
f 6/6/3 7/7/4 5/5/3
f 8/8/4 9/9/5 7/7/4
f 10/10/5 11/11/6 9/9/5
f 12/12/6 13/13/7 11/11/6
f 14/14/7 15/15/8 13/13/7
f 16/16/8 17/17/9 15/15/8
f 18/18/9 19/19/10 17/17/9
f 20/20/10 21/21/11 19/19/10
f 22/22/11 23/23/12 21/21/11
f 24/24/12 25/25/13 23/23/12
f 26/26/13 27/27/14 25/28/13
f 28/29/14 29/30/15 27/27/14
f 30/31/15 31/32/16 29/30/15
f 32/33/16 3/3/1 31/32/16
f 1/1/1 4/4/2 2/2/2
f 4/4/2 6/6/3 5/5/3
f 6/6/3 8/8/4 7/7/4
f 8/8/4 10/10/5 9/9/5
f 10/10/5 12/12/6 11/11/6
f 12/12/6 14/14/7 13/13/7
f 14/14/7 16/16/8 15/15/8
f 16/16/8 18/18/9 17/17/9
f 18/18/9 20/20/10 19/19/10
f 20/20/10 22/22/11 21/21/11
f 22/22/11 24/24/12 23/23/12
f 24/24/12 26/34/13 25/25/13
f 26/26/13 28/29/14 27/27/14
f 28/29/14 30/31/15 29/30/15
f 30/31/15 32/33/16 31/32/16
f 32/33/16 1/1/1 3/3/1
