# Blender v2.90.1 OBJ File: ''
# www.blender.org
o Sphere_Sphere.001
v 0.000000 0.353553 -0.353553
v 0.000000 0.191342 -0.461940
v 0.073223 0.461940 -0.176777
v 0.135299 0.353553 -0.326641
v 0.176777 0.191342 -0.426777
v 0.191342 -0.000000 -0.461940
v 0.135299 0.461940 -0.135299
v 0.250000 0.353553 -0.250000
v 0.326641 0.191342 -0.326641
v 0.353553 -0.000000 -0.353553
v 0.176777 0.461940 -0.073223
v 0.326641 0.353553 -0.135299
v 0.426777 0.191342 -0.176777
v 0.461940 -0.000000 -0.191342
v 0.191342 0.461940 -0.000000
v 0.353553 0.353553 -0.000000
v 0.461940 0.191342 -0.000000
v 0.500000 -0.000000 -0.000000
v 0.176777 0.461940 0.073223
v 0.326641 0.353553 0.135299
v 0.426777 0.191342 0.176777
v 0.461940 -0.000000 0.191342
v 0.135299 0.461940 0.135299
v 0.250000 0.353553 0.250000
v 0.326641 0.191342 0.326641
v 0.353553 -0.000000 0.353553
v 0.073223 0.461940 0.176777
v 0.135299 0.353553 0.326641
v 0.176777 0.191342 0.426777
v 0.191342 -0.000000 0.461940
v -0.000000 0.461940 0.191342
v -0.000000 0.353553 0.353553
v -0.000000 0.191342 0.461940
v -0.000000 -0.000000 0.500000
v -0.073223 0.461940 0.176777
v -0.135299 0.353553 0.326640
v -0.176777 0.191342 0.426776
v -0.191342 -0.000000 0.461939
v -0.135299 0.461940 0.135299
v -0.250000 0.353553 0.250000
v -0.326641 0.191342 0.326640
v -0.353553 -0.000000 0.353553
v -0.176777 0.461940 0.073223
v -0.326641 0.353553 0.135299
v -0.426777 0.191342 0.176776
v -0.461940 -0.000000 0.191341
v -0.191342 0.461940 -0.000000
v -0.353553 0.353553 -0.000000
v -0.461940 0.191342 -0.000000
v -0.500000 -0.000000 -0.000000
v -0.176777 0.461940 -0.073223
v -0.326641 0.353553 -0.135299
v -0.426776 0.191342 -0.176777
v -0.461939 -0.000000 -0.191342
v -0.135299 0.461940 -0.135299
v -0.250000 0.353553 -0.250000
v -0.326640 0.191342 -0.326641
v -0.353553 -0.000000 -0.353554
v -0.073223 0.461940 -0.176777
v -0.135299 0.353553 -0.326641
v -0.176776 0.191342 -0.426777
v -0.191341 -0.000000 -0.461940
v -0.000000 0.500000 -0.000000
v 0.000000 0.461940 -0.191342
v 0.000000 -0.000000 -0.500000
vt 0.500000 0.634338
vt 0.500000 0.500000
vt 0.551409 0.624112
vt 0.500000 0.851041
vt 0.624112 0.799632
vt 0.634338 0.824320
vt 0.594991 0.729329
vt 0.500000 0.748224
vt 0.500000 0.824320
vt 0.748223 0.748224
vt 0.675520 0.675521
vt 0.729329 0.729329
vt 0.594991 0.594991
vt 0.799632 0.624112
vt 0.624112 0.551409
vt 0.824320 0.634338
vt 0.729328 0.594991
vt 0.824319 0.500000
vt 0.634337 0.500000
vt 0.851041 0.500000
vt 0.748223 0.500000
vt 0.824319 0.365662
vt 0.624112 0.448591
vt 0.729328 0.405009
vt 0.799632 0.375888
vt 0.594991 0.405009
vt 0.675520 0.324480
vt 0.729328 0.270671
vt 0.748223 0.251777
vt 0.624112 0.200368
vt 0.551409 0.375888
vt 0.634337 0.175680
vt 0.594991 0.270671
vt 0.500000 0.365662
vt 0.500000 0.148959
vt 0.500000 0.251777
vt 0.500000 0.175680
vt 0.365662 0.175680
vt 0.448591 0.375888
vt 0.405009 0.270672
vt 0.375888 0.200368
vt 0.270671 0.270672
vt 0.405009 0.405009
vt 0.251776 0.251777
vt 0.324479 0.324480
vt 0.270671 0.405009
vt 0.200368 0.375888
vt 0.375888 0.448591
vt 0.175680 0.365663
vt 0.148959 0.500000
vt 0.365662 0.500000
vt 0.251777 0.500000
vt 0.175680 0.500000
vt 0.200368 0.624112
vt 0.175680 0.634338
vt 0.375888 0.551409
vt 0.270671 0.594991
vt 0.270672 0.729329
vt 0.405009 0.594991
vt 0.251777 0.748224
vt 0.324480 0.675521
vt 0.375888 0.799632
vt 0.448591 0.624112
vt 0.365663 0.824320
vt 0.405009 0.729329
vn 0.0000 0.9152 -0.4031
vn 0.0000 1.0000 0.0000
vn 0.1542 0.9152 -0.3724
vn 0.0000 0.1951 -0.9808
vn 0.3548 0.3743 -0.8567
vn 0.3753 0.1951 -0.9061
vn 0.2751 0.6952 -0.6641
vn 0.0000 0.6952 -0.7188
vn 0.0000 0.3743 -0.9273
vn 0.6935 0.1951 -0.6935
vn 0.5083 0.6952 -0.5083
vn 0.6557 0.3743 -0.6557
vn 0.2850 0.9152 -0.2850
vn 0.8567 0.3743 -0.3548
vn 0.3724 0.9152 -0.1542
vn 0.9061 0.1951 -0.3753
vn 0.6641 0.6952 -0.2751
vn 0.9273 0.3743 0.0000
vn 0.4031 0.9152 0.0000
vn 0.9808 0.1951 0.0000
vn 0.7188 0.6952 0.0000
vn 0.9061 0.1951 0.3753
vn 0.3724 0.9152 0.1542
vn 0.6641 0.6952 0.2751
vn 0.8567 0.3743 0.3548
vn 0.2850 0.9152 0.2850
vn 0.5083 0.6952 0.5083
vn 0.6557 0.3743 0.6557
vn 0.6935 0.1951 0.6935
vn 0.3548 0.3743 0.8567
vn 0.1542 0.9152 0.3724
vn 0.3753 0.1951 0.9061
vn 0.2751 0.6952 0.6641
vn 0.0000 0.9152 0.4031
vn 0.0000 0.1951 0.9808
vn 0.0000 0.6952 0.7188
vn 0.0000 0.3743 0.9273
vn -0.3753 0.1951 0.9061
vn -0.1542 0.9152 0.3724
vn -0.2751 0.6952 0.6641
vn -0.3548 0.3743 0.8567
vn -0.6557 0.3743 0.6557
vn -0.2850 0.9152 0.2850
vn -0.6935 0.1951 0.6935
vn -0.5083 0.6952 0.5083
vn -0.6641 0.6952 0.2751
vn -0.8567 0.3743 0.3548
vn -0.3724 0.9152 0.1542
vn -0.9061 0.1951 0.3753
vn -0.9808 0.1951 0.0000
vn -0.4031 0.9152 0.0000
vn -0.7188 0.6952 0.0000
vn -0.9273 0.3743 0.0000
vn -0.8567 0.3743 -0.3548
vn -0.9061 0.1951 -0.3753
vn -0.3724 0.9152 -0.1542
vn -0.6641 0.6952 -0.2751
vn -0.6557 0.3743 -0.6557
vn -0.2850 0.9152 -0.2850
vn -0.6935 0.1951 -0.6935
vn -0.5083 0.6952 -0.5083
vn -0.3548 0.3743 -0.8567
vn -0.1542 0.9152 -0.3724
vn -0.3753 0.1951 -0.9061
vn -0.2751 0.6952 -0.6641
s 1
f 64/1/1 63/2/2 3/3/3
f 65/4/4 5/5/5 6/6/6
f 64/1/1 4/7/7 1/8/8
f 1/8/8 5/5/5 2/9/9
f 5/5/5 10/10/10 6/6/6
f 3/3/3 8/11/11 4/7/7
f 4/7/7 9/12/12 5/5/5
f 3/3/3 63/2/2 7/13/13
f 8/11/11 13/14/14 9/12/12
f 7/13/13 63/2/2 11/15/15
f 10/10/10 13/14/14 14/16/16
f 8/11/11 11/15/15 12/17/17
f 12/17/17 17/18/18 13/14/14
f 11/15/15 63/2/2 15/19/19
f 13/14/14 18/20/20 14/16/16
f 12/17/17 15/19/19 16/21/21
f 17/18/18 22/22/22 18/20/20
f 16/21/21 19/23/23 20/24/24
f 17/18/18 20/24/24 21/25/25
f 15/19/19 63/2/2 19/23/23
f 20/24/24 23/26/26 24/27/27
f 20/24/24 25/28/28 21/25/25
f 19/23/23 63/2/2 23/26/26
f 21/25/25 26/29/29 22/22/22
f 24/27/27 29/30/30 25/28/28
f 23/26/26 63/2/2 27/31/31
f 26/29/29 29/30/30 30/32/32
f 24/27/27 27/31/31 28/33/33
f 27/31/31 63/2/2 31/34/34
f 29/30/30 34/35/35 30/32/32
f 28/33/33 31/34/34 32/36/36
f 28/33/33 33/37/37 29/30/30
f 33/37/37 38/38/38 34/35/35
f 32/36/36 35/39/39 36/40/40
f 32/36/36 37/41/41 33/37/37
f 31/34/34 63/2/2 35/39/39
f 36/40/40 41/42/42 37/41/41
f 35/39/39 63/2/2 39/43/43
f 38/38/38 41/42/42 42/44/44
f 35/39/39 40/45/45 36/40/40
f 41/42/42 44/46/46 45/47/47
f 39/43/43 63/2/2 43/48/48
f 41/42/42 46/49/49 42/44/44
f 40/45/45 43/48/48 44/46/46
f 45/47/47 50/50/50 46/49/49
f 44/46/46 47/51/51 48/52/52
f 44/46/46 49/53/53 45/47/47
f 43/48/48 63/2/2 47/51/51
f 50/50/50 53/54/54 54/55/55
f 48/52/52 51/56/56 52/57/57
f 48/52/52 53/54/54 49/53/53
f 47/51/51 63/2/2 51/56/56
f 52/57/57 57/58/58 53/54/54
f 51/56/56 63/2/2 55/59/59
f 54/55/55 57/58/58 58/60/60
f 52/57/57 55/59/59 56/61/61
f 56/61/61 61/62/62 57/58/58
f 55/59/59 63/2/2 59/63/63
f 57/58/58 62/64/64 58/60/60
f 56/61/61 59/63/63 60/65/65
f 62/64/64 2/9/9 65/4/4
f 59/63/63 1/8/8 60/65/65
f 61/62/62 1/8/8 2/9/9
f 59/63/63 63/2/2 64/1/1
f 65/4/4 2/9/9 5/5/5
f 64/1/1 3/3/3 4/7/7
f 1/8/8 4/7/7 5/5/5
f 5/5/5 9/12/12 10/10/10
f 3/3/3 7/13/13 8/11/11
f 4/7/7 8/11/11 9/12/12
f 8/11/11 12/17/17 13/14/14
f 10/10/10 9/12/12 13/14/14
f 8/11/11 7/13/13 11/15/15
f 12/17/17 16/21/21 17/18/18
f 13/14/14 17/18/18 18/20/20
f 12/17/17 11/15/15 15/19/19
f 17/18/18 21/25/25 22/22/22
f 16/21/21 15/19/19 19/23/23
f 17/18/18 16/21/21 20/24/24
f 20/24/24 19/23/23 23/26/26
f 20/24/24 24/27/27 25/28/28
f 21/25/25 25/28/28 26/29/29
f 24/27/27 28/33/33 29/30/30
f 26/29/29 25/28/28 29/30/30
f 24/27/27 23/26/26 27/31/31
f 29/30/30 33/37/37 34/35/35
f 28/33/33 27/31/31 31/34/34
f 28/33/33 32/36/36 33/37/37
f 33/37/37 37/41/41 38/38/38
f 32/36/36 31/34/34 35/39/39
f 32/36/36 36/40/40 37/41/41
f 36/40/40 40/45/45 41/42/42
f 38/38/38 37/41/41 41/42/42
f 35/39/39 39/43/43 40/45/45
f 41/42/42 40/45/45 44/46/46
f 41/42/42 45/47/47 46/49/49
f 40/45/45 39/43/43 43/48/48
f 45/47/47 49/53/53 50/50/50
f 44/46/46 43/48/48 47/51/51
f 44/46/46 48/52/52 49/53/53
f 50/50/50 49/53/53 53/54/54
f 48/52/52 47/51/51 51/56/56
f 48/52/52 52/57/57 53/54/54
f 52/57/57 56/61/61 57/58/58
f 54/55/55 53/54/54 57/58/58
f 52/57/57 51/56/56 55/59/59
f 56/61/61 60/65/65 61/62/62
f 57/58/58 61/62/62 62/64/64
f 56/61/61 55/59/59 59/63/63
f 62/64/64 61/62/62 2/9/9
f 59/63/63 64/1/1 1/8/8
f 61/62/62 60/65/65 1/8/8
