# Blender v2.93.0 OBJ File: 'devshapes.blend'
# www.blender.org
mtllib plate_4x1.mtl
o plate_4x1_plate_4x1_mesh.006
v 0.250000 0.031250 0.125000
v 0.250000 0.031250 -0.125000
v 0.000000 0.031250 0.125000
v 0.000000 0.031250 -0.125000
v -0.250000 0.031250 0.125000
v -0.250000 0.031250 -0.125000
v -0.500000 0.031250 -0.125000
v -0.500000 -0.031250 0.125000
v -0.500000 -0.031250 -0.125000
v -0.250000 -0.031250 0.125000
v -0.250000 -0.031250 -0.125000
v 0.000000 -0.031250 0.125000
v 0.000000 -0.031250 -0.125000
v 0.250000 -0.031250 -0.125000
v 0.250000 -0.031250 0.125000
v -0.500000 0.031250 0.125000
v 0.500000 -0.031250 0.125000
v 0.500000 0.031250 -0.125000
v 0.500000 -0.031250 -0.125000
v 0.500000 0.031250 0.125000
vt 0.750000 0.250000
vt 0.500000 0.500000
vt 0.500000 0.250000
vt 0.750000 0.250000
vt 0.500000 0.500000
vt 0.500000 0.250000
vt 0.750000 0.250000
vt 0.500000 0.500000
vt 0.500000 0.250000
vt 0.750000 0.250000
vt 0.500000 0.500000
vt 0.500000 0.250000
vt 0.750000 0.250000
vt 0.500000 0.500000
vt 0.500000 0.250000
vt 0.750000 0.250000
vt 0.500000 0.500000
vt 0.500000 0.250000
vt 0.750000 0.250000
vt 0.500000 0.500000
vt 0.500000 0.250000
vt 0.750000 0.250000
vt 0.500000 0.500000
vt 0.500000 0.250000
vt 0.750000 0.500000
vt 0.750000 0.500000
vt 0.750000 0.500000
vt 0.750000 0.500000
vt 0.750000 0.500000
vt 0.750000 0.500000
vt 0.750000 0.500000
vt 0.750000 0.500000
vt 0.000000 0.531250
vt 0.500000 0.562500
vt 0.000000 0.562500
vt 0.500000 0.531250
vt 0.000000 0.562500
vt 0.000000 0.531250
vt 0.500000 0.531250
vt 0.500000 0.562500
vt 1.000000 0.312500
vt 0.750000 0.375000
vt 0.750000 0.312500
vt 0.750000 0.312500
vt 1.000000 0.375000
vt 0.750000 0.375000
vt 1.000000 0.375000
vt 1.000000 0.312500
vn 0.0000 1.0000 0.0000
vn -0.0000 -1.0000 0.0000
vn -0.0000 0.0000 1.0000
vn -0.0000 0.0000 -1.0000
vn 1.0000 -0.0000 0.0000
vn -1.0000 0.0000 0.0000
usemtl GridCombined.002
s off
f 18/1/1 1/2/1 20/3/1
f 2/4/1 3/5/1 1/6/1
f 4/7/1 5/8/1 3/9/1
f 6/10/1 16/11/1 5/12/1
f 9/13/2 10/14/2 8/15/2
f 11/16/2 12/17/2 10/18/2
f 13/19/2 15/20/2 12/21/2
f 14/22/2 17/23/2 15/24/2
f 18/1/1 2/25/1 1/2/1
f 2/4/1 4/26/1 3/5/1
f 4/7/1 6/27/1 5/8/1
f 6/10/1 7/28/1 16/11/1
f 9/13/2 11/29/2 10/14/2
f 11/16/2 13/30/2 12/17/2
f 13/19/2 14/31/2 15/20/2
f 14/22/2 19/32/2 17/23/2
usemtl GridCombined.006
f 20/33/3 8/34/3 17/35/3
f 18/36/4 9/37/4 7/38/4
f 20/33/3 16/39/3 8/34/3
f 18/36/4 19/40/4 9/37/4
usemtl GridCombined.004
f 19/41/5 20/42/5 17/43/5
f 16/44/6 9/45/6 8/46/6
f 19/41/5 18/47/5 20/42/5
f 16/44/6 7/48/6 9/45/6
