# Blender v2.93.0 OBJ File: 'devshapes.blend'
# www.blender.org
mtllib plate_12x12.mtl
o plate_12x12_plate_12x12_mesh.006
v -0.500000 0.031250 0.500000
v 0.500000 0.031250 1.500000
v 0.500000 0.031250 0.500000
v -1.500000 0.031250 0.500000
v 1.500000 0.031250 0.500000
v 0.500000 0.031250 -0.500000
v 1.500000 0.031250 -0.500000
v -0.500000 0.031250 -0.500000
v -0.500000 -0.031250 -1.500000
v 0.500000 -0.031250 -0.500000
v -0.500000 -0.031250 -0.500000
v 0.500000 -0.031250 0.500000
v -1.500000 -0.031250 0.500000
v -0.500000 -0.031250 0.500000
v -0.500000 -0.031250 1.500000
v 1.500000 -0.031250 0.500000
v 1.500000 -0.031250 1.500000
v 0.500000 -0.031250 1.500000
v -0.500000 0.031250 1.500000
v -1.500000 0.031250 1.500000
v -1.500000 -0.031250 1.500000
v -0.500000 0.031250 -1.500000
v 0.500000 0.031250 -1.500000
v 0.500000 -0.031250 -1.500000
v 1.500000 -0.031250 -1.500000
v 1.500000 0.031250 1.500000
v 1.500000 -0.031250 -0.500000
v 1.500000 0.031250 -1.500000
v -1.500000 0.031250 -0.500000
v -1.500000 0.031250 -1.500000
v -1.500000 -0.031250 -0.500000
v -1.500000 -0.031250 -1.500000
vt 0.500000 0.000000
vt 0.000000 0.500000
vt 0.000000 0.000000
vt 0.500000 0.000000
vt 0.000000 0.500000
vt 0.000000 0.000000
vt 0.500000 0.000000
vt 0.000000 0.500000
vt 0.000000 0.000000
vt 0.500000 0.000000
vt 0.000000 0.500000
vt 0.000000 0.000000
vt 0.500000 0.000000
vt 0.000000 0.500000
vt 0.000000 0.000000
vt 0.500000 0.000000
vt 0.000000 0.500000
vt 0.000000 0.000000
vt 0.500000 0.000000
vt 0.000000 0.500000
vt 0.000000 0.000000
vt 0.500000 0.000000
vt 0.000000 0.500000
vt 0.000000 0.000000
vt 0.000000 0.000000
vt 0.500000 0.500000
vt 0.000000 0.500000
vt 0.000000 0.000000
vt 0.500000 0.500000
vt 0.000000 0.500000
vt 0.500000 0.000000
vt 0.000000 0.500000
vt 0.000000 0.000000
vt 0.500000 0.000000
vt 0.000000 0.500000
vt 0.000000 0.000000
vt 0.500000 0.000000
vt 0.000000 0.500000
vt 0.000000 0.000000
vt 0.500000 0.000000
vt 0.000000 0.500000
vt 0.000000 0.000000
vt 0.500000 0.000000
vt 0.000000 0.500000
vt 0.000000 0.000000
vt 0.500000 0.000000
vt 0.000000 0.500000
vt 0.000000 0.000000
vt 0.500000 0.000000
vt 0.000000 0.500000
vt 0.000000 0.000000
vt 0.500000 0.000000
vt 0.000000 0.500000
vt 0.000000 0.000000
vt 0.500000 0.500000
vt 0.500000 0.500000
vt 0.500000 0.500000
vt 0.500000 0.500000
vt 0.500000 0.500000
vt 0.500000 0.500000
vt 0.500000 0.500000
vt 0.500000 0.500000
vt 0.500000 0.000000
vt 0.500000 0.000000
vt 0.500000 0.500000
vt 0.500000 0.500000
vt 0.500000 0.500000
vt 0.500000 0.500000
vt 0.500000 0.500000
vt 0.500000 0.500000
vt 0.500000 0.500000
vt 0.500000 0.500000
vt 0.500000 0.531250
vt 0.000000 0.562500
vt 0.000000 0.531250
vt 0.000000 0.531250
vt 0.500000 0.562500
vt 0.000000 0.562500
vt 0.500000 0.531250
vt 0.000000 0.562500
vt 0.000000 0.531250
vt 0.500000 0.531250
vt 0.000000 0.562500
vt 0.000000 0.531250
vt 0.500000 0.531250
vt 0.000000 0.562500
vt 0.000000 0.531250
vt 0.500000 0.531250
vt 0.000000 0.562500
vt 0.000000 0.531250
vt 0.500000 0.531250
vt 0.000000 0.562500
vt 0.000000 0.531250
vt 0.500000 0.531250
vt 0.000000 0.562500
vt 0.000000 0.531250
vt 0.500000 0.531250
vt 0.000000 0.562500
vt 0.000000 0.531250
vt 0.500000 0.531250
vt 0.000000 0.562500
vt 0.000000 0.531250
vt 0.500000 0.531250
vt 0.000000 0.562500
vt 0.000000 0.531250
vt 0.500000 0.531250
vt 0.000000 0.562500
vt 0.000000 0.531250
vt 0.500000 0.562500
vt 0.500000 0.531250
vt 0.500000 0.562500
vt 0.500000 0.562500
vt 0.500000 0.562500
vt 0.500000 0.562500
vt 0.500000 0.562500
vt 0.500000 0.562500
vt 0.500000 0.562500
vt 0.500000 0.562500
vt 0.500000 0.562500
vt 0.500000 0.562500
vn -0.0000 1.0000 0.0000
vn 0.0000 -1.0000 0.0000
vn 0.0000 0.0000 1.0000
vn -0.0000 0.0000 -1.0000
vn 1.0000 0.0000 0.0000
vn -1.0000 0.0000 0.0000
usemtl GridCombined.003
s off
f 19/1/1 4/2/1 20/3/1
f 2/4/1 1/5/1 19/6/1
f 26/7/1 3/8/1 2/9/1
f 1/10/1 29/11/1 4/12/1
f 3/13/1 8/14/1 1/15/1
f 5/16/1 6/17/1 3/18/1
f 8/19/1 30/20/1 29/21/1
f 6/22/1 22/23/1 8/24/1
f 6/25/1 28/26/1 23/27/1
f 32/28/2 11/29/2 31/30/2
f 24/31/2 11/32/2 9/33/2
f 25/34/2 10/35/2 24/36/2
f 11/37/2 13/38/2 31/39/2
f 10/40/2 14/41/2 11/42/2
f 27/43/2 12/44/2 10/45/2
f 14/46/2 21/47/2 13/48/2
f 12/49/2 15/50/2 14/51/2
f 16/52/2 18/53/2 12/54/2
f 19/1/1 1/55/1 4/2/1
f 2/4/1 3/56/1 1/5/1
f 26/7/1 5/57/1 3/8/1
f 1/10/1 8/58/1 29/11/1
f 3/13/1 6/59/1 8/14/1
f 5/16/1 7/60/1 6/17/1
f 8/19/1 22/61/1 30/20/1
f 6/22/1 23/62/1 22/23/1
f 6/25/1 7/63/1 28/26/1
f 32/28/2 9/64/2 11/29/2
f 24/31/2 10/65/2 11/32/2
f 25/34/2 27/66/2 10/35/2
f 11/37/2 14/67/2 13/38/2
f 10/40/2 12/68/2 14/41/2
f 27/43/2 16/69/2 12/44/2
f 14/46/2 15/70/2 21/47/2
f 12/49/2 18/71/2 15/50/2
f 16/52/2 17/72/2 18/53/2
usemtl GridCombined.006
f 2/73/3 17/74/3 26/75/3
f 2/76/3 15/77/3 18/78/3
f 20/79/3 15/80/3 19/81/3
f 22/82/4 32/83/4 30/84/4
f 23/85/4 9/86/4 22/87/4
f 28/88/4 24/89/4 23/90/4
f 16/91/5 26/92/5 17/93/5
f 27/94/5 5/95/5 16/96/5
f 25/97/5 7/98/5 27/99/5
f 4/100/6 21/101/6 20/102/6
f 29/103/6 13/104/6 4/105/6
f 30/106/6 31/107/6 29/108/6
f 2/73/3 18/109/3 17/74/3
f 2/76/3 19/110/3 15/77/3
f 20/79/3 21/111/3 15/80/3
f 22/82/4 9/112/4 32/83/4
f 23/85/4 24/113/4 9/86/4
f 28/88/4 25/114/4 24/89/4
f 16/91/5 5/115/5 26/92/5
f 27/94/5 7/116/5 5/95/5
f 25/97/5 28/117/5 7/98/5
f 4/100/6 13/118/6 21/101/6
f 29/103/6 31/119/6 13/104/6
f 30/106/6 32/120/6 31/107/6
