# Blender v2.93.0 OBJ File: 'devshapes.blend'
# www.blender.org
mtllib plate_6x1.mtl
o plate_6x1_plate_6x1_mesh.006
v 0.500000 0.031250 0.125000
v 0.500000 0.031250 -0.125000
v 0.250000 0.031250 0.125000
v 0.250000 0.031250 -0.125000
v 0.000000 0.031250 0.125000
v 0.000000 0.031250 -0.125000
v -0.250000 0.031250 0.125000
v -0.500000 0.031250 0.125000
v -0.500000 0.031250 -0.125000
v -0.500000 -0.031250 0.125000
v -0.500000 -0.031250 -0.125000
v -0.250000 -0.031250 -0.125000
v -0.250000 -0.031250 0.125000
v 0.000000 -0.031250 0.125000
v 0.000000 -0.031250 -0.125000
v 0.250000 -0.031250 0.125000
v 0.250000 -0.031250 -0.125000
v 0.500000 -0.031250 0.125000
v 0.500000 -0.031250 -0.125000
v 0.750000 -0.031250 0.125000
v -0.750000 0.031250 0.125000
v -0.750000 -0.031250 0.125000
v -0.250000 0.031250 -0.125000
v 0.750000 -0.031250 -0.125000
v 0.750000 0.031250 0.125000
v 0.750000 0.031250 -0.125000
v -0.750000 0.031250 -0.125000
v -0.750000 -0.031250 -0.125000
vt 0.750000 0.250000
vt 0.500000 0.500000
vt 0.500000 0.250000
vt 0.500000 0.250000
vt 0.750000 0.500000
vt 0.500000 0.500000
vt 0.750000 0.250000
vt 0.500000 0.500000
vt 0.500000 0.250000
vt 0.750000 0.250000
vt 0.500000 0.500000
vt 0.500000 0.250000
vt 0.500000 0.250000
vt 0.750000 0.500000
vt 0.500000 0.500000
vt 0.750000 0.250000
vt 0.500000 0.500000
vt 0.500000 0.250000
vt 0.750000 0.250000
vt 0.500000 0.500000
vt 0.500000 0.250000
vt 0.750000 0.250000
vt 0.500000 0.500000
vt 0.500000 0.250000
vt 0.750000 0.250000
vt 0.500000 0.500000
vt 0.500000 0.250000
vt 0.750000 0.250000
vt 0.500000 0.500000
vt 0.500000 0.250000
vt 0.750000 0.250000
vt 0.500000 0.500000
vt 0.500000 0.250000
vt 0.500000 0.250000
vt 0.750000 0.500000
vt 0.500000 0.500000
vt 0.750000 0.500000
vt 0.750000 0.250000
vt 0.750000 0.500000
vt 0.750000 0.500000
vt 0.750000 0.250000
vt 0.750000 0.500000
vt 0.750000 0.500000
vt 0.750000 0.500000
vt 0.750000 0.500000
vt 0.750000 0.500000
vt 0.750000 0.500000
vt 0.750000 0.250000
vt 0.996094 0.286328
vt 0.753906 0.307422
vt 0.753906 0.286328
vt 0.996094 0.286328
vt 0.753906 0.307422
vt 0.753906 0.286328
vt 0.996094 0.286328
vt 0.753906 0.307422
vt 0.753906 0.286328
vt 0.996094 0.286328
vt 0.753906 0.307422
vt 0.753906 0.286328
vt 0.996094 0.286328
vt 0.753906 0.307422
vt 0.753906 0.286328
vt 0.996094 0.286328
vt 0.753906 0.307422
vt 0.753906 0.286328
vt 0.996094 0.307422
vt 0.996094 0.307422
vt 0.996094 0.307422
vt 0.996094 0.307422
vt 0.996094 0.307422
vt 0.996094 0.307422
vt 1.000000 0.312500
vt 0.750000 0.375000
vt 0.750000 0.312500
vt 0.750000 0.312500
vt 1.000000 0.375000
vt 0.750000 0.375000
vt 1.000000 0.375000
vt 1.000000 0.312500
vn 0.0000 1.0000 0.0000
vn 0.0000 -1.0000 -0.0000
vn 0.0000 0.0000 1.0000
vn -0.0000 0.0000 -1.0000
vn 1.0000 -0.0000 0.0000
vn -1.0000 0.0000 0.0000
usemtl GridCombined.002
s off
f 26/1/1 1/2/1 25/3/1
f 1/4/1 4/5/1 3/6/1
f 4/7/1 5/8/1 3/9/1
f 6/10/1 7/11/1 5/12/1
f 7/13/1 9/14/1 8/15/1
f 9/16/1 21/17/1 8/18/1
f 28/19/2 10/20/2 22/21/2
f 11/22/2 13/23/2 10/24/2
f 12/25/2 14/26/2 13/27/2
f 15/28/2 16/29/2 14/30/2
f 17/31/2 18/32/2 16/33/2
f 18/34/2 24/35/2 20/36/2
f 26/1/1 2/37/1 1/2/1
f 1/4/1 2/38/1 4/5/1
f 4/7/1 6/39/1 5/8/1
f 6/10/1 23/40/1 7/11/1
f 7/13/1 23/41/1 9/14/1
f 9/16/1 27/42/1 21/17/1
f 28/19/2 11/43/2 10/20/2
f 11/22/2 12/44/2 13/23/2
f 12/25/2 15/45/2 14/26/2
f 15/28/2 17/46/2 16/29/2
f 17/31/2 19/47/2 18/32/2
f 18/34/2 19/48/2 24/35/2
usemtl GridCombined.005
f 3/49/3 20/50/3 25/51/3
f 7/52/3 16/53/3 3/54/3
f 21/55/3 13/56/3 7/57/3
f 23/58/4 28/59/4 27/60/4
f 4/61/4 12/62/4 23/63/4
f 26/64/4 17/65/4 4/66/4
f 3/49/3 16/67/3 20/50/3
f 7/52/3 13/68/3 16/53/3
f 21/55/3 22/69/3 13/56/3
f 23/58/4 12/70/4 28/59/4
f 4/61/4 17/71/4 12/62/4
f 26/64/4 24/72/4 17/65/4
usemtl GridCombined.004
f 24/73/5 25/74/5 20/75/5
f 21/76/6 28/77/6 22/78/6
f 24/73/5 26/79/5 25/74/5
f 21/76/6 27/80/6 28/77/6
