# Blender v2.93.0 OBJ File: 'devshapes.blend'
# www.blender.org
mtllib plate_1x1.mtl
o plate_1x1_plate_1x1_mesh.006
v -0.125000 0.031250 0.125000
v 0.125000 -0.031250 0.125000
v 0.125000 -0.031250 -0.125000
v 0.125000 0.031250 0.125000
v 0.125000 0.031250 -0.125000
v -0.125000 0.031250 -0.125000
v -0.125000 -0.031250 0.125000
v -0.125000 -0.031250 -0.125000
vt 0.750000 0.250000
vt 0.500000 0.500000
vt 0.500000 0.250000
vt 0.750000 0.250000
vt 0.500000 0.500000
vt 0.500000 0.250000
vt 0.750000 0.500000
vt 0.750000 0.500000
vt 1.000000 0.312500
vt 0.750000 0.375000
vt 0.750000 0.312500
vt 1.000000 0.312500
vt 0.750000 0.375000
vt 0.750000 0.312500
vt 1.000000 0.312500
vt 0.750000 0.375000
vt 0.750000 0.312500
vt 1.000000 0.312500
vt 0.750000 0.375000
vt 0.750000 0.312500
vt 1.000000 0.375000
vt 1.000000 0.375000
vt 1.000000 0.375000
vt 1.000000 0.375000
vn -0.0000 1.0000 0.0000
vn 0.0000 -1.0000 0.0000
vn 0.0000 0.0000 1.0000
vn 0.0000 0.0000 -1.0000
vn 1.0000 0.0000 0.0000
vn -1.0000 -0.0000 0.0000
usemtl GridCombined.002
s off
f 4/1/1 6/2/1 1/3/1
f 3/4/2 7/5/2 8/6/2
f 4/1/1 5/7/1 6/2/1
f 3/4/2 2/8/2 7/5/2
usemtl GridCombined.004
f 1/9/3 2/10/3 4/11/3
f 5/12/4 8/13/4 6/14/4
f 3/15/5 4/16/5 2/17/5
f 6/18/6 7/19/6 1/20/6
f 1/9/3 7/21/3 2/10/3
f 5/12/4 3/22/4 8/13/4
f 3/15/5 5/23/5 4/16/5
f 6/18/6 8/24/6 7/19/6
