# Blender v2.93.0 OBJ File: 'devshapes.blend'
# www.blender.org
mtllib box_8x4x1.mtl
o box_8x4x1_box_8x4x1_mesh
v 0.000000 -0.125000 0.500000
v 0.000000 -0.125000 -0.500000
v 1.000000 -0.125000 0.500000
v 1.000000 -0.125000 -0.500000
v 1.000000 0.125000 0.500000
v 0.750000 -0.125000 0.500000
v 0.750000 0.125000 0.500000
v 0.500000 -0.125000 0.500000
v 0.500000 0.125000 0.500000
v 0.250000 0.125000 0.500000
v 0.250000 -0.125000 0.500000
v -0.000000 0.125000 0.500000
v -0.250000 -0.125000 0.500000
v -0.250000 0.125000 0.500000
v -0.500000 -0.125000 0.500000
v -0.500000 0.125000 0.500000
v -0.750000 -0.125000 0.500000
v -0.750000 0.125000 0.500000
v -1.000000 -0.125000 0.500000
v -1.000000 0.125000 0.500000
v -1.000000 0.125000 -0.500000
v -0.750000 -0.125000 -0.500000
v -0.750000 0.125000 -0.500000
v -0.500000 -0.125000 -0.500000
v -0.500000 0.125000 -0.500000
v -0.250000 -0.125000 -0.500000
v -0.250000 0.125000 -0.500000
v -0.000000 0.125000 -0.500000
v 0.250000 -0.125000 -0.500000
v 0.250000 0.125000 -0.500000
v 0.500000 -0.125000 -0.500000
v 0.500000 0.125000 -0.500000
v 0.750000 0.125000 -0.500000
v 0.750000 -0.125000 -0.500000
v 1.000000 -0.125000 0.250000
v 1.000000 0.125000 0.250000
v 1.000000 0.125000 0.000000
v 1.000000 -0.125000 0.000000
v 1.000000 0.125000 -0.250000
v 1.000000 -0.125000 -0.250000
v 1.000000 0.125000 -0.500000
v -1.000000 -0.125000 0.250000
v -1.000000 0.125000 0.250000
v -1.000000 -0.125000 0.000000
v -1.000000 0.125000 0.000000
v -1.000000 -0.125000 -0.250000
v -1.000000 0.125000 -0.250000
v -1.000000 -0.125000 -0.500000
vt 0.500000 0.000000
vt 0.000000 0.500000
vt 0.000000 0.000000
vt 0.500000 0.000000
vt 0.000000 0.500000
vt 0.000000 0.000000
vt 0.500000 0.000000
vt 0.000000 0.500000
vt 0.000000 0.000000
vt 0.500000 0.000000
vt 0.000000 0.500000
vt 0.000000 0.000000
vt 0.500000 0.500000
vt 0.500000 0.500000
vt 0.500000 0.500000
vt 0.500000 0.500000
vt 0.750000 0.250000
vt 0.500000 0.500000
vt 0.500000 0.250000
vt 0.750000 0.250000
vt 0.500000 0.500000
vt 0.500000 0.250000
vt 0.500000 0.250000
vt 0.750000 0.500000
vt 0.500000 0.500000
vt 0.500000 0.250000
vt 0.750000 0.500000
vt 0.500000 0.500000
vt 0.750000 0.250000
vt 0.500000 0.500000
vt 0.500000 0.250000
vt 0.500000 0.250000
vt 0.750000 0.500000
vt 0.500000 0.500000
vt 0.750000 0.250000
vt 0.500000 0.500000
vt 0.500000 0.250000
vt 0.750000 0.250000
vt 0.500000 0.500000
vt 0.500000 0.250000
vt 0.750000 0.250000
vt 0.500000 0.500000
vt 0.500000 0.250000
vt 0.750000 0.250000
vt 0.500000 0.500000
vt 0.500000 0.250000
vt 0.750000 0.250000
vt 0.500000 0.500000
vt 0.500000 0.250000
vt 0.750000 0.250000
vt 0.500000 0.250000
vt 0.750000 0.250000
vt 0.500000 0.500000
vt 0.500000 0.250000
vt 0.750000 0.250000
vt 0.500000 0.500000
vt 0.500000 0.250000
vt 0.750000 0.250000
vt 0.500000 0.500000
vt 0.500000 0.250000
vt 0.500000 0.250000
vt 0.750000 0.500000
vt 0.750000 0.250000
vt 0.500000 0.500000
vt 0.500000 0.250000
vt 0.750000 0.250000
vt 0.500000 0.500000
vt 0.500000 0.250000
vt 0.750000 0.250000
vt 0.500000 0.500000
vt 0.500000 0.250000
vt 0.750000 0.250000
vt 0.500000 0.500000
vt 0.500000 0.250000
vt 0.750000 0.250000
vt 0.500000 0.500000
vt 0.500000 0.250000
vt 0.750000 0.250000
vt 0.500000 0.500000
vt 0.500000 0.250000
vt 0.750000 0.250000
vt 0.500000 0.500000
vt 0.500000 0.250000
vt 0.500000 0.250000
vt 0.750000 0.500000
vt 0.500000 0.500000
vt 0.750000 0.500000
vt 0.750000 0.500000
vt 0.750000 0.250000
vt 0.750000 0.250000
vt 0.750000 0.500000
vt 0.750000 0.250000
vt 0.750000 0.500000
vt 0.750000 0.500000
vt 0.750000 0.500000
vt 0.750000 0.500000
vt 0.750000 0.500000
vt 0.750000 0.500000
vt 0.750000 0.500000
vt 0.750000 0.500000
vt 0.750000 0.500000
vt 0.750000 0.250000
vt 0.750000 0.500000
vt 0.750000 0.500000
vt 0.750000 0.500000
vt 0.750000 0.500000
vt 0.750000 0.500000
vt 0.750000 0.500000
vt 0.750000 0.500000
vt 0.750000 0.250000
vn -0.0000 1.0000 0.0000
vn 0.0000 -1.0000 0.0000
vn -0.0000 0.0000 1.0000
vn 0.0000 -0.0000 -1.0000
vn 1.0000 0.0000 0.0000
vn -1.0000 0.0000 0.0000
usemtl GridCombined.003
s off
f 41/1/1 12/2/1 5/3/1
f 28/4/1 20/5/1 12/6/1
f 48/7/2 1/8/2 19/9/2
f 2/10/2 3/11/2 1/12/2
f 41/1/1 28/13/1 12/2/1
f 28/4/1 21/14/1 20/5/1
f 48/7/2 2/15/2 1/8/2
f 2/10/2 4/16/2 3/11/2
usemtl GridCombined.002
f 5/17/3 6/18/3 3/19/3
f 7/20/3 8/21/3 6/22/3
f 8/23/3 10/24/3 11/25/3
f 11/26/3 12/27/3 1/28/3
f 12/29/3 13/30/3 1/31/3
f 13/32/3 16/33/3 15/34/3
f 16/35/3 17/36/3 15/37/3
f 18/38/3 19/39/3 17/40/3
f 21/41/4 22/42/4 48/43/4
f 23/44/4 24/45/4 22/46/4
f 25/47/4 26/48/4 24/49/4
f 27/50/4 2/15/4 26/51/4
f 28/52/4 29/53/4 2/54/4
f 30/55/4 31/56/4 29/57/4
f 32/58/4 34/59/4 31/60/4
f 34/61/4 41/62/4 4/16/4
f 3/63/5 36/64/5 5/65/5
f 35/66/5 37/67/5 36/68/5
f 38/69/5 39/70/5 37/71/5
f 40/72/5 41/73/5 39/74/5
f 20/75/6 42/76/6 19/77/6
f 43/78/6 44/79/6 42/80/6
f 45/81/6 46/82/6 44/83/6
f 46/84/6 21/85/6 48/86/6
f 5/17/3 7/87/3 6/18/3
f 7/20/3 9/88/3 8/21/3
f 8/23/3 9/89/3 10/24/3
f 11/26/3 10/90/3 12/27/3
f 12/29/3 14/91/3 13/30/3
f 13/32/3 14/92/3 16/33/3
f 16/35/3 18/93/3 17/36/3
f 18/38/3 20/94/3 19/39/3
f 21/41/4 23/95/4 22/42/4
f 23/44/4 25/96/4 24/45/4
f 25/47/4 27/97/4 26/48/4
f 27/50/4 28/98/4 2/15/4
f 28/52/4 30/99/4 29/53/4
f 30/55/4 32/100/4 31/56/4
f 32/58/4 33/101/4 34/59/4
f 34/61/4 33/102/4 41/62/4
f 3/63/5 35/103/5 36/64/5
f 35/66/5 38/104/5 37/67/5
f 38/69/5 40/105/5 39/70/5
f 40/72/5 4/106/5 41/73/5
f 20/75/6 43/107/6 42/76/6
f 43/78/6 45/108/6 44/79/6
f 45/81/6 47/109/6 46/82/6
f 46/84/6 47/110/6 21/85/6
