# Blender v2.93.0 OBJ File: 'devshapes.blend'
# www.blender.org
mtllib box_16x12x2.mtl
o box_16x12x2_box_16x12x2_mesh
v 1.000000 0.250000 0.500000
v 0.000000 0.250000 0.500000
v 1.000000 0.250000 -0.500000
v 0.000000 0.250000 -0.500000
v -1.000000 0.250000 0.500000
v -1.000000 0.250000 -0.500000
v -2.000000 0.250000 0.500000
v -1.000000 0.250000 -1.500000
v -2.000000 0.250000 -0.500000
v -1.000000 -0.250000 -1.500000
v -1.000000 -0.250000 0.500000
v -1.000000 -0.250000 -0.500000
v -0.000000 -0.250000 -1.500000
v 0.000000 -0.250000 0.500000
v 1.000000 -0.250000 1.500000
v 1.000000 -0.250000 0.500000
v 0.000000 -0.250000 -0.500000
v 2.000000 -0.250000 1.500000
v 2.000000 -0.250000 0.500000
v 1.000000 -0.250000 -0.500000
v 1.000000 -0.250000 -1.500000
v 2.000000 -0.250000 -0.500000
v 2.000000 -0.250000 -1.500000
v 1.500000 -0.250000 1.500000
v 1.500000 0.250000 1.500000
v 1.000000 0.250000 1.500000
v 0.500000 0.250000 1.500000
v 0.500000 -0.250000 1.500000
v 0.000000 -0.250000 1.500000
v -0.000000 0.250000 1.500000
v -0.500000 -0.250000 1.500000
v -0.500000 0.250000 1.500000
v -1.000000 0.250000 1.500000
v -1.000000 -0.250000 1.500000
v -1.500000 -0.250000 1.500000
v -1.500000 0.250000 1.500000
v -2.000000 -0.250000 1.500000
v -2.000000 0.250000 1.500000
v -2.000000 -0.250000 -1.500000
v -2.000000 0.250000 -1.500000
v -1.500000 -0.250000 -1.500000
v -1.500000 0.250000 -1.500000
v -0.500000 -0.250000 -1.500000
v -0.500000 0.250000 -1.500000
v -0.000000 0.250000 -1.500000
v 0.500000 -0.250000 -1.500000
v 0.500000 0.250000 -1.500000
v 1.000000 0.250000 -1.500000
v 1.500000 -0.250000 -1.500000
v 1.500000 0.250000 -1.500000
v 2.000000 0.250000 -1.500000
v 2.000000 0.250000 1.500000
v 2.000000 0.250000 1.000000
v 2.000000 -0.250000 1.000000
v 2.000000 0.250000 0.500000
v 2.000000 -0.250000 0.000000
v 2.000000 0.250000 0.000000
v 2.000000 0.250000 -0.500000
v 2.000000 -0.250000 -1.000000
v 2.000000 0.250000 -1.000000
v -2.000000 -0.250000 1.000000
v -2.000000 0.250000 1.000000
v -2.000000 -0.250000 0.500000
v -2.000000 0.250000 0.000000
v -2.000000 -0.250000 0.000000
v -2.000000 -0.250000 -0.500000
v -2.000000 -0.250000 -1.000000
v -2.000000 0.250000 -1.000000
vt 0.000000 0.000000
vt 0.500000 0.500000
vt 0.000000 0.500000
vt 0.500000 0.000000
vt 0.000000 0.500000
vt 0.000000 0.000000
vt 0.500000 0.000000
vt 0.000000 0.500000
vt 0.000000 0.000000
vt 0.500000 0.000000
vt 0.000000 0.500000
vt 0.000000 0.000000
vt 0.500000 0.000000
vt 0.000000 0.500000
vt 0.000000 0.000000
vt 0.500000 0.000000
vt 0.000000 0.500000
vt 0.000000 0.000000
vt 0.500000 0.000000
vt 0.000000 0.500000
vt 0.000000 0.000000
vt 0.500000 0.000000
vt 0.000000 0.500000
vt 0.000000 0.000000
vt 0.500000 0.000000
vt 0.000000 0.500000
vt 0.000000 0.000000
vt 0.500000 0.000000
vt 0.000000 0.500000
vt 0.000000 0.000000
vt 0.000000 0.000000
vt 0.500000 0.500000
vt 0.000000 0.500000
vt 0.500000 0.000000
vt 0.000000 0.500000
vt 0.000000 0.000000
vt 0.500000 0.000000
vt 0.000000 0.500000
vt 0.000000 0.000000
vt 0.500000 0.000000
vt 0.000000 0.500000
vt 0.000000 0.000000
vt 0.500000 0.000000
vt 0.000000 0.500000
vt 0.000000 0.000000
vt 0.500000 0.000000
vt 0.000000 0.500000
vt 0.000000 0.000000
vt 0.500000 0.000000
vt 0.000000 0.500000
vt 0.000000 0.000000
vt 0.000000 0.000000
vt 0.500000 0.500000
vt 0.000000 0.500000
vt 0.500000 0.000000
vt 0.000000 0.500000
vt 0.000000 0.000000
vt 0.500000 0.000000
vt 0.000000 0.500000
vt 0.000000 0.000000
vt 0.500000 0.000000
vt 0.000000 0.500000
vt 0.000000 0.000000
vt 0.500000 0.000000
vt 0.000000 0.500000
vt 0.000000 0.000000
vt 0.500000 0.000000
vt 0.000000 0.500000
vt 0.000000 0.000000
vt 0.000000 0.000000
vt 0.500000 0.500000
vt 0.000000 0.500000
vt 0.500000 0.000000
vt 0.500000 0.500000
vt 0.500000 0.500000
vt 0.500000 0.500000
vt 0.500000 0.500000
vt 0.500000 0.500000
vt 0.500000 0.500000
vt 0.500000 0.500000
vt 0.500000 0.500000
vt 0.500000 0.500000
vt 0.500000 0.000000
vt 0.500000 0.500000
vt 0.500000 0.500000
vt 0.500000 0.500000
vt 0.500000 0.500000
vt 0.500000 0.500000
vt 0.500000 0.500000
vt 0.500000 0.000000
vt 0.500000 0.500000
vt 0.500000 0.500000
vt 0.500000 0.500000
vt 0.500000 0.500000
vt 0.500000 0.500000
vt 0.500000 0.000000
vt 1.000000 0.500000
vt 0.500000 1.000000
vt 0.500000 0.500000
vt 0.500000 0.500000
vt 1.000000 1.000000
vt 0.500000 1.000000
vt 1.000000 0.500000
vt 0.500000 1.000000
vt 0.500000 0.500000
vt 1.000000 0.500000
vt 0.500000 1.000000
vt 0.500000 0.500000
vt 1.000000 0.500000
vt 0.500000 1.000000
vt 0.500000 0.500000
vt 0.500000 0.500000
vt 1.000000 1.000000
vt 0.500000 1.000000
vt 1.000000 0.500000
vt 0.500000 1.000000
vt 0.500000 0.500000
vt 1.000000 0.500000
vt 0.500000 1.000000
vt 0.500000 0.500000
vt 1.000000 0.500000
vt 0.500000 1.000000
vt 0.500000 0.500000
vt 1.000000 0.500000
vt 0.500000 1.000000
vt 0.500000 0.500000
vt 1.000000 0.500000
vt 0.500000 1.000000
vt 1.000000 0.500000
vt 0.500000 1.000000
vt 0.500000 0.500000
vt 1.000000 0.500000
vt 0.500000 1.000000
vt 1.000000 0.500000
vt 0.500000 1.000000
vt 0.500000 0.500000
vt 1.000000 0.500000
vt 0.500000 1.000000
vt 1.000000 0.500000
vt 0.500000 1.000000
vt 0.500000 0.500000
vt 0.500000 0.500000
vt 1.000000 1.000000
vt 0.500000 1.000000
vt 1.000000 0.500000
vt 0.500000 1.000000
vt 0.500000 0.500000
vt 1.000000 0.500000
vt 0.500000 1.000000
vt 0.500000 0.500000
vt 1.000000 0.500000
vt 0.500000 1.000000
vt 0.500000 0.500000
vt 0.500000 0.500000
vt 1.000000 1.000000
vt 0.500000 1.000000
vt 1.000000 0.500000
vt 0.500000 1.000000
vt 0.500000 0.500000
vt 1.000000 0.500000
vt 0.500000 1.000000
vt 0.500000 0.500000
vt 0.500000 0.500000
vt 1.000000 1.000000
vt 0.500000 1.000000
vt 1.000000 0.500000
vt 0.500000 1.000000
vt 0.500000 0.500000
vt 1.000000 0.500000
vt 0.500000 1.000000
vt 0.500000 0.500000
vt 1.000000 0.500000
vt 0.500000 1.000000
vt 0.500000 0.500000
vt 0.500000 0.500000
vt 1.000000 1.000000
vt 0.500000 1.000000
vt 1.000000 1.000000
vt 1.000000 0.500000
vt 1.000000 1.000000
vt 1.000000 1.000000
vt 1.000000 1.000000
vt 1.000000 0.500000
vt 1.000000 1.000000
vt 1.000000 1.000000
vt 1.000000 1.000000
vt 1.000000 1.000000
vt 1.000000 1.000000
vt 1.000000 1.000000
vt 1.000000 1.000000
vt 1.000000 1.000000
vt 1.000000 1.000000
vt 1.000000 1.000000
vt 1.000000 0.500000
vt 1.000000 1.000000
vt 1.000000 1.000000
vt 1.000000 1.000000
vt 1.000000 0.500000
vt 1.000000 1.000000
vt 1.000000 1.000000
vt 1.000000 0.500000
vt 1.000000 1.000000
vt 1.000000 1.000000
vt 1.000000 1.000000
vt 1.000000 0.500000
vn 0.0000 1.0000 0.0000
vn 0.0000 -1.0000 0.0000
vn 0.0000 0.0000 1.0000
vn 0.0000 0.0000 -1.0000
vn 1.0000 0.0000 0.0000
vn -1.0000 0.0000 0.0000
usemtl GridCombined.003
s off
f 52/1/1 1/2/1 26/3/1
f 58/4/1 1/5/1 55/6/1
f 51/7/1 3/8/1 58/9/1
f 1/10/1 30/11/1 26/12/1
f 3/13/1 2/14/1 1/15/1
f 48/16/1 4/17/1 3/18/1
f 2/19/1 33/20/1 30/21/1
f 4/22/1 5/23/1 2/24/1
f 45/25/1 6/26/1 4/27/1
f 5/28/1 38/29/1 33/30/1
f 5/31/1 9/32/1 7/33/1
f 8/34/1 9/35/1 6/36/1
f 63/37/2 34/38/2 37/39/2
f 66/40/2 11/41/2 63/42/2
f 39/43/2 12/44/2 66/45/2
f 11/46/2 29/47/2 34/48/2
f 12/49/2 14/50/2 11/51/2
f 12/52/2 13/53/2 17/54/2
f 14/55/2 15/56/2 29/57/2
f 17/58/2 16/59/2 14/60/2
f 13/61/2 20/62/2 17/63/2
f 16/64/2 18/65/2 15/66/2
f 20/67/2 19/68/2 16/69/2
f 20/70/2 23/71/2 22/72/2
f 52/1/1 55/73/1 1/2/1
f 58/4/1 3/74/1 1/5/1
f 51/7/1 48/75/1 3/8/1
f 1/10/1 2/76/1 30/11/1
f 3/13/1 4/77/1 2/14/1
f 48/16/1 45/78/1 4/17/1
f 2/19/1 5/79/1 33/20/1
f 4/22/1 6/80/1 5/23/1
f 45/25/1 8/81/1 6/26/1
f 5/28/1 7/82/1 38/29/1
f 5/31/1 6/83/1 9/32/1
f 8/34/1 40/84/1 9/35/1
f 63/37/2 11/85/2 34/38/2
f 66/40/2 12/86/2 11/41/2
f 39/43/2 10/87/2 12/44/2
f 11/46/2 14/88/2 29/47/2
f 12/49/2 17/89/2 14/50/2
f 12/52/2 10/90/2 13/53/2
f 14/55/2 16/91/2 15/56/2
f 17/58/2 20/92/2 16/59/2
f 13/61/2 21/93/2 20/62/2
f 16/64/2 19/94/2 18/65/2
f 20/67/2 22/95/2 19/68/2
f 20/70/2 21/96/2 23/71/2
usemtl GridCombined.001
f 52/97/3 24/98/3 18/99/3
f 24/100/3 26/101/3 15/102/3
f 26/103/3 28/104/3 15/105/3
f 27/106/3 29/107/3 28/108/3
f 30/109/3 31/110/3 29/111/3
f 31/112/3 33/113/3 34/114/3
f 33/115/3 35/116/3 34/117/3
f 36/118/3 37/119/3 35/120/3
f 40/121/4 41/122/4 39/123/4
f 42/124/4 10/125/4 41/126/4
f 8/127/4 43/128/4 10/87/4
f 44/129/4 13/130/4 43/131/4
f 45/132/4 46/133/4 13/53/4
f 47/134/4 21/135/4 46/136/4
f 48/137/4 49/138/4 21/93/4
f 50/139/4 23/140/4 49/141/4
f 52/142/5 54/143/5 53/144/5
f 54/145/5 55/146/5 53/147/5
f 19/148/5 57/149/5 55/150/5
f 56/151/5 58/152/5 57/153/5
f 58/154/5 59/155/5 60/156/5
f 59/157/5 51/158/5 60/159/5
f 38/160/6 61/161/6 37/162/6
f 61/163/6 7/164/6 63/165/6
f 7/166/6 65/167/6 63/168/6
f 64/169/6 66/170/6 65/171/6
f 9/172/6 67/173/6 66/174/6
f 67/175/6 40/176/6 39/177/6
f 52/97/3 25/178/3 24/98/3
f 24/100/3 25/179/3 26/101/3
f 26/103/3 27/180/3 28/104/3
f 27/106/3 30/181/3 29/107/3
f 30/109/3 32/182/3 31/110/3
f 31/112/3 32/183/3 33/113/3
f 33/115/3 36/184/3 35/116/3
f 36/118/3 38/185/3 37/119/3
f 40/121/4 42/186/4 41/122/4
f 42/124/4 8/187/4 10/125/4
f 8/127/4 44/188/4 43/128/4
f 44/129/4 45/189/4 13/130/4
f 45/132/4 47/190/4 46/133/4
f 47/134/4 48/191/4 21/135/4
f 48/137/4 50/192/4 49/138/4
f 50/139/4 51/193/4 23/140/4
f 52/142/5 18/194/5 54/143/5
f 54/145/5 19/195/5 55/146/5
f 19/148/5 56/196/5 57/149/5
f 56/151/5 22/197/5 58/152/5
f 58/154/5 22/198/5 59/155/5
f 59/157/5 23/199/5 51/158/5
f 38/160/6 62/200/6 61/161/6
f 61/163/6 62/201/6 7/164/6
f 7/166/6 64/202/6 65/167/6
f 64/169/6 9/203/6 66/170/6
f 9/172/6 68/204/6 67/173/6
f 67/175/6 68/205/6 40/176/6
