# Blender v2.93.0 OBJ File: 'devshapes.blend'
# www.blender.org
mtllib box_8x8x2.mtl
o box_8x8x2_box_8x8x2_mesh
v -1.000000 0.250000 0.000000
v 0.000000 0.250000 0.000000
v 0.000000 0.250000 -1.000000
v 0.000000 -0.250000 -1.000000
v -1.000000 -0.250000 0.000000
v -1.000000 -0.250000 1.000000
v 0.000000 -0.250000 1.000000
v 0.000000 -0.250000 0.000000
v 1.000000 -0.250000 1.000000
v 1.000000 0.250000 1.000000
v 0.500000 -0.250000 1.000000
v 0.500000 0.250000 1.000000
v -0.000000 0.250000 1.000000
v -0.500000 -0.250000 1.000000
v -0.500000 0.250000 1.000000
v -1.000000 0.250000 1.000000
v -1.000000 -0.250000 -1.000000
v -1.000000 0.250000 -1.000000
v -0.500000 0.250000 -1.000000
v -0.500000 -0.250000 -1.000000
v 0.500000 0.250000 -1.000000
v 0.500000 -0.250000 -1.000000
v 1.000000 -0.250000 0.500000
v 1.000000 0.250000 0.500000
v 1.000000 0.250000 0.000000
v 1.000000 -0.250000 0.000000
v 1.000000 0.250000 -0.500000
v 1.000000 -0.250000 -0.500000
v 1.000000 0.250000 -1.000000
v 1.000000 -0.250000 -1.000000
v -1.000000 0.250000 0.500000
v -1.000000 -0.250000 0.500000
v -1.000000 -0.250000 -0.500000
v -1.000000 0.250000 -0.500000
vt 0.500000 0.000000
vt 0.000000 0.500000
vt 0.000000 0.000000
vt 0.500000 0.000000
vt 0.000000 0.500000
vt 0.000000 0.000000
vt 0.500000 0.000000
vt 0.000000 0.500000
vt 0.000000 0.000000
vt 0.500000 0.000000
vt 0.000000 0.500000
vt 0.000000 0.000000
vt 0.500000 0.000000
vt 0.000000 0.500000
vt 0.000000 0.000000
vt 0.500000 0.000000
vt 0.000000 0.500000
vt 0.000000 0.000000
vt 0.500000 0.000000
vt 0.000000 0.500000
vt 0.000000 0.000000
vt 0.500000 0.000000
vt 0.000000 0.500000
vt 0.000000 0.000000
vt 0.500000 0.500000
vt 0.500000 0.500000
vt 0.500000 0.500000
vt 0.500000 0.500000
vt 0.500000 0.500000
vt 0.500000 0.500000
vt 0.500000 0.500000
vt 0.500000 0.500000
vt 1.000000 0.500000
vt 0.500000 1.000000
vt 1.000000 0.500000
vt 0.500000 1.000000
vt 0.500000 0.500000
vt 1.000000 0.500000
vt 0.500000 1.000000
vt 0.500000 0.500000
vt 1.000000 1.000000
vt 0.500000 1.000000
vt 1.000000 0.500000
vt 0.500000 1.000000
vt 0.500000 0.500000
vt 1.000000 0.500000
vt 0.500000 1.000000
vt 0.500000 0.500000
vt 1.000000 0.500000
vt 0.500000 1.000000
vt 0.500000 0.500000
vt 1.000000 0.500000
vt 0.500000 1.000000
vt 0.500000 0.500000
vt 1.000000 0.500000
vt 0.500000 1.000000
vt 0.500000 0.500000
vt 1.000000 0.500000
vt 0.500000 1.000000
vt 0.500000 0.500000
vt 1.000000 0.500000
vt 0.500000 1.000000
vt 1.000000 0.500000
vt 0.500000 1.000000
vt 0.500000 0.500000
vt 1.000000 0.500000
vt 0.500000 1.000000
vt 0.500000 0.500000
vt 1.000000 0.500000
vt 0.500000 1.000000
vt 0.500000 0.500000
vt 1.000000 0.500000
vt 0.500000 1.000000
vt 0.500000 0.500000
vt 0.500000 0.500000
vt 1.000000 1.000000
vt 0.500000 1.000000
vt 1.000000 1.000000
vt 1.000000 1.000000
vt 1.000000 1.000000
vt 1.000000 0.500000
vt 1.000000 1.000000
vt 1.000000 1.000000
vt 1.000000 1.000000
vt 1.000000 1.000000
vt 1.000000 1.000000
vt 1.000000 1.000000
vt 1.000000 1.000000
vt 1.000000 1.000000
vt 1.000000 1.000000
vt 1.000000 1.000000
vt 1.000000 1.000000
vt 1.000000 0.500000
vn -0.0000 1.0000 0.0000
vn 0.0000 -1.0000 0.0000
vn -0.0000 0.0000 1.0000
vn 0.0000 0.0000 -1.0000
vn 1.0000 0.0000 0.0000
vn -1.0000 0.0000 0.0000
usemtl GridCombined.003
s off
f 13/1/1 1/2/1 16/3/1
f 10/4/1 2/5/1 13/6/1
f 2/7/1 18/8/1 1/9/1
f 25/10/1 3/11/1 2/12/1
f 4/13/2 5/14/2 17/15/2
f 30/16/2 8/17/2 4/18/2
f 8/19/2 6/20/2 5/21/2
f 26/22/2 7/23/2 8/24/2
f 13/1/1 2/25/1 1/2/1
f 10/4/1 25/26/1 2/5/1
f 2/7/1 3/27/1 18/8/1
f 25/10/1 29/28/1 3/11/1
f 4/13/2 8/29/2 5/14/2
f 30/16/2 26/30/2 8/17/2
f 8/19/2 7/31/2 6/20/2
f 26/22/2 9/32/2 7/23/2
usemtl GridCombined.001
f 10/33/3 11/34/3 9/32/3
f 12/35/3 7/36/3 11/37/3
f 13/38/3 14/39/3 7/31/3
f 14/40/3 16/41/3 6/42/3
f 18/43/4 20/44/4 17/45/4
f 19/46/4 4/47/4 20/48/4
f 3/49/4 22/50/4 4/51/4
f 21/52/4 30/53/4 22/54/4
f 9/55/5 24/56/5 10/57/5
f 23/58/5 25/59/5 24/60/5
f 26/61/5 27/62/5 25/26/5
f 28/63/5 29/64/5 27/65/5
f 16/66/6 32/67/6 6/68/6
f 31/69/6 5/70/6 32/71/6
f 1/72/6 33/73/6 5/74/6
f 33/75/6 18/76/6 17/77/6
f 10/33/3 12/78/3 11/34/3
f 12/35/3 13/79/3 7/36/3
f 13/38/3 15/80/3 14/39/3
f 14/40/3 15/81/3 16/41/3
f 18/43/4 19/82/4 20/44/4
f 19/46/4 3/83/4 4/47/4
f 3/49/4 21/84/4 22/50/4
f 21/52/4 29/85/4 30/53/4
f 9/55/5 23/86/5 24/56/5
f 23/58/5 26/87/5 25/59/5
f 26/61/5 28/88/5 27/62/5
f 28/63/5 30/89/5 29/64/5
f 16/66/6 31/90/6 32/67/6
f 31/69/6 1/91/6 5/70/6
f 1/72/6 34/92/6 33/73/6
f 33/75/6 34/93/6 18/76/6
