# Blender v2.93.0 OBJ File: 'devshapes.blend'
# www.blender.org
mtllib box_8x2x1.mtl
o box_8x2x1_box_8x2x1_mesh
v 0.500000 0.125000 0.250000
v -0.500000 0.125000 -0.250000
v -1.000000 0.125000 -0.250000
v -0.500000 -0.125000 -0.250000
v 0.000000 -0.125000 0.250000
v 0.000000 -0.125000 -0.250000
v 1.000000 -0.125000 0.250000
v 1.000000 0.125000 0.250000
v 0.750000 -0.125000 0.250000
v 0.750000 0.125000 0.250000
v 0.500000 -0.125000 0.250000
v 0.250000 -0.125000 0.250000
v 0.250000 0.125000 0.250000
v -0.000000 0.125000 0.250000
v -0.250000 -0.125000 0.250000
v -0.250000 0.125000 0.250000
v -0.500000 -0.125000 0.250000
v -0.500000 0.125000 0.250000
v -0.750000 0.125000 0.250000
v -0.750000 -0.125000 0.250000
v -1.000000 -0.125000 0.250000
v -1.000000 0.125000 0.250000
v -0.750000 -0.125000 -0.250000
v -0.750000 0.125000 -0.250000
v -0.250000 -0.125000 -0.250000
v -0.250000 0.125000 -0.250000
v -0.000000 0.125000 -0.250000
v 0.250000 -0.125000 -0.250000
v 0.250000 0.125000 -0.250000
v 0.500000 -0.125000 -0.250000
v 0.500000 0.125000 -0.250000
v 0.750000 0.125000 -0.250000
v 0.750000 -0.125000 -0.250000
v 1.000000 0.125000 0.000000
v 1.000000 -0.125000 0.000000
v 1.000000 0.125000 -0.250000
v 1.000000 -0.125000 -0.250000
v -1.000000 -0.125000 0.000000
v -1.000000 0.125000 0.000000
v -1.000000 -0.125000 -0.250000
vt 1.000000 0.500000
vt 0.500000 1.000000
vt 0.500000 0.500000
vt 1.000000 0.500000
vt 0.500000 1.000000
vt 0.500000 0.500000
vt 1.000000 0.500000
vt 0.500000 1.000000
vt 0.500000 0.500000
vt 0.500000 0.500000
vt 1.000000 1.000000
vt 0.500000 1.000000
vt 1.000000 0.500000
vt 0.500000 1.000000
vt 0.500000 0.500000
vt 1.000000 0.500000
vt 0.500000 1.000000
vt 0.500000 0.500000
vt 1.000000 0.500000
vt 0.500000 1.000000
vt 0.500000 0.500000
vt 1.000000 0.500000
vt 0.500000 1.000000
vt 0.500000 0.500000
vt 1.000000 1.000000
vt 1.000000 1.000000
vt 1.000000 1.000000
vt 1.000000 0.500000
vt 1.000000 1.000000
vt 1.000000 1.000000
vt 1.000000 1.000000
vt 1.000000 1.000000
vt 0.750000 0.250000
vt 0.500000 0.500000
vt 0.500000 0.250000
vt 0.750000 0.250000
vt 0.500000 0.250000
vt 0.500000 0.250000
vt 0.750000 0.500000
vt 0.500000 0.500000
vt 0.500000 0.250000
vt 0.750000 0.500000
vt 0.750000 0.250000
vt 0.500000 0.500000
vt 0.500000 0.250000
vt 0.500000 0.250000
vt 0.750000 0.500000
vt 0.750000 0.250000
vt 0.500000 0.500000
vt 0.500000 0.250000
vt 0.750000 0.250000
vt 0.500000 0.250000
vt 0.500000 0.250000
vt 0.750000 0.500000
vt 0.500000 0.500000
vt 0.750000 0.250000
vt 0.500000 0.500000
vt 0.500000 0.250000
vt 0.750000 0.250000
vt 0.500000 0.500000
vt 0.500000 0.250000
vt 0.750000 0.250000
vt 0.500000 0.500000
vt 0.500000 0.250000
vt 0.750000 0.250000
vt 0.500000 0.500000
vt 0.500000 0.250000
vt 0.750000 0.250000
vt 0.500000 0.500000
vt 0.500000 0.250000
vt 0.750000 0.250000
vt 0.500000 0.500000
vt 0.500000 0.250000
vt 0.750000 0.250000
vt 0.500000 0.500000
vt 0.500000 0.250000
vt 0.750000 0.250000
vt 0.500000 0.500000
vt 0.500000 0.250000
vt 0.750000 0.250000
vt 0.500000 0.500000
vt 0.500000 0.250000
vt 0.750000 0.250000
vt 0.500000 0.500000
vt 0.500000 0.250000
vt 0.750000 0.250000
vt 0.500000 0.500000
vt 0.500000 0.250000
vt 0.750000 0.500000
vt 0.750000 0.500000
vt 0.750000 0.250000
vt 0.750000 0.250000
vt 0.750000 0.500000
vt 0.750000 0.250000
vt 0.750000 0.500000
vt 0.750000 0.500000
vt 0.750000 0.250000
vt 0.750000 0.500000
vt 0.750000 0.500000
vt 0.750000 0.500000
vt 0.750000 0.500000
vt 0.750000 0.500000
vt 0.750000 0.500000
vt 0.750000 0.500000
vt 0.750000 0.500000
vt 0.750000 0.500000
vt 0.750000 0.500000
vt 0.750000 0.500000
vn 0.0000 1.0000 0.0000
vn 0.0000 -1.0000 0.0000
vn -0.0000 -0.0000 1.0000
vn -0.0000 0.0000 -1.0000
vn 1.0000 0.0000 0.0000
vn -1.0000 0.0000 0.0000
usemtl GridCombined.001
s off
f 36/1/1 1/2/1 8/3/1
f 31/4/1 14/5/1 1/6/1
f 27/7/1 18/8/1 14/9/1
f 18/10/1 3/11/1 22/12/1
f 40/13/2 17/14/2 21/15/2
f 4/16/2 5/17/2 17/18/2
f 6/19/2 11/20/2 5/21/2
f 30/22/2 7/23/2 11/24/2
f 36/1/1 31/25/1 1/2/1
f 31/4/1 27/26/1 14/5/1
f 27/7/1 2/27/1 18/8/1
f 18/10/1 2/28/1 3/11/1
f 40/13/2 4/29/2 17/14/2
f 4/16/2 6/30/2 5/17/2
f 6/19/2 30/31/2 11/20/2
f 30/22/2 37/32/2 7/23/2
usemtl GridCombined.002
f 8/33/3 9/34/3 7/35/3
f 10/36/3 11/24/3 9/37/3
f 11/38/3 13/39/3 12/40/3
f 12/41/3 14/42/3 5/21/3
f 14/43/3 15/44/3 5/45/3
f 15/46/3 18/47/3 17/18/3
f 18/48/3 20/49/3 17/50/3
f 19/51/3 21/15/3 20/52/3
f 40/53/4 24/54/4 23/55/4
f 24/56/4 4/57/4 23/58/4
f 2/59/4 25/60/4 4/61/4
f 26/62/4 6/63/4 25/64/4
f 27/65/4 28/66/4 6/67/4
f 29/68/4 30/69/4 28/70/4
f 31/71/4 33/72/4 30/73/4
f 32/74/4 37/75/4 33/76/4
f 7/77/5 34/78/5 8/79/5
f 35/80/5 36/81/5 34/82/5
f 22/83/6 38/84/6 21/85/6
f 39/86/6 40/87/6 38/88/6
f 8/33/3 10/89/3 9/34/3
f 10/36/3 1/90/3 11/24/3
f 11/38/3 1/91/3 13/39/3
f 12/41/3 13/92/3 14/42/3
f 14/43/3 16/93/3 15/44/3
f 15/46/3 16/94/3 18/47/3
f 18/48/3 19/95/3 20/49/3
f 19/51/3 22/96/3 21/15/3
f 40/53/4 3/97/4 24/54/4
f 24/56/4 2/98/4 4/57/4
f 2/59/4 26/99/4 25/60/4
f 26/62/4 27/100/4 6/63/4
f 27/65/4 29/101/4 28/66/4
f 29/68/4 31/102/4 30/69/4
f 31/71/4 32/103/4 33/72/4
f 32/74/4 36/104/4 37/75/4
f 7/77/5 35/105/5 34/78/5
f 35/80/5 37/106/5 36/81/5
f 22/83/6 39/107/6 38/84/6
f 39/86/6 3/108/6 40/87/6
