# Blender v2.93.0 OBJ File: 'devshapes.blend'
# www.blender.org
mtllib box_12x8x2.mtl
o box_12x8x2_box_12x8x2_mesh
v 1.500000 0.250000 1.000000
v 0.500000 0.250000 0.000000
v -0.500000 0.250000 0.000000
v -0.500000 0.250000 -1.000000
v -1.500000 -0.250000 0.000000
v -1.500000 -0.250000 -1.000000
v -0.500000 -0.250000 -1.000000
v -0.500000 -0.250000 0.000000
v 0.500000 -0.250000 1.000000
v 0.500000 -0.250000 0.000000
v 1.500000 -0.250000 1.000000
v 1.500000 -0.250000 -1.000000
v 1.000000 -0.250000 1.000000
v 1.000000 0.250000 1.000000
v 0.500000 0.250000 1.000000
v -0.000000 0.250000 1.000000
v 0.000000 -0.250000 1.000000
v -0.500000 -0.250000 1.000000
v -0.500000 0.250000 1.000000
v -1.000000 -0.250000 1.000000
v -1.000000 0.250000 1.000000
v -1.500000 -0.250000 1.000000
v -1.500000 0.250000 1.000000
v -1.500000 0.250000 -1.000000
v -1.000000 -0.250000 -1.000000
v -1.000000 0.250000 -1.000000
v 0.000000 -0.250000 -1.000000
v -0.000000 0.250000 -1.000000
v 0.500000 -0.250000 -1.000000
v 0.500000 0.250000 -1.000000
v 1.000000 -0.250000 -1.000000
v 1.000000 0.250000 -1.000000
v 1.500000 0.250000 -1.000000
v 1.500000 0.250000 0.500000
v 1.500000 -0.250000 0.500000
v 1.500000 -0.250000 0.000000
v 1.500000 0.250000 0.000000
v 1.500000 -0.250000 -0.500000
v 1.500000 0.250000 -0.500000
v -1.500000 -0.250000 0.500000
v -1.500000 0.250000 0.500000
v -1.500000 0.250000 0.000000
v -1.500000 -0.250000 -0.500000
v -1.500000 0.250000 -0.500000
vt 0.500000 0.000000
vt 0.000000 0.500000
vt 0.000000 0.000000
vt 0.500000 0.000000
vt 0.000000 0.500000
vt 0.000000 0.000000
vt 0.500000 0.000000
vt 0.000000 0.500000
vt 0.000000 0.000000
vt 0.500000 0.000000
vt 0.000000 0.500000
vt 0.000000 0.000000
vt 0.500000 0.000000
vt 0.000000 0.500000
vt 0.000000 0.000000
vt 0.500000 0.000000
vt 0.000000 0.500000
vt 0.000000 0.000000
vt 0.500000 0.000000
vt 0.000000 0.500000
vt 0.000000 0.000000
vt 0.500000 0.000000
vt 0.000000 0.500000
vt 0.000000 0.000000
vt 0.500000 0.000000
vt 0.000000 0.500000
vt 0.000000 0.000000
vt 0.500000 0.000000
vt 0.000000 0.500000
vt 0.000000 0.000000
vt 0.500000 0.000000
vt 0.000000 0.500000
vt 0.000000 0.000000
vt 0.500000 0.000000
vt 0.000000 0.500000
vt 0.000000 0.000000
vt 0.500000 0.500000
vt 0.500000 0.500000
vt 0.500000 0.500000
vt 0.500000 0.500000
vt 0.500000 0.500000
vt 0.500000 0.500000
vt 0.500000 0.500000
vt 0.500000 0.500000
vt 0.500000 0.500000
vt 0.500000 0.500000
vt 0.500000 0.500000
vt 0.500000 0.500000
vt 1.000000 0.500000
vt 0.500000 1.000000
vt 0.500000 0.500000
vt 0.500000 0.500000
vt 1.000000 1.000000
vt 0.500000 1.000000
vt 1.000000 0.500000
vt 0.500000 1.000000
vt 0.500000 0.500000
vt 1.000000 0.500000
vt 0.500000 1.000000
vt 0.500000 0.500000
vt 0.500000 0.500000
vt 1.000000 1.000000
vt 0.500000 1.000000
vt 1.000000 0.500000
vt 0.500000 1.000000
vt 0.500000 0.500000
vt 0.500000 0.500000
vt 1.000000 1.000000
vt 0.500000 1.000000
vt 1.000000 0.500000
vt 0.500000 1.000000
vt 0.500000 0.500000
vt 1.000000 1.000000
vt 0.500000 1.000000
vt 1.000000 0.500000
vt 0.500000 1.000000
vt 0.500000 0.500000
vt 1.000000 0.500000
vt 0.500000 1.000000
vt 0.500000 0.500000
vt 1.000000 1.000000
vt 0.500000 1.000000
vt 0.500000 0.500000
vt 1.000000 1.000000
vt 0.500000 1.000000
vt 1.000000 0.500000
vt 0.500000 1.000000
vt 0.500000 0.500000
vt 1.000000 0.500000
vt 0.500000 1.000000
vt 0.500000 0.500000
vt 1.000000 0.500000
vt 0.500000 1.000000
vt 0.500000 0.500000
vt 1.000000 0.500000
vt 0.500000 1.000000
vt 0.500000 0.500000
vt 1.000000 0.500000
vt 0.500000 1.000000
vt 0.500000 0.500000
vt 0.500000 0.500000
vt 1.000000 1.000000
vt 0.500000 1.000000
vt 1.000000 0.500000
vt 0.500000 1.000000
vt 0.500000 0.500000
vt 1.000000 1.000000
vt 1.000000 0.500000
vt 1.000000 1.000000
vt 1.000000 1.000000
vt 1.000000 0.500000
vt 1.000000 1.000000
vt 1.000000 0.500000
vt 1.000000 1.000000
vt 1.000000 0.500000
vt 1.000000 1.000000
vt 1.000000 1.000000
vt 1.000000 0.500000
vt 1.000000 0.500000
vt 1.000000 1.000000
vt 1.000000 1.000000
vt 1.000000 1.000000
vt 1.000000 1.000000
vt 1.000000 1.000000
vt 1.000000 0.500000
vt 1.000000 1.000000
vn 0.0000 1.0000 0.0000
vn -0.0000 -1.0000 -0.0000
vn 0.0000 0.0000 1.0000
vn 0.0000 0.0000 -1.0000
vn 1.0000 0.0000 0.0000
vn -1.0000 0.0000 0.0000
usemtl GridCombined.003
s off
f 37/1/1 15/2/1 1/3/1
f 33/4/1 2/5/1 37/6/1
f 2/7/1 19/8/1 15/9/1
f 30/10/1 3/11/1 2/12/1
f 3/13/1 23/14/1 19/15/1
f 4/16/1 42/17/1 3/18/1
f 5/19/2 18/20/2 22/21/2
f 6/22/2 8/23/2 5/24/2
f 8/25/2 9/26/2 18/27/2
f 7/28/2 10/29/2 8/30/2
f 10/31/2 11/32/2 9/33/2
f 29/34/2 36/35/2 10/36/2
f 37/1/1 2/37/1 15/2/1
f 33/4/1 30/38/1 2/5/1
f 2/7/1 3/39/1 19/8/1
f 30/10/1 4/40/1 3/11/1
f 3/13/1 42/41/1 23/14/1
f 4/16/1 24/42/1 42/17/1
f 5/19/2 8/43/2 18/20/2
f 6/22/2 7/44/2 8/23/2
f 8/25/2 10/45/2 9/26/2
f 7/28/2 29/46/2 10/29/2
f 10/31/2 36/47/2 11/32/2
f 29/34/2 12/48/2 36/35/2
usemtl GridCombined.001
f 1/49/3 13/50/3 11/51/3
f 13/52/3 15/53/3 9/54/3
f 15/55/3 17/56/3 9/57/3
f 16/58/3 18/59/3 17/60/3
f 18/61/3 21/62/3 20/63/3
f 21/64/3 22/65/3 20/66/3
f 6/67/4 26/68/4 25/69/4
f 26/70/4 7/71/4 25/72/4
f 7/44/4 28/73/4 27/74/4
f 28/75/4 29/76/4 27/77/4
f 30/78/4 31/79/4 29/46/4
f 31/80/4 33/81/4 12/82/4
f 1/83/5 35/84/5 34/85/5
f 35/86/5 37/87/5 34/88/5
f 36/89/5 39/90/5 37/91/5
f 38/92/5 33/93/5 39/94/5
f 23/95/6 40/96/6 22/97/6
f 41/98/6 5/99/6 40/100/6
f 5/101/6 44/102/6 43/103/6
f 44/104/6 6/105/6 43/106/6
f 1/49/3 14/107/3 13/50/3
f 13/52/3 14/108/3 15/53/3
f 15/55/3 16/109/3 17/56/3
f 16/58/3 19/110/3 18/59/3
f 18/61/3 19/111/3 21/62/3
f 21/64/3 23/112/3 22/65/3
f 6/67/4 24/113/4 26/68/4
f 26/70/4 4/114/4 7/71/4
f 7/44/4 4/115/4 28/73/4
f 28/75/4 30/116/4 29/76/4
f 30/78/4 32/117/4 31/79/4
f 31/80/4 32/118/4 33/81/4
f 1/83/5 11/119/5 35/84/5
f 35/86/5 36/120/5 37/87/5
f 36/89/5 38/121/5 39/90/5
f 38/92/5 12/122/5 33/93/5
f 23/95/6 41/123/6 40/96/6
f 41/98/6 42/124/6 5/99/6
f 5/101/6 42/125/6 44/102/6
f 44/104/6 24/126/6 6/105/6
