# Blender v2.93.0 OBJ File: 'devshapes.blend'
# www.blender.org
mtllib box_4x4x2.mtl
o box_4x4x2_box_4x4x2_mesh
v 0.500000 0.250000 0.500000
v -0.500000 -0.250000 -0.500000
v 0.000000 -0.250000 0.500000
v -0.000000 0.250000 0.500000
v -0.500000 0.250000 0.500000
v -0.500000 0.250000 -0.500000
v 0.000000 -0.250000 -0.500000
v -0.000000 0.250000 -0.500000
v 0.500000 -0.250000 0.500000
v 0.500000 0.250000 0.000000
v 0.500000 -0.250000 0.000000
v 0.500000 0.250000 -0.500000
v 0.500000 -0.250000 -0.500000
v -0.500000 -0.250000 0.500000
v -0.500000 0.250000 0.000000
v -0.500000 -0.250000 0.000000
vt 0.500000 0.000000
vt 0.000000 0.500000
vt 0.000000 0.000000
vt 0.500000 0.000000
vt 0.000000 0.500000
vt 0.000000 0.000000
vt 0.500000 0.500000
vt 0.500000 0.500000
vt 1.000000 0.500000
vt 0.500000 1.000000
vt 1.000000 0.500000
vt 0.500000 1.000000
vt 0.500000 0.500000
vt 0.500000 0.500000
vt 1.000000 1.000000
vt 0.500000 1.000000
vt 1.000000 0.500000
vt 0.500000 1.000000
vt 0.500000 0.500000
vt 1.000000 0.500000
vt 0.500000 1.000000
vt 0.500000 0.500000
vt 1.000000 0.500000
vt 0.500000 1.000000
vt 0.500000 0.500000
vt 1.000000 0.500000
vt 0.500000 1.000000
vt 0.500000 0.500000
vt 1.000000 0.500000
vt 0.500000 1.000000
vt 0.500000 0.500000
vt 1.000000 1.000000
vt 1.000000 1.000000
vt 1.000000 0.500000
vt 1.000000 1.000000
vt 1.000000 1.000000
vt 1.000000 1.000000
vt 1.000000 1.000000
vt 1.000000 1.000000
vn -0.0000 1.0000 0.0000
vn -0.0000 -1.0000 -0.0000
vn 0.0000 -0.0000 1.0000
vn 0.0000 0.0000 -1.0000
vn 1.0000 0.0000 0.0000
vn -1.0000 0.0000 0.0000
usemtl GridCombined.003
s off
f 1/1/1 6/2/1 5/3/1
f 13/4/2 14/5/2 2/6/2
f 1/1/1 12/7/1 6/2/1
f 13/4/2 9/8/2 14/5/2
usemtl GridCombined.001
f 1/9/3 3/10/3 9/8/3
f 4/11/3 14/12/3 3/13/3
f 2/14/4 8/15/4 7/16/4
f 8/17/4 13/18/4 7/19/4
f 9/20/5 10/21/5 1/22/5
f 11/23/5 12/24/5 10/25/5
f 5/26/6 16/27/6 14/28/6
f 15/29/6 2/30/6 16/31/6
f 1/9/3 4/32/3 3/10/3
f 4/11/3 5/33/3 14/12/3
f 2/14/4 6/34/4 8/15/4
f 8/17/4 12/35/4 13/18/4
f 9/20/5 11/36/5 10/21/5
f 11/23/5 13/37/5 12/24/5
f 5/26/6 15/38/6 16/27/6
f 15/29/6 6/39/6 2/30/6
