# Blender v2.93.0 OBJ File: 'devshapes.blend'
# www.blender.org
mtllib box_16x16x1.mtl
o box_16x16x1_box_16x16x1_mesh
v -1.000000 0.125000 2.000000
v -1.000000 0.125000 1.000000
v 0.000000 0.125000 1.000000
v 1.000000 0.125000 2.000000
v 1.000000 0.125000 1.000000
v 2.000000 0.125000 1.000000
v -1.000000 0.125000 0.000000
v -1.000000 0.125000 -1.000000
v 0.000000 0.125000 0.000000
v 0.000000 0.125000 -1.000000
v 1.000000 0.125000 0.000000
v 2.000000 0.125000 0.000000
v 1.000000 0.125000 -1.000000
v 0.000000 -0.125000 -2.000000
v 1.000000 -0.125000 -2.000000
v -1.000000 -0.125000 -1.000000
v 0.000000 -0.125000 -1.000000
v 1.000000 -0.125000 -1.000000
v 1.000000 -0.125000 0.000000
v 2.000000 -0.125000 0.000000
v -1.000000 -0.125000 0.000000
v 0.000000 -0.125000 0.000000
v 2.000000 -0.125000 1.000000
v -1.000000 -0.125000 1.000000
v 0.000000 -0.125000 1.000000
v 1.000000 -0.125000 2.000000
v 1.000000 -0.125000 1.000000
v 2.000000 -0.125000 2.000000
v 2.000000 0.125000 2.000000
v 1.750000 -0.125000 2.000000
v 1.750000 0.125000 2.000000
v 1.500000 -0.125000 2.000000
v 1.500000 0.125000 2.000000
v 1.250000 -0.125000 2.000000
v 1.250000 0.125000 2.000000
v 0.750000 -0.125000 2.000000
v 0.750000 0.125000 2.000000
v 0.500000 -0.125000 2.000000
v 0.500000 0.125000 2.000000
v 0.250000 -0.125000 2.000000
v 0.250000 0.125000 2.000000
v -0.000000 0.125000 2.000000
v 0.000000 -0.125000 2.000000
v -0.250000 0.125000 2.000000
v -0.250000 -0.125000 2.000000
v -0.500000 0.125000 2.000000
v -0.500000 -0.125000 2.000000
v -0.750000 -0.125000 2.000000
v -0.750000 0.125000 2.000000
v -1.000000 -0.125000 2.000000
v -1.250000 0.125000 2.000000
v -1.250000 -0.125000 2.000000
v -1.500000 -0.125000 2.000000
v -1.500000 0.125000 2.000000
v -1.750000 0.125000 2.000000
v -1.750000 -0.125000 2.000000
v -2.000000 -0.125000 -2.000000
v -2.000000 0.125000 -2.000000
v -1.750000 0.125000 -2.000000
v -1.750000 -0.125000 -2.000000
v -1.500000 -0.125000 -2.000000
v -1.500000 0.125000 -2.000000
v -1.250000 0.125000 -2.000000
v -1.250000 -0.125000 -2.000000
v -1.000000 0.125000 -2.000000
v -1.000000 -0.125000 -2.000000
v -0.750000 0.125000 -2.000000
v -0.750000 -0.125000 -2.000000
v -0.500000 -0.125000 -2.000000
v -0.500000 0.125000 -2.000000
v -0.250000 -0.125000 -2.000000
v -0.250000 0.125000 -2.000000
v -0.000000 0.125000 -2.000000
v 0.250000 -0.125000 -2.000000
v 0.250000 0.125000 -2.000000
v 0.500000 -0.125000 -2.000000
v 0.500000 0.125000 -2.000000
v 0.750000 -0.125000 -2.000000
v 0.750000 0.125000 -2.000000
v 1.000000 0.125000 -2.000000
v 1.250000 -0.125000 -2.000000
v 1.250000 0.125000 -2.000000
v 1.500000 -0.125000 -2.000000
v 1.500000 0.125000 -2.000000
v 1.750000 -0.125000 -2.000000
v 1.750000 0.125000 -2.000000
v 2.000000 0.125000 -2.000000
v 2.000000 0.125000 1.750000
v 2.000000 -0.125000 1.750000
v 2.000000 0.125000 1.500000
v 2.000000 -0.125000 1.500000
v 2.000000 0.125000 1.250000
v 2.000000 -0.125000 1.250000
v 2.000000 0.125000 0.750000
v 2.000000 -0.125000 0.750000
v 2.000000 0.125000 0.500000
v 2.000000 -0.125000 0.500000
v 2.000000 0.125000 0.250000
v 2.000000 -0.125000 0.250000
v 2.000000 -0.125000 -0.250000
v 2.000000 0.125000 -0.250000
v 2.000000 -0.125000 -0.500000
v 2.000000 0.125000 -0.500000
v 2.000000 0.125000 -0.750000
v 2.000000 -0.125000 -0.750000
v 2.000000 0.125000 -1.000000
v 2.000000 -0.125000 -1.000000
v 2.000000 0.125000 -1.250000
v 2.000000 -0.125000 -1.250000
v 2.000000 -0.125000 -1.500000
v 2.000000 0.125000 -1.500000
v 2.000000 0.125000 -1.750000
v 2.000000 -0.125000 -1.750000
v 2.000000 -0.125000 -2.000000
v -2.000000 -0.125000 2.000000
v -2.000000 0.125000 2.000000
v -2.000000 -0.125000 1.750000
v -2.000000 0.125000 1.750000
v -2.000000 0.125000 1.500000
v -2.000000 -0.125000 1.500000
v -2.000000 -0.125000 1.250000
v -2.000000 0.125000 1.250000
v -2.000000 -0.125000 1.000000
v -2.000000 0.125000 1.000000
v -2.000000 0.125000 0.750000
v -2.000000 -0.125000 0.750000
v -2.000000 0.125000 0.500000
v -2.000000 -0.125000 0.500000
v -2.000000 0.125000 0.250000
v -2.000000 -0.125000 0.250000
v -2.000000 -0.125000 0.000000
v -2.000000 0.125000 0.000000
v -2.000000 0.125000 -0.250000
v -2.000000 -0.125000 -0.250000
v -2.000000 0.125000 -0.500000
v -2.000000 -0.125000 -0.500000
v -2.000000 -0.125000 -0.750000
v -2.000000 0.125000 -0.750000
v -2.000000 -0.125000 -1.000000
v -2.000000 0.125000 -1.000000
v -2.000000 -0.125000 -1.250000
v -2.000000 0.125000 -1.250000
v -2.000000 -0.125000 -1.500000
v -2.000000 0.125000 -1.500000
v -2.000000 -0.125000 -1.750000
v -2.000000 0.125000 -1.750000
vt 0.000000 0.000000
vt 0.500000 0.500000
vt 0.000000 0.500000
vt 0.500000 0.000000
vt 0.000000 0.500000
vt 0.000000 0.000000
vt 0.500000 0.000000
vt 0.000000 0.500000
vt 0.000000 0.000000
vt 0.500000 0.000000
vt 0.000000 0.500000
vt 0.000000 0.000000
vt 0.500000 0.000000
vt 0.000000 0.500000
vt 0.000000 0.000000
vt 0.500000 0.000000
vt 0.000000 0.500000
vt 0.000000 0.000000
vt 0.500000 0.000000
vt 0.000000 0.500000
vt 0.000000 0.000000
vt 0.500000 0.000000
vt 0.000000 0.500000
vt 0.000000 0.000000
vt 0.500000 0.000000
vt 0.000000 0.500000
vt 0.000000 0.000000
vt 0.500000 0.000000
vt 0.000000 0.500000
vt 0.000000 0.000000
vt 0.500000 0.000000
vt 0.000000 0.500000
vt 0.000000 0.000000
vt 0.500000 0.000000
vt 0.000000 0.500000
vt 0.000000 0.000000
vt 0.500000 0.000000
vt 0.000000 0.500000
vt 0.000000 0.000000
vt 0.500000 0.000000
vt 0.000000 0.500000
vt 0.000000 0.000000
vt 0.500000 0.000000
vt 0.000000 0.500000
vt 0.000000 0.000000
vt 0.500000 0.000000
vt 0.000000 0.500000
vt 0.000000 0.000000
vt 0.500000 0.000000
vt 0.000000 0.500000
vt 0.000000 0.000000
vt 0.500000 0.000000
vt 0.000000 0.500000
vt 0.000000 0.000000
vt 0.500000 0.000000
vt 0.000000 0.500000
vt 0.000000 0.000000
vt 0.500000 0.000000
vt 0.000000 0.500000
vt 0.000000 0.000000
vt 0.500000 0.000000
vt 0.000000 0.500000
vt 0.000000 0.000000
vt 0.500000 0.000000
vt 0.000000 0.500000
vt 0.000000 0.000000
vt 0.500000 0.000000
vt 0.000000 0.500000
vt 0.000000 0.000000
vt 0.500000 0.000000
vt 0.000000 0.500000
vt 0.000000 0.000000
vt 0.500000 0.000000
vt 0.000000 0.500000
vt 0.000000 0.000000
vt 0.500000 0.000000
vt 0.000000 0.500000
vt 0.000000 0.000000
vt 0.500000 0.000000
vt 0.000000 0.500000
vt 0.000000 0.000000
vt 0.500000 0.000000
vt 0.000000 0.500000
vt 0.000000 0.000000
vt 0.500000 0.000000
vt 0.000000 0.500000
vt 0.000000 0.000000
vt 0.500000 0.000000
vt 0.000000 0.500000
vt 0.000000 0.000000
vt 0.500000 0.000000
vt 0.000000 0.500000
vt 0.000000 0.000000
vt 0.500000 0.000000
vt 0.000000 0.500000
vt 0.000000 0.000000
vt 0.500000 0.000000
vt 0.500000 0.500000
vt 0.500000 0.500000
vt 0.500000 0.500000
vt 0.500000 0.500000
vt 0.500000 0.500000
vt 0.500000 0.500000
vt 0.500000 0.500000
vt 0.500000 0.500000
vt 0.500000 0.500000
vt 0.500000 0.500000
vt 0.500000 0.500000
vt 0.500000 0.500000
vt 0.500000 0.500000
vt 0.500000 0.500000
vt 0.500000 0.500000
vt 0.500000 0.500000
vt 0.500000 0.500000
vt 0.500000 0.500000
vt 0.500000 0.500000
vt 0.500000 0.500000
vt 0.500000 0.500000
vt 0.500000 0.500000
vt 0.500000 0.500000
vt 0.500000 0.500000
vt 0.500000 0.500000
vt 0.500000 0.500000
vt 0.500000 0.500000
vt 0.500000 0.500000
vt 0.500000 0.500000
vt 0.500000 0.500000
vt 0.500000 0.500000
vt 0.750000 0.250000
vt 0.500000 0.500000
vt 0.500000 0.250000
vt 0.500000 0.250000
vt 0.750000 0.500000
vt 0.500000 0.500000
vt 0.500000 0.250000
vt 0.750000 0.500000
vt 0.500000 0.500000
vt 0.500000 0.250000
vt 0.750000 0.500000
vt 0.750000 0.250000
vt 0.500000 0.500000
vt 0.500000 0.250000
vt 0.750000 0.250000
vt 0.500000 0.500000
vt 0.500000 0.250000
vt 0.500000 0.250000
vt 0.750000 0.500000
vt 0.500000 0.500000
vt 0.750000 0.250000
vt 0.500000 0.250000
vt 0.750000 0.250000
vt 0.500000 0.500000
vt 0.500000 0.250000
vt 0.500000 0.250000
vt 0.750000 0.500000
vt 0.500000 0.500000
vt 0.750000 0.250000
vt 0.500000 0.500000
vt 0.500000 0.250000
vt 0.750000 0.250000
vt 0.500000 0.250000
vt 0.750000 0.250000
vt 0.500000 0.500000
vt 0.500000 0.250000
vt 0.500000 0.250000
vt 0.750000 0.500000
vt 0.500000 0.500000
vt 0.500000 0.250000
vt 0.750000 0.500000
vt 0.500000 0.500000
vt 0.750000 0.250000
vt 0.500000 0.500000
vt 0.500000 0.250000
vt 0.500000 0.250000
vt 0.750000 0.500000
vt 0.500000 0.500000
vt 0.750000 0.250000
vt 0.500000 0.500000
vt 0.500000 0.250000
vt 0.750000 0.250000
vt 0.500000 0.500000
vt 0.500000 0.250000
vt 0.500000 0.250000
vt 0.750000 0.500000
vt 0.500000 0.500000
vt 0.750000 0.250000
vt 0.500000 0.500000
vt 0.500000 0.250000
vt 0.750000 0.250000
vt 0.500000 0.500000
vt 0.500000 0.250000
vt 0.750000 0.250000
vt 0.500000 0.500000
vt 0.500000 0.250000
vt 0.750000 0.250000
vt 0.500000 0.500000
vt 0.500000 0.250000
vt 0.500000 0.250000
vt 0.750000 0.500000
vt 0.500000 0.500000
vt 0.750000 0.250000
vt 0.500000 0.500000
vt 0.500000 0.250000
vt 0.750000 0.250000
vt 0.500000 0.500000
vt 0.500000 0.250000
vt 0.750000 0.250000
vt 0.500000 0.500000
vt 0.500000 0.250000
vt 0.500000 0.250000
vt 0.750000 0.500000
vt 0.500000 0.500000
vt 0.750000 0.250000
vt 0.500000 0.500000
vt 0.500000 0.250000
vt 0.750000 0.250000
vt 0.500000 0.500000
vt 0.500000 0.250000
vt 0.500000 0.250000
vt 0.750000 0.500000
vt 0.500000 0.500000
vt 0.750000 0.250000
vt 0.500000 0.500000
vt 0.500000 0.250000
vt 0.750000 0.250000
vt 0.500000 0.500000
vt 0.500000 0.250000
vt 0.750000 0.250000
vt 0.500000 0.500000
vt 0.500000 0.250000
vt 0.750000 0.250000
vt 0.500000 0.250000
vt 0.500000 0.250000
vt 0.750000 0.500000
vt 0.500000 0.500000
vt 0.750000 0.250000
vt 0.500000 0.500000
vt 0.500000 0.250000
vt 0.750000 0.250000
vt 0.500000 0.500000
vt 0.500000 0.250000
vt 0.750000 0.250000
vt 0.500000 0.250000
vt 0.750000 0.250000
vt 0.500000 0.500000
vt 0.500000 0.250000
vt 0.750000 0.250000
vt 0.500000 0.500000
vt 0.500000 0.250000
vt 0.750000 0.250000
vt 0.500000 0.500000
vt 0.500000 0.250000
vt 0.750000 0.250000
vt 0.500000 0.250000
vt 0.750000 0.250000
vt 0.500000 0.500000
vt 0.500000 0.250000
vt 0.750000 0.250000
vt 0.500000 0.500000
vt 0.500000 0.250000
vt 0.750000 0.250000
vt 0.500000 0.500000
vt 0.500000 0.250000
vt 0.500000 0.250000
vt 0.750000 0.500000
vt 0.750000 0.250000
vt 0.500000 0.500000
vt 0.500000 0.250000
vt 0.750000 0.250000
vt 0.500000 0.500000
vt 0.500000 0.250000
vt 0.750000 0.250000
vt 0.500000 0.500000
vt 0.500000 0.250000
vt 0.750000 0.250000
vt 0.500000 0.500000
vt 0.500000 0.250000
vt 0.750000 0.250000
vt 0.500000 0.500000
vt 0.500000 0.250000
vt 0.750000 0.250000
vt 0.500000 0.500000
vt 0.500000 0.250000
vt 0.750000 0.250000
vt 0.500000 0.500000
vt 0.500000 0.250000
vt 0.750000 0.250000
vt 0.500000 0.500000
vt 0.500000 0.250000
vt 0.750000 0.250000
vt 0.500000 0.500000
vt 0.500000 0.250000
vt 0.750000 0.250000
vt 0.500000 0.500000
vt 0.500000 0.250000
vt 0.750000 0.250000
vt 0.500000 0.500000
vt 0.500000 0.250000
vt 0.750000 0.250000
vt 0.500000 0.500000
vt 0.500000 0.250000
vt 0.750000 0.250000
vt 0.500000 0.500000
vt 0.500000 0.250000
vt 0.750000 0.250000
vt 0.500000 0.500000
vt 0.500000 0.250000
vt 0.750000 0.250000
vt 0.500000 0.500000
vt 0.500000 0.250000
vt 0.500000 0.250000
vt 0.750000 0.500000
vt 0.500000 0.500000
vt 0.750000 0.500000
vt 0.750000 0.250000
vt 0.750000 0.250000
vt 0.750000 0.250000
vt 0.750000 0.500000
vt 0.750000 0.500000
vt 0.750000 0.250000
vt 0.750000 0.500000
vt 0.750000 0.500000
vt 0.750000 0.250000
vt 0.750000 0.500000
vt 0.750000 0.500000
vt 0.750000 0.500000
vt 0.750000 0.250000
vt 0.750000 0.250000
vt 0.750000 0.500000
vt 0.750000 0.250000
vt 0.750000 0.500000
vt 0.750000 0.500000
vt 0.750000 0.250000
vt 0.750000 0.500000
vt 0.750000 0.500000
vt 0.750000 0.500000
vt 0.750000 0.500000
vt 0.750000 0.250000
vt 0.750000 0.500000
vt 0.750000 0.500000
vt 0.750000 0.500000
vt 0.750000 0.250000
vt 0.750000 0.500000
vt 0.750000 0.500000
vt 0.750000 0.250000
vt 0.750000 0.500000
vt 0.750000 0.500000
vt 0.750000 0.500000
vt 0.750000 0.500000
vt 0.750000 0.250000
vt 0.750000 0.500000
vt 0.750000 0.500000
vt 0.750000 0.500000
vt 0.750000 0.500000
vt 0.750000 0.500000
vt 0.750000 0.500000
vt 0.750000 0.500000
vt 0.750000 0.500000
vt 0.750000 0.500000
vt 0.750000 0.500000
vt 0.750000 0.250000
vt 0.750000 0.500000
vt 0.750000 0.500000
vt 0.750000 0.500000
vt 0.750000 0.500000
vt 0.750000 0.500000
vt 0.750000 0.500000
vt 0.750000 0.500000
vt 0.750000 0.500000
vt 0.750000 0.500000
vt 0.750000 0.500000
vt 0.750000 0.500000
vt 0.750000 0.500000
vt 0.750000 0.500000
vt 0.750000 0.500000
vt 0.750000 0.500000
vt 0.750000 0.250000
vn 0.0000 1.0000 0.0000
vn 0.0000 -1.0000 0.0000
vn 0.0000 0.0000 1.0000
vn 0.0000 0.0000 -1.0000
vn 1.0000 0.0000 0.0000
vn -1.0000 0.0000 0.0000
usemtl GridCombined.003
s off
f 116/1/1 2/2/1 124/3/1
f 42/4/1 2/5/1 1/6/1
f 4/7/1 3/8/1 42/9/1
f 29/10/1 5/11/1 4/12/1
f 2/13/1 132/14/1 124/15/1
f 3/16/1 7/17/1 2/18/1
f 5/19/1 9/20/1 3/21/1
f 6/22/1 11/23/1 5/24/1
f 7/25/1 140/26/1 132/27/1
f 9/28/1 8/29/1 7/30/1
f 11/31/1 10/32/1 9/33/1
f 12/34/1 13/35/1 11/36/1
f 8/37/1 58/38/1 140/39/1
f 10/40/1 65/41/1 8/42/1
f 13/43/1 73/44/1 10/45/1
f 106/46/1 80/47/1 13/48/1
f 66/49/2 139/50/2 57/51/2
f 14/52/2 16/53/2 66/54/2
f 15/55/2 17/56/2 14/57/2
f 114/58/2 18/59/2 15/60/2
f 16/61/2 131/62/2 139/63/2
f 17/64/2 21/65/2 16/66/2
f 18/67/2 22/68/2 17/69/2
f 107/70/2 19/71/2 18/72/2
f 21/73/2 123/74/2 131/75/2
f 22/76/2 24/77/2 21/78/2
f 19/79/2 25/80/2 22/81/2
f 20/82/2 27/83/2 19/84/2
f 24/85/2 115/86/2 123/87/2
f 25/88/2 50/89/2 24/90/2
f 27/91/2 43/92/2 25/93/2
f 23/94/2 26/95/2 27/96/2
f 116/1/1 1/97/1 2/2/1
f 42/4/1 3/98/1 2/5/1
f 4/7/1 5/99/1 3/8/1
f 29/10/1 6/100/1 5/11/1
f 2/13/1 7/101/1 132/14/1
f 3/16/1 9/102/1 7/17/1
f 5/19/1 11/103/1 9/20/1
f 6/22/1 12/104/1 11/23/1
f 7/25/1 8/105/1 140/26/1
f 9/28/1 10/106/1 8/29/1
f 11/31/1 13/107/1 10/32/1
f 12/34/1 106/108/1 13/35/1
f 8/37/1 65/109/1 58/38/1
f 10/40/1 73/110/1 65/41/1
f 13/43/1 80/111/1 73/44/1
f 106/46/1 87/112/1 80/47/1
f 66/49/2 16/113/2 139/50/2
f 14/52/2 17/114/2 16/53/2
f 15/55/2 18/115/2 17/56/2
f 114/58/2 107/116/2 18/59/2
f 16/61/2 21/117/2 131/62/2
f 17/64/2 22/118/2 21/65/2
f 18/67/2 19/119/2 22/68/2
f 107/70/2 20/120/2 19/71/2
f 21/73/2 24/121/2 123/74/2
f 22/76/2 25/122/2 24/77/2
f 19/79/2 27/123/2 25/80/2
f 20/82/2 23/124/2 27/83/2
f 24/85/2 50/125/2 115/86/2
f 25/88/2 43/126/2 50/89/2
f 27/91/2 26/127/2 43/92/2
f 23/94/2 28/128/2 26/95/2
usemtl GridCombined.002
f 29/129/3 30/130/3 28/131/3
f 30/132/3 33/133/3 32/134/3
f 32/135/3 35/136/3 34/137/3
f 34/138/3 4/139/3 26/127/3
f 4/140/3 36/141/3 26/142/3
f 37/143/3 38/144/3 36/145/3
f 38/146/3 41/147/3 40/148/3
f 41/149/3 43/126/3 40/150/3
f 42/151/3 45/152/3 43/153/3
f 45/154/3 46/155/3 47/156/3
f 46/157/3 48/158/3 47/159/3
f 49/160/3 50/125/3 48/161/3
f 1/162/3 52/163/3 50/164/3
f 52/165/3 54/166/3 53/167/3
f 53/168/3 55/169/3 56/170/3
f 55/171/3 115/172/3 56/173/3
f 57/174/4 59/175/4 60/176/4
f 59/177/4 61/178/4 60/179/4
f 62/180/4 64/181/4 61/182/4
f 64/183/4 65/184/4 66/185/4
f 65/186/4 68/187/4 66/188/4
f 67/189/4 69/190/4 68/191/4
f 70/192/4 71/193/4 69/194/4
f 72/195/4 14/196/4 71/197/4
f 14/198/4 75/199/4 74/200/4
f 75/201/4 76/202/4 74/203/4
f 77/204/4 78/205/4 76/206/4
f 79/207/4 15/208/4 78/209/4
f 15/210/4 82/211/4 81/212/4
f 82/213/4 83/214/4 81/215/4
f 84/216/4 85/217/4 83/218/4
f 85/219/4 87/220/4 114/221/4
f 28/222/5 88/223/5 29/224/5
f 89/225/5 90/226/5 88/227/5
f 91/228/5 92/229/5 90/230/5
f 93/231/5 6/100/5 92/232/5
f 6/233/5 95/234/5 94/235/5
f 95/236/5 96/237/5 94/238/5
f 97/239/5 98/240/5 96/241/5
f 99/242/5 12/104/5 98/243/5
f 20/244/5 101/245/5 12/246/5
f 100/247/5 103/248/5 101/249/5
f 102/250/5 104/251/5 103/252/5
f 105/253/5 106/108/5 104/254/5
f 107/255/5 108/256/5 106/257/5
f 109/258/5 111/259/5 108/260/5
f 110/261/5 112/262/5 111/263/5
f 112/264/5 114/265/5 87/112/5
f 116/266/6 117/267/6 115/268/6
f 118/269/6 120/270/6 117/271/6
f 119/272/6 121/273/6 120/274/6
f 122/275/6 123/276/6 121/277/6
f 124/278/6 126/279/6 123/280/6
f 125/281/6 128/282/6 126/283/6
f 127/284/6 130/285/6 128/286/6
f 129/287/6 131/288/6 130/289/6
f 132/290/6 134/291/6 131/292/6
f 133/293/6 136/294/6 134/295/6
f 135/296/6 137/297/6 136/298/6
f 138/299/6 139/300/6 137/301/6
f 140/302/6 141/303/6 139/304/6
f 142/305/6 143/306/6 141/307/6
f 144/308/6 145/309/6 143/310/6
f 145/311/6 58/312/6 57/313/6
f 29/129/3 31/314/3 30/130/3
f 30/132/3 31/315/3 33/133/3
f 32/135/3 33/316/3 35/136/3
f 34/138/3 35/317/3 4/139/3
f 4/140/3 37/318/3 36/141/3
f 37/143/3 39/319/3 38/144/3
f 38/146/3 39/320/3 41/147/3
f 41/149/3 42/321/3 43/126/3
f 42/151/3 44/322/3 45/152/3
f 45/154/3 44/323/3 46/155/3
f 46/157/3 49/324/3 48/158/3
f 49/160/3 1/325/3 50/125/3
f 1/162/3 51/326/3 52/163/3
f 52/165/3 51/327/3 54/166/3
f 53/168/3 54/328/3 55/169/3
f 55/171/3 116/329/3 115/172/3
f 57/174/4 58/330/4 59/175/4
f 59/177/4 62/331/4 61/178/4
f 62/180/4 63/332/4 64/181/4
f 64/183/4 63/333/4 65/184/4
f 65/186/4 67/334/4 68/187/4
f 67/189/4 70/335/4 69/190/4
f 70/192/4 72/336/4 71/193/4
f 72/195/4 73/337/4 14/196/4
f 14/198/4 73/338/4 75/199/4
f 75/201/4 77/339/4 76/202/4
f 77/204/4 79/340/4 78/205/4
f 79/207/4 80/341/4 15/208/4
f 15/210/4 80/342/4 82/211/4
f 82/213/4 84/343/4 83/214/4
f 84/216/4 86/344/4 85/217/4
f 85/219/4 86/345/4 87/220/4
f 28/222/5 89/346/5 88/223/5
f 89/225/5 91/347/5 90/226/5
f 91/228/5 93/348/5 92/229/5
f 93/231/5 23/349/5 6/100/5
f 6/233/5 23/350/5 95/234/5
f 95/236/5 97/351/5 96/237/5
f 97/239/5 99/352/5 98/240/5
f 99/242/5 20/353/5 12/104/5
f 20/244/5 100/354/5 101/245/5
f 100/247/5 102/355/5 103/248/5
f 102/250/5 105/356/5 104/251/5
f 105/253/5 107/357/5 106/108/5
f 107/255/5 109/358/5 108/256/5
f 109/258/5 110/359/5 111/259/5
f 110/261/5 113/360/5 112/262/5
f 112/264/5 113/361/5 114/265/5
f 116/266/6 118/362/6 117/267/6
f 118/269/6 119/363/6 120/270/6
f 119/272/6 122/364/6 121/273/6
f 122/275/6 124/365/6 123/276/6
f 124/278/6 125/366/6 126/279/6
f 125/281/6 127/367/6 128/282/6
f 127/284/6 129/368/6 130/285/6
f 129/287/6 132/369/6 131/288/6
f 132/290/6 133/370/6 134/291/6
f 133/293/6 135/371/6 136/294/6
f 135/296/6 138/372/6 137/297/6
f 138/299/6 140/373/6 139/300/6
f 140/302/6 142/374/6 141/303/6
f 142/305/6 144/375/6 143/306/6
f 144/308/6 146/376/6 145/309/6
f 145/311/6 146/377/6 58/312/6
