# Blender v2.93.0 OBJ File: 'devshapes.blend'
# www.blender.org
mtllib box_16x4x2.mtl
o box_16x4x2_box_16x4x2_mesh
v 1.000000 0.250000 0.500000
v -1.000000 0.250000 -0.500000
v -2.000000 0.250000 -0.500000
v -1.000000 -0.250000 -0.500000
v 0.000000 -0.250000 0.500000
v 0.000000 -0.250000 -0.500000
v 2.000000 -0.250000 0.500000
v 2.000000 0.250000 0.500000
v 1.500000 -0.250000 0.500000
v 1.500000 0.250000 0.500000
v 1.000000 -0.250000 0.500000
v 0.500000 -0.250000 0.500000
v 0.500000 0.250000 0.500000
v -0.000000 0.250000 0.500000
v -0.500000 -0.250000 0.500000
v -0.500000 0.250000 0.500000
v -1.000000 -0.250000 0.500000
v -1.000000 0.250000 0.500000
v -1.500000 0.250000 0.500000
v -1.500000 -0.250000 0.500000
v -2.000000 -0.250000 0.500000
v -2.000000 0.250000 0.500000
v -1.500000 -0.250000 -0.500000
v -1.500000 0.250000 -0.500000
v -0.500000 -0.250000 -0.500000
v -0.500000 0.250000 -0.500000
v -0.000000 0.250000 -0.500000
v 0.500000 -0.250000 -0.500000
v 0.500000 0.250000 -0.500000
v 1.000000 -0.250000 -0.500000
v 1.000000 0.250000 -0.500000
v 1.500000 0.250000 -0.500000
v 1.500000 -0.250000 -0.500000
v 2.000000 0.250000 0.000000
v 2.000000 -0.250000 0.000000
v 2.000000 0.250000 -0.500000
v 2.000000 -0.250000 -0.500000
v -2.000000 -0.250000 0.000000
v -2.000000 0.250000 0.000000
v -2.000000 -0.250000 -0.500000
vt 0.500000 0.000000
vt 0.000000 0.500000
vt 0.000000 0.000000
vt 0.500000 0.000000
vt 0.000000 0.500000
vt 0.000000 0.000000
vt 0.500000 0.000000
vt 0.000000 0.500000
vt 0.000000 0.000000
vt 0.000000 0.000000
vt 0.500000 0.500000
vt 0.000000 0.500000
vt 0.500000 0.000000
vt 0.000000 0.500000
vt 0.000000 0.000000
vt 0.500000 0.000000
vt 0.000000 0.500000
vt 0.000000 0.000000
vt 0.500000 0.000000
vt 0.000000 0.500000
vt 0.000000 0.000000
vt 0.500000 0.000000
vt 0.000000 0.500000
vt 0.000000 0.000000
vt 0.500000 0.500000
vt 0.500000 0.500000
vt 0.500000 0.500000
vt 0.500000 0.000000
vt 0.500000 0.500000
vt 0.500000 0.500000
vt 0.500000 0.500000
vt 0.500000 0.500000
vt 1.000000 0.500000
vt 0.500000 1.000000
vt 0.500000 0.500000
vt 1.000000 0.500000
vt 0.500000 1.000000
vt 0.500000 0.500000
vt 0.500000 0.500000
vt 1.000000 1.000000
vt 0.500000 1.000000
vt 0.500000 0.500000
vt 1.000000 1.000000
vt 0.500000 1.000000
vt 1.000000 0.500000
vt 0.500000 1.000000
vt 0.500000 0.500000
vt 0.500000 0.500000
vt 1.000000 1.000000
vt 0.500000 1.000000
vt 1.000000 0.500000
vt 0.500000 1.000000
vt 0.500000 0.500000
vt 1.000000 0.500000
vt 0.500000 1.000000
vt 0.500000 0.500000
vt 0.500000 0.500000
vt 1.000000 1.000000
vt 0.500000 1.000000
vt 1.000000 0.500000
vt 0.500000 1.000000
vt 0.500000 0.500000
vt 1.000000 0.500000
vt 0.500000 1.000000
vt 1.000000 0.500000
vt 0.500000 1.000000
vt 0.500000 0.500000
vt 1.000000 0.500000
vt 0.500000 1.000000
vt 1.000000 0.500000
vt 0.500000 1.000000
vt 0.500000 0.500000
vt 1.000000 0.500000
vt 0.500000 1.000000
vt 1.000000 0.500000
vt 0.500000 1.000000
vt 0.500000 0.500000
vt 1.000000 0.500000
vt 0.500000 1.000000
vt 0.500000 0.500000
vt 1.000000 0.500000
vt 0.500000 1.000000
vt 0.500000 0.500000
vt 1.000000 0.500000
vt 0.500000 1.000000
vt 0.500000 0.500000
vt 1.000000 0.500000
vt 0.500000 1.000000
vt 0.500000 0.500000
vt 1.000000 1.000000
vt 1.000000 1.000000
vt 1.000000 0.500000
vt 1.000000 0.500000
vt 1.000000 1.000000
vt 1.000000 0.500000
vt 1.000000 1.000000
vt 1.000000 1.000000
vt 1.000000 0.500000
vt 1.000000 1.000000
vt 1.000000 1.000000
vt 1.000000 1.000000
vt 1.000000 1.000000
vt 1.000000 1.000000
vt 1.000000 1.000000
vt 1.000000 1.000000
vt 1.000000 1.000000
vt 1.000000 1.000000
vt 1.000000 1.000000
vt 1.000000 1.000000
vn 0.0000 1.0000 0.0000
vn 0.0000 -1.0000 0.0000
vn -0.0000 -0.0000 1.0000
vn -0.0000 0.0000 -1.0000
vn 1.0000 0.0000 0.0000
vn -1.0000 0.0000 0.0000
usemtl GridCombined.003
s off
f 36/1/1 1/2/1 8/3/1
f 31/4/1 14/5/1 1/6/1
f 27/7/1 18/8/1 14/9/1
f 18/10/1 3/11/1 22/12/1
f 40/13/2 17/14/2 21/15/2
f 4/16/2 5/17/2 17/18/2
f 6/19/2 11/20/2 5/21/2
f 30/22/2 7/23/2 11/24/2
f 36/1/1 31/25/1 1/2/1
f 31/4/1 27/26/1 14/5/1
f 27/7/1 2/27/1 18/8/1
f 18/10/1 2/28/1 3/11/1
f 40/13/2 4/29/2 17/14/2
f 4/16/2 6/30/2 5/17/2
f 6/19/2 30/31/2 11/20/2
f 30/22/2 37/32/2 7/23/2
usemtl GridCombined.001
f 8/33/3 9/34/3 7/35/3
f 10/36/3 11/37/3 9/38/3
f 11/39/3 13/40/3 12/41/3
f 12/42/3 14/43/3 5/44/3
f 14/45/3 15/46/3 5/47/3
f 15/48/3 18/49/3 17/50/3
f 18/51/3 20/52/3 17/53/3
f 19/54/3 21/55/3 20/56/3
f 40/57/4 24/58/4 23/59/4
f 24/60/4 4/61/4 23/62/4
f 2/63/4 25/64/4 4/29/4
f 26/65/4 6/66/4 25/67/4
f 27/68/4 28/69/4 6/30/4
f 29/70/4 30/71/4 28/72/4
f 31/73/4 33/74/4 30/31/4
f 32/75/4 37/76/4 33/77/4
f 7/78/5 34/79/5 8/80/5
f 35/81/5 36/82/5 34/83/5
f 22/84/6 38/85/6 21/86/6
f 39/87/6 40/88/6 38/89/6
f 8/33/3 10/90/3 9/34/3
f 10/36/3 1/91/3 11/37/3
f 11/39/3 1/92/3 13/40/3
f 12/42/3 13/93/3 14/43/3
f 14/45/3 16/94/3 15/46/3
f 15/48/3 16/95/3 18/49/3
f 18/51/3 19/96/3 20/52/3
f 19/54/3 22/97/3 21/55/3
f 40/57/4 3/98/4 24/58/4
f 24/60/4 2/99/4 4/61/4
f 2/63/4 26/100/4 25/64/4
f 26/65/4 27/101/4 6/66/4
f 27/68/4 29/102/4 28/69/4
f 29/70/4 31/103/4 30/71/4
f 31/73/4 32/104/4 33/74/4
f 32/75/4 36/105/4 37/76/4
f 7/78/5 35/106/5 34/79/5
f 35/81/5 37/107/5 36/82/5
f 22/84/6 39/108/6 38/85/6
f 39/87/6 3/109/6 40/88/6
