# Blender v2.93.0 OBJ File: 'devshapes.blend'
# www.blender.org
mtllib box_12x4x1.mtl
o box_12x4x1_box_12x4x1_mesh
v 1.500000 0.125000 0.500000
v 0.500000 0.125000 -0.500000
v -0.500000 -0.125000 0.500000
v 0.500000 -0.125000 -0.500000
v 1.500000 -0.125000 0.500000
v 1.250000 -0.125000 0.500000
v 1.250000 0.125000 0.500000
v 1.000000 -0.125000 0.500000
v 1.000000 0.125000 0.500000
v 0.750000 -0.125000 0.500000
v 0.750000 0.125000 0.500000
v 0.500000 -0.125000 0.500000
v 0.500000 0.125000 0.500000
v 0.250000 -0.125000 0.500000
v 0.250000 0.125000 0.500000
v -0.000000 0.125000 0.500000
v 0.000000 -0.125000 0.500000
v -0.250000 -0.125000 0.500000
v -0.250000 0.125000 0.500000
v -0.500000 0.125000 0.500000
v -0.750000 -0.125000 0.500000
v -0.750000 0.125000 0.500000
v -1.000000 0.125000 0.500000
v -1.000000 -0.125000 0.500000
v -1.250000 -0.125000 0.500000
v -1.250000 0.125000 0.500000
v -1.500000 -0.125000 0.500000
v -1.500000 0.125000 0.500000
v -1.500000 0.125000 -0.500000
v -1.250000 0.125000 -0.500000
v -1.250000 -0.125000 -0.500000
v -1.000000 -0.125000 -0.500000
v -1.000000 0.125000 -0.500000
v -0.750000 -0.125000 -0.500000
v -0.750000 0.125000 -0.500000
v -0.500000 -0.125000 -0.500000
v -0.500000 0.125000 -0.500000
v -0.250000 -0.125000 -0.500000
v -0.250000 0.125000 -0.500000
v -0.000000 0.125000 -0.500000
v 0.000000 -0.125000 -0.500000
v 0.250000 0.125000 -0.500000
v 0.250000 -0.125000 -0.500000
v 0.750000 -0.125000 -0.500000
v 0.750000 0.125000 -0.500000
v 1.000000 -0.125000 -0.500000
v 1.000000 0.125000 -0.500000
v 1.250000 -0.125000 -0.500000
v 1.250000 0.125000 -0.500000
v 1.500000 0.125000 -0.500000
v 1.500000 0.125000 0.250000
v 1.500000 -0.125000 0.250000
v 1.500000 0.125000 0.000000
v 1.500000 -0.125000 0.000000
v 1.500000 -0.125000 -0.250000
v 1.500000 0.125000 -0.250000
v 1.500000 -0.125000 -0.500000
v -1.500000 -0.125000 0.250000
v -1.500000 0.125000 0.250000
v -1.500000 -0.125000 0.000000
v -1.500000 0.125000 0.000000
v -1.500000 0.125000 -0.250000
v -1.500000 -0.125000 -0.250000
v -1.500000 -0.125000 -0.500000
vt 0.500000 0.000000
vt 0.000000 0.500000
vt 0.000000 0.000000
vt 0.500000 0.000000
vt 0.000000 0.500000
vt 0.000000 0.000000
vt 0.500000 0.000000
vt 0.000000 0.500000
vt 0.000000 0.000000
vt 0.500000 0.000000
vt 0.000000 0.500000
vt 0.000000 0.000000
vt 0.500000 0.000000
vt 0.000000 0.500000
vt 0.000000 0.000000
vt 0.500000 0.000000
vt 0.000000 0.500000
vt 0.000000 0.000000
vt 0.500000 0.500000
vt 0.500000 0.500000
vt 0.500000 0.500000
vt 0.500000 0.500000
vt 0.500000 0.500000
vt 0.500000 0.500000
vt 0.750000 0.250000
vt 0.500000 0.500000
vt 0.500000 0.250000
vt 0.750000 0.250000
vt 0.500000 0.500000
vt 0.500000 0.250000
vt 0.750000 0.250000
vt 0.500000 0.500000
vt 0.500000 0.250000
vt 0.750000 0.250000
vt 0.500000 0.500000
vt 0.500000 0.250000
vt 0.500000 0.250000
vt 0.750000 0.500000
vt 0.500000 0.500000
vt 0.750000 0.250000
vt 0.500000 0.500000
vt 0.500000 0.250000
vt 0.750000 0.250000
vt 0.500000 0.500000
vt 0.500000 0.250000
vt 0.750000 0.250000
vt 0.500000 0.500000
vt 0.500000 0.250000
vt 0.750000 0.250000
vt 0.500000 0.500000
vt 0.500000 0.250000
vt 0.750000 0.250000
vt 0.500000 0.500000
vt 0.500000 0.250000
vt 0.750000 0.250000
vt 0.500000 0.500000
vt 0.500000 0.250000
vt 0.500000 0.250000
vt 0.750000 0.500000
vt 0.500000 0.500000
vt 0.750000 0.250000
vt 0.500000 0.500000
vt 0.500000 0.250000
vt 0.500000 0.250000
vt 0.750000 0.500000
vt 0.500000 0.500000
vt 0.750000 0.250000
vt 0.500000 0.500000
vt 0.500000 0.250000
vt 0.750000 0.250000
vt 0.500000 0.250000
vt 0.750000 0.250000
vt 0.500000 0.500000
vt 0.500000 0.250000
vt 0.750000 0.250000
vt 0.500000 0.500000
vt 0.500000 0.250000
vt 0.750000 0.250000
vt 0.500000 0.500000
vt 0.500000 0.250000
vt 0.750000 0.250000
vt 0.500000 0.250000
vt 0.750000 0.250000
vt 0.500000 0.500000
vt 0.500000 0.250000
vt 0.750000 0.250000
vt 0.500000 0.500000
vt 0.500000 0.250000
vt 0.500000 0.250000
vt 0.750000 0.500000
vt 0.500000 0.500000
vt 0.750000 0.250000
vt 0.500000 0.250000
vt 0.500000 0.250000
vt 0.750000 0.500000
vt 0.500000 0.500000
vt 0.750000 0.250000
vt 0.500000 0.500000
vt 0.500000 0.250000
vt 0.750000 0.250000
vt 0.500000 0.500000
vt 0.500000 0.250000
vt 0.750000 0.250000
vt 0.500000 0.500000
vt 0.500000 0.250000
vt 0.750000 0.250000
vt 0.500000 0.500000
vt 0.500000 0.250000
vt 0.750000 0.250000
vt 0.500000 0.500000
vt 0.500000 0.250000
vt 0.750000 0.250000
vt 0.500000 0.500000
vt 0.500000 0.250000
vt 0.750000 0.250000
vt 0.500000 0.500000
vt 0.500000 0.250000
vt 0.750000 0.500000
vt 0.750000 0.500000
vt 0.750000 0.500000
vt 0.750000 0.500000
vt 0.750000 0.250000
vt 0.750000 0.500000
vt 0.750000 0.500000
vt 0.750000 0.500000
vt 0.750000 0.500000
vt 0.750000 0.500000
vt 0.750000 0.500000
vt 0.750000 0.250000
vt 0.750000 0.500000
vt 0.750000 0.250000
vt 0.750000 0.500000
vt 0.750000 0.500000
vt 0.750000 0.500000
vt 0.750000 0.500000
vt 0.750000 0.500000
vt 0.750000 0.500000
vt 0.750000 0.500000
vt 0.750000 0.500000
vt 0.750000 0.250000
vt 0.750000 0.500000
vt 0.750000 0.250000
vt 0.750000 0.500000
vt 0.750000 0.500000
vt 0.750000 0.500000
vt 0.750000 0.500000
vt 0.750000 0.500000
vt 0.750000 0.500000
vt 0.750000 0.500000
vn 0.0000 1.0000 0.0000
vn 0.0000 -1.0000 0.0000
vn 0.0000 0.0000 1.0000
vn 0.0000 -0.0000 -1.0000
vn 1.0000 0.0000 0.0000
vn -1.0000 0.0000 0.0000
usemtl GridCombined.003
s off
f 50/1/1 13/2/1 1/3/1
f 2/4/1 20/5/1 13/6/1
f 37/7/1 28/8/1 20/9/1
f 64/10/2 3/11/2 27/12/2
f 36/13/2 12/14/2 3/15/2
f 4/16/2 5/17/2 12/18/2
f 50/1/1 2/19/1 13/2/1
f 2/4/1 37/20/1 20/5/1
f 37/7/1 29/21/1 28/8/1
f 64/10/2 36/22/2 3/11/2
f 36/13/2 4/23/2 12/14/2
f 4/16/2 57/24/2 5/17/2
usemtl GridCombined.002
f 1/25/3 6/26/3 5/27/3
f 7/28/3 8/29/3 6/30/3
f 9/31/3 10/32/3 8/33/3
f 11/34/3 12/35/3 10/36/3
f 12/37/3 15/38/3 14/39/3
f 15/40/3 17/41/3 14/42/3
f 16/43/3 18/44/3 17/45/3
f 19/46/3 3/47/3 18/48/3
f 20/49/3 21/50/3 3/51/3
f 22/52/3 24/53/3 21/54/3
f 23/55/3 25/56/3 24/57/3
f 25/58/3 28/59/3 27/60/3
f 29/61/4 31/62/4 64/63/4
f 31/64/4 33/65/4 32/66/4
f 33/67/4 34/68/4 32/69/4
f 35/70/4 36/22/4 34/71/4
f 37/72/4 38/73/4 36/74/4
f 39/75/4 41/76/4 38/77/4
f 40/78/4 43/79/4 41/80/4
f 42/81/4 4/23/4 43/82/4
f 2/83/4 44/84/4 4/85/4
f 45/86/4 46/87/4 44/88/4
f 46/89/4 49/90/4 48/91/4
f 49/92/4 57/24/4 48/93/4
f 1/94/5 52/95/5 51/96/5
f 52/97/5 53/98/5 51/99/5
f 54/100/5 56/101/5 53/102/5
f 55/103/5 50/104/5 56/105/5
f 28/106/6 58/107/6 27/108/6
f 59/109/6 60/110/6 58/111/6
f 61/112/6 63/113/6 60/114/6
f 62/115/6 64/116/6 63/117/6
f 1/25/3 7/118/3 6/26/3
f 7/28/3 9/119/3 8/29/3
f 9/31/3 11/120/3 10/32/3
f 11/34/3 13/121/3 12/35/3
f 12/37/3 13/122/3 15/38/3
f 15/40/3 16/123/3 17/41/3
f 16/43/3 19/124/3 18/44/3
f 19/46/3 20/125/3 3/47/3
f 20/49/3 22/126/3 21/50/3
f 22/52/3 23/127/3 24/53/3
f 23/55/3 26/128/3 25/56/3
f 25/58/3 26/129/3 28/59/3
f 29/61/4 30/130/4 31/62/4
f 31/64/4 30/131/4 33/65/4
f 33/67/4 35/132/4 34/68/4
f 35/70/4 37/133/4 36/22/4
f 37/72/4 39/134/4 38/73/4
f 39/75/4 40/135/4 41/76/4
f 40/78/4 42/136/4 43/79/4
f 42/81/4 2/137/4 4/23/4
f 2/83/4 45/138/4 44/84/4
f 45/86/4 47/139/4 46/87/4
f 46/89/4 47/140/4 49/90/4
f 49/92/4 50/141/4 57/24/4
f 1/94/5 5/142/5 52/95/5
f 52/97/5 54/143/5 53/98/5
f 54/100/5 55/144/5 56/101/5
f 55/103/5 57/145/5 50/104/5
f 28/106/6 59/146/6 58/107/6
f 59/109/6 61/147/6 60/110/6
f 61/112/6 62/148/6 63/113/6
f 62/115/6 29/149/6 64/116/6
