# Blender v2.93.0 OBJ File: 'devshapes.blend'
# www.blender.org
mtllib box_12x4x4.mtl
o box_12x4x4_box_12x4x4_mesh
v -0.500000 0.500000 -0.500000
v -0.500000 -0.500000 0.500000
v -0.500000 -0.500000 -0.500000
v 0.500000 -0.500000 -0.500000
v 1.500000 -0.500000 0.500000
v 0.500000 -0.500000 0.500000
v 0.500000 0.500000 0.500000
v -0.500000 0.500000 0.500000
v -1.500000 -0.500000 0.500000
v -1.500000 0.500000 0.500000
v 0.500000 0.500000 -0.500000
v 1.500000 -0.500000 -0.500000
v 1.500000 0.500000 0.500000
v 1.500000 0.500000 -0.500000
v -1.500000 -0.500000 -0.500000
v -1.500000 0.500000 -0.500000
vt 0.500000 0.000000
vt 0.000000 0.500000
vt 0.000000 0.000000
vt 0.500000 0.000000
vt 0.000000 0.500000
vt 0.000000 0.000000
vt 0.500000 0.000000
vt 0.000000 0.500000
vt 0.000000 0.000000
vt 0.500000 0.000000
vt 0.000000 0.500000
vt 0.000000 0.000000
vt 0.500000 0.000000
vt 0.000000 0.500000
vt 0.000000 0.000000
vt 0.000000 0.000000
vt 0.500000 0.500000
vt 0.000000 0.500000
vt 0.500000 0.000000
vt 0.000000 0.000000
vt 0.500000 0.500000
vt 0.500000 0.000000
vt 0.000000 0.500000
vt 0.500000 0.000000
vt 0.000000 0.500000
vt 0.000000 0.000000
vt 0.000000 0.000000
vt 0.500000 0.500000
vt 0.000000 0.500000
vt 0.000000 0.500000
vt 0.000000 0.000000
vt 0.000000 0.500000
vt 0.500000 0.000000
vt 0.000000 0.500000
vt 0.500000 0.500000
vt 0.500000 0.500000
vt 0.500000 0.500000
vt 0.500000 0.500000
vt 0.500000 0.000000
vt 0.500000 0.500000
vt 0.500000 0.000000
vt 0.500000 0.500000
vt 0.500000 0.500000
vt 0.500000 0.000000
vn 0.0000 1.0000 0.0000
vn 0.0000 -1.0000 0.0000
vn 0.0000 0.0000 1.0000
vn -0.0000 0.0000 -1.0000
vn 1.0000 0.0000 0.0000
vn -1.0000 0.0000 0.0000
usemtl GridCombined.003
s off
f 14/1/1 7/2/1 13/3/1
f 11/4/1 8/5/1 7/6/1
f 1/7/1 10/8/1 8/9/1
f 15/10/2 2/11/2 9/12/2
f 3/13/2 6/14/2 2/15/2
f 6/16/2 12/17/2 5/18/2
f 13/19/3 6/14/3 5/20/3
f 6/16/3 8/21/3 2/11/3
f 8/22/3 9/23/3 2/15/3
f 16/24/4 3/25/4 15/26/4
f 3/27/4 11/28/4 4/29/4
f 11/4/4 12/30/4 4/31/4
f 13/3/5 12/17/5 14/32/5
f 10/33/6 15/34/6 9/12/6
f 14/1/1 11/28/1 7/2/1
f 11/4/1 1/35/1 8/5/1
f 1/7/1 16/36/1 10/8/1
f 15/10/2 3/37/2 2/11/2
f 3/13/2 4/38/2 6/14/2
f 6/16/2 4/39/2 12/17/2
f 13/19/3 7/40/3 6/14/3
f 6/16/3 7/41/3 8/21/3
f 8/22/3 10/42/3 9/23/3
f 16/24/4 1/35/4 3/25/4
f 3/27/4 1/7/4 11/28/4
f 11/4/4 14/43/4 12/30/4
f 13/3/5 5/44/5 12/17/5
f 10/33/6 16/36/6 15/34/6
