# Blender v2.93.0 OBJ File: 'devshapes.blend'
# www.blender.org
mtllib box_16x8x1.mtl
o box_16x8x1_box_16x8x1_mesh
v 2.000000 0.125000 0.000000
v 1.000000 0.125000 0.000000
v 0.000000 0.125000 0.000000
v -1.000000 0.125000 1.000000
v 0.000000 0.125000 -1.000000
v -2.000000 0.125000 0.000000
v -1.000000 0.125000 0.000000
v -1.000000 -0.125000 -1.000000
v -1.000000 -0.125000 0.000000
v 0.000000 -0.125000 0.000000
v 0.000000 -0.125000 1.000000
v 1.000000 -0.125000 -1.000000
v 2.000000 -0.125000 1.000000
v 1.000000 -0.125000 0.000000
v 2.000000 -0.125000 0.000000
v 2.000000 -0.125000 -1.000000
v 1.750000 0.125000 1.000000
v 1.750000 -0.125000 1.000000
v 1.500000 0.125000 1.000000
v 1.500000 -0.125000 1.000000
v 1.250000 -0.125000 1.000000
v 1.250000 0.125000 1.000000
v 1.000000 -0.125000 1.000000
v 1.000000 0.125000 1.000000
v 0.750000 -0.125000 1.000000
v 0.750000 0.125000 1.000000
v 0.500000 0.125000 1.000000
v 0.500000 -0.125000 1.000000
v 0.250000 0.125000 1.000000
v 0.250000 -0.125000 1.000000
v -0.000000 0.125000 1.000000
v -0.250000 -0.125000 1.000000
v -0.250000 0.125000 1.000000
v -0.500000 0.125000 1.000000
v -0.500000 -0.125000 1.000000
v -0.750000 -0.125000 1.000000
v -0.750000 0.125000 1.000000
v -1.000000 -0.125000 1.000000
v -1.250000 -0.125000 1.000000
v -1.250000 0.125000 1.000000
v -1.500000 -0.125000 1.000000
v -1.500000 0.125000 1.000000
v -1.750000 -0.125000 1.000000
v -1.750000 0.125000 1.000000
v -2.000000 -0.125000 1.000000
v -2.000000 0.125000 1.000000
v -2.000000 0.125000 -1.000000
v -1.750000 -0.125000 -1.000000
v -1.750000 0.125000 -1.000000
v -1.500000 -0.125000 -1.000000
v -1.500000 0.125000 -1.000000
v -1.250000 -0.125000 -1.000000
v -1.250000 0.125000 -1.000000
v -1.000000 0.125000 -1.000000
v -0.750000 -0.125000 -1.000000
v -0.750000 0.125000 -1.000000
v -0.500000 0.125000 -1.000000
v -0.500000 -0.125000 -1.000000
v -0.250000 -0.125000 -1.000000
v -0.250000 0.125000 -1.000000
v 0.000000 -0.125000 -1.000000
v 0.250000 -0.125000 -1.000000
v 0.250000 0.125000 -1.000000
v 0.500000 -0.125000 -1.000000
v 0.500000 0.125000 -1.000000
v 0.750000 0.125000 -1.000000
v 0.750000 -0.125000 -1.000000
v 1.000000 0.125000 -1.000000
v 1.250000 0.125000 -1.000000
v 1.250000 -0.125000 -1.000000
v 1.500000 -0.125000 -1.000000
v 1.500000 0.125000 -1.000000
v 1.750000 0.125000 -1.000000
v 1.750000 -0.125000 -1.000000
v 2.000000 0.125000 1.000000
v 2.000000 -0.125000 0.750000
v 2.000000 0.125000 0.750000
v 2.000000 0.125000 0.500000
v 2.000000 -0.125000 0.500000
v 2.000000 0.125000 0.250000
v 2.000000 -0.125000 0.250000
v 2.000000 -0.125000 -0.250000
v 2.000000 0.125000 -0.250000
v 2.000000 -0.125000 -0.500000
v 2.000000 0.125000 -0.500000
v 2.000000 0.125000 -0.750000
v 2.000000 -0.125000 -0.750000
v 2.000000 0.125000 -1.000000
v -2.000000 -0.125000 0.750000
v -2.000000 0.125000 0.750000
v -2.000000 -0.125000 0.500000
v -2.000000 0.125000 0.500000
v -2.000000 -0.125000 0.250000
v -2.000000 0.125000 0.250000
v -2.000000 -0.125000 0.000000
v -2.000000 0.125000 -0.250000
v -2.000000 -0.125000 -0.250000
v -2.000000 0.125000 -0.500000
v -2.000000 -0.125000 -0.500000
v -2.000000 -0.125000 -0.750000
v -2.000000 0.125000 -0.750000
v -2.000000 -0.125000 -1.000000
vt 0.500000 0.000000
vt 0.000000 0.500000
vt 0.000000 0.000000
vt 0.500000 0.000000
vt 0.000000 0.500000
vt 0.000000 0.000000
vt 0.500000 0.000000
vt 0.000000 0.500000
vt 0.000000 0.000000
vt 0.500000 0.000000
vt 0.000000 0.500000
vt 0.000000 0.000000
vt 0.500000 0.000000
vt 0.000000 0.500000
vt 0.000000 0.000000
vt 0.500000 0.000000
vt 0.000000 0.500000
vt 0.000000 0.000000
vt 0.500000 0.000000
vt 0.000000 0.500000
vt 0.000000 0.000000
vt 0.500000 0.000000
vt 0.000000 0.500000
vt 0.000000 0.000000
vt 0.500000 0.000000
vt 0.000000 0.500000
vt 0.000000 0.000000
vt 0.500000 0.000000
vt 0.000000 0.500000
vt 0.000000 0.000000
vt 0.500000 0.000000
vt 0.000000 0.500000
vt 0.000000 0.000000
vt 0.500000 0.000000
vt 0.000000 0.500000
vt 0.000000 0.000000
vt 0.500000 0.000000
vt 0.000000 0.500000
vt 0.000000 0.000000
vt 0.500000 0.000000
vt 0.000000 0.500000
vt 0.000000 0.000000
vt 0.500000 0.000000
vt 0.000000 0.500000
vt 0.000000 0.000000
vt 0.500000 0.000000
vt 0.000000 0.500000
vt 0.000000 0.000000
vt 0.500000 0.500000
vt 0.500000 0.500000
vt 0.500000 0.500000
vt 0.500000 0.500000
vt 0.500000 0.500000
vt 0.500000 0.500000
vt 0.500000 0.500000
vt 0.500000 0.500000
vt 0.500000 0.500000
vt 0.500000 0.500000
vt 0.500000 0.500000
vt 0.500000 0.500000
vt 0.500000 0.500000
vt 0.500000 0.500000
vt 0.500000 0.500000
vt 0.500000 0.500000
vt 0.750000 0.250000
vt 0.500000 0.500000
vt 0.500000 0.250000
vt 0.500000 0.250000
vt 0.750000 0.500000
vt 0.500000 0.500000
vt 0.500000 0.250000
vt 0.750000 0.500000
vt 0.500000 0.500000
vt 0.750000 0.250000
vt 0.500000 0.500000
vt 0.500000 0.250000
vt 0.750000 0.250000
vt 0.500000 0.500000
vt 0.500000 0.250000
vt 0.750000 0.250000
vt 0.500000 0.500000
vt 0.500000 0.250000
vt 0.500000 0.250000
vt 0.750000 0.500000
vt 0.500000 0.500000
vt 0.500000 0.250000
vt 0.750000 0.500000
vt 0.500000 0.500000
vt 0.750000 0.250000
vt 0.500000 0.500000
vt 0.500000 0.250000
vt 0.500000 0.250000
vt 0.750000 0.500000
vt 0.500000 0.500000
vt 0.750000 0.250000
vt 0.500000 0.500000
vt 0.500000 0.250000
vt 0.750000 0.250000
vt 0.500000 0.500000
vt 0.500000 0.250000
vt 0.750000 0.250000
vt 0.500000 0.500000
vt 0.500000 0.250000
vt 0.500000 0.250000
vt 0.750000 0.500000
vt 0.500000 0.500000
vt 0.500000 0.250000
vt 0.750000 0.500000
vt 0.500000 0.500000
vt 0.750000 0.250000
vt 0.500000 0.500000
vt 0.500000 0.250000
vt 0.500000 0.250000
vt 0.750000 0.500000
vt 0.500000 0.500000
vt 0.750000 0.250000
vt 0.500000 0.500000
vt 0.500000 0.250000
vt 0.750000 0.250000
vt 0.500000 0.500000
vt 0.500000 0.250000
vt 0.750000 0.250000
vt 0.500000 0.250000
vt 0.500000 0.250000
vt 0.750000 0.500000
vt 0.500000 0.500000
vt 0.750000 0.250000
vt 0.500000 0.500000
vt 0.500000 0.250000
vt 0.750000 0.250000
vt 0.500000 0.500000
vt 0.500000 0.250000
vt 0.750000 0.250000
vt 0.500000 0.250000
vt 0.750000 0.250000
vt 0.500000 0.500000
vt 0.500000 0.250000
vt 0.750000 0.250000
vt 0.500000 0.500000
vt 0.500000 0.250000
vt 0.750000 0.250000
vt 0.500000 0.500000
vt 0.500000 0.250000
vt 0.500000 0.250000
vt 0.750000 0.500000
vt 0.750000 0.250000
vt 0.500000 0.500000
vt 0.500000 0.250000
vt 0.750000 0.250000
vt 0.500000 0.500000
vt 0.500000 0.250000
vt 0.750000 0.250000
vt 0.500000 0.500000
vt 0.500000 0.250000
vt 0.500000 0.250000
vt 0.750000 0.500000
vt 0.500000 0.250000
vt 0.750000 0.500000
vt 0.500000 0.500000
vt 0.750000 0.250000
vt 0.500000 0.500000
vt 0.500000 0.250000
vt 0.750000 0.250000
vt 0.500000 0.500000
vt 0.500000 0.250000
vt 0.750000 0.250000
vt 0.500000 0.500000
vt 0.500000 0.250000
vt 0.500000 0.250000
vt 0.750000 0.500000
vt 0.500000 0.500000
vt 0.750000 0.250000
vt 0.500000 0.500000
vt 0.500000 0.250000
vt 0.750000 0.250000
vt 0.500000 0.500000
vt 0.500000 0.250000
vt 0.750000 0.250000
vt 0.500000 0.500000
vt 0.500000 0.250000
vt 0.750000 0.250000
vt 0.500000 0.500000
vt 0.500000 0.250000
vt 0.750000 0.250000
vt 0.500000 0.500000
vt 0.500000 0.250000
vt 0.750000 0.250000
vt 0.500000 0.500000
vt 0.500000 0.250000
vt 0.750000 0.250000
vt 0.500000 0.500000
vt 0.500000 0.250000
vt 0.750000 0.250000
vt 0.500000 0.500000
vt 0.500000 0.250000
vt 0.750000 0.250000
vt 0.500000 0.500000
vt 0.500000 0.250000
vt 0.750000 0.250000
vt 0.500000 0.500000
vt 0.500000 0.250000
vt 0.500000 0.250000
vt 0.750000 0.500000
vt 0.500000 0.500000
vt 0.750000 0.500000
vt 0.750000 0.250000
vt 0.750000 0.250000
vt 0.750000 0.500000
vt 0.750000 0.500000
vt 0.750000 0.500000
vt 0.750000 0.250000
vt 0.750000 0.250000
vt 0.750000 0.500000
vt 0.750000 0.250000
vt 0.750000 0.500000
vt 0.750000 0.500000
vt 0.750000 0.500000
vt 0.750000 0.250000
vt 0.750000 0.250000
vt 0.750000 0.500000
vt 0.750000 0.250000
vt 0.750000 0.500000
vt 0.750000 0.500000
vt 0.750000 0.500000
vt 0.750000 0.250000
vt 0.750000 0.500000
vt 0.750000 0.500000
vt 0.750000 0.500000
vt 0.750000 0.500000
vt 0.750000 0.500000
vt 0.750000 0.500000
vt 0.750000 0.250000
vt 0.750000 0.500000
vt 0.750000 0.500000
vt 0.750000 0.500000
vt 0.750000 0.250000
vt 0.750000 0.250000
vt 0.750000 0.500000
vt 0.750000 0.500000
vt 0.750000 0.500000
vt 0.750000 0.250000
vt 0.750000 0.500000
vt 0.750000 0.500000
vt 0.750000 0.500000
vt 0.750000 0.500000
vt 0.750000 0.500000
vt 0.750000 0.500000
vt 0.750000 0.500000
vt 0.750000 0.500000
vt 0.750000 0.500000
vt 0.750000 0.500000
vt 0.750000 0.250000
vn 0.0000 1.0000 0.0000
vn 0.0000 -1.0000 0.0000
vn -0.0000 0.0000 1.0000
vn -0.0000 0.0000 -1.0000
vn 1.0000 0.0000 0.0000
vn -1.0000 0.0000 0.0000
usemtl GridCombined.003
s off
f 1/1/1 24/2/1 75/3/1
f 88/4/1 2/5/1 1/6/1
f 2/7/1 31/8/1 24/9/1
f 68/10/1 3/11/1 2/12/1
f 3/13/1 4/14/1 31/15/1
f 5/16/1 7/17/1 3/18/1
f 7/19/1 46/20/1 4/21/1
f 54/22/1 6/23/1 7/24/1
f 95/25/2 38/26/2 45/27/2
f 102/28/2 9/29/2 95/30/2
f 9/31/2 11/32/2 38/33/2
f 8/34/2 10/35/2 9/36/2
f 10/37/2 23/38/2 11/39/2
f 61/40/2 14/41/2 10/42/2
f 14/43/2 13/44/2 23/45/2
f 12/46/2 15/47/2 14/48/2
f 1/1/1 2/49/1 24/2/1
f 88/4/1 68/50/1 2/5/1
f 2/7/1 3/51/1 31/8/1
f 68/10/1 5/52/1 3/11/1
f 3/13/1 7/53/1 4/14/1
f 5/16/1 54/54/1 7/17/1
f 7/19/1 6/55/1 46/20/1
f 54/22/1 47/56/1 6/23/1
f 95/25/2 9/57/2 38/26/2
f 102/28/2 8/58/2 9/29/2
f 9/31/2 10/59/2 11/32/2
f 8/34/2 61/60/2 10/35/2
f 10/37/2 14/61/2 23/38/2
f 61/40/2 12/62/2 14/41/2
f 14/43/2 15/63/2 13/44/2
f 12/46/2 16/64/2 15/47/2
usemtl GridCombined.002
f 75/65/3 18/66/3 13/67/3
f 18/68/3 19/69/3 20/70/3
f 20/71/3 22/72/3 21/73/3
f 22/74/3 23/75/3 21/76/3
f 24/77/3 25/78/3 23/79/3
f 26/80/3 28/81/3 25/82/3
f 28/83/3 29/84/3 30/85/3
f 30/86/3 31/87/3 11/88/3
f 31/89/3 32/90/3 11/91/3
f 32/92/3 34/93/3 35/94/3
f 34/95/3 36/96/3 35/97/3
f 37/98/3 38/99/3 36/100/3
f 4/101/3 39/102/3 38/103/3
f 39/104/3 42/105/3 41/106/3
f 41/107/3 44/108/3 43/109/3
f 44/110/3 45/111/3 43/112/3
f 102/113/4 49/114/4 48/115/4
f 49/116/4 50/117/4 48/118/4
f 51/119/4 52/120/4 50/121/4
f 53/122/4 8/58/4 52/123/4
f 8/124/4 56/125/4 55/126/4
f 56/127/4 58/128/4 55/129/4
f 57/130/4 59/131/4 58/132/4
f 60/133/4 61/60/4 59/134/4
f 5/135/4 62/136/4 61/137/4
f 63/138/4 64/139/4 62/140/4
f 65/141/4 67/142/4 64/143/4
f 67/144/4 68/145/4 12/62/4
f 68/146/4 70/147/4 12/148/4
f 69/149/4 71/150/4 70/151/4
f 72/152/4 74/153/4 71/154/4
f 74/155/4 88/156/4 16/64/4
f 75/157/5 76/158/5 77/159/5
f 76/160/5 78/161/5 77/162/5
f 79/163/5 80/164/5 78/165/5
f 81/166/5 1/167/5 80/168/5
f 1/169/5 82/170/5 83/171/5
f 82/172/5 85/173/5 83/174/5
f 84/175/5 86/176/5 85/177/5
f 87/178/5 88/179/5 86/180/5
f 46/181/6 89/182/6 45/183/6
f 90/184/6 91/185/6 89/186/6
f 92/187/6 93/188/6 91/189/6
f 94/190/6 95/191/6 93/192/6
f 6/193/6 97/194/6 95/195/6
f 96/196/6 99/197/6 97/198/6
f 98/199/6 100/200/6 99/201/6
f 100/202/6 47/203/6 102/204/6
f 75/65/3 17/205/3 18/66/3
f 18/68/3 17/206/3 19/69/3
f 20/71/3 19/207/3 22/72/3
f 22/74/3 24/208/3 23/75/3
f 24/77/3 26/209/3 25/78/3
f 26/80/3 27/210/3 28/81/3
f 28/83/3 27/211/3 29/84/3
f 30/86/3 29/212/3 31/87/3
f 31/89/3 33/213/3 32/90/3
f 32/92/3 33/214/3 34/93/3
f 34/95/3 37/215/3 36/96/3
f 37/98/3 4/216/3 38/99/3
f 4/101/3 40/217/3 39/102/3
f 39/104/3 40/218/3 42/105/3
f 41/107/3 42/219/3 44/108/3
f 44/110/3 46/220/3 45/111/3
f 102/113/4 47/221/4 49/114/4
f 49/116/4 51/222/4 50/117/4
f 51/119/4 53/223/4 52/120/4
f 53/122/4 54/224/4 8/58/4
f 8/124/4 54/225/4 56/125/4
f 56/127/4 57/226/4 58/128/4
f 57/130/4 60/227/4 59/131/4
f 60/133/4 5/228/4 61/60/4
f 5/135/4 63/229/4 62/136/4
f 63/138/4 65/230/4 64/139/4
f 65/141/4 66/231/4 67/142/4
f 67/144/4 66/232/4 68/145/4
f 68/146/4 69/233/4 70/147/4
f 69/149/4 72/234/4 71/150/4
f 72/152/4 73/235/4 74/153/4
f 74/155/4 73/236/4 88/156/4
f 75/157/5 13/237/5 76/158/5
f 76/160/5 79/238/5 78/161/5
f 79/163/5 81/239/5 80/164/5
f 81/166/5 15/240/5 1/167/5
f 1/169/5 15/241/5 82/170/5
f 82/172/5 84/242/5 85/173/5
f 84/175/5 87/243/5 86/176/5
f 87/178/5 16/244/5 88/179/5
f 46/181/6 90/245/6 89/182/6
f 90/184/6 92/246/6 91/185/6
f 92/187/6 94/247/6 93/188/6
f 94/190/6 6/248/6 95/191/6
f 6/193/6 96/249/6 97/194/6
f 96/196/6 98/250/6 99/197/6
f 98/199/6 101/251/6 100/200/6
f 100/202/6 101/252/6 47/203/6
