# Blender v2.93.0 OBJ File: 'devshapes.blend'
# www.blender.org
mtllib box_6x1x1.mtl
o box_6x1x1_box_6x1x1_mesh
v 0.750000 0.125000 0.125000
v 0.500000 0.125000 0.125000
v 0.500000 0.125000 -0.125000
v 0.250000 0.125000 -0.125000
v 0.000000 0.125000 -0.125000
v -0.250000 0.125000 -0.125000
v -0.500000 -0.125000 -0.125000
v 0.000000 -0.125000 -0.125000
v 0.250000 -0.125000 0.125000
v 0.250000 -0.125000 -0.125000
v 0.500000 -0.125000 0.125000
v 0.500000 -0.125000 -0.125000
v 0.750000 -0.125000 0.125000
v 0.250000 0.125000 0.125000
v 0.000000 -0.125000 0.125000
v -0.000000 0.125000 0.125000
v -0.250000 -0.125000 0.125000
v -0.250000 0.125000 0.125000
v -0.500000 -0.125000 0.125000
v -0.500000 0.125000 0.125000
v -0.750000 -0.125000 0.125000
v -0.750000 0.125000 0.125000
v -0.750000 0.125000 -0.125000
v -0.500000 0.125000 -0.125000
v -0.250000 -0.125000 -0.125000
v 0.750000 0.125000 -0.125000
v 0.750000 -0.125000 -0.125000
v -0.750000 -0.125000 -0.125000
vt 0.750000 0.250000
vt 0.500000 0.500000
vt 0.500000 0.250000
vt 0.500000 0.250000
vt 0.750000 0.500000
vt 0.500000 0.500000
vt 0.750000 0.250000
vt 0.500000 0.500000
vt 0.500000 0.250000
vt 0.750000 0.250000
vt 0.500000 0.500000
vt 0.500000 0.250000
vt 0.750000 0.250000
vt 0.500000 0.500000
vt 0.500000 0.250000
vt 0.750000 0.250000
vt 0.500000 0.500000
vt 0.500000 0.250000
vt 0.750000 0.250000
vt 0.500000 0.500000
vt 0.500000 0.250000
vt 0.750000 0.250000
vt 0.500000 0.500000
vt 0.500000 0.250000
vt 0.750000 0.250000
vt 0.500000 0.500000
vt 0.500000 0.250000
vt 0.750000 0.250000
vt 0.500000 0.500000
vt 0.500000 0.250000
vt 0.750000 0.250000
vt 0.500000 0.500000
vt 0.500000 0.250000
vt 0.500000 0.250000
vt 0.750000 0.500000
vt 0.500000 0.500000
vt 0.750000 0.250000
vt 0.500000 0.250000
vt 0.750000 0.250000
vt 0.750000 0.250000
vt 0.750000 0.250000
vt 0.750000 0.500000
vt 0.750000 0.250000
vt 0.500000 0.500000
vt 0.750000 0.250000
vt 0.500000 0.500000
vt 0.500000 0.250000
vt 0.500000 0.500000
vt 0.500000 0.250000
vt 0.500000 0.500000
vt 0.500000 0.250000
vt 0.500000 0.500000
vt 0.500000 0.250000
vt 0.500000 0.500000
vt 0.500000 0.250000
vt 0.750000 0.250000
vt 0.500000 0.500000
vt 0.500000 0.250000
vt 0.500000 0.500000
vt 0.750000 0.250000
vt 0.500000 0.500000
vt 0.750000 0.500000
vt 0.750000 0.500000
vt 0.750000 0.500000
vt 0.750000 0.500000
vt 0.750000 0.500000
vt 0.750000 0.500000
vt 0.750000 0.500000
vt 0.750000 0.500000
vt 0.750000 0.500000
vt 0.750000 0.500000
vt 0.750000 0.250000
vt 0.750000 0.500000
vt 0.750000 0.500000
vt 0.750000 0.500000
vt 0.750000 0.500000
vt 0.750000 0.250000
vt 0.750000 0.500000
vt 0.750000 0.500000
vt 0.750000 0.250000
vn 0.0000 1.0000 0.0000
vn 0.0000 -1.0000 0.0000
vn -0.0000 0.0000 1.0000
vn 0.0000 -0.0000 -1.0000
vn 1.0000 0.0000 0.0000
vn -1.0000 0.0000 0.0000
usemtl GridCombined.002
s off
f 26/1/1 2/2/1 1/3/1
f 2/4/1 4/5/1 14/6/1
f 4/7/1 16/8/1 14/9/1
f 5/10/1 18/11/1 16/12/1
f 6/13/1 20/14/1 18/15/1
f 24/16/1 22/17/1 20/18/1
f 28/19/2 19/20/2 21/21/2
f 7/22/2 17/23/2 19/24/2
f 25/25/2 15/26/2 17/27/2
f 8/28/2 9/29/2 15/30/2
f 10/31/2 11/32/2 9/33/2
f 11/34/2 27/35/2 13/36/2
f 1/37/3 11/32/3 13/38/3
f 2/39/3 9/29/3 11/34/3
f 14/40/3 15/26/3 9/33/3
f 16/41/3 17/23/3 15/30/3
f 17/27/3 20/42/3 19/20/3
f 20/43/3 21/44/3 19/24/3
f 23/45/4 7/46/4 28/47/4
f 24/16/4 25/48/4 7/49/4
f 6/13/4 8/50/4 25/51/4
f 5/10/4 10/52/4 8/53/4
f 4/7/4 12/54/4 10/55/4
f 3/56/4 27/57/4 12/58/4
f 1/3/5 27/35/5 26/59/5
f 22/60/6 28/61/6 21/21/6
f 26/1/1 3/62/1 2/2/1
f 2/4/1 3/56/1 4/5/1
f 4/7/1 5/63/1 16/8/1
f 5/10/1 6/64/1 18/11/1
f 6/13/1 24/65/1 20/14/1
f 24/16/1 23/66/1 22/17/1
f 28/19/2 7/67/2 19/20/2
f 7/22/2 25/68/2 17/23/2
f 25/25/2 8/69/2 15/26/2
f 8/28/2 10/70/2 9/29/2
f 10/31/2 12/71/2 11/32/2
f 11/34/2 12/72/2 27/35/2
f 1/37/3 2/73/3 11/32/3
f 2/39/3 14/74/3 9/29/3
f 14/40/3 16/75/3 15/26/3
f 16/41/3 18/76/3 17/23/3
f 17/27/3 18/77/3 20/42/3
f 20/43/3 22/78/3 21/44/3
f 23/45/4 24/65/4 7/46/4
f 24/16/4 6/64/4 25/48/4
f 6/13/4 5/63/4 8/50/4
f 5/10/4 4/5/4 10/52/4
f 4/7/4 3/62/4 12/54/4
f 3/56/4 26/79/4 27/57/4
f 1/3/5 13/80/5 27/35/5
f 22/60/6 23/66/6 28/61/6
