# Blender v2.93.0 OBJ File: 'devshapes.blend'
# www.blender.org
mtllib box_8x4x2.mtl
o box_8x4x2_box_8x4x2_mesh
v -1.000000 -0.250000 0.500000
v 0.000000 -0.250000 -0.500000
v 0.000000 -0.250000 0.500000
v 1.000000 -0.250000 0.500000
v 0.500000 -0.250000 0.500000
v 0.500000 0.250000 0.500000
v -0.000000 0.250000 0.500000
v -0.500000 -0.250000 0.500000
v -0.500000 0.250000 0.500000
v -1.000000 0.250000 0.500000
v -1.000000 0.250000 -0.500000
v -0.500000 -0.250000 -0.500000
v -0.500000 0.250000 -0.500000
v -0.000000 0.250000 -0.500000
v 0.500000 0.250000 -0.500000
v 0.500000 -0.250000 -0.500000
v 1.000000 0.250000 0.500000
v 1.000000 0.250000 0.000000
v 1.000000 -0.250000 0.000000
v 1.000000 0.250000 -0.500000
v 1.000000 -0.250000 -0.500000
v -1.000000 -0.250000 0.000000
v -1.000000 0.250000 0.000000
v -1.000000 -0.250000 -0.500000
vt 0.500000 0.000000
vt 0.000000 0.500000
vt 0.000000 0.000000
vt 0.500000 0.000000
vt 0.000000 0.500000
vt 0.000000 0.000000
vt 0.500000 0.000000
vt 0.000000 0.500000
vt 0.000000 0.000000
vt 0.500000 0.000000
vt 0.000000 0.500000
vt 0.000000 0.000000
vt 0.500000 0.500000
vt 0.500000 0.500000
vt 0.500000 0.500000
vt 0.500000 0.500000
vt 1.000000 0.500000
vt 0.500000 1.000000
vt 0.500000 0.500000
vt 0.500000 0.500000
vt 1.000000 1.000000
vt 0.500000 1.000000
vt 1.000000 0.500000
vt 0.500000 1.000000
vt 0.500000 0.500000
vt 1.000000 0.500000
vt 0.500000 1.000000
vt 0.500000 0.500000
vt 1.000000 0.500000
vt 0.500000 1.000000
vt 0.500000 0.500000
vt 1.000000 0.500000
vt 0.500000 1.000000
vt 0.500000 0.500000
vt 1.000000 0.500000
vt 0.500000 1.000000
vt 1.000000 0.500000
vt 0.500000 1.000000
vt 0.500000 0.500000
vt 0.500000 0.500000
vt 1.000000 1.000000
vt 0.500000 1.000000
vt 1.000000 0.500000
vt 0.500000 1.000000
vt 0.500000 0.500000
vt 1.000000 0.500000
vt 0.500000 1.000000
vt 0.500000 0.500000
vt 0.500000 0.500000
vt 1.000000 1.000000
vt 0.500000 1.000000
vt 1.000000 1.000000
vt 1.000000 0.500000
vt 1.000000 1.000000
vt 1.000000 1.000000
vt 1.000000 1.000000
vt 1.000000 1.000000
vt 1.000000 1.000000
vt 1.000000 1.000000
vt 1.000000 0.500000
vt 1.000000 1.000000
vt 1.000000 1.000000
vt 1.000000 0.500000
vn -0.0000 1.0000 0.0000
vn -0.0000 -1.0000 0.0000
vn -0.0000 0.0000 1.0000
vn 0.0000 -0.0000 -1.0000
vn 1.0000 0.0000 0.0000
vn -1.0000 0.0000 0.0000
usemtl GridCombined.003
s off
f 20/1/1 7/2/1 17/3/1
f 14/4/1 10/5/1 7/6/1
f 24/7/2 3/8/2 1/9/2
f 2/10/2 4/11/2 3/12/2
f 20/1/1 14/13/1 7/2/1
f 14/4/1 11/14/1 10/5/1
f 24/7/2 2/15/2 3/8/2
f 2/10/2 21/16/2 4/11/2
usemtl GridCombined.001
f 17/17/3 5/18/3 4/19/3
f 5/20/3 7/21/3 3/22/3
f 7/23/3 8/24/3 3/25/3
f 9/26/3 1/27/3 8/28/3
f 11/29/4 12/30/4 24/31/4
f 13/32/4 2/33/4 12/34/4
f 14/35/4 16/36/4 2/15/4
f 15/37/4 21/38/4 16/39/4
f 17/40/5 19/41/5 18/42/5
f 19/43/5 20/44/5 18/45/5
f 10/46/6 22/47/6 1/48/6
f 22/49/6 11/50/6 24/51/6
f 17/17/3 6/52/3 5/18/3
f 5/20/3 6/53/3 7/21/3
f 7/23/3 9/54/3 8/24/3
f 9/26/3 10/55/3 1/27/3
f 11/29/4 13/56/4 12/30/4
f 13/32/4 14/57/4 2/33/4
f 14/35/4 15/58/4 16/36/4
f 15/37/4 20/59/4 21/38/4
f 17/40/5 4/60/5 19/41/5
f 19/43/5 21/61/5 20/44/5
f 10/46/6 23/62/6 22/47/6
f 22/49/6 23/63/6 11/50/6
