# Blender v2.93.0 OBJ File: 'devshapes.blend'
# www.blender.org
mtllib box_2x2x1.mtl
o box_2x2x1_box_2x2x1_mesh
v 0.250000 0.125000 0.250000
v -0.250000 -0.125000 -0.250000
v 0.000000 -0.125000 0.250000
v -0.000000 0.125000 0.250000
v -0.250000 0.125000 0.250000
v -0.250000 0.125000 -0.250000
v 0.000000 -0.125000 -0.250000
v -0.000000 0.125000 -0.250000
v 0.250000 -0.125000 0.250000
v 0.250000 0.125000 0.000000
v 0.250000 -0.125000 0.000000
v 0.250000 0.125000 -0.250000
v 0.250000 -0.125000 -0.250000
v -0.250000 -0.125000 0.250000
v -0.250000 0.125000 0.000000
v -0.250000 -0.125000 0.000000
vt 1.000000 0.500000
vt 0.500000 1.000000
vt 0.500000 0.500000
vt 1.000000 0.500000
vt 0.500000 1.000000
vt 0.500000 0.500000
vt 1.000000 1.000000
vt 1.000000 1.000000
vt 0.750000 0.250000
vt 0.500000 0.500000
vt 0.500000 0.250000
vt 0.750000 0.250000
vt 0.500000 0.500000
vt 0.500000 0.250000
vt 0.500000 0.250000
vt 0.750000 0.500000
vt 0.500000 0.500000
vt 0.750000 0.250000
vt 0.500000 0.500000
vt 0.500000 0.250000
vt 0.750000 0.250000
vt 0.500000 0.500000
vt 0.500000 0.250000
vt 0.750000 0.250000
vt 0.500000 0.500000
vt 0.500000 0.250000
vt 0.750000 0.250000
vt 0.500000 0.500000
vt 0.500000 0.250000
vt 0.750000 0.250000
vt 0.500000 0.250000
vt 0.750000 0.500000
vt 0.750000 0.500000
vt 0.750000 0.250000
vt 0.750000 0.500000
vt 0.750000 0.500000
vt 0.750000 0.500000
vt 0.750000 0.500000
vt 0.750000 0.500000
vn -0.0000 1.0000 0.0000
vn -0.0000 -1.0000 -0.0000
vn 0.0000 -0.0000 1.0000
vn 0.0000 0.0000 -1.0000
vn 1.0000 0.0000 0.0000
vn -1.0000 0.0000 0.0000
usemtl GridCombined.001
s off
f 1/1/1 6/2/1 5/3/1
f 13/4/2 14/5/2 2/6/2
f 1/1/1 12/7/1 6/2/1
f 13/4/2 9/8/2 14/5/2
usemtl GridCombined.002
f 1/9/3 3/10/3 9/11/3
f 4/12/3 14/13/3 3/14/3
f 2/15/4 8/16/4 7/17/4
f 8/18/4 13/19/4 7/20/4
f 9/21/5 10/22/5 1/23/5
f 11/24/5 12/25/5 10/26/5
f 5/27/6 16/28/6 14/29/6
f 15/30/6 2/6/6 16/31/6
f 1/9/3 4/32/3 3/10/3
f 4/12/3 5/33/3 14/13/3
f 2/15/4 6/34/4 8/16/4
f 8/18/4 12/35/4 13/19/4
f 9/21/5 11/36/5 10/22/5
f 11/24/5 13/37/5 12/25/5
f 5/27/6 15/38/6 16/28/6
f 15/30/6 6/39/6 2/6/6
