# Blender v2.93.0 OBJ File: 'devshapes.blend'
# www.blender.org
mtllib box_4x4x1.mtl
o box_4x4x1_box_4x4x1_mesh
v 0.500000 0.125000 0.500000
v -0.500000 -0.125000 -0.500000
v -0.500000 -0.125000 0.500000
v 0.500000 -0.125000 0.500000
v 0.250000 -0.125000 0.500000
v 0.250000 0.125000 0.500000
v 0.000000 -0.125000 0.500000
v -0.000000 0.125000 0.500000
v -0.250000 -0.125000 0.500000
v -0.250000 0.125000 0.500000
v -0.500000 0.125000 0.500000
v -0.500000 0.125000 -0.500000
v -0.250000 -0.125000 -0.500000
v -0.250000 0.125000 -0.500000
v 0.000000 -0.125000 -0.500000
v -0.000000 0.125000 -0.500000
v 0.250000 -0.125000 -0.500000
v 0.250000 0.125000 -0.500000
v 0.500000 -0.125000 -0.500000
v 0.500000 0.125000 0.250000
v 0.500000 -0.125000 0.250000
v 0.500000 0.125000 0.000000
v 0.500000 -0.125000 0.000000
v 0.500000 0.125000 -0.250000
v 0.500000 -0.125000 -0.250000
v 0.500000 0.125000 -0.500000
v -0.500000 -0.125000 0.250000
v -0.500000 0.125000 0.250000
v -0.500000 -0.125000 0.000000
v -0.500000 0.125000 0.000000
v -0.500000 0.125000 -0.250000
v -0.500000 -0.125000 -0.250000
vt 0.500000 0.000000
vt 0.000000 0.500000
vt 0.000000 0.000000
vt 0.500000 0.000000
vt 0.000000 0.500000
vt 0.000000 0.000000
vt 0.500000 0.500000
vt 0.500000 0.500000
vt 0.750000 0.250000
vt 0.500000 0.500000
vt 0.500000 0.250000
vt 0.750000 0.250000
vt 0.500000 0.500000
vt 0.500000 0.250000
vt 0.750000 0.250000
vt 0.500000 0.500000
vt 0.500000 0.250000
vt 0.500000 0.250000
vt 0.750000 0.500000
vt 0.500000 0.500000
vt 0.750000 0.250000
vt 0.500000 0.500000
vt 0.500000 0.250000
vt 0.750000 0.250000
vt 0.500000 0.500000
vt 0.500000 0.250000
vt 0.750000 0.250000
vt 0.500000 0.500000
vt 0.500000 0.250000
vt 0.750000 0.250000
vt 0.500000 0.500000
vt 0.500000 0.250000
vt 0.750000 0.250000
vt 0.500000 0.500000
vt 0.500000 0.250000
vt 0.750000 0.250000
vt 0.500000 0.500000
vt 0.500000 0.250000
vt 0.750000 0.250000
vt 0.500000 0.500000
vt 0.500000 0.250000
vt 0.500000 0.250000
vt 0.750000 0.500000
vt 0.750000 0.250000
vt 0.500000 0.500000
vt 0.500000 0.250000
vt 0.750000 0.250000
vt 0.500000 0.500000
vt 0.500000 0.250000
vt 0.750000 0.250000
vt 0.500000 0.500000
vt 0.500000 0.250000
vt 0.750000 0.250000
vt 0.500000 0.500000
vt 0.500000 0.250000
vt 0.750000 0.500000
vt 0.750000 0.500000
vt 0.750000 0.500000
vt 0.750000 0.250000
vt 0.750000 0.500000
vt 0.750000 0.500000
vt 0.750000 0.500000
vt 0.750000 0.500000
vt 0.750000 0.500000
vt 0.750000 0.500000
vt 0.750000 0.500000
vt 0.750000 0.250000
vt 0.750000 0.500000
vt 0.750000 0.500000
vt 0.750000 0.500000
vt 0.750000 0.500000
vn -0.0000 1.0000 0.0000
vn -0.0000 -1.0000 -0.0000
vn -0.0000 0.0000 1.0000
vn 0.0000 0.0000 -1.0000
vn 1.0000 0.0000 0.0000
vn -1.0000 0.0000 0.0000
usemtl GridCombined.003
s off
f 1/1/1 12/2/1 11/3/1
f 19/4/2 3/5/2 2/6/2
f 1/1/1 26/7/1 12/2/1
f 19/4/2 4/8/2 3/5/2
usemtl GridCombined.002
f 1/9/3 5/10/3 4/11/3
f 6/12/3 7/13/3 5/14/3
f 8/15/3 9/16/3 7/17/3
f 9/18/3 11/19/3 3/20/3
f 12/21/4 13/22/4 2/23/4
f 14/24/4 15/25/4 13/26/4
f 16/27/4 17/28/4 15/29/4
f 18/30/4 19/31/4 17/32/4
f 4/33/5 20/34/5 1/35/5
f 21/36/5 22/37/5 20/38/5
f 23/39/5 24/40/5 22/41/5
f 24/42/5 19/43/5 26/7/5
f 11/44/6 27/45/6 3/46/6
f 28/47/6 29/48/6 27/49/6
f 30/50/6 32/51/6 29/52/6
f 31/53/6 2/54/6 32/55/6
f 1/9/3 6/56/3 5/10/3
f 6/12/3 8/57/3 7/13/3
f 8/15/3 10/58/3 9/16/3
f 9/18/3 10/59/3 11/19/3
f 12/21/4 14/60/4 13/22/4
f 14/24/4 16/61/4 15/25/4
f 16/27/4 18/62/4 17/28/4
f 18/30/4 26/63/4 19/31/4
f 4/33/5 21/64/5 20/34/5
f 21/36/5 23/65/5 22/37/5
f 23/39/5 25/66/5 24/40/5
f 24/42/5 25/67/5 19/43/5
f 11/44/6 28/68/6 27/45/6
f 28/47/6 30/69/6 29/48/6
f 30/50/6 31/70/6 32/51/6
f 31/53/6 12/71/6 2/54/6
