# Blender v2.90.1 OBJ File: ''
# www.blender.org
o Cylinder_Cylinder.003
v 0.500000 0.125000 0.000000
v 0.250000 0.125000 -0.433012
v -0.500000 0.125000 0.000000
v 0.353552 -0.125000 -0.353552
v 0.482964 -0.125000 0.129408
v -0.353552 -0.125000 0.353552
v 0.129408 0.125000 -0.482964
v 0.000000 0.125000 -0.500000
v -0.129408 0.125000 -0.482964
v -0.250000 0.125000 -0.433012
v -0.353552 0.125000 -0.353552
v -0.433012 0.125000 -0.250000
v -0.482964 0.125000 -0.129408
v -0.482964 0.125000 0.129408
v -0.433012 0.125000 0.250000
v -0.353552 0.125000 0.353552
v -0.250000 0.125000 0.433012
v -0.129408 0.125000 0.482964
v 0.000000 0.125000 0.500000
v 0.129408 0.125000 0.482964
v 0.250000 0.125000 0.433012
v 0.353552 0.125000 0.353552
v 0.433012 0.125000 0.250000
v 0.482964 0.125000 0.129412
v 0.482964 0.125000 -0.129408
v 0.433012 0.125000 -0.250000
v 0.353552 0.125000 -0.353552
v -0.129408 -0.125000 -0.482964
v 0.000000 -0.125000 -0.500000
v 0.129408 -0.125000 -0.482964
v 0.250000 -0.125000 -0.433012
v 0.433012 -0.125000 -0.250000
v 0.482964 -0.125000 -0.129412
v 0.500000 -0.125000 -0.000000
v 0.433012 -0.125000 0.250000
v 0.353552 -0.125000 0.353552
v 0.250000 -0.125000 0.433012
v 0.129408 -0.125000 0.482964
v 0.000000 -0.125000 0.500000
v -0.129408 -0.125000 0.482964
v -0.250000 -0.125000 0.433012
v -0.433012 -0.125000 0.250000
v -0.482964 -0.125000 0.129408
v -0.500000 -0.125000 -0.000000
v -0.482964 -0.125000 -0.129412
v -0.433012 -0.125000 -0.250000
v -0.353552 -0.125000 -0.353552
v -0.250000 -0.125000 -0.433012
vt 0.499468 0.499445
vt 0.933768 0.624510
vt 0.500532 1.000625
vt 0.145854 0.927351
vt 0.015808 0.685344
vt 0.854145 0.572720
vt 0.983965 0.684921
vt 1.001180 0.749769
vt 0.984240 0.814636
vt 0.934301 0.875100
vt 0.854764 0.927041
vt 0.751051 0.966919
vt 0.630230 0.992018
vt 0.370800 0.992155
vt 0.249871 0.967186
vt 0.145989 0.927417
vt 0.066232 0.875561
vt 0.016035 0.815150
vt -0.001180 0.750301
vt 0.015760 0.685435
vt 0.065699 0.624971
vt 0.145237 0.573029
vt 0.248949 0.533151
vt 0.369771 0.508053
vt 0.629201 0.507915
vt 0.750129 0.532885
vt 0.854011 0.572653
vt 0.630046 0.992042
vt 0.500342 1.000626
vt 0.370616 0.992131
vt 0.249707 0.967139
vt 0.066137 0.875479
vt 0.015986 0.815058
vt -0.001180 0.750207
vt 0.065794 0.624889
vt 0.145369 0.572963
vt 0.249113 0.533104
vt 0.369954 0.508028
vt 0.499657 0.499445
vt 0.629384 0.507940
vt 0.750293 0.532932
vt 0.933864 0.624592
vt 0.984014 0.685012
vt 1.001180 0.749864
vt 0.984191 0.814727
vt 0.934206 0.875182
vt 0.854630 0.927108
vt 0.750887 0.966967
vt 0.000063 0.500098
vt 0.999937 0.416759
vt 0.999937 0.500098
vt 0.000063 0.416759
vt 0.999937 0.333419
vt 0.000063 0.333419
vt 0.999937 0.250079
vt 0.000063 0.250080
vt 0.999937 0.166740
vt 0.000063 0.166740
vt 0.999937 0.083400
vt 0.000063 0.083400
vt 0.999937 0.000060
vt 0.000063 0.500098
vt 0.999937 0.416759
vt 0.999937 0.500098
vt 0.000063 0.416759
vt 0.999937 0.333419
vt 0.000063 0.333419
vt 0.999937 0.250079
vt 0.000063 0.250079
vt 0.999937 0.166740
vt 0.000063 0.166740
vt 0.999937 0.083400
vt 0.000063 0.083400
vt 0.999937 0.000060
vt 0.999938 0.000060
vt 0.000063 0.083400
vt 0.000063 0.000060
vt 0.999938 0.083400
vt 0.000063 0.166740
vt 0.999938 0.166740
vt 0.000063 0.250079
vt 0.999938 0.250079
vt 0.000063 0.333419
vt 0.999938 0.333419
vt 0.000063 0.416759
vt 0.999938 0.416759
vt 0.000063 0.500098
vt 0.000063 0.500098
vt 0.999937 0.416759
vt 0.999937 0.500099
vt 0.000063 0.416759
vt 0.999937 0.333419
vt 0.000063 0.333419
vt 0.999937 0.250080
vt 0.000063 0.250079
vt 0.999937 0.166740
vt 0.000063 0.166740
vt 0.999937 0.083400
vt 0.000063 0.083400
vt 0.999937 0.000060
vt 0.000063 0.000061
vt 0.000063 0.000060
vt 0.999938 0.500098
vt 0.000063 0.000060
vn 0.0000 1.0000 0.0000
vn 0.0000 -1.0000 -0.0000
vn -0.0000 0.0000 -1.0000
vn 0.2588 0.0000 -0.9659
vn 0.5000 0.0000 -0.8660
vn 0.7071 0.0000 -0.7071
vn 0.8660 0.0000 -0.5000
vn 0.9659 0.0000 -0.2588
vn 1.0000 0.0000 0.0000
vn 0.9659 -0.0000 0.2588
vn 0.8660 -0.0000 0.5000
vn 0.7071 -0.0000 0.7071
vn 0.5000 -0.0000 0.8660
vn 0.2588 -0.0000 0.9659
vn -0.0000 -0.0000 1.0000
vn -0.2588 -0.0000 0.9659
vn -0.5000 -0.0000 0.8660
vn -0.7071 -0.0000 0.7071
vn -0.8660 -0.0000 0.5000
vn -0.9659 -0.0000 0.2588
vn -1.0000 0.0000 0.0000
vn -0.9659 0.0000 -0.2588
vn -0.8660 0.0000 -0.5000
vn -0.7071 0.0000 -0.7071
vn -0.5000 0.0000 -0.8660
vn -0.2588 0.0000 -0.9659
s off
f 1/1/1 2/2/1 3/3/1
f 4/4/2 5/5/2 6/6/2
f 2/2/1 7/7/1 8/8/1
f 8/8/1 9/9/1 10/10/1
f 10/10/1 11/11/1 3/3/1
f 11/11/1 12/12/1 3/3/1
f 12/12/1 13/13/1 3/3/1
f 3/3/1 14/14/1 15/15/1
f 15/15/1 16/16/1 3/3/1
f 16/16/1 17/17/1 3/3/1
f 17/17/1 18/18/1 19/19/1
f 19/19/1 20/20/1 21/21/1
f 21/21/1 22/22/1 1/1/1
f 22/22/1 23/23/1 1/1/1
f 23/23/1 24/24/1 1/1/1
f 1/1/1 25/25/1 26/26/1
f 26/26/1 27/27/1 1/1/1
f 27/27/1 2/2/1 1/1/1
f 2/2/1 8/8/1 3/3/1
f 8/8/1 10/10/1 3/3/1
f 17/17/1 19/19/1 3/3/1
f 19/19/1 21/21/1 3/3/1
f 21/21/1 1/1/1 3/3/1
f 28/28/2 29/29/2 4/4/2
f 29/29/2 30/30/2 4/4/2
f 30/30/2 31/31/2 4/4/2
f 4/4/2 32/32/2 33/33/2
f 33/33/2 34/34/2 4/4/2
f 34/34/2 5/5/2 4/4/2
f 5/5/2 35/35/2 36/36/2
f 36/36/2 37/37/2 38/38/2
f 38/38/2 39/39/2 6/6/2
f 39/39/2 40/40/2 6/6/2
f 40/40/2 41/41/2 6/6/2
f 6/6/2 42/42/2 43/43/2
f 43/43/2 44/44/2 6/6/2
f 44/44/2 45/45/2 6/6/2
f 45/45/2 46/46/2 47/47/2
f 47/47/2 48/48/2 28/28/2
f 5/5/2 36/36/2 6/6/2
f 36/36/2 38/38/2 6/6/2
f 45/45/2 47/47/2 6/6/2
f 47/47/2 28/28/2 6/6/2
f 28/28/2 4/4/2 6/6/2
s 1
f 8/49/3 30/50/4 29/51/3
f 7/52/4 31/53/5 30/50/4
f 2/54/5 4/55/6 31/53/5
f 27/56/6 32/57/7 4/55/6
f 26/58/7 33/59/8 32/57/7
f 25/60/8 34/61/9 33/59/8
f 1/62/9 5/63/10 34/64/9
f 24/65/10 35/66/11 5/63/10
f 23/67/11 36/68/12 35/66/11
f 22/69/12 37/70/13 36/68/12
f 21/71/13 38/72/14 37/70/13
f 20/73/14 39/74/15 38/72/14
f 19/75/15 40/76/16 39/77/15
f 18/78/16 41/79/17 40/76/16
f 17/80/17 6/81/18 41/79/17
f 16/82/18 42/83/19 6/81/18
f 15/84/19 43/85/20 42/83/19
f 14/86/20 44/87/21 43/85/20
f 3/88/21 45/89/22 44/90/21
f 13/91/22 46/92/23 45/89/22
f 12/93/23 47/94/24 46/92/23
f 11/95/24 48/96/25 47/94/24
f 10/97/25 28/98/26 48/96/25
f 9/99/26 29/100/3 28/98/26
f 8/49/3 7/52/4 30/50/4
f 7/52/4 2/54/5 31/53/5
f 2/54/5 27/56/6 4/55/6
f 27/56/6 26/58/7 32/57/7
f 26/58/7 25/60/8 33/59/8
f 25/60/8 1/101/9 34/61/9
f 1/62/9 24/65/10 5/63/10
f 24/65/10 23/67/11 35/66/11
f 23/67/11 22/69/12 36/68/12
f 22/69/12 21/71/13 37/70/13
f 21/71/13 20/73/14 38/72/14
f 20/73/14 19/102/15 39/74/15
f 19/75/15 18/78/16 40/76/16
f 18/78/16 17/80/17 41/79/17
f 17/80/17 16/82/18 6/81/18
f 16/82/18 15/84/19 42/83/19
f 15/84/19 14/86/20 43/85/20
f 14/86/20 3/103/21 44/87/21
f 3/88/21 13/91/22 45/89/22
f 13/91/22 12/93/23 46/92/23
f 12/93/23 11/95/24 47/94/24
f 11/95/24 10/97/25 48/96/25
f 10/97/25 9/99/26 28/98/26
f 9/99/26 8/104/3 29/100/3
