# Blender v3.0.0 OBJ File: ''
# www.blender.org
mtllib test3.mtl
o Plane
v 2.000000 2.000000 -0.010000
v 2.000000 0.000000 -0.010000
v -2.000000 2.000000 -0.010000
v -2.000000 0.000000 -0.010000
v 2.000000 2.000000 0.000000
v 2.000000 0.000000 0.000000
v -2.000000 2.000000 0.000000
v -2.000000 0.000000 0.000000
vt 1.000000 0.500000
vt 0.000000 1.000000
vt 0.000000 0.500000
vt 0.000000 0.000000
vt 1.000000 0.500000
vt 0.000000 0.500000
vt 1.000000 1.000000
vt 1.000000 0.000000
vn 0.000000 0.000000 -1.0000
usemtl Material.002
s off
f 6/4/1 8/8/1 7/5/1
f 6/4/1 7/5/1 5/6/1
f 4/1/1 1/2/1 2/3/1
f 4/1/1 3/7/1 1/2/1
