# Blender v2.93.0 OBJ File: 'devshapes.blend'
# www.blender.org
mtllib Circle.mtl
o Circle
v 0.000000 0.000000 -0.500000
v -0.129410 0.000000 -0.482963
v -0.250000 0.000000 -0.433013
v -0.353553 0.000000 -0.353553
v -0.433013 0.000000 -0.250000
v -0.482963 0.000000 -0.129410
v -0.500000 0.000000 0.000000
v -0.482963 0.000000 0.129410
v -0.433013 0.000000 0.250000
v -0.353553 0.000000 0.353553
v -0.250000 0.000000 0.433013
v -0.129410 0.000000 0.482963
v 0.000000 0.000000 0.500000
v 0.129410 0.000000 0.482963
v 0.250000 0.000000 0.433013
v 0.353553 0.000000 0.353553
v 0.433013 0.000000 0.250000
v 0.482963 0.000000 0.129409
v 0.500000 0.000000 -0.000000
v 0.482963 0.000000 -0.129410
v 0.433013 0.000000 -0.250000
v 0.353553 0.000000 -0.353553
v 0.250000 0.000000 -0.433013
v 0.129409 0.000000 -0.482963
vt 0.000100 0.565813
vt 0.000100 0.434187
vt 0.034167 0.307046
vt 0.099980 0.193054
vt 0.193054 0.099980
vt 0.307046 0.034167
vt 0.434186 0.000100
vt 0.565813 0.000100
vt 0.692955 0.034168
vt 0.806946 0.099981
vt 0.900020 0.193054
vt 0.965833 0.307046
vt 0.999900 0.434187
vt 0.999900 0.565813
vt 0.965833 0.692954
vt 0.900020 0.806946
vt 0.806947 0.900019
vt 0.692954 0.965833
vt 0.565813 0.999900
vt 0.434187 0.999900
vt 0.307047 0.965833
vt 0.193055 0.900020
vt 0.099980 0.806945
vt 0.034167 0.692954
vn 0.0000 1.0000 0.0000
usemtl Circle
s 1
f 2/1/1 3/2/1 4/3/1 5/4/1 6/5/1 7/6/1 8/7/1 9/8/1 10/9/1 11/10/1 12/11/1 13/12/1 14/13/1 15/14/1 16/15/1 17/16/1 18/17/1 19/18/1 20/19/1 21/20/1 22/21/1 23/22/1 24/23/1 1/24/1
