# Blender v2.93.0 OBJ File: 'devshapes.blend'
# www.blender.org
mtllib Cone_LQ.mtl
o Cone_LQ_Cone
v 0.000000 -0.500000 -0.500000
v 0.250000 -0.500000 -0.433013
v 0.433013 -0.500000 -0.250000
v 0.500000 -0.500000 0.000000
v 0.433013 -0.500000 0.250000
v 0.250000 -0.500000 0.433013
v -0.000000 -0.500000 0.500000
v -0.250000 -0.500000 0.433013
v -0.433013 -0.500000 0.250000
v -0.500000 -0.500000 -0.000000
v -0.433013 -0.500000 -0.250000
v -0.250000 -0.500000 -0.433013
v 0.000000 0.500000 0.000000
vt 0.141816 0.858183
vt 0.500000 0.500000
vt 0.368896 0.989288
vt 0.631104 0.989288
vt 0.858183 0.858183
vt 0.989288 0.631104
vt 0.989288 0.368896
vt 0.858183 0.141816
vt 0.631104 0.010712
vt 0.368896 0.010712
vt 0.141816 0.141817
vt 0.010712 0.368896
vt 0.141816 0.141817
vt 0.010712 0.368896
vt 0.010712 0.631104
vt 0.141817 0.858184
vt 0.368896 0.989288
vt 0.631104 0.989288
vt 0.858183 0.858183
vt 0.989288 0.631104
vt 0.989288 0.368896
vt 0.858183 0.141817
vt 0.631104 0.010712
vt 0.368896 0.010712
vt 0.010712 0.631104
vn 0.0000 -0.4714 -0.8819
vn 0.0000 1.0000 0.0000
vn 0.4410 -0.4714 -0.7638
vn 0.7638 -0.4714 -0.4410
vn 0.8819 -0.4714 0.0000
vn 0.7638 -0.4714 0.4410
vn 0.4410 -0.4714 0.7638
vn 0.0000 -0.4714 0.8819
vn -0.4410 -0.4714 0.7638
vn -0.7638 -0.4714 0.4410
vn -0.8819 -0.4714 0.0000
vn -0.7638 -0.4714 -0.4410
vn -0.4410 -0.4714 -0.7638
usemtl Circle
s 1
f 1/1/1 13/2/2 2/3/3
f 2/3/3 13/2/2 3/4/4
f 3/4/4 13/2/2 4/5/5
f 4/5/5 13/2/2 5/6/6
f 5/6/6 13/2/2 6/7/7
f 6/7/7 13/2/2 7/8/8
f 7/8/8 13/2/2 8/9/9
f 8/9/9 13/2/2 9/10/10
f 9/10/10 13/2/2 10/11/11
f 10/11/11 13/2/2 11/12/12
f 1/13/1 2/14/3 3/15/4 4/16/5 5/17/6 6/18/7 7/19/8 8/20/9 9/21/10 10/22/11 11/23/12 12/24/13
f 11/12/12 13/2/2 12/25/13
f 12/25/13 13/2/2 1/1/1
