# Blender v2.93.0 OBJ File: 'devshapes.blend'
# www.blender.org
mtllib Icosphere.mtl
o Icosphere_Icosphere.002
v 0.000000 -0.500000 0.000000
v 0.361804 -0.223610 0.262863
v -0.138194 -0.223610 0.425325
v -0.447213 -0.223608 0.000000
v -0.138194 -0.223610 -0.425325
v 0.361804 -0.223610 -0.262863
v 0.138194 0.223610 0.425325
v -0.361804 0.223610 0.262863
v -0.361804 0.223610 -0.262863
v 0.138194 0.223610 -0.425325
v 0.447213 0.223608 0.000000
v 0.000000 0.500000 0.000000
v -0.116411 -0.328760 0.358282
v -0.081228 -0.425327 0.249998
v -0.038803 -0.483975 0.119426
v 0.101590 -0.483975 0.073809
v 0.212661 -0.425327 0.154506
v 0.304773 -0.328759 0.221428
v 0.265970 -0.251151 0.340856
v 0.131434 -0.262869 0.404506
v -0.014820 -0.251151 0.432092
v 0.406365 -0.251150 -0.147619
v 0.425324 -0.262868 0.000000
v 0.406365 -0.251150 0.147619
v 0.101590 -0.483975 -0.073809
v 0.212661 -0.425327 -0.154506
v 0.304773 -0.328759 -0.221428
v -0.376721 -0.328757 0.000000
v -0.262865 -0.425326 0.000000
v -0.125573 -0.483974 0.000000
v -0.241986 -0.251151 0.358282
v -0.344095 -0.262868 0.249998
v -0.415525 -0.251149 0.119427
v -0.116411 -0.328760 -0.358282
v -0.081228 -0.425327 -0.249998
v -0.038803 -0.483975 -0.119426
v -0.415525 -0.251149 -0.119427
v -0.344095 -0.262868 -0.249998
v -0.241986 -0.251151 -0.358282
v -0.014820 -0.251151 -0.432092
v 0.131434 -0.262869 -0.404506
v 0.265970 -0.251151 -0.340856
v 0.478313 0.125575 0.073809
v 0.475529 -0.000000 0.154506
v 0.430349 -0.125575 0.221429
v 0.430349 -0.125575 -0.221429
v 0.475529 0.000000 -0.154506
v 0.478313 0.125575 -0.073809
v 0.077608 0.125576 0.477711
v 0.000000 -0.000000 0.500000
v -0.077608 -0.125576 0.477711
v 0.343579 -0.125576 0.340858
v 0.293893 0.000000 0.404508
v 0.218003 0.125576 0.432094
v -0.430349 0.125575 0.221429
v -0.475529 -0.000000 0.154506
v -0.478313 -0.125575 0.073809
v -0.218003 -0.125576 0.432094
v -0.293893 0.000000 0.404508
v -0.343579 0.125576 0.340858
v -0.343579 0.125576 -0.340858
v -0.293893 -0.000000 -0.404508
v -0.218003 -0.125576 -0.432094
v -0.478313 -0.125575 -0.073809
v -0.475529 0.000000 -0.154506
v -0.430349 0.125575 -0.221429
v 0.218003 0.125576 -0.432094
v 0.293893 -0.000000 -0.404508
v 0.343579 -0.125576 -0.340858
v -0.077608 -0.125576 -0.477711
v 0.000000 0.000000 -0.500000
v 0.077608 0.125576 -0.477711
v 0.415525 0.251149 0.119427
v 0.344095 0.262868 0.249998
v 0.241986 0.251151 0.358282
v 0.014820 0.251151 0.432092
v -0.131434 0.262869 0.404506
v -0.265970 0.251151 0.340856
v -0.406365 0.251150 0.147619
v -0.425324 0.262868 0.000000
v -0.406365 0.251150 -0.147619
v -0.265970 0.251151 -0.340856
v -0.131434 0.262869 -0.404506
v 0.014820 0.251151 -0.432092
v 0.241986 0.251151 -0.358282
v 0.344095 0.262868 -0.249998
v 0.415525 0.251149 -0.119427
v 0.038803 0.483975 0.119426
v 0.081228 0.425327 0.249998
v 0.116411 0.328760 0.358282
v 0.376721 0.328757 0.000000
v 0.262865 0.425326 0.000000
v 0.125573 0.483974 0.000000
v -0.101590 0.483975 0.073809
v -0.212661 0.425327 0.154506
v -0.304773 0.328759 0.221428
v -0.101590 0.483975 -0.073809
v -0.212661 0.425327 -0.154506
v -0.304773 0.328759 -0.221428
v 0.038803 0.483975 -0.119426
v 0.081228 0.425327 -0.249998
v 0.116411 0.328760 -0.358282
v 0.180900 0.447215 -0.131431
v 0.319097 0.361805 -0.131432
v 0.223605 0.361806 -0.262864
v -0.069099 0.447215 -0.212660
v -0.026395 0.361806 -0.344092
v -0.180902 0.361806 -0.293889
v -0.223605 0.447215 0.000000
v -0.335408 0.361805 -0.081229
v -0.335408 0.361805 0.081229
v -0.069099 0.447215 0.212660
v -0.180902 0.361806 0.293889
v -0.026395 0.361806 0.344092
v 0.180900 0.447215 0.131431
v 0.223605 0.361806 0.262864
v 0.319097 0.361805 0.131432
v 0.430902 0.138198 -0.212661
v 0.404510 0.000000 -0.293891
v 0.335410 0.138199 -0.344095
v -0.069099 0.138199 -0.475528
v -0.154508 -0.000000 -0.475528
v -0.223608 0.138199 -0.425324
v -0.473607 0.138198 -0.081229
v -0.500000 0.000000 0.000000
v -0.473606 0.138198 0.081229
v -0.223608 0.138198 0.425324
v -0.154509 -0.000000 0.475528
v -0.069100 0.138198 0.475528
v 0.335410 0.138198 0.344095
v 0.404509 -0.000001 0.293891
v 0.430902 0.138197 0.212662
v 0.154509 -0.000000 -0.475528
v 0.223608 -0.138199 -0.425324
v 0.069100 -0.138199 -0.475527
v -0.404509 -0.000000 -0.293892
v -0.335409 -0.138199 -0.344095
v -0.430902 -0.138198 -0.212662
v -0.404509 0.000000 0.293892
v -0.430902 -0.138198 0.212662
v -0.335410 -0.138199 0.344095
v 0.154509 0.000000 0.475528
v 0.069100 -0.138199 0.475527
v 0.223608 -0.138199 0.425324
v 0.500000 0.000000 0.000000
v 0.473607 -0.138198 0.081229
v 0.473607 -0.138198 -0.081229
v 0.180902 -0.361806 -0.293890
v 0.069098 -0.447215 -0.212661
v 0.026395 -0.361805 -0.344093
v -0.223605 -0.361806 -0.262864
v -0.180901 -0.447214 -0.131431
v -0.319097 -0.361805 -0.131431
v -0.319097 -0.361805 0.131432
v -0.180901 -0.447214 0.131432
v -0.223605 -0.361805 0.262864
v 0.335409 -0.361805 -0.081228
v 0.335409 -0.361805 0.081229
v 0.223605 -0.447214 0.000000
v 0.026395 -0.361806 0.344093
v 0.069099 -0.447215 0.212660
v 0.180902 -0.361805 0.293890
vt 0.500000 0.500000
vt 0.622145 0.411258
vt 0.453346 0.356411
vt 0.183954 0.231148
vt 0.233771 0.104724
vt 0.322514 0.198036
vt 0.349020 0.500000
vt 0.453346 0.643589
vt 0.622145 0.588742
vt 0.233771 0.349018
vt 0.333846 0.231148
vt 0.482182 0.198035
vt 0.406690 0.349017
vt 0.500000 0.231151
vt 0.356410 0.198037
vt 0.411257 0.349018
vt 0.333846 0.231148
vt 0.209054 0.198035
vt 0.237889 0.349017
vt 0.935006 0.231148
vt 0.819783 0.198035
vt 0.913094 0.349017
vt 0.090178 0.349017
vt 0.237889 0.349017
vt 0.588743 0.349018
vt 0.406690 0.349017
vt 0.816046 0.231148
vt 0.909822 0.349017
vt 0.766229 0.349018
vt 0.666154 0.768852
vt 0.790945 0.801965
vt 0.639964 0.895276
vt 0.183954 0.768852
vt 0.090180 0.801965
vt 0.233771 0.895276
vt 0.816046 0.768852
vt 0.677486 0.801964
vt 0.766229 0.895276
vt 0.666154 0.768852
vt 0.517818 0.801965
vt 0.639964 0.895276
vt 0.500000 0.768849
vt 0.643590 0.801963
vt 0.500000 0.895273
vt 0.650980 0.500000
vt 0.546654 0.643589
vt 0.500000 0.500000
vt 0.816049 0.500000
vt 0.717501 0.658023
vt 0.952941 0.500000
vt 0.883658 0.658024
vt 0.597662 0.800578
vt 0.768845 0.816048
vt 0.639964 0.930771
vt 0.658024 0.935007
vt 0.800579 0.816053
vt 0.913714 0.800579
vt 0.790945 0.930772
vt 0.768845 0.935008
vt 0.790945 0.801965
vt 0.377855 0.588742
vt 0.416921 0.755686
vt 0.468265 0.913711
vt 0.244312 0.685766
vt 0.282497 0.853350
vt 0.133563 0.766229
vt 0.468265 0.935009
vt 0.341973 0.816054
vt 0.282497 0.935009
vt 0.180217 0.801965
vt 0.180217 0.909820
vt 0.909820 0.801965
vt 0.377855 0.411258
vt 0.231154 0.500000
vt 0.096730 0.597663
vt 0.244312 0.314234
vt 0.096730 0.402337
vt 0.133563 0.233771
vt 0.597663 0.935008
vt 0.500000 0.816053
vt 0.402337 0.935008
vt 0.322514 0.801964
vt 0.546654 0.356411
vt 0.416921 0.244314
vt 0.282497 0.146650
vt 0.597662 0.199422
vt 0.468265 0.086289
vt 0.639964 0.069229
vt 0.180217 0.090180
vt 0.180217 0.801965
vt 0.341973 0.816054
vt 0.282497 0.935009
vt 0.468265 0.935009
vt 0.517818 0.801965
vt 0.717501 0.341977
vt 0.768845 0.183952
vt 0.883658 0.341976
vt 0.768845 0.935008
vt 0.790945 0.069228
vt 0.913714 0.199421
vt 0.199421 0.816053
vt 0.356410 0.801963
vt 0.341976 0.935007
vt 0.588743 0.650982
vt 0.685767 0.500000
vt 0.755688 0.666159
vt 0.853353 0.500000
vt 0.913714 0.666160
vt 0.903272 0.666160
vt 0.913714 0.816053
vt 0.986351 0.500000
vt 0.853355 0.500000
vt 0.762111 0.650983
vt 0.593309 0.650983
vt 0.500000 0.500000
vt 0.416920 0.666160
vt 0.314231 0.500000
vt 0.231151 0.666160
vt 0.146645 0.500000
vt 0.086906 0.650983
vt 0.064994 0.768852
vt 0.766229 0.650982
vt 0.685767 0.500000
vt 0.597663 0.666159
vt 0.500000 0.500000
vt 0.402336 0.666159
vt 0.314233 0.500000
vt 0.233771 0.650982
vt 0.086906 0.650983
vt 0.064994 0.768852
vt 0.146645 0.500000
vt 0.231151 0.666159
vt 0.314230 0.500000
vt 0.416920 0.666159
vt 0.500000 0.500000
vt 0.593309 0.650983
vt 0.762111 0.650983
vt 0.853355 0.500000
vt 0.903272 0.666159
vt 0.146647 0.499999
vt 0.013649 0.500000
vt 0.913714 0.816053
vt 0.086286 0.666159
vt 0.244312 0.666158
vt 0.314233 0.500000
vt 0.411257 0.650982
vt 0.685770 0.500000
vt 0.768849 0.333840
vt 0.583080 0.333840
vt 0.658027 0.183946
vt 0.482182 0.198035
vt 0.909822 0.650983
vt 0.986351 0.500000
vt 0.853353 0.500000
vt 0.096729 0.333840
vt 0.913715 0.333840
vt 0.755689 0.333841
vt 0.086286 0.183947
vt 0.800579 0.183947
vt 0.643590 0.198037
vt 0.090178 0.650983
vt 0.146647 0.500000
vt 0.244311 0.333841
vt 0.013649 0.500000
vt 0.086285 0.333840
vt 0.096729 0.333840
vt 0.199421 0.183947
vt 0.086286 0.183947
vt 0.209054 0.198035
vt 0.685770 0.500000
vt 0.583080 0.333840
vt 0.768849 0.333840
vt 0.913094 0.349017
vt 0.658027 0.183946
vt 0.819783 0.198035
vt 0.935006 0.231148
vt 0.500000 0.500000
vt 0.402337 0.333841
vt 0.597663 0.333841
vt 0.500000 0.183947
vt 0.677486 0.198036
vt 0.766229 0.104724
vt 0.909820 0.198035
vt 0.755688 0.685766
vt 0.717503 0.853351
vt 0.866437 0.766229
vt 0.583079 0.755687
vt 0.819783 0.909820
vt 0.717503 0.064992
vt 0.531735 0.913712
vt 0.531735 0.064992
vt 0.402338 0.800578
vt 0.360036 0.930771
vt 0.360036 0.104724
vt 0.231154 0.816047
vt 0.282499 0.658023
vt 0.231154 0.064992
vt 0.086286 0.800579
vt 0.209054 0.930772
vt 0.116341 0.658023
vt 0.658023 0.064993
vt 0.183951 0.500000
vt 0.047059 0.500000
vt 0.500000 0.104727
vt 0.116341 0.341976
vt 0.282499 0.341976
vt 0.341976 0.064993
vt 0.231154 0.183952
vt 0.086286 0.199421
vt 0.209054 0.069228
vt 0.402338 0.199422
vt 0.360036 0.069229
vt 0.231154 0.064992
vt 0.360036 0.104724
vt 0.597663 0.064992
vt 0.402336 0.064993
vt 0.903270 0.597663
vt 0.903270 0.402336
vt 0.768847 0.500000
vt 0.866437 0.233771
vt 0.755688 0.314234
vt 0.531736 0.086289
vt 0.583080 0.244313
vt 0.531736 0.064992
vt 0.717504 0.146649
vt 0.717504 0.064992
vt 0.819783 0.090180
vt 0.090180 0.198035
vn 0.0000 -1.0000 0.0000
vn 0.2109 -0.9654 0.1533
vn -0.0806 -0.9654 0.2480
vn 0.7236 -0.4472 0.5257
vn 0.6042 -0.6650 0.4390
vn 0.8152 -0.5038 0.2857
vn -0.2608 -0.9654 0.0000
vn -0.0806 -0.9654 -0.2480
vn 0.2109 -0.9654 -0.1533
vn 0.8650 -0.2430 0.4390
vn -0.2764 -0.4472 0.8506
vn -0.0198 -0.5038 0.8636
vn -0.1502 -0.2430 0.9583
vn -0.8944 -0.4472 0.0000
vn -0.8274 -0.5038 0.2480
vn -0.9578 -0.2430 0.1533
vn -0.2764 -0.4472 -0.8506
vn -0.4915 -0.5038 -0.7103
vn -0.4417 -0.2430 -0.8636
vn 0.7236 -0.4472 -0.5257
vn 0.5236 -0.5038 -0.6870
vn 0.6848 -0.2430 -0.6870
vn 0.6848 -0.2430 0.6870
vn -0.4417 -0.2430 0.8636
vn -0.9578 -0.2430 -0.1533
vn -0.1502 -0.2430 -0.9583
vn 0.8650 -0.2430 -0.4390
vn 0.2764 0.4472 0.8506
vn 0.4915 0.5038 0.7103
vn 0.2308 0.6650 0.7103
vn -0.7236 0.4472 0.5257
vn -0.5236 0.5038 0.6870
vn -0.6042 0.6650 0.4390
vn -0.7236 0.4472 -0.5257
vn -0.8152 0.5038 -0.2857
vn -0.6042 0.6650 -0.4390
vn 0.2764 0.4472 -0.8506
vn 0.0198 0.5038 -0.8636
vn 0.2308 0.6650 -0.7103
vn 0.8944 0.4472 0.0000
vn 0.8274 0.5038 -0.2480
vn 0.7468 0.6650 0.0000
vn 0.2608 0.9654 0.0000
vn 0.0806 0.9654 -0.2480
vn 0.0000 1.0000 0.0000
vn 0.5257 0.8506 0.0000
vn 0.3682 0.8904 -0.2675
vn 0.6317 0.7275 -0.2675
vn 0.1625 0.8506 -0.5000
vn 0.4496 0.7275 -0.5181
vn 0.6882 0.5257 -0.5000
vn 0.4915 0.5038 -0.7103
vn -0.2109 0.9654 -0.1533
vn -0.1406 0.8904 -0.4328
vn -0.0592 0.7275 -0.6835
vn -0.4253 0.8506 -0.3090
vn -0.3538 0.7275 -0.5877
vn -0.2629 0.5257 -0.8090
vn -0.5236 0.5038 -0.6870
vn -0.2109 0.9654 0.1533
vn -0.4551 0.8904 0.0000
vn -0.6683 0.7275 -0.1549
vn -0.4253 0.8506 0.3090
vn -0.6683 0.7275 0.1549
vn -0.8506 0.5257 0.0000
vn -0.8152 0.5038 0.2857
vn 0.0806 0.9654 0.2480
vn -0.1406 0.8904 0.4328
vn -0.3538 0.7275 0.5877
vn 0.1625 0.8506 0.5000
vn -0.0592 0.7275 0.6835
vn -0.2629 0.5257 0.8090
vn 0.0198 0.5038 0.8636
vn 0.3682 0.8904 0.2675
vn 0.4496 0.7275 0.5181
vn 0.6317 0.7275 0.2675
vn 0.6882 0.5257 0.5000
vn 0.8274 0.5038 0.2480
vn 0.9578 0.2430 -0.1533
vn 0.9510 0.0000 -0.3090
vn 0.8593 0.2724 -0.4328
vn 0.8090 0.0089 -0.5878
vn 0.6772 0.2724 -0.6835
vn 0.5878 0.0000 -0.8090
vn 0.4417 0.2430 -0.8636
vn 0.1502 0.2430 -0.9583
vn 0.0000 0.0000 -1.0000
vn -0.1461 0.2724 -0.9510
vn -0.3090 0.0089 -0.9510
vn -0.4407 0.2724 -0.8553
vn -0.5878 0.0000 -0.8090
vn -0.6848 0.2430 -0.6870
vn -0.8650 0.2430 -0.4390
vn -0.9510 0.0000 -0.3090
vn -0.9496 0.2724 -0.1549
vn -0.9999 0.0089 0.0000
vn -0.9496 0.2724 0.1549
vn -0.9510 0.0000 0.3090
vn -0.8650 0.2430 0.4390
vn -0.6848 0.2430 0.6870
vn -0.5878 0.0000 0.8090
vn -0.4407 0.2724 0.8553
vn -0.3090 0.0089 0.9510
vn -0.1461 0.2724 0.9510
vn 0.0000 0.0000 1.0000
vn 0.1502 0.2430 0.9583
vn 0.4417 0.2430 0.8636
vn 0.5878 0.0000 0.8090
vn 0.6772 0.2724 0.6835
vn 0.8090 0.0089 0.5878
vn 0.8593 0.2724 0.4328
vn 0.9510 0.0000 0.3090
vn 0.9578 0.2430 0.1533
vn 0.3090 -0.0089 -0.9510
vn 0.4407 -0.2724 -0.8553
vn 0.1461 -0.2724 -0.9510
vn 0.2629 -0.5257 -0.8090
vn -0.0198 -0.5038 -0.8636
vn -0.8090 -0.0089 -0.5878
vn -0.6772 -0.2724 -0.6835
vn -0.8593 -0.2724 -0.4328
vn -0.6882 -0.5257 -0.5000
vn -0.8274 -0.5038 -0.2480
vn -0.8090 -0.0089 0.5878
vn -0.8593 -0.2724 0.4328
vn -0.6772 -0.2724 0.6835
vn -0.6882 -0.5257 0.5000
vn -0.4915 -0.5038 0.7103
vn 0.3090 -0.0089 0.9510
vn 0.1461 -0.2724 0.9510
vn 0.4407 -0.2724 0.8553
vn 0.2629 -0.5257 0.8090
vn 0.5236 -0.5038 0.6870
vn 0.9999 -0.0089 0.0000
vn 0.9496 -0.2724 0.1549
vn 0.9496 -0.2724 -0.1549
vn 0.8506 -0.5257 0.0000
vn 0.8152 -0.5038 -0.2857
vn 0.6042 -0.6650 -0.4390
vn 0.4253 -0.8506 -0.3090
vn 0.3538 -0.7275 -0.5878
vn 0.1406 -0.8904 -0.4328
vn 0.0592 -0.7275 -0.6835
vn -0.1625 -0.8506 -0.5000
vn -0.2308 -0.6650 -0.7103
vn -0.4496 -0.7275 -0.5181
vn -0.3682 -0.8904 -0.2675
vn -0.6317 -0.7275 -0.2675
vn -0.5257 -0.8506 0.0000
vn -0.7468 -0.6650 0.0000
vn -0.6317 -0.7275 0.2675
vn -0.3682 -0.8904 0.2675
vn -0.4496 -0.7275 0.5181
vn -0.1625 -0.8506 0.5000
vn -0.2308 -0.6650 0.7103
vn 0.6683 -0.7275 -0.1549
vn 0.6683 -0.7275 0.1549
vn 0.4551 -0.8904 0.0000
vn 0.4253 -0.8506 0.3090
vn 0.0592 -0.7275 0.6835
vn 0.1406 -0.8904 0.4328
vn 0.3538 -0.7275 0.5878
usemtl Grid
s 1
f 1/1/1 16/2/2 15/3/3
f 2/4/4 18/5/5 24/6/6
f 1/1/1 15/3/3 30/7/7
f 1/1/1 30/7/7 36/8/8
f 1/1/1 36/8/8 25/9/9
f 2/4/4 24/6/6 45/10/10
f 3/11/11 21/12/12 51/13/13
f 4/14/14 33/15/15 57/16/16
f 5/17/17 39/18/18 63/19/19
f 6/20/20 42/21/21 69/22/22
f 2/4/4 45/10/10 52/23/23
f 3/11/11 51/13/13 58/24/24
f 4/14/14 57/16/16 64/25/25
f 5/17/17 63/19/19 70/26/26
f 6/27/20 69/28/22 46/29/27
f 7/30/28 75/31/29 90/32/30
f 8/33/31 78/34/32 96/35/33
f 9/36/34 81/37/35 99/38/36
f 10/39/37 84/40/38 102/41/39
f 11/42/40 87/43/41 91/44/42
f 93/45/43 100/46/44 12/47/45
f 92/48/46 103/49/47 93/45/43
f 91/50/42 104/51/48 92/48/46
f 93/45/43 103/49/47 100/46/44
f 103/49/47 101/52/49 100/46/44
f 92/48/46 104/51/48 103/49/47
f 104/51/48 105/53/50 103/49/47
f 103/49/47 105/53/50 101/52/49
f 105/53/50 102/54/39 101/52/49
f 91/44/42 87/43/41 104/55/48
f 87/43/41 86/56/51 104/55/48
f 104/51/48 86/57/51 105/53/50
f 86/57/51 85/58/52 105/53/50
f 105/59/50 85/60/52 102/41/39
f 85/60/52 10/39/37 102/41/39
f 100/46/44 97/61/53 12/47/45
f 101/52/49 106/62/54 100/46/44
f 102/54/39 107/63/55 101/52/49
f 100/46/44 106/62/54 97/61/53
f 106/62/54 98/64/56 97/61/53
f 101/52/49 107/63/55 106/62/54
f 107/63/55 108/65/57 106/62/54
f 106/62/54 108/65/57 98/64/56
f 108/65/57 99/66/36 98/64/56
f 102/41/39 84/40/38 107/67/55
f 84/40/38 83/68/58 107/67/55
f 107/67/55 83/68/58 108/69/57
f 83/68/58 82/70/59 108/69/57
f 108/65/57 82/71/59 99/66/36
f 82/72/59 9/36/34 99/38/36
f 97/61/53 94/73/60 12/47/45
f 98/64/56 109/74/61 97/61/53
f 99/66/36 110/75/62 98/64/56
f 97/61/53 109/74/61 94/73/60
f 109/74/61 95/76/63 94/73/60
f 98/64/56 110/75/62 109/74/61
f 110/75/62 111/77/64 109/74/61
f 109/74/61 111/77/64 95/76/63
f 111/77/64 96/78/33 95/76/63
f 99/38/36 81/37/35 110/79/62
f 81/37/35 80/80/65 110/79/62
f 110/79/62 80/80/65 111/81/64
f 80/80/65 79/82/66 111/81/64
f 111/81/64 79/82/66 96/35/33
f 79/82/66 8/33/31 96/35/33
f 94/73/60 88/83/67 12/47/45
f 95/76/63 112/84/68 94/73/60
f 96/78/33 113/85/69 95/76/63
f 94/73/60 112/84/68 88/83/67
f 112/84/68 89/86/70 88/83/67
f 95/76/63 113/85/69 112/84/68
f 113/85/69 114/87/71 112/84/68
f 112/84/68 114/87/71 89/86/70
f 114/87/71 90/88/30 89/86/70
f 96/78/33 78/89/32 113/85/69
f 78/90/32 77/91/72 113/92/69
f 113/92/69 77/91/72 114/93/71
f 77/91/72 76/94/73 114/93/71
f 114/93/71 76/94/73 90/32/30
f 76/94/73 7/30/28 90/32/30
f 88/83/67 93/45/43 12/47/45
f 89/86/70 115/95/74 88/83/67
f 90/88/30 116/96/75 89/86/70
f 88/83/67 115/95/74 93/45/43
f 115/95/74 92/48/46 93/45/43
f 89/86/70 116/96/75 115/95/74
f 116/96/75 117/97/76 115/95/74
f 115/95/74 117/97/76 92/48/46
f 117/97/76 91/50/42 92/48/46
f 90/32/30 75/31/29 116/98/75
f 75/99/29 74/100/77 116/96/75
f 116/96/75 74/100/77 117/97/76
f 74/101/77 73/102/78 117/103/76
f 117/103/76 73/102/78 91/44/42
f 73/102/78 11/42/40 91/44/42
f 48/104/79 87/43/41 11/42/40
f 47/105/80 118/106/81 48/104/79
f 46/29/27 119/107/82 47/105/80
f 48/104/79 118/106/81 87/43/41
f 118/106/81 86/56/51 87/43/41
f 47/105/80 119/107/82 118/106/81
f 119/107/82 120/108/83 118/106/81
f 118/106/81 120/108/83 86/56/51
f 120/109/83 85/60/52 86/110/51
f 46/29/27 69/28/22 119/107/82
f 69/28/22 68/111/84 119/107/82
f 119/107/82 68/111/84 120/108/83
f 68/112/84 67/113/85 120/109/83
f 120/109/83 67/113/85 85/60/52
f 67/113/85 10/39/37 85/60/52
f 72/114/86 84/40/38 10/39/37
f 71/115/87 121/116/88 72/114/86
f 70/26/26 122/117/89 71/115/87
f 72/114/86 121/116/88 84/40/38
f 121/116/88 83/68/58 84/40/38
f 71/115/87 122/117/89 121/116/88
f 122/117/89 123/118/90 121/116/88
f 121/116/88 123/118/90 83/68/58
f 123/118/90 82/70/59 83/68/58
f 70/26/26 63/19/19 122/117/89
f 63/19/19 62/119/91 122/117/89
f 122/117/89 62/119/91 123/118/90
f 62/119/91 61/120/92 123/118/90
f 123/118/90 61/120/92 82/70/59
f 61/120/92 9/121/34 82/70/59
f 66/122/93 81/37/35 9/36/34
f 65/123/94 124/124/95 66/122/93
f 64/25/25 125/125/96 65/123/94
f 66/122/93 124/124/95 81/37/35
f 124/124/95 80/80/65 81/37/35
f 65/123/94 125/125/96 124/124/95
f 125/125/96 126/126/97 124/124/95
f 124/124/95 126/126/97 80/80/65
f 126/126/97 79/82/66 80/80/65
f 64/25/25 57/16/16 125/125/96
f 57/16/16 56/127/98 125/125/96
f 125/125/96 56/127/98 126/126/97
f 56/127/98 55/128/99 126/126/97
f 126/126/97 55/128/99 79/82/66
f 55/128/99 8/33/31 79/82/66
f 60/129/100 78/90/32 8/130/31
f 59/131/101 127/132/102 60/129/100
f 58/24/24 128/133/103 59/131/101
f 60/129/100 127/132/102 78/90/32
f 127/132/102 77/91/72 78/90/32
f 59/131/101 128/133/103 127/132/102
f 128/133/103 129/134/104 127/132/102
f 127/132/102 129/134/104 77/91/72
f 129/134/104 76/94/73 77/91/72
f 58/24/24 51/13/13 128/133/103
f 51/13/13 50/135/105 128/133/103
f 128/133/103 50/135/105 129/134/104
f 50/135/105 49/136/106 129/134/104
f 129/134/104 49/136/106 76/94/73
f 49/136/106 7/30/28 76/94/73
f 54/137/107 75/31/29 7/30/28
f 53/138/108 130/139/109 54/137/107
f 52/23/23 131/140/110 53/141/108
f 54/137/107 130/139/109 75/31/29
f 130/139/109 74/142/77 75/31/29
f 53/141/108 131/140/110 130/143/109
f 131/140/110 132/144/111 130/143/109
f 130/143/109 132/144/111 74/101/77
f 132/144/111 73/102/78 74/101/77
f 52/23/23 45/10/10 131/140/110
f 45/10/10 44/145/112 131/140/110
f 131/140/110 44/145/112 132/144/111
f 44/145/112 43/146/113 132/144/111
f 132/144/111 43/146/113 73/102/78
f 43/146/113 11/42/40 73/102/78
f 67/113/85 72/114/86 10/39/37
f 68/112/84 133/147/114 67/113/85
f 69/22/22 134/148/115 68/112/84
f 67/113/85 133/147/114 72/114/86
f 133/147/114 71/115/87 72/114/86
f 68/112/84 134/148/115 133/147/114
f 134/148/115 135/149/116 133/147/114
f 133/147/114 135/149/116 71/115/87
f 135/149/116 70/26/26 71/115/87
f 69/22/22 42/21/21 134/148/115
f 42/21/21 41/150/117 134/148/115
f 134/148/115 41/150/117 135/149/116
f 41/150/117 40/151/118 135/149/116
f 135/149/116 40/151/118 70/26/26
f 40/151/118 5/17/17 70/26/26
f 61/152/92 66/122/93 9/36/34
f 62/153/91 136/154/119 61/152/92
f 63/19/19 137/155/120 62/119/91
f 61/152/92 136/154/119 66/122/93
f 136/154/119 65/123/94 66/122/93
f 62/153/91 137/156/120 136/154/119
f 137/156/120 138/157/121 136/154/119
f 136/154/119 138/157/121 65/123/94
f 138/157/121 64/25/25 65/123/94
f 63/19/19 39/18/18 137/155/120
f 39/18/18 38/158/122 137/155/120
f 137/156/120 38/159/122 138/157/121
f 38/159/122 37/160/123 138/157/121
f 138/157/121 37/160/123 64/25/25
f 37/160/123 4/14/14 64/25/25
f 55/128/99 60/161/100 8/33/31
f 56/127/98 139/162/124 55/128/99
f 57/16/16 140/163/125 56/127/98
f 55/128/99 139/162/124 60/161/100
f 139/162/124 59/164/101 60/161/100
f 56/127/98 140/163/125 139/162/124
f 140/163/125 141/165/126 139/162/124
f 139/162/124 141/165/126 59/164/101
f 141/166/126 58/24/24 59/131/101
f 57/16/16 33/15/15 140/163/125
f 33/15/15 32/167/127 140/163/125
f 140/163/125 32/167/127 141/165/126
f 32/168/127 31/169/128 141/166/126
f 141/166/126 31/169/128 58/24/24
f 31/169/128 3/11/11 58/24/24
f 49/136/106 54/137/107 7/30/28
f 50/135/105 142/170/129 49/136/106
f 51/13/13 143/171/130 50/135/105
f 49/136/106 142/170/129 54/137/107
f 142/170/129 53/138/108 54/137/107
f 50/135/105 143/171/130 142/170/129
f 143/171/130 144/172/131 142/170/129
f 142/170/129 144/172/131 53/138/108
f 144/172/131 52/173/23 53/138/108
f 51/13/13 21/12/12 143/171/130
f 21/12/12 20/174/132 143/171/130
f 143/171/130 20/174/132 144/172/131
f 20/174/132 19/175/133 144/172/131
f 144/172/131 19/175/133 52/173/23
f 19/175/133 2/176/4 52/173/23
f 43/146/113 48/104/79 11/42/40
f 44/145/112 145/177/134 43/146/113
f 45/10/10 146/178/135 44/145/112
f 43/146/113 145/177/134 48/104/79
f 145/177/134 47/105/80 48/104/79
f 44/145/112 146/178/135 145/177/134
f 146/178/135 147/179/136 145/177/134
f 145/177/134 147/179/136 47/105/80
f 147/179/136 46/29/27 47/105/80
f 45/10/10 24/6/6 146/178/135
f 24/6/6 23/180/137 146/178/135
f 146/178/135 23/180/137 147/179/136
f 23/180/137 22/181/138 147/179/136
f 147/179/136 22/181/138 46/29/27
f 22/181/138 6/27/20 46/29/27
f 27/182/139 42/183/21 6/27/20
f 26/184/140 148/185/141 27/186/139
f 25/9/9 149/187/142 26/184/140
f 27/186/139 148/185/141 42/188/21
f 148/189/141 41/150/117 42/21/21
f 26/184/140 149/187/142 148/185/141
f 149/187/142 150/190/143 148/185/141
f 148/189/141 150/191/143 41/150/117
f 150/191/143 40/151/118 41/150/117
f 25/9/9 36/8/8 149/187/142
f 36/8/8 35/192/144 149/187/142
f 149/187/142 35/192/144 150/190/143
f 35/192/144 34/193/145 150/190/143
f 150/191/143 34/194/145 40/151/118
f 34/194/145 5/17/17 40/151/118
f 34/194/145 39/18/18 5/17/17
f 35/192/144 151/195/146 34/193/145
f 36/8/8 152/196/147 35/192/144
f 34/194/145 151/197/146 39/18/18
f 151/195/146 38/198/122 39/199/18
f 35/192/144 152/196/147 151/195/146
f 152/196/147 153/200/148 151/195/146
f 151/195/146 153/200/148 38/198/122
f 153/201/148 37/160/123 38/159/122
f 36/8/8 30/7/7 152/196/147
f 30/7/7 29/202/149 152/196/147
f 152/196/147 29/202/149 153/200/148
f 29/202/149 28/203/150 153/200/148
f 153/201/148 28/204/150 37/160/123
f 28/204/150 4/14/14 37/160/123
f 28/204/150 33/15/15 4/14/14
f 29/202/149 154/205/151 28/203/150
f 30/7/7 155/206/152 29/202/149
f 28/204/150 154/207/151 33/15/15
f 154/207/151 32/167/127 33/15/15
f 29/202/149 155/206/152 154/205/151
f 155/206/152 156/208/153 154/205/151
f 154/205/151 156/208/153 32/209/127
f 156/208/153 31/210/128 32/209/127
f 30/7/7 15/3/3 155/206/152
f 15/3/3 14/211/154 155/206/152
f 155/206/152 14/211/154 156/208/153
f 14/211/154 13/212/155 156/208/153
f 156/213/153 13/214/155 31/169/128
f 13/214/155 3/11/11 31/169/128
f 22/181/138 27/182/139 6/27/20
f 23/180/137 157/215/156 22/181/138
f 24/6/6 158/216/157 23/180/137
f 22/181/138 157/215/156 27/182/139
f 157/217/156 26/184/140 27/186/139
f 23/180/137 158/216/157 157/215/156
f 158/218/157 159/219/158 157/217/156
f 157/217/156 159/219/158 26/184/140
f 159/219/158 25/9/9 26/184/140
f 24/6/6 18/5/5 158/216/157
f 18/220/5 17/221/159 158/218/157
f 158/218/157 17/221/159 159/219/158
f 17/221/159 16/2/2 159/219/158
f 159/219/158 16/2/2 25/9/9
f 16/2/2 1/1/1 25/9/9
f 13/214/155 21/12/12 3/11/11
f 14/211/154 160/222/160 13/212/155
f 15/3/3 161/223/161 14/211/154
f 13/214/155 160/224/160 21/12/12
f 160/224/160 20/174/132 21/12/12
f 14/211/154 161/223/161 160/222/160
f 161/223/161 162/225/162 160/222/160
f 160/224/160 162/226/162 20/174/132
f 162/226/162 19/175/133 20/174/132
f 15/3/3 16/2/2 161/223/161
f 16/2/2 17/221/159 161/223/161
f 161/223/161 17/221/159 162/225/162
f 17/221/159 18/220/5 162/225/162
f 162/225/162 18/220/5 19/227/133
f 18/5/5 2/4/4 19/228/133
