# Blender v2.93.0 OBJ File: 'devshapes.blend'
# www.blender.org
mtllib Plate4_2x2.mtl
o Plate4_2x2_Cube.327
v -0.500000 -0.125000 0.500000
v -0.500000 0.125000 0.500000
v -0.500000 -0.125000 -0.500000
v -0.500000 0.125000 -0.500000
v 0.500000 -0.125000 0.500000
v 0.500000 0.125000 0.500000
v 0.500000 -0.125000 -0.500000
v 0.500000 0.125000 -0.500000
v 0.500000 -0.125000 0.500000
v 0.500000 0.125000 0.500000
v 0.500000 -0.125000 -0.500000
v 0.500000 0.125000 -0.500000
v 1.500000 -0.125000 0.500000
v 1.500000 0.125000 0.500000
v 1.500000 -0.125000 -0.500000
v 1.500000 0.125000 -0.500000
v -0.500000 -0.125000 -0.500000
v -0.500000 0.125000 -0.500000
v -0.500000 -0.125000 -1.500000
v -0.500000 0.125000 -1.500000
v 0.500000 -0.125000 -0.500000
v 0.500000 0.125000 -0.500000
v 0.500000 -0.125000 -1.500000
v 0.500000 0.125000 -1.500000
v 0.500000 -0.125000 -0.500000
v 0.500000 0.125000 -0.500000
v 0.500000 -0.125000 -1.500000
v 0.500000 0.125000 -1.500000
v 1.500000 -0.125000 -0.500000
v 1.500000 0.125000 -0.500000
v 1.500000 -0.125000 -1.500000
v 1.500000 0.125000 -1.500000
vt 0.000100 0.749987
vt 0.000100 0.625013
vt 0.999900 0.625013
vt 0.999900 0.749987
vt 0.999900 0.625013
vt 0.999900 0.749987
vt 0.000100 0.749987
vt 0.000100 0.625013
vt 0.000100 0.000050
vt 0.999900 0.000050
vt 0.999900 0.499950
vt 0.000100 0.499950
vt 0.999900 0.499950
vt 0.000100 0.499950
vt 0.000100 0.000050
vt 0.999900 0.000050
vt 0.999900 0.625013
vt 0.999900 0.749987
vt 0.000100 0.749987
vt 0.000100 0.625013
vt 0.999900 0.625013
vt 0.999900 0.749987
vt 0.000100 0.749987
vt 0.000100 0.625013
vt 0.000100 0.000050
vt 0.999900 0.000050
vt 0.999900 0.499950
vt 0.000100 0.499950
vt 0.999900 0.499950
vt 0.000100 0.499950
vt 0.000100 0.000050
vt 0.999900 0.000050
vt 0.000100 0.749987
vt 0.000100 0.625013
vt 0.999900 0.625013
vt 0.999900 0.749987
vt 0.999900 0.625013
vt 0.999900 0.749987
vt 0.000100 0.749987
vt 0.000100 0.625013
vt 0.000100 0.000050
vt 0.999900 0.000050
vt 0.999900 0.499950
vt 0.000100 0.499950
vt 0.999900 0.499950
vt 0.000100 0.499950
vt 0.000100 0.000050
vt 0.999900 0.000050
vt 0.999900 0.625013
vt 0.999900 0.749987
vt 0.000100 0.749987
vt 0.000100 0.625013
vt 0.999900 0.625013
vt 0.999900 0.749987
vt 0.000100 0.749987
vt 0.000100 0.625013
vt 0.000100 0.000050
vt 0.999900 0.000050
vt 0.999900 0.499950
vt 0.000100 0.499950
vt 0.999900 0.499950
vt 0.000100 0.499950
vt 0.000100 0.000050
vt 0.999900 0.000050
vn -1.0000 0.0000 0.0000
vn 0.0000 0.0000 1.0000
vn 0.0000 -1.0000 0.0000
vn 0.0000 1.0000 0.0000
vn 1.0000 0.0000 0.0000
vn 0.0000 0.0000 -1.0000
usemtl GridWithRect
s off
f 1/1/1 2/2/1 4/3/1 3/4/1
f 5/5/2 6/6/2 2/7/2 1/8/2
f 3/9/3 7/10/3 5/11/3 1/12/3
f 8/13/4 4/14/4 2/15/4 6/16/4
f 15/17/5 16/18/5 14/19/5 13/20/5
f 13/21/2 14/22/2 10/23/2 9/24/2
f 11/25/3 15/26/3 13/27/3 9/28/3
f 16/29/4 12/30/4 10/31/4 14/32/4
f 17/33/1 18/34/1 20/35/1 19/36/1
f 19/37/6 20/38/6 24/39/6 23/40/6
f 19/41/3 23/42/3 21/43/3 17/44/3
f 24/45/4 20/46/4 18/47/4 22/48/4
f 27/49/6 28/50/6 32/51/6 31/52/6
f 31/53/5 32/54/5 30/55/5 29/56/5
f 27/57/3 31/58/3 29/59/3 25/60/3
f 32/61/4 28/62/4 26/63/4 30/64/4
