# Blender v2.93.0 OBJ File: 'devshapes.blend'
# www.blender.org
mtllib Plate8_12x1.mtl
o Plate8_12x1_Cube.404
v -0.500000 -0.062500 0.500000
v -0.500000 0.062500 0.500000
v -0.500000 -0.062500 -0.500000
v -0.500000 0.062500 -0.500000
v 0.500000 -0.062500 0.500000
v 0.500000 0.062500 0.500000
v 0.500000 -0.062500 -0.500000
v 0.500000 0.062500 -0.500000
v 0.500000 -0.062500 0.500000
v 0.500000 0.062500 0.500000
v 0.500000 -0.062500 -0.500000
v 0.500000 0.062500 -0.500000
v 1.500000 -0.062500 0.500000
v 1.500000 0.062500 0.500000
v 1.500000 -0.062500 -0.500000
v 1.500000 0.062500 -0.500000
v 1.500000 -0.062500 0.500000
v 1.500000 0.062500 0.500000
v 1.500000 -0.062500 -0.500000
v 1.500000 0.062500 -0.500000
v 2.500000 -0.062500 0.500000
v 2.500000 0.062500 0.500000
v 2.500000 -0.062500 -0.500000
v 2.500000 0.062500 -0.500000
v 2.500000 -0.062500 0.500000
v 2.500000 0.062500 0.500000
v 2.500000 -0.062500 -0.500000
v 2.500000 0.062500 -0.500000
v 3.500000 -0.062500 0.500000
v 3.500000 0.062500 0.500000
v 3.500000 -0.062500 -0.500000
v 3.500000 0.062500 -0.500000
v 3.500000 -0.062500 0.500000
v 3.500000 0.062500 0.500000
v 3.500000 -0.062500 -0.500000
v 3.500000 0.062500 -0.500000
v 4.500000 -0.062500 0.500000
v 4.500000 0.062500 0.500000
v 4.500000 -0.062500 -0.500000
v 4.500000 0.062500 -0.500000
v 4.500000 -0.062500 0.500000
v 4.500000 0.062500 0.500000
v 4.500000 -0.062500 -0.500000
v 4.500000 0.062500 -0.500000
v 5.500000 -0.062500 0.500000
v 5.500000 0.062500 0.500000
v 5.500000 -0.062500 -0.500000
v 5.500000 0.062500 -0.500000
v 5.500000 -0.062500 0.500000
v 5.500000 0.062500 0.500000
v 5.500000 -0.062500 -0.500000
v 5.500000 0.062500 -0.500000
v 6.500000 -0.062500 0.500000
v 6.500000 0.062500 0.500000
v 6.500000 -0.062500 -0.500000
v 6.500000 0.062500 -0.500000
v 6.500000 -0.062500 0.500000
v 6.500000 0.062500 0.500000
v 6.500000 -0.062500 -0.500000
v 6.500000 0.062500 -0.500000
v 7.500000 -0.062500 0.500000
v 7.500000 0.062500 0.500000
v 7.500000 -0.062500 -0.500000
v 7.500000 0.062500 -0.500000
v 7.500000 -0.062500 0.500000
v 7.500000 0.062500 0.500000
v 7.500000 -0.062500 -0.500000
v 7.500000 0.062500 -0.500000
v 8.500000 -0.062500 0.500000
v 8.500000 0.062500 0.500000
v 8.500000 -0.062500 -0.500000
v 8.500000 0.062500 -0.500000
v 8.500000 -0.062500 0.500000
v 8.500000 0.062500 0.500000
v 8.500000 -0.062500 -0.500000
v 8.500000 0.062500 -0.500000
v 9.500000 -0.062500 0.500000
v 9.500000 0.062500 0.500000
v 9.500000 -0.062500 -0.500000
v 9.500000 0.062500 -0.500000
v 9.500000 -0.062500 0.500000
v 9.500000 0.062500 0.500000
v 9.500000 -0.062500 -0.500000
v 9.500000 0.062500 -0.500000
v 10.500000 -0.062500 0.500000
v 10.500000 0.062500 0.500000
v 10.500000 -0.062500 -0.500000
v 10.500000 0.062500 -0.500000
v 10.500000 -0.062500 0.500000
v 10.500000 0.062500 0.500000
v 10.500000 -0.062500 -0.500000
v 10.500000 0.062500 -0.500000
v 11.500000 -0.062500 0.500000
v 11.500000 0.062500 0.500000
v 11.500000 -0.062500 -0.500000
v 11.500000 0.062500 -0.500000
vt 0.000100 0.624994
vt 0.000100 0.562506
vt 0.999900 0.562506
vt 0.999900 0.624994
vt 0.999900 0.562506
vt 0.999900 0.624994
vt 0.000100 0.624994
vt 0.000100 0.562506
vt 0.999900 0.562506
vt 0.999900 0.624994
vt 0.000100 0.624994
vt 0.000100 0.562506
vt 0.000100 0.000050
vt 0.999900 0.000050
vt 0.999900 0.499950
vt 0.000100 0.499950
vt 0.999900 0.499950
vt 0.000100 0.499950
vt 0.000100 0.000050
vt 0.999900 0.000050
vt 0.999900 0.562506
vt 0.999900 0.624994
vt 0.000100 0.624994
vt 0.000100 0.562506
vt 0.999900 0.562506
vt 0.999900 0.624994
vt 0.000100 0.624994
vt 0.000100 0.562506
vt 0.000100 0.000050
vt 0.999900 0.000050
vt 0.999900 0.499950
vt 0.000100 0.499950
vt 0.999900 0.499950
vt 0.000100 0.499950
vt 0.000100 0.000050
vt 0.999900 0.000050
vt 0.999900 0.562506
vt 0.999900 0.624994
vt 0.000100 0.624994
vt 0.000100 0.562506
vt 0.999900 0.562506
vt 0.999900 0.624994
vt 0.000100 0.624994
vt 0.000100 0.562506
vt 0.000100 0.000050
vt 0.999900 0.000050
vt 0.999900 0.499950
vt 0.000100 0.499950
vt 0.999900 0.499950
vt 0.000100 0.499950
vt 0.000100 0.000050
vt 0.999900 0.000050
vt 0.999900 0.562506
vt 0.999900 0.624994
vt 0.000100 0.624994
vt 0.000100 0.562506
vt 0.999900 0.562506
vt 0.999900 0.624994
vt 0.000100 0.624994
vt 0.000100 0.562506
vt 0.000100 0.000050
vt 0.999900 0.000050
vt 0.999900 0.499950
vt 0.000100 0.499950
vt 0.999900 0.499950
vt 0.000100 0.499950
vt 0.000100 0.000050
vt 0.999900 0.000050
vt 0.999900 0.562506
vt 0.999900 0.624994
vt 0.000100 0.624994
vt 0.000100 0.562506
vt 0.999900 0.562506
vt 0.999900 0.624994
vt 0.000100 0.624994
vt 0.000100 0.562506
vt 0.000100 0.000050
vt 0.999900 0.000050
vt 0.999900 0.499950
vt 0.000100 0.499950
vt 0.999900 0.499950
vt 0.000100 0.499950
vt 0.000100 0.000050
vt 0.999900 0.000050
vt 0.999900 0.562506
vt 0.999900 0.624994
vt 0.000100 0.624994
vt 0.000100 0.562506
vt 0.999900 0.562506
vt 0.999900 0.624994
vt 0.000100 0.624994
vt 0.000100 0.562506
vt 0.000100 0.000050
vt 0.999900 0.000050
vt 0.999900 0.499950
vt 0.000100 0.499950
vt 0.999900 0.499950
vt 0.000100 0.499950
vt 0.000100 0.000050
vt 0.999900 0.000050
vt 0.999900 0.562506
vt 0.999900 0.624994
vt 0.000100 0.624994
vt 0.000100 0.562506
vt 0.999900 0.562506
vt 0.999900 0.624994
vt 0.000100 0.624994
vt 0.000100 0.562506
vt 0.000100 0.000050
vt 0.999900 0.000050
vt 0.999900 0.499950
vt 0.000100 0.499950
vt 0.999900 0.499950
vt 0.000100 0.499950
vt 0.000100 0.000050
vt 0.999900 0.000050
vt 0.999900 0.562506
vt 0.999900 0.624994
vt 0.000100 0.624994
vt 0.000100 0.562506
vt 0.999900 0.562506
vt 0.999900 0.624994
vt 0.000100 0.624994
vt 0.000100 0.562506
vt 0.000100 0.000050
vt 0.999900 0.000050
vt 0.999900 0.499950
vt 0.000100 0.499950
vt 0.999900 0.499950
vt 0.000100 0.499950
vt 0.000100 0.000050
vt 0.999900 0.000050
vt 0.999900 0.562506
vt 0.999900 0.624994
vt 0.000100 0.624994
vt 0.000100 0.562506
vt 0.999900 0.562506
vt 0.999900 0.624994
vt 0.000100 0.624994
vt 0.000100 0.562506
vt 0.000100 0.000050
vt 0.999900 0.000050
vt 0.999900 0.499950
vt 0.000100 0.499950
vt 0.999900 0.499950
vt 0.000100 0.499950
vt 0.000100 0.000050
vt 0.999900 0.000050
vt 0.999900 0.562506
vt 0.999900 0.624994
vt 0.000100 0.624994
vt 0.000100 0.562506
vt 0.999900 0.562506
vt 0.999900 0.624994
vt 0.000100 0.624994
vt 0.000100 0.562506
vt 0.000100 0.000050
vt 0.999900 0.000050
vt 0.999900 0.499950
vt 0.000100 0.499950
vt 0.999900 0.499950
vt 0.000100 0.499950
vt 0.000100 0.000050
vt 0.999900 0.000050
vt 0.999900 0.562506
vt 0.999900 0.624994
vt 0.000100 0.624994
vt 0.000100 0.562506
vt 0.999900 0.562506
vt 0.999900 0.624994
vt 0.000100 0.624994
vt 0.000100 0.562506
vt 0.000100 0.000050
vt 0.999900 0.000050
vt 0.999900 0.499950
vt 0.000100 0.499950
vt 0.999900 0.499950
vt 0.000100 0.499950
vt 0.000100 0.000050
vt 0.999900 0.000050
vt 0.999900 0.562506
vt 0.999900 0.624994
vt 0.000100 0.624994
vt 0.000100 0.562506
vt 0.999900 0.562506
vt 0.999900 0.624994
vt 0.000100 0.624994
vt 0.000100 0.562506
vt 0.999900 0.562506
vt 0.999900 0.624994
vt 0.000100 0.624994
vt 0.000100 0.562506
vt 0.000100 0.000050
vt 0.999900 0.000050
vt 0.999900 0.499950
vt 0.000100 0.499950
vt 0.999900 0.499950
vt 0.000100 0.499950
vt 0.000100 0.000050
vt 0.999900 0.000050
vn -1.0000 0.0000 0.0000
vn 0.0000 0.0000 -1.0000
vn 0.0000 0.0000 1.0000
vn 0.0000 -1.0000 0.0000
vn 0.0000 1.0000 0.0000
vn 1.0000 0.0000 0.0000
usemtl GridWithRect
s off
f 1/1/1 2/2/1 4/3/1 3/4/1
f 3/5/2 4/6/2 8/7/2 7/8/2
f 5/9/3 6/10/3 2/11/3 1/12/3
f 3/13/4 7/14/4 5/15/4 1/16/4
f 8/17/5 4/18/5 2/19/5 6/20/5
f 11/21/2 12/22/2 16/23/2 15/24/2
f 13/25/3 14/26/3 10/27/3 9/28/3
f 11/29/4 15/30/4 13/31/4 9/32/4
f 16/33/5 12/34/5 10/35/5 14/36/5
f 19/37/2 20/38/2 24/39/2 23/40/2
f 21/41/3 22/42/3 18/43/3 17/44/3
f 19/45/4 23/46/4 21/47/4 17/48/4
f 24/49/5 20/50/5 18/51/5 22/52/5
f 27/53/2 28/54/2 32/55/2 31/56/2
f 29/57/3 30/58/3 26/59/3 25/60/3
f 27/61/4 31/62/4 29/63/4 25/64/4
f 32/65/5 28/66/5 26/67/5 30/68/5
f 35/69/2 36/70/2 40/71/2 39/72/2
f 37/73/3 38/74/3 34/75/3 33/76/3
f 35/77/4 39/78/4 37/79/4 33/80/4
f 40/81/5 36/82/5 34/83/5 38/84/5
f 43/85/2 44/86/2 48/87/2 47/88/2
f 45/89/3 46/90/3 42/91/3 41/92/3
f 43/93/4 47/94/4 45/95/4 41/96/4
f 48/97/5 44/98/5 42/99/5 46/100/5
f 51/101/2 52/102/2 56/103/2 55/104/2
f 53/105/3 54/106/3 50/107/3 49/108/3
f 51/109/4 55/110/4 53/111/4 49/112/4
f 56/113/5 52/114/5 50/115/5 54/116/5
f 59/117/2 60/118/2 64/119/2 63/120/2
f 61/121/3 62/122/3 58/123/3 57/124/3
f 59/125/4 63/126/4 61/127/4 57/128/4
f 64/129/5 60/130/5 58/131/5 62/132/5
f 67/133/2 68/134/2 72/135/2 71/136/2
f 69/137/3 70/138/3 66/139/3 65/140/3
f 67/141/4 71/142/4 69/143/4 65/144/4
f 72/145/5 68/146/5 66/147/5 70/148/5
f 75/149/2 76/150/2 80/151/2 79/152/2
f 77/153/3 78/154/3 74/155/3 73/156/3
f 75/157/4 79/158/4 77/159/4 73/160/4
f 80/161/5 76/162/5 74/163/5 78/164/5
f 83/165/2 84/166/2 88/167/2 87/168/2
f 85/169/3 86/170/3 82/171/3 81/172/3
f 83/173/4 87/174/4 85/175/4 81/176/4
f 88/177/5 84/178/5 82/179/5 86/180/5
f 91/181/2 92/182/2 96/183/2 95/184/2
f 95/185/6 96/186/6 94/187/6 93/188/6
f 93/189/3 94/190/3 90/191/3 89/192/3
f 91/193/4 95/194/4 93/195/4 89/196/4
f 96/197/5 92/198/5 90/199/5 94/200/5
