# Blender v2.93.0 OBJ File: 'devshapes.blend'
# www.blender.org
mtllib Plate2_2x3.mtl
o Plate2_2x3_Cube.280
v -0.500000 -0.250000 0.500000
v -0.500000 0.250000 0.500000
v -0.500000 -0.250000 -0.500000
v -0.500000 0.250000 -0.500000
v 0.500000 -0.250000 0.500000
v 0.500000 0.250000 0.500000
v 0.500000 -0.250000 -0.500000
v 0.500000 0.250000 -0.500000
v 0.500000 -0.250000 0.500000
v 0.500000 0.250000 0.500000
v 0.500000 -0.250000 -0.500000
v 0.500000 0.250000 -0.500000
v 1.500000 -0.250000 0.500000
v 1.500000 0.250000 0.500000
v 1.500000 -0.250000 -0.500000
v 1.500000 0.250000 -0.500000
v -0.500000 -0.250000 -0.500000
v -0.500000 0.250000 -0.500000
v -0.500000 -0.250000 -1.500000
v -0.500000 0.250000 -1.500000
v 0.500000 -0.250000 -0.500000
v 0.500000 0.250000 -0.500000
v 0.500000 -0.250000 -1.500000
v 0.500000 0.250000 -1.500000
v 0.500000 -0.250000 -0.500000
v 0.500000 0.250000 -0.500000
v 0.500000 -0.250000 -1.500000
v 0.500000 0.250000 -1.500000
v 1.500000 -0.250000 -0.500000
v 1.500000 0.250000 -0.500000
v 1.500000 -0.250000 -1.500000
v 1.500000 0.250000 -1.500000
v -0.500000 -0.250000 -1.500000
v -0.500000 0.250000 -1.500000
v -0.500000 -0.250000 -2.500000
v -0.500000 0.250000 -2.500000
v 0.500000 -0.250000 -1.500000
v 0.500000 0.250000 -1.500000
v 0.500000 -0.250000 -2.500000
v 0.500000 0.250000 -2.500000
v 0.500000 -0.250000 -1.500000
v 0.500000 0.250000 -1.500000
v 0.500000 -0.250000 -2.500000
v 0.500000 0.250000 -2.500000
v 1.500000 -0.250000 -1.500000
v 1.500000 0.250000 -1.500000
v 1.500000 -0.250000 -2.500000
v 1.500000 0.250000 -2.500000
vt 0.000100 0.499975
vt 0.000100 0.250025
vt 0.999900 0.250025
vt 0.999900 0.499975
vt 0.999900 0.250025
vt 0.999900 0.499975
vt 0.000100 0.499975
vt 0.000100 0.250025
vt 0.000100 0.000050
vt 0.999900 0.000050
vt 0.999900 0.499950
vt 0.999900 0.499950
vt 0.000100 0.499950
vt 0.000100 0.000050
vt 0.999900 0.000050
vt 0.999900 0.250025
vt 0.999900 0.499975
vt 0.000100 0.499975
vt 0.000100 0.250025
vt 0.999900 0.250025
vt 0.999900 0.499975
vt 0.000100 0.499975
vt 0.000100 0.250025
vt 0.000100 0.000050
vt 0.999900 0.000050
vt 0.999900 0.499950
vt 0.000100 0.499950
vt 0.999900 0.499950
vt 0.000100 0.499950
vt 0.000100 0.000050
vt 0.999900 0.000050
vt 0.000100 0.499975
vt 0.000100 0.250025
vt 0.999900 0.250025
vt 0.999900 0.499975
vt 0.000100 0.000050
vt 0.999900 0.000050
vt 0.999900 0.499950
vt 0.999900 0.499950
vt 0.000100 0.499950
vt 0.000100 0.000050
vt 0.999900 0.000050
vt 0.999900 0.250025
vt 0.999900 0.499975
vt 0.000100 0.499975
vt 0.000100 0.250025
vt 0.000100 0.000050
vt 0.999900 0.000050
vt 0.999900 0.499950
vt 0.000100 0.499950
vt 0.999900 0.499950
vt 0.000100 0.499950
vt 0.000100 0.000050
vt 0.999900 0.000050
vt 0.000100 0.499975
vt 0.000100 0.250025
vt 0.999900 0.250025
vt 0.999900 0.499975
vt 0.999900 0.250025
vt 0.999900 0.499975
vt 0.000100 0.499975
vt 0.000100 0.250025
vt 0.000100 0.000050
vt 0.999900 0.000050
vt 0.999900 0.499950
vt 0.999900 0.499950
vt 0.000100 0.499950
vt 0.000100 0.000050
vt 0.999900 0.000050
vt 0.999900 0.250025
vt 0.999900 0.499975
vt 0.000100 0.499975
vt 0.000100 0.250025
vt 0.999900 0.250025
vt 0.999900 0.499975
vt 0.000100 0.499975
vt 0.000100 0.250025
vt 0.000100 0.000050
vt 0.999900 0.000050
vt 0.999900 0.499950
vt 0.000100 0.499950
vt 0.999900 0.499950
vt 0.000100 0.499950
vt 0.000100 0.000050
vt 0.999900 0.000050
vn -1.0000 0.0000 0.0000
vn 0.0000 0.0000 1.0000
vn 0.0000 -1.0000 0.0000
vn 0.0000 1.0000 0.0000
vn 1.0000 0.0000 0.0000
vn 0.0000 0.0000 -1.0000
usemtl GridWithRect
s off
f 1/1/1 2/2/1 4/3/1 3/4/1
f 5/5/2 6/6/2 2/7/2 1/8/2
f 3/9/3 7/10/3 5/11/3 1/1/3
f 8/12/4 4/13/4 2/14/4 6/15/4
f 15/16/5 16/17/5 14/18/5 13/19/5
f 13/20/2 14/21/2 10/22/2 9/23/2
f 11/24/3 15/25/3 13/26/3 9/27/3
f 16/28/4 12/29/4 10/30/4 14/31/4
f 17/32/1 18/33/1 20/34/1 19/35/1
f 19/36/3 23/37/3 21/38/3 17/32/3
f 24/39/4 20/40/4 18/41/4 22/42/4
f 31/43/5 32/44/5 30/45/5 29/46/5
f 27/47/3 31/48/3 29/49/3 25/50/3
f 32/51/4 28/52/4 26/53/4 30/54/4
f 33/55/1 34/56/1 36/57/1 35/58/1
f 35/59/6 36/60/6 40/61/6 39/62/6
f 35/63/3 39/64/3 37/65/3 33/55/3
f 40/66/4 36/67/4 34/68/4 38/69/4
f 43/70/6 44/71/6 48/72/6 47/73/6
f 47/74/5 48/75/5 46/76/5 45/77/5
f 43/78/3 47/79/3 45/80/3 41/81/3
f 48/82/4 44/83/4 42/84/4 46/85/4
