# Blender v2.93.0 OBJ File: 'devshapes.blend'
# www.blender.org
mtllib Plate16_8x1.mtl
o Plate16_8x1_Cube.446
v -0.500000 -0.031250 0.500000
v -0.500000 0.031250 0.500000
v -0.500000 -0.031250 -0.500000
v -0.500000 0.031250 -0.500000
v 0.500000 -0.031250 0.500000
v 0.500000 0.031250 0.500000
v 0.500000 -0.031250 -0.500000
v 0.500000 0.031250 -0.500000
v 0.500000 -0.031250 0.500000
v 0.500000 0.031250 0.500000
v 0.500000 -0.031250 -0.500000
v 0.500000 0.031250 -0.500000
v 1.500000 -0.031250 0.500000
v 1.500000 0.031250 0.500000
v 1.500000 -0.031250 -0.500000
v 1.500000 0.031250 -0.500000
v 1.500000 -0.031250 0.500000
v 1.500000 0.031250 0.500000
v 1.500000 -0.031250 -0.500000
v 1.500000 0.031250 -0.500000
v 2.500000 -0.031250 0.500000
v 2.500000 0.031250 0.500000
v 2.500000 -0.031250 -0.500000
v 2.500000 0.031250 -0.500000
v 2.500000 -0.031250 0.500000
v 2.500000 0.031250 0.500000
v 2.500000 -0.031250 -0.500000
v 2.500000 0.031250 -0.500000
v 3.500000 -0.031250 0.500000
v 3.500000 0.031250 0.500000
v 3.500000 -0.031250 -0.500000
v 3.500000 0.031250 -0.500000
v 3.500000 -0.031250 0.500000
v 3.500000 0.031250 0.500000
v 3.500000 -0.031250 -0.500000
v 3.500000 0.031250 -0.500000
v 4.500000 -0.031250 0.500000
v 4.500000 0.031250 0.500000
v 4.500000 -0.031250 -0.500000
v 4.500000 0.031250 -0.500000
v 4.500000 -0.031250 0.500000
v 4.500000 0.031250 0.500000
v 4.500000 -0.031250 -0.500000
v 4.500000 0.031250 -0.500000
v 5.500000 -0.031250 0.500000
v 5.500000 0.031250 0.500000
v 5.500000 -0.031250 -0.500000
v 5.500000 0.031250 -0.500000
v 5.500000 -0.031250 0.500000
v 5.500000 0.031250 0.500000
v 5.500000 -0.031250 -0.500000
v 5.500000 0.031250 -0.500000
v 6.500000 -0.031250 0.500000
v 6.500000 0.031250 0.500000
v 6.500000 -0.031250 -0.500000
v 6.500000 0.031250 -0.500000
v 6.500000 -0.031250 0.500000
v 6.500000 0.031250 0.500000
v 6.500000 -0.031250 -0.500000
v 6.500000 0.031250 -0.500000
v 7.500000 -0.031250 0.500000
v 7.500000 0.031250 0.500000
v 7.500000 -0.031250 -0.500000
v 7.500000 0.031250 -0.500000
vt 0.000100 0.562497
vt 0.000100 0.531253
vt 0.999900 0.531253
vt 0.999900 0.562497
vt 0.999900 0.531253
vt 0.999900 0.562497
vt 0.000100 0.562497
vt 0.000100 0.531253
vt 0.999900 0.531253
vt 0.999900 0.562497
vt 0.000100 0.562497
vt 0.000100 0.531253
vt 0.000100 0.000050
vt 0.999900 0.000050
vt 0.999900 0.499950
vt 0.000100 0.499950
vt 0.999900 0.499950
vt 0.000100 0.499950
vt 0.000100 0.000050
vt 0.999900 0.000050
vt 0.999900 0.531253
vt 0.999900 0.562497
vt 0.000100 0.562497
vt 0.000100 0.531253
vt 0.999900 0.531253
vt 0.999900 0.562497
vt 0.000100 0.562497
vt 0.000100 0.531253
vt 0.000100 0.000050
vt 0.999900 0.000050
vt 0.999900 0.499950
vt 0.000100 0.499950
vt 0.999900 0.499950
vt 0.000100 0.499950
vt 0.000100 0.000050
vt 0.999900 0.000050
vt 0.999900 0.531253
vt 0.999900 0.562497
vt 0.000100 0.562497
vt 0.000100 0.531253
vt 0.999900 0.531253
vt 0.999900 0.562497
vt 0.000100 0.562497
vt 0.000100 0.531253
vt 0.000100 0.000050
vt 0.999900 0.000050
vt 0.999900 0.499950
vt 0.000100 0.499950
vt 0.999900 0.499950
vt 0.000100 0.499950
vt 0.000100 0.000050
vt 0.999900 0.000050
vt 0.999900 0.531253
vt 0.999900 0.562497
vt 0.000100 0.562497
vt 0.000100 0.531253
vt 0.999900 0.531253
vt 0.999900 0.562497
vt 0.000100 0.562497
vt 0.000100 0.531253
vt 0.000100 0.000050
vt 0.999900 0.000050
vt 0.999900 0.499950
vt 0.000100 0.499950
vt 0.999900 0.499950
vt 0.000100 0.499950
vt 0.000100 0.000050
vt 0.999900 0.000050
vt 0.999900 0.531253
vt 0.999900 0.562497
vt 0.000100 0.562497
vt 0.000100 0.531253
vt 0.999900 0.531253
vt 0.999900 0.562497
vt 0.000100 0.562497
vt 0.000100 0.531253
vt 0.000100 0.000050
vt 0.999900 0.000050
vt 0.999900 0.499950
vt 0.000100 0.499950
vt 0.999900 0.499950
vt 0.000100 0.499950
vt 0.000100 0.000050
vt 0.999900 0.000050
vt 0.999900 0.531253
vt 0.999900 0.562497
vt 0.000100 0.562497
vt 0.000100 0.531253
vt 0.999900 0.531253
vt 0.999900 0.562497
vt 0.000100 0.562497
vt 0.000100 0.531253
vt 0.000100 0.000050
vt 0.999900 0.000050
vt 0.999900 0.499950
vt 0.000100 0.499950
vt 0.999900 0.499950
vt 0.000100 0.499950
vt 0.000100 0.000050
vt 0.999900 0.000050
vt 0.999900 0.531253
vt 0.999900 0.562497
vt 0.000100 0.562497
vt 0.000100 0.531253
vt 0.999900 0.531253
vt 0.999900 0.562497
vt 0.000100 0.562497
vt 0.000100 0.531253
vt 0.000100 0.000050
vt 0.999900 0.000050
vt 0.999900 0.499950
vt 0.000100 0.499950
vt 0.999900 0.499950
vt 0.000100 0.499950
vt 0.000100 0.000050
vt 0.999900 0.000050
vt 0.999900 0.531253
vt 0.999900 0.562497
vt 0.000100 0.562497
vt 0.000100 0.531253
vt 0.999900 0.531253
vt 0.999900 0.562497
vt 0.000100 0.562497
vt 0.000100 0.531253
vt 0.999900 0.531253
vt 0.999900 0.562497
vt 0.000100 0.562497
vt 0.000100 0.531253
vt 0.000100 0.000050
vt 0.999900 0.000050
vt 0.999900 0.499950
vt 0.000100 0.499950
vt 0.999900 0.499950
vt 0.000100 0.499950
vt 0.000100 0.000050
vt 0.999900 0.000050
vn -1.0000 0.0000 0.0000
vn 0.0000 0.0000 -1.0000
vn 0.0000 0.0000 1.0000
vn 0.0000 -1.0000 0.0000
vn 0.0000 1.0000 0.0000
vn 1.0000 0.0000 0.0000
usemtl GridWithRect
s off
f 1/1/1 2/2/1 4/3/1 3/4/1
f 3/5/2 4/6/2 8/7/2 7/8/2
f 5/9/3 6/10/3 2/11/3 1/12/3
f 3/13/4 7/14/4 5/15/4 1/16/4
f 8/17/5 4/18/5 2/19/5 6/20/5
f 11/21/2 12/22/2 16/23/2 15/24/2
f 13/25/3 14/26/3 10/27/3 9/28/3
f 11/29/4 15/30/4 13/31/4 9/32/4
f 16/33/5 12/34/5 10/35/5 14/36/5
f 19/37/2 20/38/2 24/39/2 23/40/2
f 21/41/3 22/42/3 18/43/3 17/44/3
f 19/45/4 23/46/4 21/47/4 17/48/4
f 24/49/5 20/50/5 18/51/5 22/52/5
f 27/53/2 28/54/2 32/55/2 31/56/2
f 29/57/3 30/58/3 26/59/3 25/60/3
f 27/61/4 31/62/4 29/63/4 25/64/4
f 32/65/5 28/66/5 26/67/5 30/68/5
f 35/69/2 36/70/2 40/71/2 39/72/2
f 37/73/3 38/74/3 34/75/3 33/76/3
f 35/77/4 39/78/4 37/79/4 33/80/4
f 40/81/5 36/82/5 34/83/5 38/84/5
f 43/85/2 44/86/2 48/87/2 47/88/2
f 45/89/3 46/90/3 42/91/3 41/92/3
f 43/93/4 47/94/4 45/95/4 41/96/4
f 48/97/5 44/98/5 42/99/5 46/100/5
f 51/101/2 52/102/2 56/103/2 55/104/2
f 53/105/3 54/106/3 50/107/3 49/108/3
f 51/109/4 55/110/4 53/111/4 49/112/4
f 56/113/5 52/114/5 50/115/5 54/116/5
f 59/117/2 60/118/2 64/119/2 63/120/2
f 63/121/6 64/122/6 62/123/6 61/124/6
f 61/125/3 62/126/3 58/127/3 57/128/3
f 59/129/4 63/130/4 61/131/4 57/132/4
f 64/133/5 60/134/5 58/135/5 62/136/5
