# Blender v2.93.0 OBJ File: 'devshapes.blend'
# www.blender.org
mtllib Block_16x1x2.mtl
o Block_16x1x2_Cube.253
v -0.500000 -0.500000 0.500000
v -0.500000 0.500000 0.500000
v -0.500000 -0.500000 -0.500000
v -0.500000 0.500000 -0.500000
v 0.500000 -0.500000 0.500000
v 0.500000 0.500000 0.500000
v 0.500000 -0.500000 -0.500000
v 0.500000 0.500000 -0.500000
v 0.500000 -0.500000 0.500000
v 0.500000 0.500000 0.500000
v 0.500000 -0.500000 -0.500000
v 0.500000 0.500000 -0.500000
v 1.500000 -0.500000 0.500000
v 1.500000 0.500000 0.500000
v 1.500000 -0.500000 -0.500000
v 1.500000 0.500000 -0.500000
v 1.500000 -0.500000 0.500000
v 1.500000 0.500000 0.500000
v 1.500000 -0.500000 -0.500000
v 1.500000 0.500000 -0.500000
v 2.500000 -0.500000 0.500000
v 2.500000 0.500000 0.500000
v 2.500000 -0.500000 -0.500000
v 2.500000 0.500000 -0.500000
v 2.500000 -0.500000 0.500000
v 2.500000 0.500000 0.500000
v 2.500000 -0.500000 -0.500000
v 2.500000 0.500000 -0.500000
v 3.500000 -0.500000 0.500000
v 3.500000 0.500000 0.500000
v 3.500000 -0.500000 -0.500000
v 3.500000 0.500000 -0.500000
v 3.500000 -0.500000 0.500000
v 3.500000 0.500000 0.500000
v 3.500000 -0.500000 -0.500000
v 3.500000 0.500000 -0.500000
v 4.500000 -0.500000 0.500000
v 4.500000 0.500000 0.500000
v 4.500000 -0.500000 -0.500000
v 4.500000 0.500000 -0.500000
v 4.500000 -0.500000 0.500000
v 4.500000 0.500000 0.500000
v 4.500000 -0.500000 -0.500000
v 4.500000 0.500000 -0.500000
v 5.500000 -0.500000 0.500000
v 5.500000 0.500000 0.500000
v 5.500000 -0.500000 -0.500000
v 5.500000 0.500000 -0.500000
v 5.500000 -0.500000 0.500000
v 5.500000 0.500000 0.500000
v 5.500000 -0.500000 -0.500000
v 5.500000 0.500000 -0.500000
v 6.500000 -0.500000 0.500000
v 6.500000 0.500000 0.500000
v 6.500000 -0.500000 -0.500000
v 6.500000 0.500000 -0.500000
v 6.500000 -0.500000 0.500000
v 6.500000 0.500000 0.500000
v 6.500000 -0.500000 -0.500000
v 6.500000 0.500000 -0.500000
v 7.500000 -0.500000 0.500000
v 7.500000 0.500000 0.500000
v 7.500000 -0.500000 -0.500000
v 7.500000 0.500000 -0.500000
v 7.500000 -0.500000 0.500000
v 7.500000 0.500000 0.500000
v 7.500000 -0.500000 -0.500000
v 7.500000 0.500000 -0.500000
v 8.500000 -0.500000 0.500000
v 8.500000 0.500000 0.500000
v 8.500000 -0.500000 -0.500000
v 8.500000 0.500000 -0.500000
v 8.500000 -0.500000 0.500000
v 8.500000 0.500000 0.500000
v 8.500000 -0.500000 -0.500000
v 8.500000 0.500000 -0.500000
v 9.500000 -0.500000 0.500000
v 9.500000 0.500000 0.500000
v 9.500000 -0.500000 -0.500000
v 9.500000 0.500000 -0.500000
v 9.500000 -0.500000 0.500000
v 9.500000 0.500000 0.500000
v 9.500000 -0.500000 -0.500000
v 9.500000 0.500000 -0.500000
v 10.500000 -0.500000 0.500000
v 10.500000 0.500000 0.500000
v 10.500000 -0.500000 -0.500000
v 10.500000 0.500000 -0.500000
v 10.500000 -0.500000 0.500000
v 10.500000 0.500000 0.500000
v 10.500000 -0.500000 -0.500000
v 10.500000 0.500000 -0.500000
v 11.500000 -0.500000 0.500000
v 11.500000 0.500000 0.500000
v 11.500000 -0.500000 -0.500000
v 11.500000 0.500000 -0.500000
v 11.500000 -0.500000 0.500000
v 11.500000 0.500000 0.500000
v 11.500000 -0.500000 -0.500000
v 11.500000 0.500000 -0.500000
v 12.500000 -0.500000 0.500000
v 12.500000 0.500000 0.500000
v 12.500000 -0.500000 -0.500000
v 12.500000 0.500000 -0.500000
v 12.500000 -0.500000 0.500000
v 12.500000 0.500000 0.500000
v 12.500000 -0.500000 -0.500000
v 12.500000 0.500000 -0.500000
v 13.500000 -0.500000 0.500000
v 13.500000 0.500000 0.500000
v 13.500000 -0.500000 -0.500000
v 13.500000 0.500000 -0.500000
v 13.500000 -0.500000 0.500000
v 13.500000 0.500000 0.500000
v 13.500000 -0.500000 -0.500000
v 13.500000 0.500000 -0.500000
v 14.500000 -0.500000 0.500000
v 14.500000 0.500000 0.500000
v 14.500000 -0.500000 -0.500000
v 14.500000 0.500000 -0.500000
v 14.500000 -0.500000 0.500000
v 14.500000 0.500000 0.500000
v 14.500000 -0.500000 -0.500000
v 14.500000 0.500000 -0.500000
v 15.500000 -0.500000 0.500000
v 15.500000 0.500000 0.500000
v 15.500000 -0.500000 -0.500000
v 15.500000 0.500000 -0.500000
v -0.500000 0.500000 0.500000
v -0.500000 1.500000 0.500000
v -0.500000 0.500000 -0.500000
v -0.500000 1.500000 -0.500000
v 0.500000 0.500000 0.500000
v 0.500000 1.500000 0.500000
v 0.500000 0.500000 -0.500000
v 0.500000 1.500000 -0.500000
v 0.500000 0.500000 0.500000
v 0.500000 1.500000 0.500000
v 0.500000 0.500000 -0.500000
v 0.500000 1.500000 -0.500000
v 1.500000 0.500000 0.500000
v 1.500000 1.500000 0.500000
v 1.500000 0.500000 -0.500000
v 1.500000 1.500000 -0.500000
v 1.500000 0.500000 0.500000
v 1.500000 1.500000 0.500000
v 1.500000 0.500000 -0.500000
v 1.500000 1.500000 -0.500000
v 2.500000 0.500000 0.500000
v 2.500000 1.500000 0.500000
v 2.500000 0.500000 -0.500000
v 2.500000 1.500000 -0.500000
v 2.500000 0.500000 0.500000
v 2.500000 1.500000 0.500000
v 2.500000 0.500000 -0.500000
v 2.500000 1.500000 -0.500000
v 3.500000 0.500000 0.500000
v 3.500000 1.500000 0.500000
v 3.500000 0.500000 -0.500000
v 3.500000 1.500000 -0.500000
v 3.500000 0.500000 0.500000
v 3.500000 1.500000 0.500000
v 3.500000 0.500000 -0.500000
v 3.500000 1.500000 -0.500000
v 4.500000 0.500000 0.500000
v 4.500000 1.500000 0.500000
v 4.500000 0.500000 -0.500000
v 4.500000 1.500000 -0.500000
v 4.500000 0.500000 0.500000
v 4.500000 1.500000 0.500000
v 4.500000 0.500000 -0.500000
v 4.500000 1.500000 -0.500000
v 5.500000 0.500000 0.500000
v 5.500000 1.500000 0.500000
v 5.500000 0.500000 -0.500000
v 5.500000 1.500000 -0.500000
v 5.500000 0.500000 0.500000
v 5.500000 1.500000 0.500000
v 5.500000 0.500000 -0.500000
v 5.500000 1.500000 -0.500000
v 6.500000 0.500000 0.500000
v 6.500000 1.500000 0.500000
v 6.500000 0.500000 -0.500000
v 6.500000 1.500000 -0.500000
v 6.500000 0.500000 0.500000
v 6.500000 1.500000 0.500000
v 6.500000 0.500000 -0.500000
v 6.500000 1.500000 -0.500000
v 7.500000 0.500000 0.500000
v 7.500000 1.500000 0.500000
v 7.500000 0.500000 -0.500000
v 7.500000 1.500000 -0.500000
v 7.500000 0.500000 0.500000
v 7.500000 1.500000 0.500000
v 7.500000 0.500000 -0.500000
v 7.500000 1.500000 -0.500000
v 8.500000 0.500000 0.500000
v 8.500000 1.500000 0.500000
v 8.500000 0.500000 -0.500000
v 8.500000 1.500000 -0.500000
v 8.500000 0.500000 0.500000
v 8.500000 1.500000 0.500000
v 8.500000 0.500000 -0.500000
v 8.500000 1.500000 -0.500000
v 9.500000 0.500000 0.500000
v 9.500000 1.500000 0.500000
v 9.500000 0.500000 -0.500000
v 9.500000 1.500000 -0.500000
v 9.500000 0.500000 0.500000
v 9.500000 1.500000 0.500000
v 9.500000 0.500000 -0.500000
v 9.500000 1.500000 -0.500000
v 10.500000 0.500000 0.500000
v 10.500000 1.500000 0.500000
v 10.500000 0.500000 -0.500000
v 10.500000 1.500000 -0.500000
v 10.500000 0.500000 0.500000
v 10.500000 1.500000 0.500000
v 10.500000 0.500000 -0.500000
v 10.500000 1.500000 -0.500000
v 11.500000 0.500000 0.500000
v 11.500000 1.500000 0.500000
v 11.500000 0.500000 -0.500000
v 11.500000 1.500000 -0.500000
v 11.500000 0.500000 0.500000
v 11.500000 1.500000 0.500000
v 11.500000 0.500000 -0.500000
v 11.500000 1.500000 -0.500000
v 12.500000 0.500000 0.500000
v 12.500000 1.500000 0.500000
v 12.500000 0.500000 -0.500000
v 12.500000 1.500000 -0.500000
v 12.500000 0.500000 0.500000
v 12.500000 1.500000 0.500000
v 12.500000 0.500000 -0.500000
v 12.500000 1.500000 -0.500000
v 13.500000 0.500000 0.500000
v 13.500000 1.500000 0.500000
v 13.500000 0.500000 -0.500000
v 13.500000 1.500000 -0.500000
v 13.500000 0.500000 0.500000
v 13.500000 1.500000 0.500000
v 13.500000 0.500000 -0.500000
v 13.500000 1.500000 -0.500000
v 14.500000 0.500000 0.500000
v 14.500000 1.500000 0.500000
v 14.500000 0.500000 -0.500000
v 14.500000 1.500000 -0.500000
v 14.500000 0.500000 0.500000
v 14.500000 1.500000 0.500000
v 14.500000 0.500000 -0.500000
v 14.500000 1.500000 -0.500000
v 15.500000 0.500000 0.500000
v 15.500000 1.500000 0.500000
v 15.500000 0.500000 -0.500000
v 15.500000 1.500000 -0.500000
vt 0.999900 0.000100
vt 0.999900 0.999900
vt 0.000100 0.999900
vt 0.000100 0.000100
vt 0.000100 0.999900
vt 0.000100 0.000100
vt 0.999900 0.000100
vt 0.999900 0.999900
vt 0.999900 0.999900
vt 0.000100 0.999900
vt 0.000100 0.000100
vt 0.999900 0.000100
vt 0.000100 0.999900
vt 0.000100 0.999900
vt 0.000100 0.000100
vt 0.999900 0.000100
vt 0.999900 0.999900
vt 0.999900 0.999900
vt 0.000100 0.999900
vt 0.000100 0.000100
vt 0.999900 0.000100
vt 0.000100 0.000100
vt 0.999900 0.000100
vt 0.000100 0.999900
vt 0.000100 0.999900
vt 0.000100 0.000100
vt 0.999900 0.000100
vt 0.999900 0.999900
vt 0.999900 0.999900
vt 0.000100 0.999900
vt 0.000100 0.000100
vt 0.999900 0.000100
vt 0.000100 0.000100
vt 0.999900 0.000100
vt 0.000100 0.999900
vt 0.000100 0.999900
vt 0.000100 0.000100
vt 0.999900 0.000100
vt 0.999900 0.999900
vt 0.999900 0.999900
vt 0.000100 0.999900
vt 0.000100 0.000100
vt 0.999900 0.000100
vt 0.000100 0.000100
vt 0.999900 0.000100
vt 0.000100 0.999900
vt 0.000100 0.999900
vt 0.000100 0.000100
vt 0.999900 0.000100
vt 0.999900 0.999900
vt 0.999900 0.999900
vt 0.000100 0.999900
vt 0.000100 0.000100
vt 0.999900 0.000100
vt 0.000100 0.000100
vt 0.999900 0.000100
vt 0.000100 0.999900
vt 0.000100 0.999900
vt 0.000100 0.000100
vt 0.999900 0.000100
vt 0.999900 0.999900
vt 0.999900 0.999900
vt 0.000100 0.999900
vt 0.000100 0.000100
vt 0.999900 0.000100
vt 0.000100 0.000100
vt 0.999900 0.000100
vt 0.000100 0.999900
vt 0.000100 0.999900
vt 0.000100 0.000100
vt 0.999900 0.000100
vt 0.999900 0.999900
vt 0.999900 0.999900
vt 0.000100 0.999900
vt 0.000100 0.000100
vt 0.999900 0.000100
vt 0.000100 0.000100
vt 0.999900 0.000100
vt 0.000100 0.999900
vt 0.000100 0.999900
vt 0.000100 0.000100
vt 0.999900 0.000100
vt 0.999900 0.999900
vt 0.999900 0.999900
vt 0.000100 0.999900
vt 0.000100 0.000100
vt 0.999900 0.000100
vt 0.000100 0.000100
vt 0.999900 0.000100
vt 0.000100 0.999900
vt 0.000100 0.999900
vt 0.000100 0.000100
vt 0.999900 0.000100
vt 0.999900 0.999900
vt 0.999900 0.999900
vt 0.000100 0.999900
vt 0.000100 0.000100
vt 0.999900 0.000100
vt 0.000100 0.000100
vt 0.999900 0.000100
vt 0.000100 0.999900
vt 0.000100 0.999900
vt 0.000100 0.000100
vt 0.999900 0.000100
vt 0.999900 0.999900
vt 0.999900 0.999900
vt 0.000100 0.999900
vt 0.000100 0.000100
vt 0.999900 0.000100
vt 0.000100 0.000100
vt 0.999900 0.000100
vt 0.000100 0.999900
vt 0.000100 0.999900
vt 0.000100 0.000100
vt 0.999900 0.000100
vt 0.999900 0.999900
vt 0.999900 0.999900
vt 0.000100 0.999900
vt 0.000100 0.000100
vt 0.999900 0.000100
vt 0.000100 0.000100
vt 0.999900 0.000100
vt 0.000100 0.999900
vt 0.000100 0.999900
vt 0.000100 0.000100
vt 0.999900 0.000100
vt 0.999900 0.999900
vt 0.999900 0.999900
vt 0.000100 0.999900
vt 0.000100 0.000100
vt 0.999900 0.000100
vt 0.000100 0.000100
vt 0.999900 0.000100
vt 0.000100 0.999900
vt 0.000100 0.999900
vt 0.000100 0.000100
vt 0.999900 0.000100
vt 0.999900 0.999900
vt 0.999900 0.999900
vt 0.000100 0.999900
vt 0.000100 0.000100
vt 0.999900 0.000100
vt 0.000100 0.000100
vt 0.999900 0.000100
vt 0.000100 0.999900
vt 0.000100 0.999900
vt 0.000100 0.000100
vt 0.999900 0.000100
vt 0.999900 0.999900
vt 0.999900 0.999900
vt 0.000100 0.999900
vt 0.000100 0.000100
vt 0.999900 0.000100
vt 0.000100 0.000100
vt 0.999900 0.000100
vt 0.000100 0.999900
vt 0.000100 0.999900
vt 0.000100 0.000100
vt 0.999900 0.000100
vt 0.999900 0.999900
vt 0.999900 0.999900
vt 0.000100 0.999900
vt 0.000100 0.000100
vt 0.999900 0.000100
vt 0.000100 0.000100
vt 0.999900 0.000100
vt 0.000100 0.999900
vt 0.000100 0.999900
vt 0.000100 0.000100
vt 0.999900 0.000100
vt 0.999900 0.999900
vt 0.000100 0.999900
vt 0.000100 0.000100
vt 0.999900 0.000100
vt 0.999900 0.999900
vt 0.000100 0.999900
vt 0.000100 0.000100
vt 0.999900 0.000100
vt 0.000100 0.000100
vt 0.999900 0.000100
vt 0.000100 0.999900
vt 0.999900 0.000100
vt 0.999900 0.999900
vt 0.000100 0.999900
vt 0.000100 0.000100
vt 0.000100 0.999900
vt 0.000100 0.000100
vt 0.999900 0.000100
vt 0.999900 0.999900
vt 0.999900 0.999900
vt 0.000100 0.999900
vt 0.000100 0.000100
vt 0.999900 0.999900
vt 0.999900 0.000100
vt 0.000100 0.999900
vt 0.000100 0.000100
vt 0.999900 0.000100
vt 0.999900 0.999900
vt 0.999900 0.999900
vt 0.000100 0.999900
vt 0.000100 0.000100
vt 0.999900 0.000100
vt 0.999900 0.999900
vt 0.000100 0.999900
vt 0.999900 0.000100
vt 0.000100 0.999900
vt 0.000100 0.000100
vt 0.999900 0.000100
vt 0.999900 0.999900
vt 0.999900 0.999900
vt 0.000100 0.999900
vt 0.000100 0.000100
vt 0.999900 0.000100
vt 0.999900 0.999900
vt 0.000100 0.999900
vt 0.999900 0.000100
vt 0.000100 0.999900
vt 0.000100 0.000100
vt 0.999900 0.000100
vt 0.999900 0.999900
vt 0.999900 0.999900
vt 0.000100 0.999900
vt 0.000100 0.000100
vt 0.999900 0.000100
vt 0.999900 0.999900
vt 0.000100 0.999900
vt 0.999900 0.000100
vt 0.000100 0.999900
vt 0.000100 0.000100
vt 0.999900 0.000100
vt 0.999900 0.999900
vt 0.999900 0.999900
vt 0.000100 0.999900
vt 0.000100 0.000100
vt 0.999900 0.000100
vt 0.999900 0.999900
vt 0.000100 0.999900
vt 0.999900 0.000100
vt 0.000100 0.999900
vt 0.000100 0.000100
vt 0.999900 0.000100
vt 0.999900 0.999900
vt 0.999900 0.999900
vt 0.000100 0.999900
vt 0.000100 0.000100
vt 0.999900 0.000100
vt 0.999900 0.999900
vt 0.000100 0.999900
vt 0.999900 0.000100
vt 0.000100 0.999900
vt 0.000100 0.000100
vt 0.999900 0.000100
vt 0.999900 0.999900
vt 0.999900 0.999900
vt 0.000100 0.999900
vt 0.000100 0.000100
vt 0.999900 0.000100
vt 0.999900 0.999900
vt 0.000100 0.999900
vt 0.999900 0.000100
vt 0.000100 0.999900
vt 0.000100 0.000100
vt 0.999900 0.000100
vt 0.999900 0.999900
vt 0.999900 0.999900
vt 0.000100 0.999900
vt 0.000100 0.000100
vt 0.999900 0.000100
vt 0.999900 0.999900
vt 0.000100 0.999900
vt 0.999900 0.000100
vt 0.000100 0.999900
vt 0.000100 0.000100
vt 0.999900 0.000100
vt 0.999900 0.999900
vt 0.999900 0.999900
vt 0.000100 0.999900
vt 0.000100 0.000100
vt 0.999900 0.000100
vt 0.999900 0.999900
vt 0.000100 0.999900
vt 0.999900 0.000100
vt 0.000100 0.999900
vt 0.000100 0.000100
vt 0.999900 0.000100
vt 0.999900 0.999900
vt 0.999900 0.999900
vt 0.000100 0.999900
vt 0.000100 0.000100
vt 0.999900 0.000100
vt 0.999900 0.999900
vt 0.000100 0.999900
vt 0.999900 0.000100
vt 0.000100 0.999900
vt 0.000100 0.000100
vt 0.999900 0.000100
vt 0.999900 0.999900
vt 0.999900 0.999900
vt 0.000100 0.999900
vt 0.000100 0.000100
vt 0.999900 0.000100
vt 0.999900 0.999900
vt 0.000100 0.999900
vt 0.999900 0.000100
vt 0.000100 0.999900
vt 0.000100 0.000100
vt 0.999900 0.000100
vt 0.999900 0.999900
vt 0.999900 0.999900
vt 0.000100 0.999900
vt 0.000100 0.000100
vt 0.999900 0.000100
vt 0.999900 0.999900
vt 0.000100 0.999900
vt 0.999900 0.000100
vt 0.000100 0.999900
vt 0.000100 0.000100
vt 0.999900 0.000100
vt 0.999900 0.999900
vt 0.999900 0.999900
vt 0.000100 0.999900
vt 0.000100 0.000100
vt 0.999900 0.000100
vt 0.999900 0.999900
vt 0.000100 0.999900
vt 0.999900 0.000100
vt 0.000100 0.999900
vt 0.000100 0.000100
vt 0.999900 0.000100
vt 0.999900 0.999900
vt 0.999900 0.999900
vt 0.000100 0.999900
vt 0.000100 0.000100
vt 0.999900 0.000100
vt 0.999900 0.999900
vt 0.000100 0.999900
vt 0.999900 0.000100
vt 0.000100 0.999900
vt 0.000100 0.000100
vt 0.999900 0.000100
vt 0.999900 0.999900
vt 0.999900 0.999900
vt 0.000100 0.999900
vt 0.000100 0.000100
vt 0.999900 0.000100
vt 0.999900 0.999900
vt 0.000100 0.999900
vt 0.999900 0.000100
vt 0.000100 0.999900
vt 0.000100 0.000100
vt 0.999900 0.000100
vt 0.999900 0.999900
vt 0.000100 0.999900
vt 0.000100 0.000100
vt 0.999900 0.000100
vt 0.999900 0.999900
vt 0.000100 0.999900
vt 0.000100 0.000100
vt 0.999900 0.000100
vt 0.999900 0.999900
vt 0.000100 0.999900
vt 0.999900 0.000100
vn -1.0000 0.0000 0.0000
vn 0.0000 0.0000 -1.0000
vn 0.0000 0.0000 1.0000
vn 0.0000 -1.0000 0.0000
vn 1.0000 0.0000 0.0000
vn 0.0000 1.0000 0.0000
usemtl Grid.002
s off
f 1/1/1 2/2/1 4/3/1 3/4/1
f 3/5/2 4/6/2 8/7/2 7/8/2
f 5/9/3 6/10/3 2/11/3 1/1/3
f 3/4/4 7/12/4 5/9/4 1/13/4
f 11/14/2 12/15/2 16/16/2 15/17/2
f 13/18/3 14/19/3 10/20/3 9/21/3
f 11/22/4 15/23/4 13/18/4 9/24/4
f 19/25/2 20/26/2 24/27/2 23/28/2
f 21/29/3 22/30/3 18/31/3 17/32/3
f 19/33/4 23/34/4 21/29/4 17/35/4
f 27/36/2 28/37/2 32/38/2 31/39/2
f 29/40/3 30/41/3 26/42/3 25/43/3
f 27/44/4 31/45/4 29/40/4 25/46/4
f 35/47/2 36/48/2 40/49/2 39/50/2
f 37/51/3 38/52/3 34/53/3 33/54/3
f 35/55/4 39/56/4 37/51/4 33/57/4
f 43/58/2 44/59/2 48/60/2 47/61/2
f 45/62/3 46/63/3 42/64/3 41/65/3
f 43/66/4 47/67/4 45/62/4 41/68/4
f 51/69/2 52/70/2 56/71/2 55/72/2
f 53/73/3 54/74/3 50/75/3 49/76/3
f 51/77/4 55/78/4 53/73/4 49/79/4
f 59/80/2 60/81/2 64/82/2 63/83/2
f 61/84/3 62/85/3 58/86/3 57/87/3
f 59/88/4 63/89/4 61/84/4 57/90/4
f 67/91/2 68/92/2 72/93/2 71/94/2
f 69/95/3 70/96/3 66/97/3 65/98/3
f 67/99/4 71/100/4 69/95/4 65/101/4
f 75/102/2 76/103/2 80/104/2 79/105/2
f 77/106/3 78/107/3 74/108/3 73/109/3
f 75/110/4 79/111/4 77/106/4 73/112/4
f 83/113/2 84/114/2 88/115/2 87/116/2
f 85/117/3 86/118/3 82/119/3 81/120/3
f 83/121/4 87/122/4 85/117/4 81/123/4
f 91/124/2 92/125/2 96/126/2 95/127/2
f 93/128/3 94/129/3 90/130/3 89/131/3
f 91/132/4 95/133/4 93/128/4 89/134/4
f 99/135/2 100/136/2 104/137/2 103/138/2
f 101/139/3 102/140/3 98/141/3 97/142/3
f 99/143/4 103/144/4 101/139/4 97/145/4
f 107/146/2 108/147/2 112/148/2 111/149/2
f 109/150/3 110/151/3 106/152/3 105/153/3
f 107/154/4 111/155/4 109/150/4 105/156/4
f 115/157/2 116/158/2 120/159/2 119/160/2
f 117/161/3 118/162/3 114/163/3 113/164/3
f 115/165/4 119/166/4 117/161/4 113/167/4
f 123/168/2 124/169/2 128/170/2 127/171/2
f 127/171/5 128/172/5 126/173/5 125/174/5
f 125/175/3 126/176/3 122/177/3 121/178/3
f 123/179/4 127/180/4 125/175/4 121/181/4
f 129/182/1 130/183/1 132/184/1 131/185/1
f 131/186/2 132/187/2 136/188/2 135/189/2
f 133/190/3 134/191/3 130/192/3 129/182/3
f 136/193/6 132/184/6 130/192/6 134/194/6
f 139/195/2 140/196/2 144/197/2 143/198/2
f 141/199/3 142/200/3 138/201/3 137/202/3
f 144/203/6 140/204/6 138/201/6 142/205/6
f 147/206/2 148/207/2 152/208/2 151/209/2
f 149/210/3 150/211/3 146/212/3 145/213/3
f 152/214/6 148/215/6 146/212/6 150/216/6
f 155/217/2 156/218/2 160/219/2 159/220/2
f 157/221/3 158/222/3 154/223/3 153/224/3
f 160/225/6 156/226/6 154/223/6 158/227/6
f 163/228/2 164/229/2 168/230/2 167/231/2
f 165/232/3 166/233/3 162/234/3 161/235/3
f 168/236/6 164/237/6 162/234/6 166/238/6
f 171/239/2 172/240/2 176/241/2 175/242/2
f 173/243/3 174/244/3 170/245/3 169/246/3
f 176/247/6 172/248/6 170/245/6 174/249/6
f 179/250/2 180/251/2 184/252/2 183/253/2
f 181/254/3 182/255/3 178/256/3 177/257/3
f 184/258/6 180/259/6 178/256/6 182/260/6
f 187/261/2 188/262/2 192/263/2 191/264/2
f 189/265/3 190/266/3 186/267/3 185/268/3
f 192/269/6 188/270/6 186/267/6 190/271/6
f 195/272/2 196/273/2 200/274/2 199/275/2
f 197/276/3 198/277/3 194/278/3 193/279/3
f 200/280/6 196/281/6 194/278/6 198/282/6
f 203/283/2 204/284/2 208/285/2 207/286/2
f 205/287/3 206/288/3 202/289/3 201/290/3
f 208/291/6 204/292/6 202/289/6 206/293/6
f 211/294/2 212/295/2 216/296/2 215/297/2
f 213/298/3 214/299/3 210/300/3 209/301/3
f 216/302/6 212/303/6 210/300/6 214/304/6
f 219/305/2 220/306/2 224/307/2 223/308/2
f 221/309/3 222/310/3 218/311/3 217/312/3
f 224/313/6 220/314/6 218/311/6 222/315/6
f 227/316/2 228/317/2 232/318/2 231/319/2
f 229/320/3 230/321/3 226/322/3 225/323/3
f 232/324/6 228/325/6 226/322/6 230/326/6
f 235/327/2 236/328/2 240/329/2 239/330/2
f 237/331/3 238/332/3 234/333/3 233/334/3
f 240/335/6 236/336/6 234/333/6 238/337/6
f 243/338/2 244/339/2 248/340/2 247/341/2
f 245/342/3 246/343/3 242/344/3 241/345/3
f 248/346/6 244/347/6 242/344/6 246/348/6
f 251/349/2 252/350/2 256/351/2 255/352/2
f 255/352/5 256/353/5 254/354/5 253/355/5
f 253/356/3 254/357/3 250/358/3 249/359/3
f 256/360/6 252/361/6 250/358/6 254/362/6
