# Blender v2.93.0 OBJ File: 'devshapes.blend'
# www.blender.org
mtllib Block_12x2x1.mtl
o Block_12x2x1_Cube.240
v -0.500000 -0.500000 0.500000
v -0.500000 0.500000 0.500000
v -0.500000 -0.500000 -0.500000
v -0.500000 0.500000 -0.500000
v 0.500000 -0.500000 0.500000
v 0.500000 0.500000 0.500000
v 0.500000 -0.500000 -0.500000
v 0.500000 0.500000 -0.500000
v 0.500000 -0.500000 0.500000
v 0.500000 0.500000 0.500000
v 0.500000 -0.500000 -0.500000
v 0.500000 0.500000 -0.500000
v 1.500000 -0.500000 0.500000
v 1.500000 0.500000 0.500000
v 1.500000 -0.500000 -0.500000
v 1.500000 0.500000 -0.500000
v 1.500000 -0.500000 0.500000
v 1.500000 0.500000 0.500000
v 1.500000 -0.500000 -0.500000
v 1.500000 0.500000 -0.500000
v 2.500000 -0.500000 0.500000
v 2.500000 0.500000 0.500000
v 2.500000 -0.500000 -0.500000
v 2.500000 0.500000 -0.500000
v 2.500000 -0.500000 0.500000
v 2.500000 0.500000 0.500000
v 2.500000 -0.500000 -0.500000
v 2.500000 0.500000 -0.500000
v 3.500000 -0.500000 0.500000
v 3.500000 0.500000 0.500000
v 3.500000 -0.500000 -0.500000
v 3.500000 0.500000 -0.500000
v 3.500000 -0.500000 0.500000
v 3.500000 0.500000 0.500000
v 3.500000 -0.500000 -0.500000
v 3.500000 0.500000 -0.500000
v 4.500000 -0.500000 0.500000
v 4.500000 0.500000 0.500000
v 4.500000 -0.500000 -0.500000
v 4.500000 0.500000 -0.500000
v 4.500000 -0.500000 0.500000
v 4.500000 0.500000 0.500000
v 4.500000 -0.500000 -0.500000
v 4.500000 0.500000 -0.500000
v 5.500000 -0.500000 0.500000
v 5.500000 0.500000 0.500000
v 5.500000 -0.500000 -0.500000
v 5.500000 0.500000 -0.500000
v 5.500000 -0.500000 0.500000
v 5.500000 0.500000 0.500000
v 5.500000 -0.500000 -0.500000
v 5.500000 0.500000 -0.500000
v 6.500000 -0.500000 0.500000
v 6.500000 0.500000 0.500000
v 6.500000 -0.500000 -0.500000
v 6.500000 0.500000 -0.500000
v 6.500000 -0.500000 0.500000
v 6.500000 0.500000 0.500000
v 6.500000 -0.500000 -0.500000
v 6.500000 0.500000 -0.500000
v 7.500000 -0.500000 0.500000
v 7.500000 0.500000 0.500000
v 7.500000 -0.500000 -0.500000
v 7.500000 0.500000 -0.500000
v 7.500000 -0.500000 0.500000
v 7.500000 0.500000 0.500000
v 7.500000 -0.500000 -0.500000
v 7.500000 0.500000 -0.500000
v 8.500000 -0.500000 0.500000
v 8.500000 0.500000 0.500000
v 8.500000 -0.500000 -0.500000
v 8.500000 0.500000 -0.500000
v 8.500000 -0.500000 0.500000
v 8.500000 0.500000 0.500000
v 8.500000 -0.500000 -0.500000
v 8.500000 0.500000 -0.500000
v 9.500000 -0.500000 0.500000
v 9.500000 0.500000 0.500000
v 9.500000 -0.500000 -0.500000
v 9.500000 0.500000 -0.500000
v 9.500000 -0.500000 0.500000
v 9.500000 0.500000 0.500000
v 9.500000 -0.500000 -0.500000
v 9.500000 0.500000 -0.500000
v 10.500000 -0.500000 0.500000
v 10.500000 0.500000 0.500000
v 10.500000 -0.500000 -0.500000
v 10.500000 0.500000 -0.500000
v 10.500000 -0.500000 0.500000
v 10.500000 0.500000 0.500000
v 10.500000 -0.500000 -0.500000
v 10.500000 0.500000 -0.500000
v 11.500000 -0.500000 0.500000
v 11.500000 0.500000 0.500000
v 11.500000 -0.500000 -0.500000
v 11.500000 0.500000 -0.500000
v -0.500000 -0.500000 -0.500000
v -0.500000 0.500000 -0.500000
v -0.500000 -0.500000 -1.500000
v -0.500000 0.500000 -1.500000
v 0.500000 -0.500000 -0.500000
v 0.500000 0.500000 -0.500000
v 0.500000 -0.500000 -1.500000
v 0.500000 0.500000 -1.500000
v 0.500000 -0.500000 -0.500000
v 0.500000 0.500000 -0.500000
v 0.500000 -0.500000 -1.500000
v 0.500000 0.500000 -1.500000
v 1.500000 -0.500000 -0.500000
v 1.500000 0.500000 -0.500000
v 1.500000 -0.500000 -1.500000
v 1.500000 0.500000 -1.500000
v 1.500000 -0.500000 -0.500000
v 1.500000 0.500000 -0.500000
v 1.500000 -0.500000 -1.500000
v 1.500000 0.500000 -1.500000
v 2.500000 -0.500000 -0.500000
v 2.500000 0.500000 -0.500000
v 2.500000 -0.500000 -1.500000
v 2.500000 0.500000 -1.500000
v 2.500000 -0.500000 -0.500000
v 2.500000 0.500000 -0.500000
v 2.500000 -0.500000 -1.500000
v 2.500000 0.500000 -1.500000
v 3.500000 -0.500000 -0.500000
v 3.500000 0.500000 -0.500000
v 3.500000 -0.500000 -1.500000
v 3.500000 0.500000 -1.500000
v 3.500000 -0.500000 -0.500000
v 3.500000 0.500000 -0.500000
v 3.500000 -0.500000 -1.500000
v 3.500000 0.500000 -1.500000
v 4.500000 -0.500000 -0.500000
v 4.500000 0.500000 -0.500000
v 4.500000 -0.500000 -1.500000
v 4.500000 0.500000 -1.500000
v 4.500000 -0.500000 -0.500000
v 4.500000 0.500000 -0.500000
v 4.500000 -0.500000 -1.500000
v 4.500000 0.500000 -1.500000
v 5.500000 -0.500000 -0.500000
v 5.500000 0.500000 -0.500000
v 5.500000 -0.500000 -1.500000
v 5.500000 0.500000 -1.500000
v 5.500000 -0.500000 -0.500000
v 5.500000 0.500000 -0.500000
v 5.500000 -0.500000 -1.500000
v 5.500000 0.500000 -1.500000
v 6.500000 -0.500000 -0.500000
v 6.500000 0.500000 -0.500000
v 6.500000 -0.500000 -1.500000
v 6.500000 0.500000 -1.500000
v 6.500000 -0.500000 -0.500000
v 6.500000 0.500000 -0.500000
v 6.500000 -0.500000 -1.500000
v 6.500000 0.500000 -1.500000
v 7.500000 -0.500000 -0.500000
v 7.500000 0.500000 -0.500000
v 7.500000 -0.500000 -1.500000
v 7.500000 0.500000 -1.500000
v 7.500000 -0.500000 -0.500000
v 7.500000 0.500000 -0.500000
v 7.500000 -0.500000 -1.500000
v 7.500000 0.500000 -1.500000
v 8.500000 -0.500000 -0.500000
v 8.500000 0.500000 -0.500000
v 8.500000 -0.500000 -1.500000
v 8.500000 0.500000 -1.500000
v 8.500000 -0.500000 -0.500000
v 8.500000 0.500000 -0.500000
v 8.500000 -0.500000 -1.500000
v 8.500000 0.500000 -1.500000
v 9.500000 -0.500000 -0.500000
v 9.500000 0.500000 -0.500000
v 9.500000 -0.500000 -1.500000
v 9.500000 0.500000 -1.500000
v 9.500000 -0.500000 -0.500000
v 9.500000 0.500000 -0.500000
v 9.500000 -0.500000 -1.500000
v 9.500000 0.500000 -1.500000
v 10.500000 -0.500000 -0.500000
v 10.500000 0.500000 -0.500000
v 10.500000 -0.500000 -1.500000
v 10.500000 0.500000 -1.500000
v 10.500000 -0.500000 -0.500000
v 10.500000 0.500000 -0.500000
v 10.500000 -0.500000 -1.500000
v 10.500000 0.500000 -1.500000
v 11.500000 -0.500000 -0.500000
v 11.500000 0.500000 -0.500000
v 11.500000 -0.500000 -1.500000
v 11.500000 0.500000 -1.500000
vt 0.999900 0.000100
vt 0.999900 0.999900
vt 0.000100 0.999900
vt 0.000100 0.000100
vt 0.999900 0.999900
vt 0.000100 0.999900
vt 0.000100 0.000100
vt 0.999900 0.000100
vt 0.000100 0.999900
vt 0.999900 0.999900
vt 0.999900 0.000100
vt 0.999900 0.999900
vt 0.000100 0.999900
vt 0.000100 0.000100
vt 0.999900 0.000100
vt 0.000100 0.000100
vt 0.999900 0.000100
vt 0.000100 0.999900
vt 0.999900 0.999900
vt 0.000100 0.999900
vt 0.999900 0.000100
vt 0.999900 0.999900
vt 0.000100 0.999900
vt 0.000100 0.000100
vt 0.999900 0.000100
vt 0.000100 0.000100
vt 0.999900 0.000100
vt 0.000100 0.999900
vt 0.999900 0.999900
vt 0.000100 0.999900
vt 0.999900 0.000100
vt 0.999900 0.999900
vt 0.000100 0.999900
vt 0.000100 0.000100
vt 0.999900 0.000100
vt 0.000100 0.000100
vt 0.999900 0.000100
vt 0.000100 0.999900
vt 0.999900 0.999900
vt 0.000100 0.999900
vt 0.999900 0.000100
vt 0.999900 0.999900
vt 0.000100 0.999900
vt 0.000100 0.000100
vt 0.999900 0.000100
vt 0.000100 0.000100
vt 0.999900 0.000100
vt 0.000100 0.999900
vt 0.999900 0.999900
vt 0.000100 0.999900
vt 0.999900 0.000100
vt 0.999900 0.999900
vt 0.000100 0.999900
vt 0.000100 0.000100
vt 0.999900 0.000100
vt 0.000100 0.000100
vt 0.999900 0.000100
vt 0.000100 0.999900
vt 0.999900 0.999900
vt 0.000100 0.999900
vt 0.999900 0.000100
vt 0.999900 0.999900
vt 0.000100 0.999900
vt 0.000100 0.000100
vt 0.999900 0.000100
vt 0.000100 0.000100
vt 0.999900 0.000100
vt 0.000100 0.999900
vt 0.999900 0.999900
vt 0.000100 0.999900
vt 0.999900 0.000100
vt 0.999900 0.999900
vt 0.000100 0.999900
vt 0.000100 0.000100
vt 0.999900 0.000100
vt 0.000100 0.000100
vt 0.999900 0.000100
vt 0.000100 0.999900
vt 0.999900 0.999900
vt 0.000100 0.999900
vt 0.999900 0.000100
vt 0.999900 0.999900
vt 0.000100 0.999900
vt 0.000100 0.000100
vt 0.999900 0.000100
vt 0.000100 0.000100
vt 0.999900 0.000100
vt 0.000100 0.999900
vt 0.999900 0.999900
vt 0.000100 0.999900
vt 0.999900 0.000100
vt 0.999900 0.999900
vt 0.000100 0.999900
vt 0.000100 0.000100
vt 0.999900 0.000100
vt 0.000100 0.000100
vt 0.999900 0.000100
vt 0.000100 0.999900
vt 0.999900 0.999900
vt 0.000100 0.999900
vt 0.999900 0.000100
vt 0.999900 0.999900
vt 0.000100 0.999900
vt 0.000100 0.000100
vt 0.999900 0.000100
vt 0.000100 0.000100
vt 0.999900 0.000100
vt 0.000100 0.999900
vt 0.999900 0.999900
vt 0.000100 0.999900
vt 0.999900 0.000100
vt 0.999900 0.999900
vt 0.000100 0.999900
vt 0.000100 0.000100
vt 0.999900 0.000100
vt 0.999900 0.999900
vt 0.000100 0.999900
vt 0.000100 0.000100
vt 0.999900 0.000100
vt 0.000100 0.000100
vt 0.999900 0.000100
vt 0.000100 0.999900
vt 0.999900 0.999900
vt 0.000100 0.999900
vt 0.999900 0.000100
vt 0.999900 0.000100
vt 0.999900 0.999900
vt 0.000100 0.999900
vt 0.000100 0.000100
vt 0.000100 0.999900
vt 0.000100 0.000100
vt 0.999900 0.000100
vt 0.999900 0.999900
vt 0.999900 0.000100
vt 0.999900 0.999900
vt 0.000100 0.999900
vt 0.999900 0.999900
vt 0.000100 0.000100
vt 0.999900 0.000100
vt 0.000100 0.999900
vt 0.000100 0.000100
vt 0.999900 0.000100
vt 0.999900 0.999900
vt 0.000100 0.000100
vt 0.999900 0.000100
vt 0.999900 0.999900
vt 0.000100 0.999900
vt 0.999900 0.999900
vt 0.000100 0.999900
vt 0.000100 0.000100
vt 0.999900 0.000100
vt 0.000100 0.999900
vt 0.000100 0.000100
vt 0.999900 0.000100
vt 0.999900 0.999900
vt 0.000100 0.000100
vt 0.999900 0.000100
vt 0.999900 0.999900
vt 0.000100 0.999900
vt 0.999900 0.999900
vt 0.000100 0.999900
vt 0.000100 0.000100
vt 0.999900 0.000100
vt 0.000100 0.999900
vt 0.000100 0.000100
vt 0.999900 0.000100
vt 0.999900 0.999900
vt 0.000100 0.000100
vt 0.999900 0.000100
vt 0.999900 0.999900
vt 0.000100 0.999900
vt 0.999900 0.999900
vt 0.000100 0.999900
vt 0.000100 0.000100
vt 0.999900 0.000100
vt 0.000100 0.999900
vt 0.000100 0.000100
vt 0.999900 0.000100
vt 0.999900 0.999900
vt 0.000100 0.000100
vt 0.999900 0.000100
vt 0.999900 0.999900
vt 0.000100 0.999900
vt 0.999900 0.999900
vt 0.000100 0.999900
vt 0.000100 0.000100
vt 0.999900 0.000100
vt 0.000100 0.999900
vt 0.000100 0.000100
vt 0.999900 0.000100
vt 0.999900 0.999900
vt 0.000100 0.000100
vt 0.999900 0.000100
vt 0.999900 0.999900
vt 0.000100 0.999900
vt 0.999900 0.999900
vt 0.000100 0.999900
vt 0.000100 0.000100
vt 0.999900 0.000100
vt 0.000100 0.999900
vt 0.000100 0.000100
vt 0.999900 0.000100
vt 0.999900 0.999900
vt 0.000100 0.000100
vt 0.999900 0.000100
vt 0.999900 0.999900
vt 0.000100 0.999900
vt 0.999900 0.999900
vt 0.000100 0.999900
vt 0.000100 0.000100
vt 0.999900 0.000100
vt 0.000100 0.999900
vt 0.000100 0.000100
vt 0.999900 0.000100
vt 0.999900 0.999900
vt 0.000100 0.000100
vt 0.999900 0.000100
vt 0.999900 0.999900
vt 0.000100 0.999900
vt 0.999900 0.999900
vt 0.000100 0.999900
vt 0.000100 0.000100
vt 0.999900 0.000100
vt 0.000100 0.999900
vt 0.000100 0.000100
vt 0.999900 0.000100
vt 0.999900 0.999900
vt 0.000100 0.000100
vt 0.999900 0.000100
vt 0.999900 0.999900
vt 0.000100 0.999900
vt 0.999900 0.999900
vt 0.000100 0.999900
vt 0.000100 0.000100
vt 0.999900 0.000100
vt 0.000100 0.999900
vt 0.000100 0.000100
vt 0.999900 0.000100
vt 0.999900 0.999900
vt 0.000100 0.000100
vt 0.999900 0.000100
vt 0.999900 0.999900
vt 0.000100 0.999900
vt 0.999900 0.999900
vt 0.000100 0.999900
vt 0.000100 0.000100
vt 0.999900 0.000100
vt 0.000100 0.999900
vt 0.000100 0.000100
vt 0.999900 0.000100
vt 0.999900 0.999900
vt 0.000100 0.000100
vt 0.999900 0.000100
vt 0.999900 0.999900
vt 0.000100 0.999900
vt 0.999900 0.999900
vt 0.000100 0.999900
vt 0.000100 0.000100
vt 0.999900 0.000100
vt 0.000100 0.999900
vt 0.000100 0.000100
vt 0.999900 0.000100
vt 0.999900 0.999900
vt 0.000100 0.999900
vt 0.000100 0.000100
vt 0.999900 0.000100
vt 0.000100 0.000100
vt 0.999900 0.000100
vt 0.999900 0.999900
vt 0.000100 0.999900
vt 0.999900 0.999900
vt 0.000100 0.999900
vt 0.000100 0.000100
vt 0.999900 0.000100
vn -1.0000 0.0000 0.0000
vn 0.0000 0.0000 1.0000
vn 0.0000 -1.0000 0.0000
vn 0.0000 1.0000 0.0000
vn 1.0000 0.0000 0.0000
vn 0.0000 0.0000 -1.0000
usemtl Grid.002
s off
f 1/1/1 2/2/1 4/3/1 3/4/1
f 5/5/2 6/6/2 2/7/2 1/1/2
f 3/4/3 7/8/3 5/5/3 1/9/3
f 8/10/4 4/3/4 2/7/4 6/11/4
f 13/12/2 14/13/2 10/14/2 9/15/2
f 11/16/3 15/17/3 13/12/3 9/18/3
f 16/19/4 12/20/4 10/14/4 14/21/4
f 21/22/2 22/23/2 18/24/2 17/25/2
f 19/26/3 23/27/3 21/22/3 17/28/3
f 24/29/4 20/30/4 18/24/4 22/31/4
f 29/32/2 30/33/2 26/34/2 25/35/2
f 27/36/3 31/37/3 29/32/3 25/38/3
f 32/39/4 28/40/4 26/34/4 30/41/4
f 37/42/2 38/43/2 34/44/2 33/45/2
f 35/46/3 39/47/3 37/42/3 33/48/3
f 40/49/4 36/50/4 34/44/4 38/51/4
f 45/52/2 46/53/2 42/54/2 41/55/2
f 43/56/3 47/57/3 45/52/3 41/58/3
f 48/59/4 44/60/4 42/54/4 46/61/4
f 53/62/2 54/63/2 50/64/2 49/65/2
f 51/66/3 55/67/3 53/62/3 49/68/3
f 56/69/4 52/70/4 50/64/4 54/71/4
f 61/72/2 62/73/2 58/74/2 57/75/2
f 59/76/3 63/77/3 61/72/3 57/78/3
f 64/79/4 60/80/4 58/74/4 62/81/4
f 69/82/2 70/83/2 66/84/2 65/85/2
f 67/86/3 71/87/3 69/82/3 65/88/3
f 72/89/4 68/90/4 66/84/4 70/91/4
f 77/92/2 78/93/2 74/94/2 73/95/2
f 75/96/3 79/97/3 77/92/3 73/98/3
f 80/99/4 76/100/4 74/94/4 78/101/4
f 85/102/2 86/103/2 82/104/2 81/105/2
f 83/106/3 87/107/3 85/102/3 81/108/3
f 88/109/4 84/110/4 82/104/4 86/111/4
f 95/112/5 96/113/5 94/114/5 93/115/5
f 93/116/2 94/117/2 90/118/2 89/119/2
f 91/120/3 95/121/3 93/116/3 89/122/3
f 96/123/4 92/124/4 90/118/4 94/125/4
f 97/126/1 98/127/1 100/128/1 99/129/1
f 99/130/6 100/131/6 104/132/6 103/133/6
f 99/129/3 103/134/3 101/135/3 97/136/3
f 104/137/4 100/128/4 98/138/4 102/139/4
f 107/140/6 108/141/6 112/142/6 111/143/6
f 107/144/3 111/145/3 109/146/3 105/147/3
f 112/148/4 108/149/4 106/150/4 110/151/4
f 115/152/6 116/153/6 120/154/6 119/155/6
f 115/156/3 119/157/3 117/158/3 113/159/3
f 120/160/4 116/161/4 114/162/4 118/163/4
f 123/164/6 124/165/6 128/166/6 127/167/6
f 123/168/3 127/169/3 125/170/3 121/171/3
f 128/172/4 124/173/4 122/174/4 126/175/4
f 131/176/6 132/177/6 136/178/6 135/179/6
f 131/180/3 135/181/3 133/182/3 129/183/3
f 136/184/4 132/185/4 130/186/4 134/187/4
f 139/188/6 140/189/6 144/190/6 143/191/6
f 139/192/3 143/193/3 141/194/3 137/195/3
f 144/196/4 140/197/4 138/198/4 142/199/4
f 147/200/6 148/201/6 152/202/6 151/203/6
f 147/204/3 151/205/3 149/206/3 145/207/3
f 152/208/4 148/209/4 146/210/4 150/211/4
f 155/212/6 156/213/6 160/214/6 159/215/6
f 155/216/3 159/217/3 157/218/3 153/219/3
f 160/220/4 156/221/4 154/222/4 158/223/4
f 163/224/6 164/225/6 168/226/6 167/227/6
f 163/228/3 167/229/3 165/230/3 161/231/3
f 168/232/4 164/233/4 162/234/4 166/235/4
f 171/236/6 172/237/6 176/238/6 175/239/6
f 171/240/3 175/241/3 173/242/3 169/243/3
f 176/244/4 172/245/4 170/246/4 174/247/4
f 179/248/6 180/249/6 184/250/6 183/251/6
f 179/252/3 183/253/3 181/254/3 177/255/3
f 184/256/4 180/257/4 178/258/4 182/259/4
f 187/260/6 188/261/6 192/262/6 191/263/6
f 191/263/5 192/264/5 190/265/5 189/266/5
f 187/267/3 191/268/3 189/269/3 185/270/3
f 192/271/4 188/272/4 186/273/4 190/274/4
