# Blender v2.90.1 OBJ File: ''
# www.blender.org
o Cylinder
v 0.000000 -0.150000 -0.000000
v 0.000000 0.047904 0.000000
v 0.000000 -0.150000 -0.150000
v 0.000000 0.150000 -0.200000
v 0.106066 -0.150000 -0.106066
v 0.141421 0.150000 -0.141421
v 0.150000 -0.150000 0.000000
v 0.200000 0.150000 0.000000
v 0.106066 -0.150000 0.106066
v 0.141421 0.150000 0.141421
v -0.000000 -0.150000 0.150000
v -0.000000 0.150000 0.200000
v -0.106066 -0.150000 0.106066
v -0.141421 0.150000 0.141421
v -0.150000 -0.150000 -0.000000
v -0.200000 0.150000 -0.000000
v -0.106066 -0.150000 -0.106066
v -0.141421 0.150000 -0.141421
vt 0.500000 0.750000
vt 0.500000 0.994676
vt 0.846023 0.923012
vt 0.500000 0.750000
vt 0.846023 0.923012
vt 0.500000 0.994676
vt 8.000000 0.500000
vt 7.000000 0.000000
vt 8.000000 0.000000
vt 0.989351 0.750000
vt 0.989351 0.750000
vt 7.000000 0.500000
vt 6.000000 0.000000
vt 0.846023 0.576988
vt 0.846023 0.576988
vt 6.000000 0.500000
vt 5.000000 0.000000
vt 0.500000 0.505325
vt 0.500000 0.505325
vt 5.000000 0.500000
vt 4.000000 0.000000
vt 0.153977 0.576988
vt 0.153977 0.576988
vt 4.000000 0.500000
vt 3.000000 0.000000
vt 0.010649 0.750000
vt 0.010649 0.750000
vt 3.000000 0.500000
vt 2.000000 0.000000
vt 0.153977 0.923012
vt 0.153977 0.923012
vt 2.000000 0.500000
vt 1.000000 0.000000
vt 0.000000 0.500000
vt 0.000000 0.000000
vt 1.000000 0.500000
vn 0.0000 -1.0000 0.0000
vn -0.1851 0.8753 0.4468
vn 0.3782 -0.1522 -0.9131
vn -0.4468 0.8753 0.1851
vn 0.9131 -0.1522 -0.3782
vn -0.4468 0.8753 -0.1851
vn 0.9131 -0.1522 0.3782
vn -0.1851 0.8753 -0.4468
vn 0.3782 -0.1522 0.9131
vn 0.1851 0.8753 -0.4468
vn -0.3782 -0.1522 0.9131
vn 0.4468 0.8753 -0.1851
vn -0.9131 -0.1522 0.3782
vn 0.4468 0.8753 0.1851
vn -0.9131 -0.1522 -0.3782
vn 0.1851 0.8753 0.4468
vn -0.3782 -0.1522 -0.9131
s off
f 1/1/1 3/2/1 5/3/1
f 2/4/2 6/5/2 4/6/2
f 4/7/3 5/8/3 3/9/3
f 1/1/1 5/3/1 7/10/1
f 2/4/4 8/11/4 6/5/4
f 6/12/5 7/13/5 5/8/5
f 1/1/1 7/10/1 9/14/1
f 2/4/6 10/15/6 8/11/6
f 8/16/7 9/17/7 7/13/7
f 1/1/1 9/14/1 11/18/1
f 2/4/8 12/19/8 10/15/8
f 10/20/9 11/21/9 9/17/9
f 1/1/1 11/18/1 13/22/1
f 2/4/10 14/23/10 12/19/10
f 12/24/11 13/25/11 11/21/11
f 1/1/1 13/22/1 15/26/1
f 2/4/12 16/27/12 14/23/12
f 14/28/13 15/29/13 13/25/13
f 1/1/1 15/26/1 17/30/1
f 2/4/14 18/31/14 16/27/14
f 16/32/15 17/33/15 15/29/15
f 1/1/1 17/30/1 3/2/1
f 2/4/16 4/6/16 18/31/16
f 17/33/17 4/34/17 3/35/17
f 4/7/3 6/12/3 5/8/3
f 6/12/5 8/16/5 7/13/5
f 8/16/7 10/20/7 9/17/7
f 10/20/9 12/24/9 11/21/9
f 12/24/11 14/28/11 13/25/11
f 14/28/13 16/32/13 15/29/13
f 16/32/15 18/36/15 17/33/15
f 17/33/17 18/36/17 4/34/17
