# Blender v2.93.0 OBJ File: 'devshapes.blend'
# www.blender.org
mtllib Cone.mtl
o Cone_Cone.001
v 0.000000 -0.500000 -0.500000
v 0.129410 -0.500000 -0.482963
v 0.250000 -0.500000 -0.433013
v 0.353553 -0.500000 -0.353553
v 0.433013 -0.500000 -0.250000
v 0.482963 -0.500000 -0.129410
v 0.500000 -0.500000 0.000000
v 0.482963 -0.500000 0.129410
v 0.433013 -0.500000 0.250000
v 0.353553 -0.500000 0.353553
v 0.250000 -0.500000 0.433013
v 0.129410 -0.500000 0.482963
v -0.000000 -0.500000 0.500000
v -0.129410 -0.500000 0.482963
v -0.250000 -0.500000 0.433013
v -0.353553 -0.500000 0.353553
v -0.433013 -0.500000 0.250000
v -0.482963 -0.500000 0.129409
v -0.500000 -0.500000 -0.000000
v -0.482963 -0.500000 -0.129410
v -0.433013 -0.500000 -0.250000
v -0.353553 -0.500000 -0.353553
v -0.250000 -0.500000 -0.433013
v -0.129409 -0.500000 -0.482963
v 0.000000 0.500000 0.000000
vt 0.565285 0.997824
vt 0.499630 0.499115
vt 0.692123 0.963838
vt 0.805843 0.898182
vt 0.898696 0.805330
vt 0.964352 0.691610
vt 0.998338 0.564772
vt 0.998338 0.433459
vt 0.964352 0.306621
vt 0.898696 0.192901
vt 0.805844 0.100049
vt 0.692124 0.034393
vt 0.565285 0.000406
vt 0.433973 0.000406
vt 0.307135 0.034393
vt 0.193415 0.100049
vt 0.100563 0.192902
vt 0.034907 0.306622
vt 0.000921 0.433460
vt 0.000921 0.564772
vt 0.034907 0.691610
vt 0.100564 0.805330
vt 0.193415 0.898182
vt 0.307135 0.963838
vt 0.999900 0.565813
vt 0.965832 0.692954
vt 0.900019 0.806946
vt 0.806946 0.900020
vt 0.692954 0.965832
vt 0.565813 0.999900
vt 0.434187 0.999900
vt 0.307046 0.965833
vt 0.193054 0.900019
vt 0.099980 0.806946
vt 0.034167 0.692954
vt 0.000100 0.565813
vt 0.000100 0.434187
vt 0.034167 0.307045
vt 0.099980 0.193054
vt 0.193054 0.099980
vt 0.307046 0.034167
vt 0.434187 0.000100
vt 0.565813 0.000100
vt 0.692954 0.034167
vt 0.806945 0.099980
vt 0.900019 0.193054
vt 0.965832 0.307045
vt 0.999900 0.434187
vt 0.433973 0.997824
vn 0.0000 -0.4964 -0.8681
vn 0.0000 1.0000 0.0000
vn 0.2247 -0.4964 -0.8385
vn 0.4340 -0.4964 -0.7518
vn 0.6138 -0.4964 -0.6138
vn 0.7518 -0.4964 -0.4340
vn 0.8385 -0.4964 -0.2247
vn 0.8681 -0.4964 0.0000
vn 0.8385 -0.4964 0.2247
vn 0.7518 -0.4964 0.4340
vn 0.6138 -0.4964 0.6138
vn 0.4340 -0.4964 0.7518
vn 0.2247 -0.4964 0.8385
vn 0.0000 -0.4964 0.8681
vn -0.2247 -0.4964 0.8385
vn -0.4340 -0.4964 0.7518
vn -0.6138 -0.4964 0.6138
vn -0.7518 -0.4964 0.4340
vn -0.8385 -0.4964 0.2247
vn -0.8681 -0.4964 0.0000
vn -0.8385 -0.4964 -0.2247
vn -0.7518 -0.4964 -0.4340
vn -0.6138 -0.4964 -0.6138
vn -0.4340 -0.4964 -0.7518
vn -0.2247 -0.4964 -0.8385
usemtl Circle
s 1
f 1/1/1 25/2/2 2/3/3
f 2/3/3 25/2/2 3/4/4
f 3/4/4 25/2/2 4/5/5
f 4/5/5 25/2/2 5/6/6
f 5/6/6 25/2/2 6/7/7
f 6/7/7 25/2/2 7/8/8
f 7/8/8 25/2/2 8/9/9
f 8/9/9 25/2/2 9/10/10
f 9/10/10 25/2/2 10/11/11
f 10/11/11 25/2/2 11/12/12
f 11/12/12 25/2/2 12/13/13
f 12/13/13 25/2/2 13/14/14
f 13/14/14 25/2/2 14/15/15
f 14/15/15 25/2/2 15/16/16
f 15/16/16 25/2/2 16/17/17
f 16/17/17 25/2/2 17/18/18
f 17/18/18 25/2/2 18/19/19
f 18/19/19 25/2/2 19/20/20
f 19/20/20 25/2/2 20/21/21
f 20/21/21 25/2/2 21/22/22
f 21/22/22 25/2/2 22/23/23
f 22/23/23 25/2/2 23/24/24
f 1/25/1 2/26/3 3/27/4 4/28/5 5/29/6 6/30/7 7/31/8 8/32/9 9/33/10 10/34/11 11/35/12 12/36/13 13/37/14 14/38/15 15/39/16 16/40/17 17/41/18 18/42/19 19/43/20 20/44/21 21/45/22 22/46/23 23/47/24 24/48/25
f 23/24/24 25/2/2 24/49/25
f 24/49/25 25/2/2 1/1/1
