# Blender v2.93.0 OBJ File: 'devshapes.blend'
# www.blender.org
mtllib Cylinder.mtl
o Cylinder_Cylinder.002
v 0.000000 -0.500000 -0.500000
v 0.000000 0.500000 -0.500000
v 0.129410 -0.500000 -0.482963
v 0.129410 0.500000 -0.482963
v 0.250000 -0.500000 -0.433013
v 0.250000 0.500000 -0.433013
v 0.353553 -0.500000 -0.353553
v 0.353553 0.500000 -0.353553
v 0.433013 -0.500000 -0.250000
v 0.433013 0.500000 -0.250000
v 0.482963 -0.500000 -0.129410
v 0.482963 0.500000 -0.129410
v 0.500000 -0.500000 0.000000
v 0.500000 0.500000 0.000000
v 0.482963 -0.500000 0.129410
v 0.482963 0.500000 0.129410
v 0.433013 -0.500000 0.250000
v 0.433013 0.500000 0.250000
v 0.353553 -0.500000 0.353553
v 0.353553 0.500000 0.353553
v 0.250000 -0.500000 0.433013
v 0.250000 0.500000 0.433013
v 0.129410 -0.500000 0.482963
v 0.129410 0.500000 0.482963
v -0.000000 -0.500000 0.500000
v -0.000000 0.500000 0.500000
v -0.129410 -0.500000 0.482963
v -0.129410 0.500000 0.482963
v -0.250000 -0.500000 0.433013
v -0.250000 0.500000 0.433013
v -0.353553 -0.500000 0.353553
v -0.353553 0.500000 0.353553
v -0.433013 -0.500000 0.250000
v -0.433013 0.500000 0.250000
v -0.482963 -0.500000 0.129409
v -0.482963 0.500000 0.129409
v -0.500000 -0.500000 -0.000000
v -0.500000 0.500000 -0.000000
v -0.482963 -0.500000 -0.129410
v -0.482963 0.500000 -0.129410
v -0.433013 -0.500000 -0.250000
v -0.433013 0.500000 -0.250000
v -0.353553 -0.500000 -0.353553
v -0.353553 0.500000 -0.353553
v -0.250000 -0.500000 -0.433013
v -0.250000 0.500000 -0.433013
v -0.129409 -0.500000 -0.482963
v -0.129409 0.500000 -0.482963
vt 0.999937 0.500098
vt 0.000063 0.500098
vt 0.000063 0.416759
vt 0.999937 0.416759
vt 0.000063 0.333419
vt 0.999937 0.333419
vt 0.000063 0.250080
vt 0.999937 0.250079
vt 0.000063 0.166740
vt 0.999937 0.166740
vt 0.000063 0.083400
vt 0.999937 0.083400
vt 0.000063 0.000061
vt 0.999937 0.000060
vt 0.999937 0.500098
vt 0.000063 0.500098
vt 0.000063 0.416759
vt 0.999937 0.416759
vt 0.000063 0.333419
vt 0.999937 0.333419
vt 0.000063 0.250079
vt 0.999937 0.250079
vt 0.000063 0.166740
vt 0.999937 0.166740
vt 0.000063 0.083400
vt 0.999937 0.083400
vt 0.000063 0.000060
vt 0.999937 0.000060
vt 0.000063 0.000060
vt 0.999938 0.000060
vt 0.999938 0.083400
vt 0.000063 0.083400
vt 0.999938 0.166740
vt 0.000063 0.166740
vt 0.999938 0.250079
vt 0.000063 0.250079
vt 0.999938 0.333419
vt 0.000063 0.333419
vt 0.999938 0.416759
vt 0.000063 0.416759
vt 0.999938 0.500098
vt 0.000063 0.500098
vt 0.999937 0.500099
vt 0.000063 0.500098
vt 0.000063 0.416759
vt 0.999937 0.416759
vt 0.000063 0.333419
vt 0.999937 0.333419
vt 0.000063 0.250079
vt 0.999937 0.250080
vt 0.000063 0.166740
vt 0.999937 0.166740
vt 0.983965 0.684921
vt 1.001180 0.749769
vt 0.984240 0.814636
vt 0.934301 0.875100
vt 0.854764 0.927041
vt 0.751051 0.966919
vt 0.630230 0.992018
vt 0.500532 1.000625
vt 0.370800 0.992155
vt 0.249871 0.967186
vt 0.145989 0.927417
vt 0.066232 0.875561
vt 0.016035 0.815150
vt -0.001180 0.750301
vt 0.015760 0.685435
vt 0.065699 0.624971
vt 0.145237 0.573029
vt 0.248949 0.533151
vt 0.369771 0.508053
vt 0.499468 0.499445
vt 0.629201 0.507915
vt 0.750129 0.532885
vt 0.854011 0.572653
vt 0.933768 0.624510
vt 0.000063 0.083400
vt 0.999937 0.083400
vt 0.000063 0.000060
vt 0.999937 0.000060
vt 0.500342 1.000626
vt 0.370616 0.992131
vt 0.249707 0.967139
vt 0.145854 0.927351
vt 0.066137 0.875479
vt 0.015986 0.815058
vt -0.001180 0.750207
vt 0.015808 0.685344
vt 0.065794 0.624889
vt 0.145369 0.572963
vt 0.249113 0.533104
vt 0.369954 0.508028
vt 0.499657 0.499445
vt 0.629384 0.507940
vt 0.750293 0.532932
vt 0.854145 0.572720
vt 0.933864 0.624592
vt 0.984014 0.685012
vt 1.001180 0.749864
vt 0.984191 0.814727
vt 0.934206 0.875182
vt 0.854630 0.927108
vt 0.750887 0.966967
vt 0.630046 0.992042
vn 0.0000 -0.6789 -0.7342
vn 0.0000 0.6789 -0.7342
vn 0.1900 0.6789 -0.7092
vn 0.1900 -0.6789 -0.7092
vn 0.3671 0.6789 -0.6359
vn 0.3671 -0.6789 -0.6359
vn 0.5192 0.6789 -0.5192
vn 0.5192 -0.6789 -0.5192
vn 0.6359 0.6789 -0.3671
vn 0.6359 -0.6789 -0.3671
vn 0.7092 0.6789 -0.1900
vn 0.7092 -0.6789 -0.1900
vn 0.7342 0.6789 0.0000
vn 0.7342 -0.6789 0.0000
vn 0.7092 0.6789 0.1900
vn 0.7092 -0.6789 0.1900
vn 0.6359 0.6789 0.3671
vn 0.6359 -0.6789 0.3671
vn 0.5192 0.6789 0.5192
vn 0.5192 -0.6789 0.5192
vn 0.3671 0.6789 0.6359
vn 0.3671 -0.6789 0.6359
vn 0.1900 0.6789 0.7092
vn 0.1900 -0.6789 0.7092
vn 0.0000 0.6789 0.7342
vn 0.0000 -0.6789 0.7342
vn -0.1900 0.6789 0.7092
vn -0.1900 -0.6789 0.7092
vn -0.3671 0.6789 0.6359
vn -0.3671 -0.6789 0.6359
vn -0.5192 0.6789 0.5192
vn -0.5192 -0.6789 0.5192
vn -0.6359 0.6789 0.3671
vn -0.6359 -0.6789 0.3671
vn -0.7092 0.6789 0.1900
vn -0.7092 -0.6789 0.1900
vn -0.7342 0.6789 0.0000
vn -0.7342 -0.6789 0.0000
vn -0.7092 0.6789 -0.1900
vn -0.7092 -0.6789 -0.1900
vn -0.6359 0.6789 -0.3671
vn -0.6359 -0.6789 -0.3671
vn -0.5192 0.6789 -0.5192
vn -0.5192 -0.6789 -0.5192
vn -0.3671 0.6789 -0.6359
vn -0.3671 -0.6789 -0.6359
vn -0.1900 0.6789 -0.7092
vn -0.1900 -0.6789 -0.7092
usemtl Cylinder
s 1
f 1/1/1 2/2/2 4/3/3 3/4/4
f 3/4/4 4/3/3 6/5/5 5/6/6
f 5/6/6 6/5/5 8/7/7 7/8/8
f 7/8/8 8/7/7 10/9/9 9/10/10
f 9/10/10 10/9/9 12/11/11 11/12/12
f 11/12/12 12/11/11 14/13/13 13/14/14
f 13/15/14 14/16/13 16/17/15 15/18/16
f 15/18/16 16/17/15 18/19/17 17/20/18
f 17/20/18 18/19/17 20/21/19 19/22/20
f 19/22/20 20/21/19 22/23/21 21/24/22
f 21/24/22 22/23/21 24/25/23 23/26/24
f 23/26/24 24/25/23 26/27/25 25/28/26
f 25/29/26 26/30/25 28/31/27 27/32/28
f 27/32/28 28/31/27 30/33/29 29/34/30
f 29/34/30 30/33/29 32/35/31 31/36/32
f 31/36/32 32/35/31 34/37/33 33/38/34
f 33/38/34 34/37/33 36/39/35 35/40/36
f 35/40/36 36/39/35 38/41/37 37/42/38
f 37/43/38 38/44/37 40/45/39 39/46/40
f 39/46/40 40/45/39 42/47/41 41/48/42
f 41/48/42 42/47/41 44/49/43 43/50/44
f 43/50/44 44/49/43 46/51/45 45/52/46
f 4/53/3 2/54/2 48/55/47 46/56/45 44/57/43 42/58/41 40/59/39 38/60/37 36/61/35 34/62/33 32/63/31 30/64/29 28/65/27 26/66/25 24/67/23 22/68/21 20/69/19 18/70/17 16/71/15 14/72/13 12/73/11 10/74/9 8/75/7 6/76/5
f 45/52/46 46/51/45 48/77/47 47/78/48
f 47/78/48 48/77/47 2/79/2 1/80/1
f 1/81/1 3/82/4 5/83/6 7/84/8 9/85/10 11/86/12 13/87/14 15/88/16 17/89/18 19/90/20 21/91/22 23/92/24 25/93/26 27/94/28 29/95/30 31/96/32 33/97/34 35/98/36 37/99/38 39/100/40 41/101/42 43/102/44 45/103/46 47/104/48
