# Blender v2.93.0 OBJ File: 'devshapes.blend'
# www.blender.org
mtllib Cylinder_HQ.mtl
o Cylinder_HQ_Cylinder.003
v 0.000000 -0.500000 -0.500000
v 0.000000 0.500000 -0.500000
v 0.065263 -0.500000 -0.495722
v 0.065263 0.500000 -0.495722
v 0.129410 -0.500000 -0.482963
v 0.129410 0.500000 -0.482963
v 0.191342 -0.500000 -0.461940
v 0.191342 0.500000 -0.461940
v 0.250000 -0.500000 -0.433013
v 0.250000 0.500000 -0.433013
v 0.304381 -0.500000 -0.396677
v 0.304381 0.500000 -0.396677
v 0.353553 -0.500000 -0.353553
v 0.353553 0.500000 -0.353553
v 0.396677 -0.500000 -0.304381
v 0.396677 0.500000 -0.304381
v 0.433013 -0.500000 -0.250000
v 0.433013 0.500000 -0.250000
v 0.461940 -0.500000 -0.191342
v 0.461940 0.500000 -0.191342
v 0.482963 -0.500000 -0.129410
v 0.482963 0.500000 -0.129410
v 0.495722 -0.500000 -0.065263
v 0.495722 0.500000 -0.065263
v 0.500000 -0.500000 0.000000
v 0.500000 0.500000 0.000000
v 0.495722 -0.500000 0.065263
v 0.495722 0.500000 0.065263
v 0.482963 -0.500000 0.129410
v 0.482963 0.500000 0.129410
v 0.461940 -0.500000 0.191342
v 0.461940 0.500000 0.191342
v 0.433013 -0.500000 0.250000
v 0.433013 0.500000 0.250000
v 0.396677 -0.500000 0.304381
v 0.396677 0.500000 0.304381
v 0.353553 -0.500000 0.353553
v 0.353553 0.500000 0.353553
v 0.304381 -0.500000 0.396677
v 0.304381 0.500000 0.396677
v 0.250000 -0.500000 0.433013
v 0.250000 0.500000 0.433013
v 0.191342 -0.500000 0.461940
v 0.191342 0.500000 0.461940
v 0.129410 -0.500000 0.482963
v 0.129410 0.500000 0.482963
v 0.065263 -0.500000 0.495722
v 0.065263 0.500000 0.495722
v -0.000000 -0.500000 0.500000
v -0.000000 0.500000 0.500000
v -0.065263 -0.500000 0.495722
v -0.065263 0.500000 0.495722
v -0.129410 -0.500000 0.482963
v -0.129410 0.500000 0.482963
v -0.191342 -0.500000 0.461940
v -0.191342 0.500000 0.461940
v -0.250000 -0.500000 0.433013
v -0.250000 0.500000 0.433013
v -0.304381 -0.500000 0.396677
v -0.304381 0.500000 0.396677
v -0.353553 -0.500000 0.353553
v -0.353553 0.500000 0.353553
v -0.396677 -0.500000 0.304381
v -0.396677 0.500000 0.304381
v -0.433013 -0.500000 0.250000
v -0.433013 0.500000 0.250000
v -0.461940 -0.500000 0.191342
v -0.461940 0.500000 0.191342
v -0.482963 -0.500000 0.129409
v -0.482963 0.500000 0.129409
v -0.495722 -0.500000 0.065263
v -0.495722 0.500000 0.065263
v -0.500000 -0.500000 -0.000000
v -0.500000 0.500000 -0.000000
v -0.495722 -0.500000 -0.065263
v -0.495722 0.500000 -0.065263
v -0.482963 -0.500000 -0.129410
v -0.482963 0.500000 -0.129410
v -0.461940 -0.500000 -0.191342
v -0.461940 0.500000 -0.191342
v -0.433013 -0.500000 -0.250000
v -0.433013 0.500000 -0.250000
v -0.396677 -0.500000 -0.304381
v -0.396677 0.500000 -0.304381
v -0.353553 -0.500000 -0.353553
v -0.353553 0.500000 -0.353553
v -0.304381 -0.500000 -0.396677
v -0.304381 0.500000 -0.396677
v -0.250000 -0.500000 -0.433013
v -0.250000 0.500000 -0.433013
v -0.191342 -0.500000 -0.461940
v -0.191342 0.500000 -0.461940
v -0.129409 -0.500000 -0.482963
v -0.129409 0.500000 -0.482963
v -0.065263 -0.500000 -0.495722
v -0.065263 0.500000 -0.495722
vt 0.999911 0.500223
vt 0.000089 0.500224
vt 0.000089 0.458546
vt 0.999911 0.458545
vt 0.000089 0.416867
vt 0.999911 0.416867
vt 0.000089 0.375189
vt 0.999911 0.375188
vt 0.000089 0.333510
vt 0.999911 0.333510
vt 0.000089 0.291832
vt 0.999911 0.291831
vt 0.000089 0.250153
vt 0.999911 0.250153
vt 0.000089 0.208475
vt 0.999911 0.208475
vt 0.000089 0.166796
vt 0.999911 0.166796
vt 0.000089 0.125118
vt 0.999911 0.125118
vt 0.000089 0.083439
vt 0.999911 0.083439
vt 0.000089 0.041761
vt 0.999911 0.041761
vt 0.000089 0.000082
vt 0.999911 0.000083
vt 0.999911 0.500223
vt 0.000089 0.500224
vt 0.000089 0.458546
vt 0.999911 0.458545
vt 0.000089 0.416867
vt 0.999911 0.416867
vt 0.000089 0.375189
vt 0.999911 0.375188
vt 0.000089 0.333510
vt 0.999911 0.333510
vt 0.000089 0.291832
vt 0.999911 0.291831
vt 0.000089 0.250153
vt 0.999911 0.250153
vt 0.000089 0.208475
vt 0.999911 0.208475
vt 0.000089 0.166796
vt 0.999911 0.166796
vt 0.000089 0.125118
vt 0.999911 0.125118
vt 0.000089 0.083439
vt 0.999911 0.083439
vt 0.000089 0.041761
vt 0.999911 0.041761
vt 0.000089 0.000082
vt 0.999911 0.000083
vt 0.999911 0.500223
vt 0.000089 0.500224
vt 0.000089 0.458546
vt 0.999911 0.458545
vt 0.000089 0.416867
vt 0.999911 0.416866
vt 0.000089 0.375189
vt 0.999911 0.375188
vt 0.000089 0.333510
vt 0.999911 0.333510
vt 0.000089 0.291832
vt 0.999911 0.291831
vt 0.000089 0.250153
vt 0.999911 0.250153
vt 0.000089 0.208475
vt 0.999911 0.208475
vt 0.000089 0.166796
vt 0.999911 0.166796
vt 0.000089 0.125118
vt 0.999911 0.125118
vt 0.000089 0.083439
vt 0.999911 0.083439
vt 0.000089 0.041761
vt 0.999911 0.041761
vt 0.000089 0.000082
vt 0.999911 0.000083
vt 0.999911 0.500223
vt 0.000089 0.500224
vt 0.000089 0.458546
vt 0.999911 0.458545
vt 0.000089 0.416867
vt 0.999911 0.416866
vt 0.000089 0.375188
vt 0.999911 0.375188
vt 0.000089 0.333510
vt 0.999911 0.333510
vt 0.000089 0.291831
vt 0.999911 0.291831
vt 0.000089 0.250153
vt 0.999911 0.250153
vt 0.000089 0.208475
vt 0.999911 0.208475
vt 0.000089 0.166796
vt 0.999911 0.166796
vt 0.000089 0.125118
vt 0.999911 0.125118
vt 0.000089 0.083439
vt 0.999911 0.083439
vt 0.566011 0.997725
vt 0.500776 0.999914
vt 0.435529 0.997826
vt 0.371385 0.991499
vt 0.309440 0.981039
vt 0.250758 0.966626
vt 0.196340 0.948506
vt 0.147117 0.926990
vt 0.103934 0.902447
vt 0.067525 0.875293
vt 0.038516 0.845996
vt 0.017404 0.815057
vt 0.004550 0.783006
vt 0.000172 0.750388
vt 0.004347 0.717765
vt 0.017003 0.685692
vt 0.037922 0.654721
vt 0.066748 0.625379
vt 0.102988 0.598170
vt 0.146020 0.573558
vt 0.195109 0.551966
vt 0.249414 0.533762
vt 0.308007 0.519258
vt 0.369885 0.508702
vt 0.433990 0.502275
vt 0.499224 0.500086
vt 0.564471 0.502174
vt 0.628615 0.508501
vt 0.690559 0.518961
vt 0.749241 0.533374
vt 0.803660 0.551494
vt 0.852882 0.573010
vt 0.896067 0.597554
vt 0.932475 0.624707
vt 0.961483 0.654004
vt 0.982595 0.684943
vt 0.995450 0.716995
vt 0.999828 0.749612
vt 0.995653 0.782236
vt 0.982997 0.814308
vt 0.962077 0.845279
vt 0.933252 0.874621
vt 0.897013 0.901830
vt 0.853980 0.926441
vt 0.804891 0.948034
vt 0.750586 0.966238
vt 0.691993 0.980742
vt 0.630114 0.991298
vt 0.000089 0.041761
vt 0.999911 0.041761
vt 0.000089 0.000082
vt 0.999911 0.000083
vt 0.500485 0.500086
vt 0.565722 0.502256
vt 0.629834 0.508664
vt 0.691725 0.519202
vt 0.750335 0.533689
vt 0.804661 0.551878
vt 0.853777 0.573457
vt 0.896836 0.598055
vt 0.933107 0.625254
vt 0.961967 0.654587
vt 0.982922 0.685552
vt 0.995615 0.717621
vt 0.999828 0.750243
vt 0.995488 0.782861
vt 0.982671 0.814917
vt 0.961595 0.845862
vt 0.932621 0.875167
vt 0.896244 0.902330
vt 0.853088 0.926888
vt 0.803890 0.948418
vt 0.749494 0.966553
vt 0.690828 0.980983
vt 0.628896 0.991461
vt 0.564759 0.997808
vt 0.499514 0.999914
vt 0.434278 0.997744
vt 0.370167 0.991336
vt 0.308275 0.980798
vt 0.249666 0.966311
vt 0.195339 0.948122
vt 0.146223 0.926543
vt 0.103164 0.901945
vt 0.066893 0.874746
vt 0.038033 0.845413
vt 0.017077 0.814448
vt 0.004384 0.782379
vt 0.000172 0.749757
vt 0.004511 0.717138
vt 0.017329 0.685083
vt 0.038405 0.654138
vt 0.067379 0.624833
vt 0.103756 0.597669
vt 0.146911 0.573113
vt 0.196109 0.551582
vt 0.250506 0.533447
vt 0.309172 0.519017
vt 0.371104 0.508539
vt 0.435240 0.502192
vn 0.0000 -0.6926 -0.7212
vn 0.0000 0.6926 -0.7212
vn 0.0941 0.6926 -0.7150
vn 0.0941 -0.6926 -0.7150
vn 0.1867 0.6926 -0.6966
vn 0.1867 -0.6926 -0.6966
vn 0.2760 0.6926 -0.6663
vn 0.2760 -0.6926 -0.6663
vn 0.3606 0.6926 -0.6246
vn 0.3606 -0.6926 -0.6246
vn 0.4390 0.6926 -0.5722
vn 0.4390 -0.6926 -0.5722
vn 0.5100 0.6926 -0.5100
vn 0.5100 -0.6926 -0.5100
vn 0.5722 0.6926 -0.4390
vn 0.5722 -0.6926 -0.4390
vn 0.6246 0.6926 -0.3606
vn 0.6246 -0.6926 -0.3606
vn 0.6663 0.6926 -0.2760
vn 0.6663 -0.6926 -0.2760
vn 0.6966 0.6926 -0.1867
vn 0.6966 -0.6926 -0.1867
vn 0.7150 0.6926 -0.0941
vn 0.7150 -0.6926 -0.0941
vn 0.7212 0.6926 0.0000
vn 0.7212 -0.6926 0.0000
vn 0.7150 0.6926 0.0941
vn 0.7150 -0.6926 0.0941
vn 0.6966 0.6926 0.1867
vn 0.6966 -0.6926 0.1867
vn 0.6663 0.6926 0.2760
vn 0.6663 -0.6926 0.2760
vn 0.6246 0.6926 0.3606
vn 0.6246 -0.6926 0.3606
vn 0.5722 0.6926 0.4390
vn 0.5722 -0.6926 0.4390
vn 0.5100 0.6926 0.5100
vn 0.5100 -0.6926 0.5100
vn 0.4390 0.6926 0.5722
vn 0.4390 -0.6926 0.5722
vn 0.3606 0.6926 0.6246
vn 0.3606 -0.6926 0.6246
vn 0.2760 0.6926 0.6663
vn 0.2760 -0.6926 0.6663
vn 0.1867 0.6926 0.6966
vn 0.1867 -0.6926 0.6966
vn 0.0941 0.6926 0.7150
vn 0.0941 -0.6926 0.7150
vn 0.0000 0.6926 0.7212
vn 0.0000 -0.6926 0.7212
vn -0.0941 0.6926 0.7150
vn -0.0941 -0.6926 0.7150
vn -0.1867 0.6926 0.6966
vn -0.1867 -0.6926 0.6966
vn -0.2760 0.6926 0.6663
vn -0.2760 -0.6926 0.6663
vn -0.3606 0.6926 0.6246
vn -0.3606 -0.6926 0.6246
vn -0.4390 0.6926 0.5722
vn -0.4390 -0.6926 0.5722
vn -0.5100 0.6926 0.5100
vn -0.5100 -0.6926 0.5100
vn -0.5722 0.6926 0.4390
vn -0.5722 -0.6926 0.4390
vn -0.6246 0.6926 0.3606
vn -0.6246 -0.6926 0.3606
vn -0.6663 0.6926 0.2760
vn -0.6663 -0.6926 0.2760
vn -0.6966 0.6926 0.1867
vn -0.6966 -0.6926 0.1867
vn -0.7150 0.6926 0.0941
vn -0.7150 -0.6926 0.0941
vn -0.7212 0.6926 0.0000
vn -0.7212 -0.6926 0.0000
vn -0.7150 0.6926 -0.0941
vn -0.7150 -0.6926 -0.0941
vn -0.6966 0.6926 -0.1867
vn -0.6966 -0.6926 -0.1867
vn -0.6663 0.6926 -0.2760
vn -0.6663 -0.6926 -0.2760
vn -0.6246 0.6926 -0.3606
vn -0.6246 -0.6926 -0.3606
vn -0.5722 0.6926 -0.4390
vn -0.5722 -0.6926 -0.4390
vn -0.5100 0.6926 -0.5100
vn -0.5100 -0.6926 -0.5100
vn -0.4390 0.6926 -0.5722
vn -0.4390 -0.6926 -0.5722
vn -0.3606 0.6926 -0.6246
vn -0.3606 -0.6926 -0.6246
vn -0.2760 0.6926 -0.6663
vn -0.2760 -0.6926 -0.6663
vn -0.1867 0.6926 -0.6966
vn -0.1867 -0.6926 -0.6966
vn -0.0941 0.6926 -0.7150
vn -0.0941 -0.6926 -0.7150
usemtl Cylinder
s 1
f 1/1/1 2/2/2 4/3/3 3/4/4
f 3/4/4 4/3/3 6/5/5 5/6/6
f 5/6/6 6/5/5 8/7/7 7/8/8
f 7/8/8 8/7/7 10/9/9 9/10/10
f 9/10/10 10/9/9 12/11/11 11/12/12
f 11/12/12 12/11/11 14/13/13 13/14/14
f 13/14/14 14/13/13 16/15/15 15/16/16
f 15/16/16 16/15/15 18/17/17 17/18/18
f 17/18/18 18/17/17 20/19/19 19/20/20
f 19/20/20 20/19/19 22/21/21 21/22/22
f 21/22/22 22/21/21 24/23/23 23/24/24
f 23/24/24 24/23/23 26/25/25 25/26/26
f 25/27/26 26/28/25 28/29/27 27/30/28
f 27/30/28 28/29/27 30/31/29 29/32/30
f 29/32/30 30/31/29 32/33/31 31/34/32
f 31/34/32 32/33/31 34/35/33 33/36/34
f 33/36/34 34/35/33 36/37/35 35/38/36
f 35/38/36 36/37/35 38/39/37 37/40/38
f 37/40/38 38/39/37 40/41/39 39/42/40
f 39/42/40 40/41/39 42/43/41 41/44/42
f 41/44/42 42/43/41 44/45/43 43/46/44
f 43/46/44 44/45/43 46/47/45 45/48/46
f 45/48/46 46/47/45 48/49/47 47/50/48
f 47/50/48 48/49/47 50/51/49 49/52/50
f 49/53/50 50/54/49 52/55/51 51/56/52
f 51/56/52 52/55/51 54/57/53 53/58/54
f 53/58/54 54/57/53 56/59/55 55/60/56
f 55/60/56 56/59/55 58/61/57 57/62/58
f 57/62/58 58/61/57 60/63/59 59/64/60
f 59/64/60 60/63/59 62/65/61 61/66/62
f 61/66/62 62/65/61 64/67/63 63/68/64
f 63/68/64 64/67/63 66/69/65 65/70/66
f 65/70/66 66/69/65 68/71/67 67/72/68
f 67/72/68 68/71/67 70/73/69 69/74/70
f 69/74/70 70/73/69 72/75/71 71/76/72
f 71/76/72 72/75/71 74/77/73 73/78/74
f 73/79/74 74/80/73 76/81/75 75/82/76
f 75/82/76 76/81/75 78/83/77 77/84/78
f 77/84/78 78/83/77 80/85/79 79/86/80
f 79/86/80 80/85/79 82/87/81 81/88/82
f 81/88/82 82/87/81 84/89/83 83/90/84
f 83/90/84 84/89/83 86/91/85 85/92/86
f 85/92/86 86/91/85 88/93/87 87/94/88
f 87/94/88 88/93/87 90/95/89 89/96/90
f 89/96/90 90/95/89 92/97/91 91/98/92
f 91/98/92 92/97/91 94/99/93 93/100/94
f 4/101/3 2/102/2 96/103/95 94/104/93 92/105/91 90/106/89 88/107/87 86/108/85 84/109/83 82/110/81 80/111/79 78/112/77 76/113/75 74/114/73 72/115/71 70/116/69 68/117/67 66/118/65 64/119/63 62/120/61 60/121/59 58/122/57 56/123/55 54/124/53 52/125/51 50/126/49 48/127/47 46/128/45 44/129/43 42/130/41 40/131/39 38/132/37 36/133/35 34/134/33 32/135/31 30/136/29 28/137/27 26/138/25 24/139/23 22/140/21 20/141/19 18/142/17 16/143/15 14/144/13 12/145/11 10/146/9 8/147/7 6/148/5
f 93/100/94 94/99/93 96/149/95 95/150/96
f 95/150/96 96/149/95 2/151/2 1/152/1
f 1/153/1 3/154/4 5/155/6 7/156/8 9/157/10 11/158/12 13/159/14 15/160/16 17/161/18 19/162/20 21/163/22 23/164/24 25/165/26 27/166/28 29/167/30 31/168/32 33/169/34 35/170/36 37/171/38 39/172/40 41/173/42 43/174/44 45/175/46 47/176/48 49/177/50 51/178/52 53/179/54 55/180/56 57/181/58 59/182/60 61/183/62 63/184/64 65/185/66 67/186/68 69/187/70 71/188/72 73/189/74 75/190/76 77/191/78 79/192/80 81/193/82 83/194/84 85/195/86 87/196/88 89/197/90 91/198/92 93/199/94 95/200/96
