# Blender v2.93.0 OBJ File: 'devshapes.blend'
# www.blender.org
mtllib Block_2x1x4.mtl
o Block_2x1x4_Cube.158
v -0.500000 -0.500000 0.500000
v -0.500000 0.500000 0.500000
v -0.500000 -0.500000 -0.500000
v -0.500000 0.500000 -0.500000
v 0.500000 -0.500000 0.500000
v 0.500000 0.500000 0.500000
v 0.500000 -0.500000 -0.500000
v 0.500000 0.500000 -0.500000
v 0.500000 -0.500000 0.500000
v 0.500000 0.500000 0.500000
v 0.500000 -0.500000 -0.500000
v 0.500000 0.500000 -0.500000
v 1.500000 -0.500000 0.500000
v 1.500000 0.500000 0.500000
v 1.500000 -0.500000 -0.500000
v 1.500000 0.500000 -0.500000
v -0.500000 0.500000 0.500000
v -0.500000 1.500000 0.500000
v -0.500000 0.500000 -0.500000
v -0.500000 1.500000 -0.500000
v 0.500000 0.500000 0.500000
v 0.500000 1.500000 0.500000
v 0.500000 0.500000 -0.500000
v 0.500000 1.500000 -0.500000
v 0.500000 0.500000 0.500000
v 0.500000 1.500000 0.500000
v 0.500000 0.500000 -0.500000
v 0.500000 1.500000 -0.500000
v 1.500000 0.500000 0.500000
v 1.500000 1.500000 0.500000
v 1.500000 0.500000 -0.500000
v 1.500000 1.500000 -0.500000
v -0.500000 1.500000 0.500000
v -0.500000 2.500000 0.500000
v -0.500000 1.500000 -0.500000
v -0.500000 2.500000 -0.500000
v 0.500000 1.500000 0.500000
v 0.500000 2.500000 0.500000
v 0.500000 1.500000 -0.500000
v 0.500000 2.500000 -0.500000
v 0.500000 1.500000 0.500000
v 0.500000 2.500000 0.500000
v 0.500000 1.500000 -0.500000
v 0.500000 2.500000 -0.500000
v 1.500000 1.500000 0.500000
v 1.500000 2.500000 0.500000
v 1.500000 1.500000 -0.500000
v 1.500000 2.500000 -0.500000
v -0.500000 2.500000 0.500000
v -0.500000 3.500000 0.500000
v -0.500000 2.500000 -0.500000
v -0.500000 3.500000 -0.500000
v 0.500000 2.500000 0.500000
v 0.500000 3.500000 0.500000
v 0.500000 2.500000 -0.500000
v 0.500000 3.500000 -0.500000
v 0.500000 2.500000 0.500000
v 0.500000 3.500000 0.500000
v 0.500000 2.500000 -0.500000
v 0.500000 3.500000 -0.500000
v 1.500000 2.500000 0.500000
v 1.500000 3.500000 0.500000
v 1.500000 2.500000 -0.500000
v 1.500000 3.500000 -0.500000
vt 0.999900 0.000100
vt 0.999900 0.999900
vt 0.000100 0.999900
vt 0.000100 0.000100
vt 0.000100 0.999900
vt 0.000100 0.000100
vt 0.999900 0.000100
vt 0.999900 0.999900
vt 0.999900 0.999900
vt 0.000100 0.999900
vt 0.000100 0.000100
vt 0.999900 0.000100
vt 0.000100 0.999900
vt 0.000100 0.999900
vt 0.000100 0.000100
vt 0.999900 0.000100
vt 0.999900 0.999900
vt 0.000100 0.999900
vt 0.000100 0.000100
vt 0.999900 0.000100
vt 0.999900 0.999900
vt 0.000100 0.999900
vt 0.000100 0.000100
vt 0.999900 0.000100
vt 0.000100 0.000100
vt 0.999900 0.000100
vt 0.000100 0.999900
vt 0.999900 0.000100
vt 0.999900 0.999900
vt 0.000100 0.999900
vt 0.000100 0.000100
vt 0.000100 0.999900
vt 0.000100 0.000100
vt 0.999900 0.000100
vt 0.999900 0.999900
vt 0.999900 0.999900
vt 0.000100 0.999900
vt 0.000100 0.000100
vt 0.000100 0.999900
vt 0.000100 0.000100
vt 0.999900 0.000100
vt 0.999900 0.999900
vt 0.000100 0.999900
vt 0.000100 0.000100
vt 0.999900 0.000100
vt 0.999900 0.999900
vt 0.000100 0.999900
vt 0.000100 0.000100
vt 0.999900 0.000100
vt 0.999900 0.000100
vt 0.999900 0.999900
vt 0.000100 0.999900
vt 0.000100 0.000100
vt 0.000100 0.999900
vt 0.000100 0.000100
vt 0.999900 0.000100
vt 0.999900 0.999900
vt 0.999900 0.999900
vt 0.000100 0.999900
vt 0.000100 0.000100
vt 0.000100 0.999900
vt 0.000100 0.000100
vt 0.999900 0.000100
vt 0.999900 0.999900
vt 0.000100 0.999900
vt 0.000100 0.000100
vt 0.999900 0.000100
vt 0.999900 0.999900
vt 0.000100 0.999900
vt 0.000100 0.000100
vt 0.999900 0.000100
vt 0.999900 0.000100
vt 0.999900 0.999900
vt 0.000100 0.999900
vt 0.000100 0.000100
vt 0.000100 0.999900
vt 0.000100 0.000100
vt 0.999900 0.000100
vt 0.999900 0.999900
vt 0.999900 0.999900
vt 0.000100 0.999900
vt 0.000100 0.000100
vt 0.999900 0.999900
vt 0.999900 0.000100
vt 0.000100 0.999900
vt 0.000100 0.000100
vt 0.999900 0.000100
vt 0.999900 0.999900
vt 0.000100 0.999900
vt 0.000100 0.000100
vt 0.999900 0.000100
vt 0.999900 0.999900
vt 0.000100 0.999900
vt 0.000100 0.000100
vt 0.999900 0.000100
vt 0.999900 0.999900
vt 0.000100 0.999900
vt 0.999900 0.000100
vn -1.0000 0.0000 0.0000
vn 0.0000 0.0000 -1.0000
vn 0.0000 0.0000 1.0000
vn 0.0000 -1.0000 0.0000
vn 1.0000 0.0000 0.0000
vn 0.0000 1.0000 0.0000
usemtl Grid.002
s off
f 1/1/1 2/2/1 4/3/1 3/4/1
f 3/5/2 4/6/2 8/7/2 7/8/2
f 5/9/3 6/10/3 2/11/3 1/1/3
f 3/4/4 7/12/4 5/9/4 1/13/4
f 11/14/2 12/15/2 16/16/2 15/17/2
f 15/17/5 16/18/5 14/19/5 13/20/5
f 13/21/3 14/22/3 10/23/3 9/24/3
f 11/25/4 15/26/4 13/21/4 9/27/4
f 17/28/1 18/29/1 20/30/1 19/31/1
f 19/32/2 20/33/2 24/34/2 23/35/2
f 21/36/3 22/37/3 18/38/3 17/28/3
f 27/39/2 28/40/2 32/41/2 31/42/2
f 31/42/5 32/43/5 30/44/5 29/45/5
f 29/46/3 30/47/3 26/48/3 25/49/3
f 33/50/1 34/51/1 36/52/1 35/53/1
f 35/54/2 36/55/2 40/56/2 39/57/2
f 37/58/3 38/59/3 34/60/3 33/50/3
f 43/61/2 44/62/2 48/63/2 47/64/2
f 47/64/5 48/65/5 46/66/5 45/67/5
f 45/68/3 46/69/3 42/70/3 41/71/3
f 49/72/1 50/73/1 52/74/1 51/75/1
f 51/76/2 52/77/2 56/78/2 55/79/2
f 53/80/3 54/81/3 50/82/3 49/72/3
f 56/83/6 52/74/6 50/82/6 54/84/6
f 59/85/2 60/86/2 64/87/2 63/88/2
f 63/88/5 64/89/5 62/90/5 61/91/5
f 61/92/3 62/93/3 58/94/3 57/95/3
f 64/96/6 60/97/6 58/94/6 62/98/6
