# Blender v2.93.0 OBJ File: 'devshapes.blend'
# www.blender.org
mtllib Block_1x2x8.mtl
o Block_1x2x8_Cube.147
v -0.500000 -0.500000 0.500000
v -0.500000 0.500000 0.500000
v -0.500000 -0.500000 -0.500000
v -0.500000 0.500000 -0.500000
v 0.500000 -0.500000 0.500000
v 0.500000 0.500000 0.500000
v 0.500000 -0.500000 -0.500000
v 0.500000 0.500000 -0.500000
v -0.500000 -0.500000 -0.500000
v -0.500000 0.500000 -0.500000
v -0.500000 -0.500000 -1.500000
v -0.500000 0.500000 -1.500000
v 0.500000 -0.500000 -0.500000
v 0.500000 0.500000 -0.500000
v 0.500000 -0.500000 -1.500000
v 0.500000 0.500000 -1.500000
v -0.500000 0.500000 0.500000
v -0.500000 1.500000 0.500000
v -0.500000 0.500000 -0.500000
v -0.500000 1.500000 -0.500000
v 0.500000 0.500000 0.500000
v 0.500000 1.500000 0.500000
v 0.500000 0.500000 -0.500000
v 0.500000 1.500000 -0.500000
v -0.500000 0.500000 -0.500000
v -0.500000 1.500000 -0.500000
v -0.500000 0.500000 -1.500000
v -0.500000 1.500000 -1.500000
v 0.500000 0.500000 -0.500000
v 0.500000 1.500000 -0.500000
v 0.500000 0.500000 -1.500000
v 0.500000 1.500000 -1.500000
v -0.500000 1.500000 0.500000
v -0.500000 2.500000 0.500000
v -0.500000 1.500000 -0.500000
v -0.500000 2.500000 -0.500000
v 0.500000 1.500000 0.500000
v 0.500000 2.500000 0.500000
v 0.500000 1.500000 -0.500000
v 0.500000 2.500000 -0.500000
v -0.500000 1.500000 -0.500000
v -0.500000 2.500000 -0.500000
v -0.500000 1.500000 -1.500000
v -0.500000 2.500000 -1.500000
v 0.500000 1.500000 -0.500000
v 0.500000 2.500000 -0.500000
v 0.500000 1.500000 -1.500000
v 0.500000 2.500000 -1.500000
v -0.500000 2.500000 0.500000
v -0.500000 3.500000 0.500000
v -0.500000 2.500000 -0.500000
v -0.500000 3.500000 -0.500000
v 0.500000 2.500000 0.500000
v 0.500000 3.500000 0.500000
v 0.500000 2.500000 -0.500000
v 0.500000 3.500000 -0.500000
v -0.500000 2.500000 -0.500000
v -0.500000 3.500000 -0.500000
v -0.500000 2.500000 -1.500000
v -0.500000 3.500000 -1.500000
v 0.500000 2.500000 -0.500000
v 0.500000 3.500000 -0.500000
v 0.500000 2.500000 -1.500000
v 0.500000 3.500000 -1.500000
v -0.500000 3.500000 0.500000
v -0.500000 4.500000 0.500000
v -0.500000 3.500000 -0.500000
v -0.500000 4.500000 -0.500000
v 0.500000 3.500000 0.500000
v 0.500000 4.500000 0.500000
v 0.500000 3.500000 -0.500000
v 0.500000 4.500000 -0.500000
v -0.500000 3.500000 -0.500000
v -0.500000 4.500000 -0.500000
v -0.500000 3.500000 -1.500000
v -0.500000 4.500000 -1.500000
v 0.500000 3.500000 -0.500000
v 0.500000 4.500000 -0.500000
v 0.500000 3.500000 -1.500000
v 0.500000 4.500000 -1.500000
v -0.500000 4.500000 0.500000
v -0.500000 5.500000 0.500000
v -0.500000 4.500000 -0.500000
v -0.500000 5.500000 -0.500000
v 0.500000 4.500000 0.500000
v 0.500000 5.500000 0.500000
v 0.500000 4.500000 -0.500000
v 0.500000 5.500000 -0.500000
v -0.500000 4.500000 -0.500000
v -0.500000 5.500000 -0.500000
v -0.500000 4.500000 -1.500000
v -0.500000 5.500000 -1.500000
v 0.500000 4.500000 -0.500000
v 0.500000 5.500000 -0.500000
v 0.500000 4.500000 -1.500000
v 0.500000 5.500000 -1.500000
v -0.500000 5.500000 0.500000
v -0.500000 6.500000 0.500000
v -0.500000 5.500000 -0.500000
v -0.500000 6.500000 -0.500000
v 0.500000 5.500000 0.500000
v 0.500000 6.500000 0.500000
v 0.500000 5.500000 -0.500000
v 0.500000 6.500000 -0.500000
v -0.500000 5.500000 -0.500000
v -0.500000 6.500000 -0.500000
v -0.500000 5.500000 -1.500000
v -0.500000 6.500000 -1.500000
v 0.500000 5.500000 -0.500000
v 0.500000 6.500000 -0.500000
v 0.500000 5.500000 -1.500000
v 0.500000 6.500000 -1.500000
v -0.500000 6.500000 0.500000
v -0.500000 7.500000 0.500000
v -0.500000 6.500000 -0.500000
v -0.500000 7.500000 -0.500000
v 0.500000 6.500000 0.500000
v 0.500000 7.500000 0.500000
v 0.500000 6.500000 -0.500000
v 0.500000 7.500000 -0.500000
v -0.500000 6.500000 -0.500000
v -0.500000 7.500000 -0.500000
v -0.500000 6.500000 -1.500000
v -0.500000 7.500000 -1.500000
v 0.500000 6.500000 -0.500000
v 0.500000 7.500000 -0.500000
v 0.500000 6.500000 -1.500000
v 0.500000 7.500000 -1.500000
vt 0.999900 0.000100
vt 0.999900 0.999900
vt 0.000100 0.999900
vt 0.000100 0.000100
vt 0.999900 0.999900
vt 0.000100 0.999900
vt 0.000100 0.000100
vt 0.999900 0.000100
vt 0.999900 0.999900
vt 0.000100 0.999900
vt 0.000100 0.000100
vt 0.999900 0.000100
vt 0.000100 0.999900
vt 0.999900 0.000100
vt 0.999900 0.999900
vt 0.000100 0.999900
vt 0.000100 0.000100
vt 0.000100 0.999900
vt 0.000100 0.000100
vt 0.999900 0.000100
vt 0.999900 0.999900
vt 0.000100 0.999900
vt 0.000100 0.000100
vt 0.999900 0.000100
vt 0.999900 0.000100
vt 0.999900 0.999900
vt 0.000100 0.999900
vt 0.999900 0.000100
vt 0.999900 0.999900
vt 0.000100 0.999900
vt 0.000100 0.000100
vt 0.999900 0.999900
vt 0.000100 0.999900
vt 0.000100 0.000100
vt 0.999900 0.000100
vt 0.999900 0.999900
vt 0.000100 0.999900
vt 0.000100 0.000100
vt 0.999900 0.000100
vt 0.999900 0.999900
vt 0.000100 0.999900
vt 0.000100 0.000100
vt 0.000100 0.999900
vt 0.000100 0.000100
vt 0.999900 0.000100
vt 0.999900 0.999900
vt 0.000100 0.999900
vt 0.000100 0.000100
vt 0.999900 0.000100
vt 0.999900 0.000100
vt 0.999900 0.999900
vt 0.000100 0.999900
vt 0.000100 0.000100
vt 0.999900 0.999900
vt 0.000100 0.999900
vt 0.000100 0.000100
vt 0.999900 0.000100
vt 0.999900 0.999900
vt 0.000100 0.999900
vt 0.000100 0.000100
vt 0.999900 0.000100
vt 0.999900 0.999900
vt 0.000100 0.999900
vt 0.000100 0.000100
vt 0.000100 0.999900
vt 0.000100 0.000100
vt 0.999900 0.000100
vt 0.999900 0.999900
vt 0.000100 0.999900
vt 0.000100 0.000100
vt 0.999900 0.000100
vt 0.999900 0.000100
vt 0.999900 0.999900
vt 0.000100 0.999900
vt 0.000100 0.000100
vt 0.999900 0.999900
vt 0.000100 0.999900
vt 0.000100 0.000100
vt 0.999900 0.000100
vt 0.999900 0.999900
vt 0.000100 0.999900
vt 0.000100 0.000100
vt 0.999900 0.000100
vt 0.999900 0.999900
vt 0.000100 0.999900
vt 0.000100 0.000100
vt 0.000100 0.999900
vt 0.000100 0.000100
vt 0.999900 0.000100
vt 0.999900 0.999900
vt 0.000100 0.999900
vt 0.000100 0.000100
vt 0.999900 0.000100
vt 0.999900 0.000100
vt 0.999900 0.999900
vt 0.000100 0.999900
vt 0.000100 0.000100
vt 0.999900 0.999900
vt 0.000100 0.999900
vt 0.000100 0.000100
vt 0.999900 0.000100
vt 0.999900 0.999900
vt 0.000100 0.999900
vt 0.000100 0.000100
vt 0.999900 0.000100
vt 0.999900 0.999900
vt 0.000100 0.999900
vt 0.000100 0.000100
vt 0.000100 0.999900
vt 0.000100 0.000100
vt 0.999900 0.000100
vt 0.999900 0.999900
vt 0.000100 0.999900
vt 0.000100 0.000100
vt 0.999900 0.000100
vt 0.999900 0.000100
vt 0.999900 0.999900
vt 0.000100 0.999900
vt 0.000100 0.000100
vt 0.999900 0.999900
vt 0.000100 0.999900
vt 0.000100 0.000100
vt 0.999900 0.000100
vt 0.999900 0.999900
vt 0.000100 0.999900
vt 0.000100 0.000100
vt 0.999900 0.000100
vt 0.999900 0.999900
vt 0.000100 0.999900
vt 0.000100 0.000100
vt 0.000100 0.999900
vt 0.000100 0.000100
vt 0.999900 0.000100
vt 0.999900 0.999900
vt 0.000100 0.999900
vt 0.000100 0.000100
vt 0.999900 0.000100
vt 0.999900 0.000100
vt 0.999900 0.999900
vt 0.000100 0.999900
vt 0.000100 0.000100
vt 0.999900 0.999900
vt 0.000100 0.999900
vt 0.000100 0.000100
vt 0.999900 0.000100
vt 0.999900 0.999900
vt 0.000100 0.999900
vt 0.000100 0.000100
vt 0.999900 0.000100
vt 0.999900 0.999900
vt 0.000100 0.999900
vt 0.000100 0.000100
vt 0.000100 0.999900
vt 0.000100 0.000100
vt 0.999900 0.000100
vt 0.999900 0.999900
vt 0.000100 0.999900
vt 0.000100 0.000100
vt 0.999900 0.000100
vt 0.999900 0.000100
vt 0.999900 0.999900
vt 0.000100 0.999900
vt 0.000100 0.000100
vt 0.999900 0.999900
vt 0.000100 0.999900
vt 0.000100 0.000100
vt 0.999900 0.000100
vt 0.999900 0.999900
vt 0.000100 0.999900
vt 0.000100 0.000100
vt 0.999900 0.999900
vt 0.999900 0.000100
vt 0.999900 0.000100
vt 0.999900 0.999900
vt 0.000100 0.999900
vt 0.000100 0.000100
vt 0.000100 0.999900
vt 0.000100 0.000100
vt 0.999900 0.000100
vt 0.999900 0.999900
vt 0.000100 0.999900
vt 0.000100 0.000100
vt 0.999900 0.000100
vt 0.999900 0.999900
vt 0.000100 0.000100
vt 0.999900 0.000100
vn -1.0000 0.0000 0.0000
vn 1.0000 0.0000 0.0000
vn 0.0000 0.0000 1.0000
vn 0.0000 -1.0000 0.0000
vn 0.0000 0.0000 -1.0000
vn 0.0000 1.0000 0.0000
usemtl Grid.002
s off
f 1/1/1 2/2/1 4/3/1 3/4/1
f 7/5/2 8/6/2 6/7/2 5/8/2
f 5/9/3 6/10/3 2/11/3 1/1/3
f 3/4/4 7/12/4 5/9/4 1/13/4
f 9/14/1 10/15/1 12/16/1 11/17/1
f 11/18/5 12/19/5 16/20/5 15/21/5
f 15/21/2 16/22/2 14/23/2 13/24/2
f 11/17/4 15/25/4 13/26/4 9/27/4
f 17/28/1 18/29/1 20/30/1 19/31/1
f 23/32/2 24/33/2 22/34/2 21/35/2
f 21/36/3 22/37/3 18/38/3 17/28/3
f 25/39/1 26/40/1 28/41/1 27/42/1
f 27/43/5 28/44/5 32/45/5 31/46/5
f 31/46/2 32/47/2 30/48/2 29/49/2
f 33/50/1 34/51/1 36/52/1 35/53/1
f 39/54/2 40/55/2 38/56/2 37/57/2
f 37/58/3 38/59/3 34/60/3 33/50/3
f 41/61/1 42/62/1 44/63/1 43/64/1
f 43/65/5 44/66/5 48/67/5 47/68/5
f 47/68/2 48/69/2 46/70/2 45/71/2
f 49/72/1 50/73/1 52/74/1 51/75/1
f 55/76/2 56/77/2 54/78/2 53/79/2
f 53/80/3 54/81/3 50/82/3 49/72/3
f 57/83/1 58/84/1 60/85/1 59/86/1
f 59/87/5 60/88/5 64/89/5 63/90/5
f 63/90/2 64/91/2 62/92/2 61/93/2
f 65/94/1 66/95/1 68/96/1 67/97/1
f 71/98/2 72/99/2 70/100/2 69/101/2
f 69/102/3 70/103/3 66/104/3 65/94/3
f 73/105/1 74/106/1 76/107/1 75/108/1
f 75/109/5 76/110/5 80/111/5 79/112/5
f 79/112/2 80/113/2 78/114/2 77/115/2
f 81/116/1 82/117/1 84/118/1 83/119/1
f 87/120/2 88/121/2 86/122/2 85/123/2
f 85/124/3 86/125/3 82/126/3 81/116/3
f 89/127/1 90/128/1 92/129/1 91/130/1
f 91/131/5 92/132/5 96/133/5 95/134/5
f 95/134/2 96/135/2 94/136/2 93/137/2
f 97/138/1 98/139/1 100/140/1 99/141/1
f 103/142/2 104/143/2 102/144/2 101/145/2
f 101/146/3 102/147/3 98/148/3 97/138/3
f 105/149/1 106/150/1 108/151/1 107/152/1
f 107/153/5 108/154/5 112/155/5 111/156/5
f 111/156/2 112/157/2 110/158/2 109/159/2
f 113/160/1 114/161/1 116/162/1 115/163/1
f 119/164/2 120/165/2 118/166/2 117/167/2
f 117/168/3 118/169/3 114/170/3 113/160/3
f 120/171/6 116/162/6 114/170/6 118/172/6
f 121/173/1 122/174/1 124/175/1 123/176/1
f 123/177/5 124/178/5 128/179/5 127/180/5
f 127/180/2 128/181/2 126/182/2 125/183/2
f 128/184/6 124/175/6 122/185/6 126/186/6
