# Blender v2.93.0 OBJ File: 'devshapes.blend'
# www.blender.org
mtllib Block_4x8x2.mtl
o Block_4x8x2_Cube.201
v -0.500000 -0.500000 0.500000
v -0.500000 0.500000 0.500000
v -0.500000 -0.500000 -0.500000
v -0.500000 0.500000 -0.500000
v 0.500000 -0.500000 0.500000
v 0.500000 0.500000 0.500000
v 0.500000 -0.500000 -0.500000
v 0.500000 -0.500000 0.500000
v 0.500000 0.500000 0.500000
v 0.500000 -0.500000 -0.500000
v 1.500000 -0.500000 0.500000
v 1.500000 0.500000 0.500000
v 1.500000 -0.500000 -0.500000
v 1.500000 -0.500000 0.500000
v 1.500000 0.500000 0.500000
v 1.500000 -0.500000 -0.500000
v 2.500000 -0.500000 0.500000
v 2.500000 0.500000 0.500000
v 2.500000 -0.500000 -0.500000
v 2.500000 -0.500000 0.500000
v 2.500000 0.500000 0.500000
v 2.500000 -0.500000 -0.500000
v 3.500000 -0.500000 0.500000
v 3.500000 0.500000 0.500000
v 3.500000 -0.500000 -0.500000
v 3.500000 0.500000 -0.500000
v -0.500000 -0.500000 -0.500000
v -0.500000 0.500000 -0.500000
v -0.500000 -0.500000 -1.500000
v -0.500000 0.500000 -1.500000
v 0.500000 -0.500000 -0.500000
v 0.500000 -0.500000 -1.500000
v 0.500000 -0.500000 -0.500000
v 0.500000 -0.500000 -1.500000
v 1.500000 -0.500000 -0.500000
v 1.500000 -0.500000 -1.500000
v 1.500000 -0.500000 -0.500000
v 1.500000 -0.500000 -1.500000
v 2.500000 -0.500000 -0.500000
v 2.500000 -0.500000 -1.500000
v 2.500000 -0.500000 -0.500000
v 2.500000 -0.500000 -1.500000
v 3.500000 -0.500000 -0.500000
v 3.500000 0.500000 -0.500000
v 3.500000 -0.500000 -1.500000
v 3.500000 0.500000 -1.500000
v -0.500000 -0.500000 -1.500000
v -0.500000 0.500000 -1.500000
v -0.500000 -0.500000 -2.500000
v -0.500000 0.500000 -2.500000
v 0.500000 -0.500000 -1.500000
v 0.500000 -0.500000 -2.500000
v 0.500000 -0.500000 -1.500000
v 0.500000 -0.500000 -2.500000
v 1.500000 -0.500000 -1.500000
v 1.500000 -0.500000 -2.500000
v 1.500000 -0.500000 -1.500000
v 1.500000 -0.500000 -2.500000
v 2.500000 -0.500000 -1.500000
v 2.500000 -0.500000 -2.500000
v 2.500000 -0.500000 -1.500000
v 2.500000 -0.500000 -2.500000
v 3.500000 -0.500000 -1.500000
v 3.500000 0.500000 -1.500000
v 3.500000 -0.500000 -2.500000
v 3.500000 0.500000 -2.500000
v -0.500000 -0.500000 -2.500000
v -0.500000 0.500000 -2.500000
v -0.500000 -0.500000 -3.500000
v -0.500000 0.500000 -3.500000
v 0.500000 -0.500000 -2.500000
v 0.500000 -0.500000 -3.500000
v 0.500000 -0.500000 -2.500000
v 0.500000 -0.500000 -3.500000
v 1.500000 -0.500000 -2.500000
v 1.500000 -0.500000 -3.500000
v 1.500000 -0.500000 -2.500000
v 1.500000 -0.500000 -3.500000
v 2.500000 -0.500000 -2.500000
v 2.500000 -0.500000 -3.500000
v 2.500000 -0.500000 -2.500000
v 2.500000 -0.500000 -3.500000
v 3.500000 -0.500000 -2.500000
v 3.500000 0.500000 -2.500000
v 3.500000 -0.500000 -3.500000
v 3.500000 0.500000 -3.500000
v -0.500000 -0.500000 -3.500000
v -0.500000 0.500000 -3.500000
v -0.500000 -0.500000 -4.500000
v -0.500000 0.500000 -4.500000
v 0.500000 -0.500000 -3.500000
v 0.500000 -0.500000 -4.500000
v 0.500000 -0.500000 -3.500000
v 0.500000 -0.500000 -4.500000
v 1.500000 -0.500000 -3.500000
v 1.500000 -0.500000 -4.500000
v 1.500000 -0.500000 -3.500000
v 1.500000 -0.500000 -4.500000
v 2.500000 -0.500000 -3.500000
v 2.500000 -0.500000 -4.500000
v 2.500000 -0.500000 -3.500000
v 2.500000 -0.500000 -4.500000
v 3.500000 -0.500000 -3.500000
v 3.500000 0.500000 -3.500000
v 3.500000 -0.500000 -4.500000
v 3.500000 0.500000 -4.500000
v -0.500000 -0.500000 -4.500000
v -0.500000 0.500000 -4.500000
v -0.500000 -0.500000 -5.500000
v -0.500000 0.500000 -5.500000
v 0.500000 -0.500000 -4.500000
v 0.500000 -0.500000 -5.500000
v 0.500000 -0.500000 -4.500000
v 0.500000 -0.500000 -5.500000
v 1.500000 -0.500000 -4.500000
v 1.500000 -0.500000 -5.500000
v 1.500000 -0.500000 -4.500000
v 1.500000 -0.500000 -5.500000
v 2.500000 -0.500000 -4.500000
v 2.500000 -0.500000 -5.500000
v 2.500000 -0.500000 -4.500000
v 2.500000 -0.500000 -5.500000
v 3.500000 -0.500000 -4.500000
v 3.500000 0.500000 -4.500000
v 3.500000 -0.500000 -5.500000
v 3.500000 0.500000 -5.500000
v -0.500000 -0.500000 -5.500000
v -0.500000 0.500000 -5.500000
v -0.500000 -0.500000 -6.500000
v -0.500000 0.500000 -6.500000
v 0.500000 -0.500000 -5.500000
v 0.500000 -0.500000 -6.500000
v 0.500000 -0.500000 -5.500000
v 0.500000 -0.500000 -6.500000
v 1.500000 -0.500000 -5.500000
v 1.500000 -0.500000 -6.500000
v 1.500000 -0.500000 -5.500000
v 1.500000 -0.500000 -6.500000
v 2.500000 -0.500000 -5.500000
v 2.500000 -0.500000 -6.500000
v 2.500000 -0.500000 -5.500000
v 2.500000 -0.500000 -6.500000
v 3.500000 -0.500000 -5.500000
v 3.500000 0.500000 -5.500000
v 3.500000 -0.500000 -6.500000
v 3.500000 0.500000 -6.500000
v -0.500000 -0.500000 -6.500000
v -0.500000 0.500000 -6.500000
v -0.500000 -0.500000 -7.500000
v -0.500000 0.500000 -7.500000
v 0.500000 -0.500000 -6.500000
v 0.500000 -0.500000 -7.500000
v 0.500000 0.500000 -7.500000
v 0.500000 -0.500000 -6.500000
v 0.500000 -0.500000 -7.500000
v 0.500000 0.500000 -7.500000
v 1.500000 -0.500000 -6.500000
v 1.500000 -0.500000 -7.500000
v 1.500000 0.500000 -7.500000
v 1.500000 -0.500000 -6.500000
v 1.500000 -0.500000 -7.500000
v 1.500000 0.500000 -7.500000
v 2.500000 -0.500000 -6.500000
v 2.500000 -0.500000 -7.500000
v 2.500000 0.500000 -7.500000
v 2.500000 -0.500000 -6.500000
v 2.500000 -0.500000 -7.500000
v 2.500000 0.500000 -7.500000
v 3.500000 -0.500000 -6.500000
v 3.500000 0.500000 -6.500000
v 3.500000 -0.500000 -7.500000
v 3.500000 0.500000 -7.500000
v -0.500000 0.500000 0.500000
v -0.500000 1.500000 0.500000
v -0.500000 0.500000 -0.500000
v -0.500000 1.500000 -0.500000
v 0.500000 0.500000 0.500000
v 0.500000 1.500000 0.500000
v 0.500000 1.500000 -0.500000
v 0.500000 0.500000 0.500000
v 0.500000 1.500000 0.500000
v 0.500000 1.500000 -0.500000
v 1.500000 0.500000 0.500000
v 1.500000 1.500000 0.500000
v 1.500000 1.500000 -0.500000
v 1.500000 0.500000 0.500000
v 1.500000 1.500000 0.500000
v 1.500000 1.500000 -0.500000
v 2.500000 0.500000 0.500000
v 2.500000 1.500000 0.500000
v 2.500000 1.500000 -0.500000
v 2.500000 0.500000 0.500000
v 2.500000 1.500000 0.500000
v 2.500000 1.500000 -0.500000
v 3.500000 0.500000 0.500000
v 3.500000 1.500000 0.500000
v 3.500000 0.500000 -0.500000
v 3.500000 1.500000 -0.500000
v -0.500000 0.500000 -0.500000
v -0.500000 1.500000 -0.500000
v -0.500000 0.500000 -1.500000
v -0.500000 1.500000 -1.500000
v 0.500000 1.500000 -0.500000
v 0.500000 1.500000 -1.500000
v 0.500000 1.500000 -0.500000
v 0.500000 1.500000 -1.500000
v 1.500000 1.500000 -0.500000
v 1.500000 1.500000 -1.500000
v 1.500000 1.500000 -0.500000
v 1.500000 1.500000 -1.500000
v 2.500000 1.500000 -0.500000
v 2.500000 1.500000 -1.500000
v 2.500000 1.500000 -0.500000
v 2.500000 1.500000 -1.500000
v 3.500000 0.500000 -0.500000
v 3.500000 1.500000 -0.500000
v 3.500000 0.500000 -1.500000
v 3.500000 1.500000 -1.500000
v -0.500000 0.500000 -1.500000
v -0.500000 1.500000 -1.500000
v -0.500000 0.500000 -2.500000
v -0.500000 1.500000 -2.500000
v 0.500000 1.500000 -1.500000
v 0.500000 1.500000 -2.500000
v 0.500000 1.500000 -1.500000
v 0.500000 1.500000 -2.500000
v 1.500000 1.500000 -1.500000
v 1.500000 1.500000 -2.500000
v 1.500000 1.500000 -1.500000
v 1.500000 1.500000 -2.500000
v 2.500000 1.500000 -1.500000
v 2.500000 1.500000 -2.500000
v 2.500000 1.500000 -1.500000
v 2.500000 1.500000 -2.500000
v 3.500000 0.500000 -1.500000
v 3.500000 1.500000 -1.500000
v 3.500000 0.500000 -2.500000
v 3.500000 1.500000 -2.500000
v -0.500000 0.500000 -2.500000
v -0.500000 1.500000 -2.500000
v -0.500000 0.500000 -3.500000
v -0.500000 1.500000 -3.500000
v 0.500000 1.500000 -2.500000
v 0.500000 1.500000 -3.500000
v 0.500000 1.500000 -2.500000
v 0.500000 1.500000 -3.500000
v 1.500000 1.500000 -2.500000
v 1.500000 1.500000 -3.500000
v 1.500000 1.500000 -2.500000
v 1.500000 1.500000 -3.500000
v 2.500000 1.500000 -2.500000
v 2.500000 1.500000 -3.500000
v 2.500000 1.500000 -2.500000
v 2.500000 1.500000 -3.500000
v 3.500000 0.500000 -2.500000
v 3.500000 1.500000 -2.500000
v 3.500000 0.500000 -3.500000
v 3.500000 1.500000 -3.500000
v -0.500000 0.500000 -3.500000
v -0.500000 1.500000 -3.500000
v -0.500000 0.500000 -4.500000
v -0.500000 1.500000 -4.500000
v 0.500000 1.500000 -3.500000
v 0.500000 1.500000 -4.500000
v 0.500000 1.500000 -3.500000
v 0.500000 1.500000 -4.500000
v 1.500000 1.500000 -3.500000
v 1.500000 1.500000 -4.500000
v 1.500000 1.500000 -3.500000
v 1.500000 1.500000 -4.500000
v 2.500000 1.500000 -3.500000
v 2.500000 1.500000 -4.500000
v 2.500000 1.500000 -3.500000
v 2.500000 1.500000 -4.500000
v 3.500000 0.500000 -3.500000
v 3.500000 1.500000 -3.500000
v 3.500000 0.500000 -4.500000
v 3.500000 1.500000 -4.500000
v -0.500000 0.500000 -4.500000
v -0.500000 1.500000 -4.500000
v -0.500000 0.500000 -5.500000
v -0.500000 1.500000 -5.500000
v 0.500000 1.500000 -4.500000
v 0.500000 1.500000 -5.500000
v 0.500000 1.500000 -4.500000
v 0.500000 1.500000 -5.500000
v 1.500000 1.500000 -4.500000
v 1.500000 1.500000 -5.500000
v 1.500000 1.500000 -4.500000
v 1.500000 1.500000 -5.500000
v 2.500000 1.500000 -4.500000
v 2.500000 1.500000 -5.500000
v 2.500000 1.500000 -4.500000
v 2.500000 1.500000 -5.500000
v 3.500000 0.500000 -4.500000
v 3.500000 1.500000 -4.500000
v 3.500000 0.500000 -5.500000
v 3.500000 1.500000 -5.500000
v -0.500000 0.500000 -5.500000
v -0.500000 1.500000 -5.500000
v -0.500000 0.500000 -6.500000
v -0.500000 1.500000 -6.500000
v 0.500000 1.500000 -5.500000
v 0.500000 1.500000 -6.500000
v 0.500000 1.500000 -5.500000
v 0.500000 1.500000 -6.500000
v 1.500000 1.500000 -5.500000
v 1.500000 1.500000 -6.500000
v 1.500000 1.500000 -5.500000
v 1.500000 1.500000 -6.500000
v 2.500000 1.500000 -5.500000
v 2.500000 1.500000 -6.500000
v 2.500000 1.500000 -5.500000
v 2.500000 1.500000 -6.500000
v 3.500000 0.500000 -5.500000
v 3.500000 1.500000 -5.500000
v 3.500000 0.500000 -6.500000
v 3.500000 1.500000 -6.500000
v -0.500000 0.500000 -6.500000
v -0.500000 1.500000 -6.500000
v -0.500000 0.500000 -7.500000
v -0.500000 1.500000 -7.500000
v 0.500000 1.500000 -6.500000
v 0.500000 0.500000 -7.500000
v 0.500000 1.500000 -7.500000
v 0.500000 1.500000 -6.500000
v 0.500000 0.500000 -7.500000
v 0.500000 1.500000 -7.500000
v 1.500000 1.500000 -6.500000
v 1.500000 0.500000 -7.500000
v 1.500000 1.500000 -7.500000
v 1.500000 1.500000 -6.500000
v 1.500000 0.500000 -7.500000
v 1.500000 1.500000 -7.500000
v 2.500000 1.500000 -6.500000
v 2.500000 0.500000 -7.500000
v 2.500000 1.500000 -7.500000
v 2.500000 1.500000 -6.500000
v 2.500000 0.500000 -7.500000
v 2.500000 1.500000 -7.500000
v 3.500000 0.500000 -6.500000
v 3.500000 1.500000 -6.500000
v 3.500000 0.500000 -7.500000
v 3.500000 1.500000 -7.500000
vt 0.999900 0.000100
vt 0.999900 0.999900
vt 0.000100 0.999900
vt 0.000100 0.000100
vt 0.999900 0.999900
vt 0.000100 0.999900
vt 0.000100 0.000100
vt 0.999900 0.000100
vt 0.000100 0.999900
vt 0.999900 0.999900
vt 0.000100 0.999900
vt 0.000100 0.000100
vt 0.999900 0.000100
vt 0.000100 0.000100
vt 0.999900 0.000100
vt 0.000100 0.999900
vt 0.999900 0.999900
vt 0.000100 0.999900
vt 0.000100 0.000100
vt 0.999900 0.000100
vt 0.000100 0.000100
vt 0.999900 0.000100
vt 0.000100 0.999900
vt 0.999900 0.999900
vt 0.000100 0.999900
vt 0.000100 0.000100
vt 0.999900 0.000100
vt 0.999900 0.999900
vt 0.000100 0.999900
vt 0.000100 0.000100
vt 0.999900 0.000100
vt 0.000100 0.000100
vt 0.999900 0.000100
vt 0.000100 0.999900
vt 0.999900 0.000100
vt 0.999900 0.999900
vt 0.000100 0.999900
vt 0.000100 0.000100
vt 0.999900 0.000100
vt 0.999900 0.999900
vt 0.000100 0.999900
vt 0.000100 0.000100
vt 0.999900 0.000100
vt 0.999900 0.999900
vt 0.000100 0.999900
vt 0.000100 0.000100
vt 0.999900 0.000100
vt 0.999900 0.999900
vt 0.000100 0.999900
vt 0.999900 0.999900
vt 0.000100 0.999900
vt 0.000100 0.000100
vt 0.999900 0.000100
vt 0.000100 0.000100
vt 0.999900 0.000100
vt 0.999900 0.999900
vt 0.000100 0.999900
vt 0.999900 0.000100
vt 0.999900 0.999900
vt 0.000100 0.999900
vt 0.000100 0.000100
vt 0.999900 0.000100
vt 0.999900 0.999900
vt 0.000100 0.999900
vt 0.000100 0.000100
vt 0.999900 0.000100
vt 0.999900 0.999900
vt 0.000100 0.999900
vt 0.000100 0.000100
vt 0.999900 0.000100
vt 0.999900 0.999900
vt 0.000100 0.999900
vt 0.999900 0.999900
vt 0.000100 0.999900
vt 0.000100 0.000100
vt 0.999900 0.000100
vt 0.000100 0.000100
vt 0.999900 0.000100
vt 0.999900 0.999900
vt 0.000100 0.999900
vt 0.999900 0.000100
vt 0.999900 0.999900
vt 0.000100 0.999900
vt 0.000100 0.000100
vt 0.999900 0.000100
vt 0.999900 0.999900
vt 0.000100 0.999900
vt 0.000100 0.000100
vt 0.999900 0.000100
vt 0.999900 0.999900
vt 0.000100 0.999900
vt 0.000100 0.000100
vt 0.999900 0.000100
vt 0.999900 0.999900
vt 0.000100 0.999900
vt 0.999900 0.999900
vt 0.000100 0.999900
vt 0.000100 0.000100
vt 0.999900 0.000100
vt 0.000100 0.000100
vt 0.999900 0.000100
vt 0.999900 0.999900
vt 0.000100 0.999900
vt 0.999900 0.000100
vt 0.999900 0.999900
vt 0.000100 0.999900
vt 0.000100 0.000100
vt 0.999900 0.000100
vt 0.999900 0.999900
vt 0.000100 0.999900
vt 0.000100 0.000100
vt 0.999900 0.000100
vt 0.999900 0.999900
vt 0.000100 0.999900
vt 0.000100 0.000100
vt 0.999900 0.000100
vt 0.999900 0.999900
vt 0.000100 0.999900
vt 0.999900 0.999900
vt 0.000100 0.999900
vt 0.000100 0.000100
vt 0.999900 0.000100
vt 0.000100 0.000100
vt 0.999900 0.000100
vt 0.999900 0.999900
vt 0.000100 0.999900
vt 0.999900 0.000100
vt 0.999900 0.999900
vt 0.000100 0.999900
vt 0.000100 0.000100
vt 0.999900 0.000100
vt 0.999900 0.999900
vt 0.000100 0.999900
vt 0.000100 0.000100
vt 0.999900 0.000100
vt 0.999900 0.999900
vt 0.000100 0.999900
vt 0.000100 0.000100
vt 0.999900 0.000100
vt 0.999900 0.999900
vt 0.000100 0.999900
vt 0.999900 0.999900
vt 0.000100 0.999900
vt 0.000100 0.000100
vt 0.999900 0.000100
vt 0.000100 0.000100
vt 0.999900 0.000100
vt 0.999900 0.999900
vt 0.000100 0.999900
vt 0.999900 0.000100
vt 0.999900 0.999900
vt 0.000100 0.999900
vt 0.000100 0.000100
vt 0.999900 0.000100
vt 0.999900 0.999900
vt 0.000100 0.999900
vt 0.000100 0.000100
vt 0.999900 0.000100
vt 0.999900 0.999900
vt 0.000100 0.999900
vt 0.000100 0.000100
vt 0.999900 0.000100
vt 0.999900 0.999900
vt 0.000100 0.999900
vt 0.999900 0.999900
vt 0.000100 0.999900
vt 0.000100 0.000100
vt 0.999900 0.000100
vt 0.000100 0.000100
vt 0.999900 0.000100
vt 0.999900 0.999900
vt 0.000100 0.999900
vt 0.999900 0.000100
vt 0.999900 0.999900
vt 0.000100 0.999900
vt 0.000100 0.000100
vt 0.000100 0.999900
vt 0.000100 0.000100
vt 0.999900 0.000100
vt 0.999900 0.999900
vt 0.999900 0.000100
vt 0.999900 0.999900
vt 0.000100 0.999900
vt 0.000100 0.999900
vt 0.000100 0.000100
vt 0.999900 0.000100
vt 0.999900 0.999900
vt 0.000100 0.000100
vt 0.999900 0.000100
vt 0.999900 0.999900
vt 0.000100 0.999900
vt 0.000100 0.999900
vt 0.000100 0.000100
vt 0.999900 0.000100
vt 0.999900 0.999900
vt 0.000100 0.000100
vt 0.999900 0.000100
vt 0.999900 0.999900
vt 0.000100 0.999900
vt 0.000100 0.999900
vt 0.000100 0.000100
vt 0.999900 0.000100
vt 0.999900 0.999900
vt 0.000100 0.999900
vt 0.000100 0.000100
vt 0.999900 0.000100
vt 0.000100 0.000100
vt 0.999900 0.000100
vt 0.999900 0.999900
vt 0.000100 0.999900
vt 0.999900 0.000100
vt 0.999900 0.999900
vt 0.000100 0.999900
vt 0.000100 0.000100
vt 0.999900 0.999900
vt 0.000100 0.999900
vt 0.000100 0.000100
vt 0.999900 0.999900
vt 0.999900 0.000100
vt 0.999900 0.999900
vt 0.000100 0.999900
vt 0.000100 0.000100
vt 0.999900 0.000100
vt 0.999900 0.999900
vt 0.000100 0.999900
vt 0.999900 0.000100
vt 0.999900 0.999900
vt 0.000100 0.999900
vt 0.000100 0.000100
vt 0.999900 0.000100
vt 0.999900 0.999900
vt 0.000100 0.999900
vt 0.999900 0.000100
vt 0.999900 0.999900
vt 0.000100 0.999900
vt 0.000100 0.000100
vt 0.999900 0.000100
vt 0.999900 0.999900
vt 0.000100 0.999900
vt 0.000100 0.000100
vt 0.999900 0.000100
vt 0.999900 0.999900
vt 0.000100 0.999900
vt 0.999900 0.000100
vt 0.999900 0.000100
vt 0.999900 0.999900
vt 0.000100 0.999900
vt 0.000100 0.000100
vt 0.999900 0.999900
vt 0.000100 0.000100
vt 0.999900 0.000100
vt 0.999900 0.999900
vt 0.000100 0.999900
vt 0.000100 0.000100
vt 0.999900 0.000100
vt 0.999900 0.999900
vt 0.000100 0.999900
vt 0.000100 0.000100
vt 0.999900 0.000100
vt 0.999900 0.999900
vt 0.000100 0.999900
vt 0.000100 0.000100
vt 0.999900 0.000100
vt 0.999900 0.999900
vt 0.000100 0.999900
vt 0.000100 0.000100
vt 0.999900 0.000100
vt 0.999900 0.000100
vt 0.999900 0.999900
vt 0.000100 0.999900
vt 0.000100 0.000100
vt 0.999900 0.999900
vt 0.000100 0.000100
vt 0.999900 0.000100
vt 0.999900 0.999900
vt 0.000100 0.999900
vt 0.000100 0.000100
vt 0.999900 0.000100
vt 0.999900 0.999900
vt 0.000100 0.999900
vt 0.000100 0.000100
vt 0.999900 0.000100
vt 0.999900 0.999900
vt 0.000100 0.999900
vt 0.000100 0.000100
vt 0.999900 0.000100
vt 0.999900 0.999900
vt 0.000100 0.999900
vt 0.000100 0.000100
vt 0.999900 0.000100
vt 0.999900 0.000100
vt 0.999900 0.999900
vt 0.000100 0.999900
vt 0.000100 0.000100
vt 0.999900 0.999900
vt 0.000100 0.000100
vt 0.999900 0.000100
vt 0.999900 0.999900
vt 0.000100 0.999900
vt 0.000100 0.000100
vt 0.999900 0.000100
vt 0.999900 0.999900
vt 0.000100 0.999900
vt 0.000100 0.000100
vt 0.999900 0.000100
vt 0.999900 0.999900
vt 0.000100 0.999900
vt 0.000100 0.000100
vt 0.999900 0.000100
vt 0.999900 0.999900
vt 0.000100 0.999900
vt 0.000100 0.000100
vt 0.999900 0.000100
vt 0.999900 0.000100
vt 0.999900 0.999900
vt 0.000100 0.999900
vt 0.000100 0.000100
vt 0.999900 0.999900
vt 0.000100 0.000100
vt 0.999900 0.000100
vt 0.999900 0.999900
vt 0.000100 0.999900
vt 0.000100 0.000100
vt 0.999900 0.000100
vt 0.999900 0.999900
vt 0.000100 0.999900
vt 0.000100 0.000100
vt 0.999900 0.000100
vt 0.999900 0.999900
vt 0.000100 0.999900
vt 0.000100 0.000100
vt 0.999900 0.000100
vt 0.999900 0.999900
vt 0.000100 0.999900
vt 0.000100 0.000100
vt 0.999900 0.000100
vt 0.999900 0.000100
vt 0.999900 0.999900
vt 0.000100 0.999900
vt 0.000100 0.000100
vt 0.999900 0.999900
vt 0.000100 0.000100
vt 0.999900 0.000100
vt 0.999900 0.999900
vt 0.000100 0.999900
vt 0.000100 0.000100
vt 0.999900 0.000100
vt 0.999900 0.999900
vt 0.000100 0.999900
vt 0.000100 0.000100
vt 0.999900 0.000100
vt 0.999900 0.999900
vt 0.000100 0.999900
vt 0.000100 0.000100
vt 0.999900 0.000100
vt 0.999900 0.999900
vt 0.000100 0.999900
vt 0.000100 0.000100
vt 0.999900 0.000100
vt 0.999900 0.000100
vt 0.999900 0.999900
vt 0.000100 0.999900
vt 0.000100 0.000100
vt 0.999900 0.999900
vt 0.000100 0.000100
vt 0.999900 0.000100
vt 0.999900 0.999900
vt 0.000100 0.999900
vt 0.000100 0.000100
vt 0.999900 0.000100
vt 0.999900 0.999900
vt 0.000100 0.999900
vt 0.000100 0.000100
vt 0.999900 0.000100
vt 0.999900 0.999900
vt 0.000100 0.999900
vt 0.000100 0.000100
vt 0.999900 0.000100
vt 0.999900 0.999900
vt 0.000100 0.999900
vt 0.000100 0.000100
vt 0.999900 0.000100
vt 0.999900 0.000100
vt 0.999900 0.999900
vt 0.000100 0.999900
vt 0.000100 0.000100
vt 0.000100 0.999900
vt 0.000100 0.000100
vt 0.999900 0.000100
vt 0.999900 0.999900
vt 0.999900 0.999900
vt 0.000100 0.000100
vt 0.999900 0.000100
vt 0.000100 0.999900
vt 0.000100 0.000100
vt 0.999900 0.000100
vt 0.999900 0.999900
vt 0.999900 0.999900
vt 0.000100 0.999900
vt 0.000100 0.000100
vt 0.999900 0.000100
vt 0.000100 0.999900
vt 0.000100 0.000100
vt 0.999900 0.000100
vt 0.999900 0.999900
vt 0.999900 0.999900
vt 0.000100 0.999900
vt 0.000100 0.000100
vt 0.999900 0.000100
vt 0.000100 0.999900
vt 0.000100 0.000100
vt 0.999900 0.000100
vt 0.999900 0.999900
vt 0.000100 0.999900
vt 0.000100 0.000100
vt 0.999900 0.000100
vt 0.999900 0.999900
vt 0.000100 0.999900
vt 0.000100 0.000100
vt 0.999900 0.000100
vn -1.0000 0.0000 0.0000
vn 0.0000 0.0000 1.0000
vn 0.0000 -1.0000 0.0000
vn 1.0000 0.0000 0.0000
vn 0.0000 0.0000 -1.0000
vn 0.0000 1.0000 0.0000
usemtl Grid.002
s off
f 1/1/1 2/2/1 4/3/1 3/4/1
f 5/5/2 6/6/2 2/7/2 1/1/2
f 3/4/3 7/8/3 5/5/3 1/9/3
f 11/10/2 12/11/2 9/12/2 8/13/2
f 10/14/3 13/15/3 11/10/3 8/16/3
f 17/17/2 18/18/2 15/19/2 14/20/2
f 16/21/3 19/22/3 17/17/3 14/23/3
f 25/24/4 26/25/4 24/26/4 23/27/4
f 23/28/2 24/29/2 21/30/2 20/31/2
f 22/32/3 25/33/3 23/28/3 20/34/3
f 27/35/1 28/36/1 30/37/1 29/38/1
f 29/38/3 32/39/3 31/40/3 27/41/3
f 34/42/3 36/43/3 35/44/3 33/45/3
f 38/46/3 40/47/3 39/48/3 37/49/3
f 45/50/4 46/51/4 44/52/4 43/53/4
f 42/54/3 45/55/3 43/56/3 41/57/3
f 47/58/1 48/59/1 50/60/1 49/61/1
f 49/61/3 52/62/3 51/63/3 47/64/3
f 54/65/3 56/66/3 55/67/3 53/68/3
f 58/69/3 60/70/3 59/71/3 57/72/3
f 65/73/4 66/74/4 64/75/4 63/76/4
f 62/77/3 65/78/3 63/79/3 61/80/3
f 67/81/1 68/82/1 70/83/1 69/84/1
f 69/84/3 72/85/3 71/86/3 67/87/3
f 74/88/3 76/89/3 75/90/3 73/91/3
f 78/92/3 80/93/3 79/94/3 77/95/3
f 85/96/4 86/97/4 84/98/4 83/99/4
f 82/100/3 85/101/3 83/102/3 81/103/3
f 87/104/1 88/105/1 90/106/1 89/107/1
f 89/107/3 92/108/3 91/109/3 87/110/3
f 94/111/3 96/112/3 95/113/3 93/114/3
f 98/115/3 100/116/3 99/117/3 97/118/3
f 105/119/4 106/120/4 104/121/4 103/122/4
f 102/123/3 105/124/3 103/125/3 101/126/3
f 107/127/1 108/128/1 110/129/1 109/130/1
f 109/130/3 112/131/3 111/132/3 107/133/3
f 114/134/3 116/135/3 115/136/3 113/137/3
f 118/138/3 120/139/3 119/140/3 117/141/3
f 125/142/4 126/143/4 124/144/4 123/145/4
f 122/146/3 125/147/3 123/148/3 121/149/3
f 127/150/1 128/151/1 130/152/1 129/153/1
f 129/153/3 132/154/3 131/155/3 127/156/3
f 134/157/3 136/158/3 135/159/3 133/160/3
f 138/161/3 140/162/3 139/163/3 137/164/3
f 145/165/4 146/166/4 144/167/4 143/168/4
f 142/169/3 145/170/3 143/171/3 141/172/3
f 147/173/1 148/174/1 150/175/1 149/176/1
f 149/177/5 150/178/5 153/179/5 152/180/5
f 149/176/3 152/181/3 151/182/3 147/183/3
f 155/184/5 156/185/5 159/186/5 158/187/5
f 155/188/3 158/189/3 157/190/3 154/191/3
f 161/192/5 162/193/5 165/194/5 164/195/5
f 161/196/3 164/197/3 163/198/3 160/199/3
f 167/200/5 168/201/5 172/202/5 171/203/5
f 171/203/4 172/204/4 170/205/4 169/206/4
f 167/207/3 171/208/3 169/209/3 166/210/3
f 173/211/1 174/212/1 176/213/1 175/214/1
f 177/215/2 178/216/2 174/217/2 173/211/2
f 179/218/6 176/213/6 174/217/6 178/219/6
f 183/220/2 184/221/2 181/222/2 180/223/2
f 185/224/6 182/225/6 181/222/6 184/226/6
f 189/227/2 190/228/2 187/229/2 186/230/2
f 191/231/6 188/232/6 187/229/6 190/233/6
f 197/234/4 198/235/4 196/236/4 195/237/4
f 195/238/2 196/239/2 193/240/2 192/241/2
f 198/242/6 194/243/6 193/240/6 196/244/6
f 199/245/1 200/246/1 202/247/1 201/248/1
f 204/249/6 202/247/6 200/250/6 203/251/6
f 208/252/6 206/253/6 205/254/6 207/255/6
f 212/256/6 210/257/6 209/258/6 211/259/6
f 217/260/4 218/261/4 216/262/4 215/263/4
f 218/264/6 214/265/6 213/266/6 216/267/6
f 219/268/1 220/269/1 222/270/1 221/271/1
f 224/272/6 222/270/6 220/273/6 223/274/6
f 228/275/6 226/276/6 225/277/6 227/278/6
f 232/279/6 230/280/6 229/281/6 231/282/6
f 237/283/4 238/284/4 236/285/4 235/286/4
f 238/287/6 234/288/6 233/289/6 236/290/6
f 239/291/1 240/292/1 242/293/1 241/294/1
f 244/295/6 242/293/6 240/296/6 243/297/6
f 248/298/6 246/299/6 245/300/6 247/301/6
f 252/302/6 250/303/6 249/304/6 251/305/6
f 257/306/4 258/307/4 256/308/4 255/309/4
f 258/310/6 254/311/6 253/312/6 256/313/6
f 259/314/1 260/315/1 262/316/1 261/317/1
f 264/318/6 262/316/6 260/319/6 263/320/6
f 268/321/6 266/322/6 265/323/6 267/324/6
f 272/325/6 270/326/6 269/327/6 271/328/6
f 277/329/4 278/330/4 276/331/4 275/332/4
f 278/333/6 274/334/6 273/335/6 276/336/6
f 279/337/1 280/338/1 282/339/1 281/340/1
f 284/341/6 282/339/6 280/342/6 283/343/6
f 288/344/6 286/345/6 285/346/6 287/347/6
f 292/348/6 290/349/6 289/350/6 291/351/6
f 297/352/4 298/353/4 296/354/4 295/355/4
f 298/356/6 294/357/6 293/358/6 296/359/6
f 299/360/1 300/361/1 302/362/1 301/363/1
f 304/364/6 302/362/6 300/365/6 303/366/6
f 308/367/6 306/368/6 305/369/6 307/370/6
f 312/371/6 310/372/6 309/373/6 311/374/6
f 317/375/4 318/376/4 316/377/4 315/378/4
f 318/379/6 314/380/6 313/381/6 316/382/6
f 319/383/1 320/384/1 322/385/1 321/386/1
f 321/387/5 322/388/5 325/389/5 324/390/5
f 325/391/6 322/385/6 320/392/6 323/393/6
f 327/394/5 328/395/5 331/396/5 330/397/5
f 331/398/6 328/399/6 326/400/6 329/401/6
f 333/402/5 334/403/5 337/404/5 336/405/5
f 337/406/6 334/407/6 332/408/6 335/409/6
f 339/410/5 340/411/5 344/412/5 343/413/5
f 343/413/4 344/414/4 342/415/4 341/416/4
f 344/417/6 340/418/6 338/419/6 342/420/6
